%TF.GenerationSoftware,KiCad,Pcbnew,6.0.6-3a73a75311~116~ubuntu20.04.1*%
%TF.CreationDate,2022-07-05T10:29:56+02:00*%
%TF.ProjectId,Temperature_Tire_Sensor,54656d70-6572-4617-9475-72655f546972,rev?*%
%TF.SameCoordinates,Original*%
%TF.FileFunction,Copper,L1,Top*%
%TF.FilePolarity,Positive*%
%FSLAX46Y46*%
G04 Gerber Fmt 4.6, Leading zero omitted, Abs format (unit mm)*
G04 Created by KiCad (PCBNEW 6.0.6-3a73a75311~116~ubuntu20.04.1) date 2022-07-05 10:29:56*
%MOMM*%
%LPD*%
G01*
G04 APERTURE LIST*
G04 Aperture macros list*
%AMRoundRect*
0 Rectangle with rounded corners*
0 $1 Rounding radius*
0 $2 $3 $4 $5 $6 $7 $8 $9 X,Y pos of 4 corners*
0 Add a 4 corners polygon primitive as box body*
4,1,4,$2,$3,$4,$5,$6,$7,$8,$9,$2,$3,0*
0 Add four circle primitives for the rounded corners*
1,1,$1+$1,$2,$3*
1,1,$1+$1,$4,$5*
1,1,$1+$1,$6,$7*
1,1,$1+$1,$8,$9*
0 Add four rect primitives between the rounded corners*
20,1,$1+$1,$2,$3,$4,$5,0*
20,1,$1+$1,$4,$5,$6,$7,0*
20,1,$1+$1,$6,$7,$8,$9,0*
20,1,$1+$1,$8,$9,$2,$3,0*%
%AMRotRect*
0 Rectangle, with rotation*
0 The origin of the aperture is its center*
0 $1 length*
0 $2 width*
0 $3 Rotation angle, in degrees counterclockwise*
0 Add horizontal line*
21,1,$1,$2,0,0,$3*%
G04 Aperture macros list end*
%TA.AperFunction,SMDPad,CuDef*%
%ADD10RoundRect,0.225000X0.250000X-0.225000X0.250000X0.225000X-0.250000X0.225000X-0.250000X-0.225000X0*%
%TD*%
%TA.AperFunction,SMDPad,CuDef*%
%ADD11RoundRect,0.150000X-0.825000X-0.150000X0.825000X-0.150000X0.825000X0.150000X-0.825000X0.150000X0*%
%TD*%
%TA.AperFunction,SMDPad,CuDef*%
%ADD12RoundRect,0.225000X0.225000X0.250000X-0.225000X0.250000X-0.225000X-0.250000X0.225000X-0.250000X0*%
%TD*%
%TA.AperFunction,SMDPad,CuDef*%
%ADD13RoundRect,0.225000X-0.225000X-0.250000X0.225000X-0.250000X0.225000X0.250000X-0.225000X0.250000X0*%
%TD*%
%TA.AperFunction,SMDPad,CuDef*%
%ADD14RoundRect,0.075000X0.700000X0.075000X-0.700000X0.075000X-0.700000X-0.075000X0.700000X-0.075000X0*%
%TD*%
%TA.AperFunction,SMDPad,CuDef*%
%ADD15RoundRect,0.075000X0.075000X0.700000X-0.075000X0.700000X-0.075000X-0.700000X0.075000X-0.700000X0*%
%TD*%
%TA.AperFunction,SMDPad,CuDef*%
%ADD16RoundRect,0.200000X0.200000X0.275000X-0.200000X0.275000X-0.200000X-0.275000X0.200000X-0.275000X0*%
%TD*%
%TA.AperFunction,SMDPad,CuDef*%
%ADD17RoundRect,0.150000X-0.512500X-0.150000X0.512500X-0.150000X0.512500X0.150000X-0.512500X0.150000X0*%
%TD*%
%TA.AperFunction,SMDPad,CuDef*%
%ADD18RoundRect,0.225000X-0.250000X0.225000X-0.250000X-0.225000X0.250000X-0.225000X0.250000X0.225000X0*%
%TD*%
%TA.AperFunction,SMDPad,CuDef*%
%ADD19RoundRect,0.200000X0.275000X-0.200000X0.275000X0.200000X-0.275000X0.200000X-0.275000X-0.200000X0*%
%TD*%
%TA.AperFunction,ComponentPad*%
%ADD20C,4.500000*%
%TD*%
%TA.AperFunction,SMDPad,CuDef*%
%ADD21RoundRect,0.218750X0.256250X-0.218750X0.256250X0.218750X-0.256250X0.218750X-0.256250X-0.218750X0*%
%TD*%
%TA.AperFunction,SMDPad,CuDef*%
%ADD22R,1.750000X1.200000*%
%TD*%
%TA.AperFunction,SMDPad,CuDef*%
%ADD23RoundRect,0.218750X-0.256250X0.218750X-0.256250X-0.218750X0.256250X-0.218750X0.256250X0.218750X0*%
%TD*%
%TA.AperFunction,SMDPad,CuDef*%
%ADD24RoundRect,0.250000X0.750000X-0.250000X0.750000X0.250000X-0.750000X0.250000X-0.750000X-0.250000X0*%
%TD*%
%TA.AperFunction,SMDPad,CuDef*%
%ADD25RoundRect,0.200000X-0.200000X-0.275000X0.200000X-0.275000X0.200000X0.275000X-0.200000X0.275000X0*%
%TD*%
%TA.AperFunction,SMDPad,CuDef*%
%ADD26RoundRect,0.150000X0.825000X0.150000X-0.825000X0.150000X-0.825000X-0.150000X0.825000X-0.150000X0*%
%TD*%
%TA.AperFunction,SMDPad,CuDef*%
%ADD27RoundRect,0.218750X0.218750X0.256250X-0.218750X0.256250X-0.218750X-0.256250X0.218750X-0.256250X0*%
%TD*%
%TA.AperFunction,SMDPad,CuDef*%
%ADD28RoundRect,0.243750X0.456250X-0.243750X0.456250X0.243750X-0.456250X0.243750X-0.456250X-0.243750X0*%
%TD*%
%TA.AperFunction,SMDPad,CuDef*%
%ADD29R,0.800000X0.900000*%
%TD*%
%TA.AperFunction,ComponentPad*%
%ADD30RotRect,1.192000X1.192000X45.000000*%
%TD*%
%TA.AperFunction,ComponentPad*%
%ADD31C,1.192000*%
%TD*%
%TA.AperFunction,ComponentPad*%
%ADD32R,1.700000X1.700000*%
%TD*%
%TA.AperFunction,ComponentPad*%
%ADD33O,1.700000X1.700000*%
%TD*%
%TA.AperFunction,SMDPad,CuDef*%
%ADD34R,1.150000X1.400000*%
%TD*%
%TA.AperFunction,ViaPad*%
%ADD35C,0.800000*%
%TD*%
%TA.AperFunction,Conductor*%
%ADD36C,0.300000*%
%TD*%
%TA.AperFunction,Conductor*%
%ADD37C,0.250000*%
%TD*%
%TA.AperFunction,Conductor*%
%ADD38C,0.500000*%
%TD*%
%TA.AperFunction,Conductor*%
%ADD39C,0.750000*%
%TD*%
G04 APERTURE END LIST*
D10*
%TO.P,C13,1*%
%TO.N,+3V3*%
X110250000Y-106275000D03*
%TO.P,C13,2*%
%TO.N,GND*%
X110250000Y-104725000D03*
%TD*%
D11*
%TO.P,U2,1,~{ERROR}*%
%TO.N,unconnected-(U2-Pad1)*%
X112775000Y-104345000D03*
%TO.P,U2,2,IN*%
%TO.N,Net-(F1-Pad2)*%
X112775000Y-105615000D03*
%TO.P,U2,3,OUT*%
%TO.N,+3V3*%
X112775000Y-106885000D03*
%TO.P,U2,4,EN*%
%TO.N,Net-(F1-Pad2)*%
X112775000Y-108155000D03*
%TO.P,U2,5,GND*%
%TO.N,GND*%
X117725000Y-108155000D03*
%TO.P,U2,6,GND*%
X117725000Y-106885000D03*
%TO.P,U2,7,GND*%
X117725000Y-105615000D03*
%TO.P,U2,8,GND*%
X117725000Y-104345000D03*
%TD*%
D12*
%TO.P,C1,1*%
%TO.N,/NRST*%
X120525000Y-112522000D03*
%TO.P,C1,2*%
%TO.N,GND*%
X118975000Y-112522000D03*
%TD*%
D13*
%TO.P,C6,1*%
%TO.N,/+3V3_uC*%
X130725000Y-97000000D03*
%TO.P,C6,2*%
%TO.N,GND*%
X132275000Y-97000000D03*
%TD*%
D14*
%TO.P,U1,1,VBAT*%
%TO.N,/+3V3_uC*%
X133925000Y-108500000D03*
%TO.P,U1,2,PC13*%
%TO.N,unconnected-(U1-Pad2)*%
X133925000Y-108000000D03*
%TO.P,U1,3,PC14-OSC32_IN*%
%TO.N,unconnected-(U1-Pad3)*%
X133925000Y-107500000D03*
%TO.P,U1,4,PC15-OSC32_OUT*%
%TO.N,unconnected-(U1-Pad4)*%
X133925000Y-107000000D03*
%TO.P,U1,5,PH0-OSC_IN*%
%TO.N,/OSC_IN*%
X133925000Y-106500000D03*
%TO.P,U1,6,PH1-OSC_OUT*%
%TO.N,/OSC_OUT*%
X133925000Y-106000000D03*
%TO.P,U1,7,NRST*%
%TO.N,/NRST*%
X133925000Y-105500000D03*
%TO.P,U1,8,PC0*%
%TO.N,unconnected-(U1-Pad8)*%
X133925000Y-105000000D03*
%TO.P,U1,9,PC1*%
%TO.N,unconnected-(U1-Pad9)*%
X133925000Y-104500000D03*
%TO.P,U1,10,PC2*%
%TO.N,unconnected-(U1-Pad10)*%
X133925000Y-104000000D03*
%TO.P,U1,11,PC3*%
%TO.N,unconnected-(U1-Pad11)*%
X133925000Y-103500000D03*
%TO.P,U1,12,VSSA/VREF-*%
%TO.N,GND*%
X133925000Y-103000000D03*
%TO.P,U1,13,VDDA/VREF+*%
%TO.N,/+3V3_uC*%
X133925000Y-102500000D03*
%TO.P,U1,14,PA0*%
%TO.N,unconnected-(U1-Pad14)*%
X133925000Y-102000000D03*
%TO.P,U1,15,PA1*%
%TO.N,unconnected-(U1-Pad15)*%
X133925000Y-101500000D03*
%TO.P,U1,16,PA2*%
%TO.N,/LED_WAR2*%
X133925000Y-101000000D03*
D15*
%TO.P,U1,17,PA3*%
%TO.N,unconnected-(U1-Pad17)*%
X132000000Y-99075000D03*
%TO.P,U1,18,VSS*%
%TO.N,GND*%
X131500000Y-99075000D03*
%TO.P,U1,19,VDD*%
%TO.N,/+3V3_uC*%
X131000000Y-99075000D03*
%TO.P,U1,20,PA4*%
%TO.N,unconnected-(U1-Pad20)*%
X130500000Y-99075000D03*
%TO.P,U1,21,PA5*%
%TO.N,unconnected-(U1-Pad21)*%
X130000000Y-99075000D03*
%TO.P,U1,22,PA6*%
%TO.N,/LED_ERR*%
X129500000Y-99075000D03*
%TO.P,U1,23,PA7*%
%TO.N,unconnected-(U1-Pad23)*%
X129000000Y-99075000D03*
%TO.P,U1,24,PC4*%
%TO.N,/LED_WAR1*%
X128500000Y-99075000D03*
%TO.P,U1,25,PC5*%
%TO.N,unconnected-(U1-Pad25)*%
X128000000Y-99075000D03*
%TO.P,U1,26,PB0*%
%TO.N,/LED_OK*%
X127500000Y-99075000D03*
%TO.P,U1,27,PB1*%
%TO.N,unconnected-(U1-Pad27)*%
X127000000Y-99075000D03*
%TO.P,U1,28,PB2*%
%TO.N,unconnected-(U1-Pad28)*%
X126500000Y-99075000D03*
%TO.P,U1,29,PB10*%
%TO.N,/SCL*%
X126000000Y-99075000D03*
%TO.P,U1,30,PB11*%
%TO.N,/SDA*%
X125500000Y-99075000D03*
%TO.P,U1,31,VSS*%
%TO.N,GND*%
X125000000Y-99075000D03*
%TO.P,U1,32,VDD*%
%TO.N,/+3V3_uC*%
X124500000Y-99075000D03*
D14*
%TO.P,U1,33,PB12*%
%TO.N,unconnected-(U1-Pad33)*%
X122575000Y-101000000D03*
%TO.P,U1,34,PB13*%
%TO.N,unconnected-(U1-Pad34)*%
X122575000Y-101500000D03*
%TO.P,U1,35,PB14*%
%TO.N,unconnected-(U1-Pad35)*%
X122575000Y-102000000D03*
%TO.P,U1,36,PB15*%
%TO.N,unconnected-(U1-Pad36)*%
X122575000Y-102500000D03*
%TO.P,U1,37,PC6*%
%TO.N,unconnected-(U1-Pad37)*%
X122575000Y-103000000D03*
%TO.P,U1,38,PC7*%
%TO.N,unconnected-(U1-Pad38)*%
X122575000Y-103500000D03*
%TO.P,U1,39,PC8*%
%TO.N,unconnected-(U1-Pad39)*%
X122575000Y-104000000D03*
%TO.P,U1,40,PC9*%
%TO.N,unconnected-(U1-Pad40)*%
X122575000Y-104500000D03*
%TO.P,U1,41,PA8*%
%TO.N,unconnected-(U1-Pad41)*%
X122575000Y-105000000D03*
%TO.P,U1,42,PA9*%
%TO.N,unconnected-(U1-Pad42)*%
X122575000Y-105500000D03*
%TO.P,U1,43,PA10*%
%TO.N,unconnected-(U1-Pad43)*%
X122575000Y-106000000D03*
%TO.P,U1,44,PA11*%
%TO.N,/CAN_RX*%
X122575000Y-106500000D03*
%TO.P,U1,45,PA12*%
%TO.N,/CAN_TX*%
X122575000Y-107000000D03*
%TO.P,U1,46,PA13*%
%TO.N,/SWDIO*%
X122575000Y-107500000D03*
%TO.P,U1,47,VSS*%
%TO.N,GND*%
X122575000Y-108000000D03*
%TO.P,U1,48,VDDUSB*%
%TO.N,/+3V3_uC*%
X122575000Y-108500000D03*
D15*
%TO.P,U1,49,PA14*%
%TO.N,/SWCLK*%
X124500000Y-110425000D03*
%TO.P,U1,50,PA15*%
%TO.N,unconnected-(U1-Pad50)*%
X125000000Y-110425000D03*
%TO.P,U1,51,PC10*%
%TO.N,unconnected-(U1-Pad51)*%
X125500000Y-110425000D03*
%TO.P,U1,52,PC11*%
%TO.N,unconnected-(U1-Pad52)*%
X126000000Y-110425000D03*
%TO.P,U1,53,PC12*%
%TO.N,unconnected-(U1-Pad53)*%
X126500000Y-110425000D03*
%TO.P,U1,54,PD2*%
%TO.N,unconnected-(U1-Pad54)*%
X127000000Y-110425000D03*
%TO.P,U1,55,PB3*%
%TO.N,/SWO*%
X127500000Y-110425000D03*
%TO.P,U1,56,PB4*%
%TO.N,unconnected-(U1-Pad56)*%
X128000000Y-110425000D03*
%TO.P,U1,57,PB5*%
%TO.N,unconnected-(U1-Pad57)*%
X128500000Y-110425000D03*
%TO.P,U1,58,PB6*%
%TO.N,unconnected-(U1-Pad58)*%
X129000000Y-110425000D03*
%TO.P,U1,59,PB7*%
%TO.N,unconnected-(U1-Pad59)*%
X129500000Y-110425000D03*
%TO.P,U1,60,PH3-BOOT*%
%TO.N,Net-(R1-Pad1)*%
X130000000Y-110425000D03*
%TO.P,U1,61,PB8*%
%TO.N,unconnected-(U1-Pad61)*%
X130500000Y-110425000D03*
%TO.P,U1,62,PB9*%
%TO.N,unconnected-(U1-Pad62)*%
X131000000Y-110425000D03*
%TO.P,U1,63,VSS*%
%TO.N,GND*%
X131500000Y-110425000D03*
%TO.P,U1,64,VDD*%
%TO.N,/+3V3_uC*%
X132000000Y-110425000D03*
%TD*%
D16*
%TO.P,R5,1*%
%TO.N,+3V3*%
X136825000Y-99250000D03*
%TO.P,R5,2*%
%TO.N,/SDA*%
X135175000Y-99250000D03*
%TD*%
D17*
%TO.P,U3,1,VIN*%
%TO.N,Net-(C11-Pad1)*%
X140362500Y-115050000D03*
%TO.P,U3,2,GND*%
%TO.N,GND*%
X140362500Y-116000000D03*
%TO.P,U3,3,EN*%
%TO.N,Net-(C11-Pad1)*%
X140362500Y-116950000D03*
%TO.P,U3,4,NC*%
%TO.N,unconnected-(U3-Pad4)*%
X142637500Y-116950000D03*
%TO.P,U3,5,VOUT*%
%TO.N,+2V6*%
X142637500Y-115050000D03*
%TD*%
D18*
%TO.P,C3,1*%
%TO.N,/+3V3_uC*%
X136000000Y-108475000D03*
%TO.P,C3,2*%
%TO.N,GND*%
X136000000Y-110025000D03*
%TD*%
D19*
%TO.P,R8,1*%
%TO.N,Net-(D3-Pad1)*%
X139500000Y-101825000D03*
%TO.P,R8,2*%
%TO.N,GND*%
X139500000Y-100175000D03*
%TD*%
D10*
%TO.P,C14,1*%
%TO.N,Net-(C14-Pad1)*%
X143500000Y-110525000D03*
%TO.P,C14,2*%
%TO.N,GND*%
X143500000Y-108975000D03*
%TD*%
D20*
%TO.P,H2,1,1*%
%TO.N,GND*%
X153000000Y-115000000D03*
%TD*%
D21*
%TO.P,D3,1,K*%
%TO.N,Net-(D3-Pad1)*%
X141500000Y-101787500D03*
%TO.P,D3,2,A*%
%TO.N,/LED_WAR1*%
X141500000Y-100212500D03*
%TD*%
D20*
%TO.P,H3,1,1*%
%TO.N,GND*%
X103000000Y-99000000D03*
%TD*%
D22*
%TO.P,SW1,1,1*%
%TO.N,GND*%
X109875000Y-114500000D03*
%TO.P,SW1,2,2*%
%TO.N,Net-(R3-Pad1)*%
X116125000Y-114500000D03*
%TD*%
D12*
%TO.P,C5,1*%
%TO.N,/OSC_IN*%
X141025000Y-109750000D03*
%TO.P,C5,2*%
%TO.N,GND*%
X139475000Y-109750000D03*
%TD*%
D21*
%TO.P,D1,1,K*%
%TO.N,Net-(D1-Pad1)*%
X143500000Y-98537500D03*
%TO.P,D1,2,A*%
%TO.N,/LED_ERR*%
X143500000Y-96962500D03*
%TD*%
D23*
%TO.P,FB4,1*%
%TO.N,+3V3*%
X121500000Y-97212500D03*
%TO.P,FB4,2*%
%TO.N,Net-(FB4-Pad2)*%
X121500000Y-98787500D03*
%TD*%
D13*
%TO.P,C7,1*%
%TO.N,Net-(C7-Pad1)*%
X139475000Y-103750000D03*
%TO.P,C7,2*%
%TO.N,GND*%
X141025000Y-103750000D03*
%TD*%
D24*
%TO.P,J2,1,Pin_1*%
%TO.N,+24V*%
X102000000Y-110750000D03*
%TO.P,J2,2,Pin_2*%
%TO.N,/CAN_H*%
X102000000Y-108250000D03*
%TO.P,J2,3,Pin_3*%
%TO.N,/CAN_L*%
X102000000Y-105750000D03*
%TO.P,J2,4,Pin_4*%
%TO.N,GND*%
X102000000Y-103250000D03*
%TD*%
D25*
%TO.P,R12,1*%
%TO.N,Net-(D6-Pad1)*%
X116175000Y-110250000D03*
%TO.P,R12,2*%
%TO.N,GND*%
X117825000Y-110250000D03*
%TD*%
%TO.P,R7,1*%
%TO.N,/CAN_H*%
X109425000Y-97500000D03*
%TO.P,R7,2*%
%TO.N,/CAN_L*%
X111075000Y-97500000D03*
%TD*%
D12*
%TO.P,C10,1*%
%TO.N,/+3V3_uC*%
X132525000Y-112500000D03*
%TO.P,C10,2*%
%TO.N,GND*%
X130975000Y-112500000D03*
%TD*%
D13*
%TO.P,C2,1*%
%TO.N,/+3V3_uC*%
X134475000Y-112500000D03*
%TO.P,C2,2*%
%TO.N,GND*%
X136025000Y-112500000D03*
%TD*%
D26*
%TO.P,U4,1,D*%
%TO.N,/CAN_TX*%
X118975000Y-101405000D03*
%TO.P,U4,2,GND*%
%TO.N,GND*%
X118975000Y-100135000D03*
%TO.P,U4,3,VCC*%
%TO.N,Net-(FB4-Pad2)*%
X118975000Y-98865000D03*
%TO.P,U4,4,R*%
%TO.N,/CAN_RX*%
X118975000Y-97595000D03*
%TO.P,U4,5,NC*%
%TO.N,unconnected-(U4-Pad5)*%
X114025000Y-97595000D03*
%TO.P,U4,6,CANL*%
%TO.N,/CAN_L*%
X114025000Y-98865000D03*
%TO.P,U4,7,CANH*%
%TO.N,/CAN_H*%
X114025000Y-100135000D03*
%TO.P,U4,8,NC*%
%TO.N,unconnected-(U4-Pad8)*%
X114025000Y-101405000D03*
%TD*%
D16*
%TO.P,R10,1*%
%TO.N,/NRST*%
X120575000Y-116500000D03*
%TO.P,R10,2*%
%TO.N,+3V3*%
X118925000Y-116500000D03*
%TD*%
D20*
%TO.P,H1,1,1*%
%TO.N,GND*%
X153000000Y-99000000D03*
%TD*%
D10*
%TO.P,C9,1*%
%TO.N,/+3V3_uC*%
X120500000Y-109275000D03*
%TO.P,C9,2*%
%TO.N,GND*%
X120500000Y-107725000D03*
%TD*%
D21*
%TO.P,D4,1,K*%
%TO.N,Net-(D4-Pad1)*%
X145500000Y-101787500D03*
%TO.P,D4,2,A*%
%TO.N,/LED_WAR2*%
X145500000Y-100212500D03*
%TD*%
D16*
%TO.P,R6,1*%
%TO.N,+3V3*%
X136825000Y-97000000D03*
%TO.P,R6,2*%
%TO.N,/SCL*%
X135175000Y-97000000D03*
%TD*%
D27*
%TO.P,D6,1,K*%
%TO.N,Net-(D6-Pad1)*%
X114287500Y-110250000D03*
%TO.P,D6,2,A*%
%TO.N,+3V3*%
X112712500Y-110250000D03*
%TD*%
D25*
%TO.P,R3,1*%
%TO.N,Net-(R3-Pad1)*%
X118925000Y-114500000D03*
%TO.P,R3,2*%
%TO.N,/NRST*%
X120575000Y-114500000D03*
%TD*%
D16*
%TO.P,R1,1*%
%TO.N,Net-(R1-Pad1)*%
X129075000Y-112500000D03*
%TO.P,R1,2*%
%TO.N,GND*%
X127425000Y-112500000D03*
%TD*%
D21*
%TO.P,D5,1,K*%
%TO.N,Net-(D5-Pad1)*%
X139500000Y-98537500D03*
%TO.P,D5,2,A*%
%TO.N,/LED_OK*%
X139500000Y-96962500D03*
%TD*%
D28*
%TO.P,F1,1*%
%TO.N,+24V*%
X109750000Y-110187500D03*
%TO.P,F1,2*%
%TO.N,Net-(F1-Pad2)*%
X109750000Y-108312500D03*
%TD*%
D25*
%TO.P,R4,1*%
%TO.N,/OSC_OUT*%
X135925000Y-105500000D03*
%TO.P,R4,2*%
%TO.N,Net-(C7-Pad1)*%
X137575000Y-105500000D03*
%TD*%
D29*
%TO.P,D2,1,K*%
%TO.N,/CAN_L*%
X111200000Y-99000000D03*
%TO.P,D2,2,K*%
%TO.N,/CAN_H*%
X109300000Y-99000000D03*
%TO.P,D2,3,A*%
%TO.N,GND*%
X110250000Y-101000000D03*
%TD*%
D18*
%TO.P,C12,1*%
%TO.N,+2V6*%
X145000000Y-114475000D03*
%TO.P,C12,2*%
%TO.N,GND*%
X145000000Y-116025000D03*
%TD*%
D30*
%TO.P,IC1,1,SCL*%
%TO.N,/SCL*%
X151796051Y-105203949D03*
D31*
%TO.P,IC1,2,SDA*%
%TO.N,/SDA*%
X148203949Y-105203949D03*
%TO.P,IC1,3,VDD*%
%TO.N,Net-(C14-Pad1)*%
X148203949Y-108796051D03*
%TO.P,IC1,4,GND*%
%TO.N,GND*%
X151796051Y-108796051D03*
%TD*%
D19*
%TO.P,R2,1*%
%TO.N,Net-(D1-Pad1)*%
X145500000Y-98575000D03*
%TO.P,R2,2*%
%TO.N,GND*%
X145500000Y-96925000D03*
%TD*%
D23*
%TO.P,FB2,1*%
%TO.N,+3V3*%
X139500000Y-111712500D03*
%TO.P,FB2,2*%
%TO.N,Net-(C11-Pad1)*%
X139500000Y-113287500D03*
%TD*%
D13*
%TO.P,C8,1*%
%TO.N,/+3V3_uC*%
X123725000Y-97000000D03*
%TO.P,C8,2*%
%TO.N,GND*%
X125275000Y-97000000D03*
%TD*%
D32*
%TO.P,J1,1,Pin_1*%
%TO.N,+3V3*%
X123900000Y-116000000D03*
D33*
%TO.P,J1,2,Pin_2*%
%TO.N,/SWCLK*%
X126440000Y-116000000D03*
%TO.P,J1,3,Pin_3*%
%TO.N,GND*%
X128980000Y-116000000D03*
%TO.P,J1,4,Pin_4*%
%TO.N,/SWDIO*%
X131520000Y-116000000D03*
%TO.P,J1,5,Pin_5*%
%TO.N,/NRST*%
X134060000Y-116000000D03*
%TO.P,J1,6,Pin_6*%
%TO.N,/SWO*%
X136600000Y-116000000D03*
%TD*%
D18*
%TO.P,C4,1*%
%TO.N,/+3V3_uC*%
X136002000Y-101975000D03*
%TO.P,C4,2*%
%TO.N,GND*%
X136002000Y-103525000D03*
%TD*%
D34*
%TO.P,Y1,1,1*%
%TO.N,/OSC_IN*%
X141050000Y-107850000D03*
%TO.P,Y1,2,2*%
%TO.N,GND*%
X141050000Y-105650000D03*
%TO.P,Y1,3,3*%
%TO.N,Net-(C7-Pad1)*%
X139450000Y-105650000D03*
%TO.P,Y1,4,4*%
%TO.N,GND*%
X139450000Y-107850000D03*
%TD*%
D19*
%TO.P,R9,1*%
%TO.N,Net-(D4-Pad1)*%
X143500000Y-101825000D03*
%TO.P,R9,2*%
%TO.N,GND*%
X143500000Y-100175000D03*
%TD*%
D10*
%TO.P,C11,1*%
%TO.N,Net-(C11-Pad1)*%
X141500000Y-113275000D03*
%TO.P,C11,2*%
%TO.N,GND*%
X141500000Y-111725000D03*
%TD*%
D21*
%TO.P,FB1,1*%
%TO.N,+3V3*%
X122500000Y-112537500D03*
%TO.P,FB1,2*%
%TO.N,/+3V3_uC*%
X122500000Y-110962500D03*
%TD*%
D19*
%TO.P,R11,1*%
%TO.N,Net-(D5-Pad1)*%
X141500000Y-98575000D03*
%TO.P,R11,2*%
%TO.N,GND*%
X141500000Y-96925000D03*
%TD*%
D27*
%TO.P,FB3,1*%
%TO.N,+2V6*%
X145037500Y-112500000D03*
%TO.P,FB3,2*%
%TO.N,Net-(C14-Pad1)*%
X143462500Y-112500000D03*
%TD*%
D20*
%TO.P,H4,1,1*%
%TO.N,GND*%
X103000000Y-115000000D03*
%TD*%
D35*
%TO.N,GND*%
X109250000Y-104750000D03*
X108550000Y-114500000D03*
X135700000Y-113400000D03*
X142400000Y-96900000D03*
X131300000Y-113400000D03*
X116300000Y-105650000D03*
X132000000Y-103000000D03*
X143000000Y-107000000D03*
X119600000Y-107750000D03*
X119150000Y-104350000D03*
X145000000Y-116900000D03*
X140400000Y-100200000D03*
X136900000Y-103200000D03*
X117800000Y-111150000D03*
X110250000Y-102350000D03*
X143000000Y-106000000D03*
X144400000Y-100200000D03*
X143500000Y-108100000D03*
X120350000Y-100150000D03*
X102000000Y-102300000D03*
X125250000Y-96100000D03*
X118100000Y-112550000D03*
X126600000Y-112500000D03*
X142400000Y-111700000D03*
X124500000Y-102250000D03*
X116300000Y-104350000D03*
X138000000Y-108000000D03*
X119150000Y-106900000D03*
X146400000Y-96900000D03*
X116300000Y-106900000D03*
X131250000Y-105500000D03*
X117500000Y-96250000D03*
X133150000Y-97000000D03*
X142400000Y-103800000D03*
X141500000Y-116000000D03*
X116250000Y-108150000D03*
X113750000Y-96250000D03*
X138100000Y-109700000D03*
X136900000Y-109700000D03*
X143000000Y-105000000D03*
X102000000Y-104200000D03*
%TO.N,+3V3*%
X120600000Y-97000000D03*
X109250000Y-106250000D03*
X137700000Y-97000000D03*
X138600000Y-111700000D03*
X112700000Y-109350000D03*
X118900000Y-115600000D03*
X137600000Y-98700000D03*
X122500000Y-113400000D03*
%TO.N,/LED_ERR*%
X128500000Y-97700500D03*
X144425500Y-96900000D03*
%TO.N,/SWCLK*%
X124500000Y-113250000D03*
%TO.N,/SWDIO*%
X124250000Y-107500000D03*
%TO.N,/SWO*%
X127500000Y-109000000D03*
%TO.N,/+3V3_uC*%
X129800000Y-97000000D03*
X119600000Y-109150000D03*
X136000000Y-101100000D03*
X124000000Y-96100000D03*
X121600000Y-110950000D03*
X133500000Y-112500000D03*
X136000000Y-107600000D03*
%TO.N,/CAN_RX*%
X120000000Y-105500000D03*
X124750000Y-105524753D03*
%TO.N,/LED_WAR1*%
X142400000Y-100200000D03*
X129069974Y-100449500D03*
%TO.N,/LED_WAR2*%
X134250000Y-100250000D03*
X146570023Y-100200000D03*
%TO.N,/LED_OK*%
X140400000Y-96900000D03*
X127500000Y-97700000D03*
%TD*%
D36*
%TO.N,/NRST*%
X134159970Y-116000000D02*
X135659970Y-114500000D01*
X134060000Y-116000000D02*
X134159970Y-116000000D01*
X120575000Y-116500000D02*
X120575000Y-114500000D01*
D37*
X121750000Y-114500000D02*
X120575000Y-115675000D01*
D36*
X137500000Y-114250000D02*
X137500000Y-111500000D01*
X132000000Y-106000000D02*
X132500000Y-105500000D01*
D38*
X120521000Y-114446000D02*
X120575000Y-114500000D01*
D37*
X120575000Y-115675000D02*
X120575000Y-116500000D01*
D36*
X137250000Y-111250000D02*
X134750000Y-111250000D01*
D37*
X134060000Y-116000000D02*
X132560000Y-114500000D01*
D36*
X135659970Y-114500000D02*
X137250000Y-114500000D01*
X137500000Y-111500000D02*
X137250000Y-111250000D01*
X134750000Y-111250000D02*
X132000000Y-108500000D01*
X120525000Y-112522000D02*
X120525000Y-114450000D01*
X120525000Y-114450000D02*
X120575000Y-114500000D01*
X132000000Y-108500000D02*
X132000000Y-106000000D01*
D37*
X132560000Y-114500000D02*
X121750000Y-114500000D01*
D36*
X132500000Y-105500000D02*
X133925000Y-105500000D01*
X137250000Y-114500000D02*
X137500000Y-114250000D01*
D38*
%TO.N,GND*%
X117800000Y-110275000D02*
X117825000Y-110250000D01*
X117725000Y-106885000D02*
X117725000Y-108155000D01*
D39*
X116300000Y-104350000D02*
X119150000Y-104350000D01*
D36*
X142350000Y-103750000D02*
X142400000Y-103800000D01*
X125000000Y-99075000D02*
X125000000Y-97275000D01*
D38*
X142375000Y-96925000D02*
X142400000Y-96900000D01*
X136900000Y-103200000D02*
X136327000Y-103200000D01*
D39*
X117720000Y-108150000D02*
X117725000Y-108155000D01*
D38*
X117725000Y-104345000D02*
X117725000Y-105615000D01*
X117725000Y-105615000D02*
X117725000Y-106885000D01*
D36*
X138150000Y-109750000D02*
X138100000Y-109700000D01*
D38*
X119600000Y-107750000D02*
X120475000Y-107750000D01*
X136025000Y-112500000D02*
X136025000Y-112775000D01*
D36*
X131500000Y-111975000D02*
X130975000Y-112500000D01*
X131500000Y-97775000D02*
X132275000Y-97000000D01*
D38*
X145000000Y-116900000D02*
X145000000Y-116025000D01*
D36*
X139450000Y-107850000D02*
X139450000Y-109725000D01*
D38*
X142400000Y-111700000D02*
X142375000Y-111725000D01*
X120475000Y-107750000D02*
X120500000Y-107725000D01*
X136025000Y-112775000D02*
X135700000Y-113100000D01*
X136900000Y-109700000D02*
X136325000Y-109700000D01*
D36*
X139450000Y-109725000D02*
X139475000Y-109750000D01*
D38*
X146375000Y-96925000D02*
X145500000Y-96925000D01*
X141500000Y-96925000D02*
X142375000Y-96925000D01*
X131300000Y-113400000D02*
X131300000Y-112825000D01*
X117800000Y-111150000D02*
X117800000Y-110275000D01*
X140362500Y-116000000D02*
X144975000Y-116000000D01*
X143500000Y-108100000D02*
X143500000Y-108975000D01*
D36*
X120775000Y-108000000D02*
X122575000Y-108000000D01*
D38*
X133150000Y-97000000D02*
X132275000Y-97000000D01*
X142375000Y-111725000D02*
X141500000Y-111725000D01*
D36*
X135477000Y-103000000D02*
X136002000Y-103525000D01*
D38*
X143525000Y-100200000D02*
X143500000Y-100175000D01*
X127425000Y-112500000D02*
X126600000Y-112500000D01*
X108550000Y-114500000D02*
X109875000Y-114500000D01*
D36*
X141025000Y-103750000D02*
X142350000Y-103750000D01*
D38*
X125250000Y-96100000D02*
X125250000Y-96975000D01*
D39*
X117690000Y-105650000D02*
X117725000Y-105615000D01*
D38*
X118100000Y-112550000D02*
X118947000Y-112550000D01*
D39*
X116300000Y-106900000D02*
X117710000Y-106900000D01*
D38*
X120350000Y-100150000D02*
X118990000Y-100150000D01*
X139525000Y-100200000D02*
X139500000Y-100175000D01*
X118990000Y-100150000D02*
X118975000Y-100135000D01*
X118947000Y-112550000D02*
X118975000Y-112522000D01*
D36*
X141050000Y-105650000D02*
X141050000Y-103775000D01*
X139475000Y-109750000D02*
X138150000Y-109750000D01*
D38*
X110250000Y-102350000D02*
X110250000Y-101500000D01*
D39*
X119150000Y-106900000D02*
X117740000Y-106900000D01*
D38*
X136327000Y-103200000D02*
X136002000Y-103525000D01*
D36*
X125000000Y-97275000D02*
X125275000Y-97000000D01*
X120500000Y-107725000D02*
X120775000Y-108000000D01*
D38*
X136325000Y-109700000D02*
X136000000Y-110025000D01*
D39*
X109250000Y-104750000D02*
X109275000Y-104725000D01*
D38*
X140400000Y-100200000D02*
X139525000Y-100200000D01*
D39*
X102000000Y-102300000D02*
X102000000Y-104200000D01*
X117740000Y-106900000D02*
X117725000Y-106885000D01*
D38*
X141500000Y-116000000D02*
X140362500Y-116000000D01*
D39*
X116300000Y-105650000D02*
X117690000Y-105650000D01*
X117710000Y-106900000D02*
X117725000Y-106885000D01*
D38*
X144400000Y-100200000D02*
X143525000Y-100200000D01*
D36*
X133925000Y-103000000D02*
X135477000Y-103000000D01*
X131500000Y-99075000D02*
X131500000Y-97775000D01*
D39*
X116300000Y-108150000D02*
X117720000Y-108150000D01*
D38*
X144975000Y-116000000D02*
X145000000Y-116025000D01*
X131300000Y-112825000D02*
X130975000Y-112500000D01*
X135700000Y-113100000D02*
X135700000Y-113400000D01*
D36*
X131500000Y-110425000D02*
X131500000Y-111975000D01*
D38*
X125250000Y-96975000D02*
X125275000Y-97000000D01*
D39*
X109275000Y-104725000D02*
X110250000Y-104725000D01*
D38*
X146400000Y-96900000D02*
X146375000Y-96925000D01*
D36*
%TO.N,/OSC_IN*%
X138325978Y-106500000D02*
X138626467Y-106800489D01*
X141050000Y-107050000D02*
X141050000Y-107850000D01*
X133925000Y-106500000D02*
X138325978Y-106500000D01*
X138626467Y-106800489D02*
X140800489Y-106800489D01*
X141050000Y-109725000D02*
X141025000Y-109750000D01*
X140800489Y-106800489D02*
X141050000Y-107050000D01*
X141050000Y-107850000D02*
X141050000Y-109725000D01*
%TO.N,Net-(C7-Pad1)*%
X137725000Y-105650000D02*
X137575000Y-105500000D01*
X139450000Y-105650000D02*
X137725000Y-105650000D01*
X139450000Y-105650000D02*
X139450000Y-103775000D01*
X139450000Y-103775000D02*
X139475000Y-103750000D01*
D38*
%TO.N,Net-(C11-Pad1)*%
X139200000Y-115050000D02*
X138750000Y-115500000D01*
X139500000Y-113287500D02*
X141487500Y-113287500D01*
X138750000Y-116500000D02*
X139200000Y-116950000D01*
X140362500Y-115050000D02*
X139200000Y-115050000D01*
X141500000Y-113275000D02*
X141500000Y-113912500D01*
X138750000Y-115500000D02*
X138750000Y-116500000D01*
X139200000Y-116950000D02*
X140362500Y-116950000D01*
X141500000Y-113912500D02*
X140362500Y-115050000D01*
X141487500Y-113287500D02*
X141500000Y-113275000D01*
%TO.N,+2V6*%
X145000000Y-114475000D02*
X143212500Y-114475000D01*
X145037500Y-112500000D02*
X145037500Y-114437500D01*
X143212500Y-114475000D02*
X142637500Y-115050000D01*
X145037500Y-114437500D02*
X145000000Y-114475000D01*
%TO.N,+3V3*%
X138612500Y-111712500D02*
X139500000Y-111712500D01*
X120600000Y-97000000D02*
X121287500Y-97000000D01*
X137600000Y-98700000D02*
X137375000Y-98700000D01*
X112700000Y-109350000D02*
X112700000Y-110237500D01*
X118925000Y-115625000D02*
X118900000Y-115600000D01*
D39*
X112775000Y-106885000D02*
X110860000Y-106885000D01*
X110860000Y-106885000D02*
X110250000Y-106275000D01*
X109275000Y-106275000D02*
X110250000Y-106275000D01*
X109250000Y-106250000D02*
X109275000Y-106275000D01*
D38*
X112700000Y-110237500D02*
X112712500Y-110250000D01*
X136825000Y-97000000D02*
X137700000Y-97000000D01*
X121287500Y-97000000D02*
X121500000Y-97212500D01*
X137375000Y-98700000D02*
X136825000Y-99250000D01*
X138600000Y-111700000D02*
X138612500Y-111712500D01*
X122500000Y-113400000D02*
X122500000Y-112537500D01*
X118925000Y-116500000D02*
X118925000Y-115625000D01*
%TO.N,Net-(D1-Pad1)*%
X145462500Y-98537500D02*
X145500000Y-98575000D01*
X143500000Y-98537500D02*
X145462500Y-98537500D01*
D37*
%TO.N,/CAN_L*%
X111075000Y-97500000D02*
X111075000Y-97325000D01*
X108250000Y-97000000D02*
X108250000Y-98500000D01*
X103023982Y-105750000D02*
X102000000Y-105750000D01*
X111075000Y-97500000D02*
X111075000Y-98875000D01*
X111200000Y-99000000D02*
X113890000Y-99000000D01*
X113890000Y-99000000D02*
X114025000Y-98865000D01*
X103500000Y-103250000D02*
X103500000Y-105273982D01*
X111075000Y-97325000D02*
X110450480Y-96700480D01*
X103500000Y-105273982D02*
X103023982Y-105750000D01*
X110450480Y-96700480D02*
X108549520Y-96700480D01*
X111075000Y-98875000D02*
X111200000Y-99000000D01*
X108250000Y-98500000D02*
X103500000Y-103250000D01*
X108549520Y-96700480D02*
X108250000Y-97000000D01*
%TO.N,/CAN_H*%
X109425000Y-97500000D02*
X109425000Y-98875000D01*
X103750000Y-107500000D02*
X103000000Y-108250000D01*
X103949510Y-103550490D02*
X103949510Y-105460176D01*
X103750000Y-105659686D02*
X103750000Y-107500000D01*
X109425000Y-98875000D02*
X109300000Y-99000000D01*
X108500000Y-99000000D02*
X103949510Y-103550490D01*
X103949510Y-105460176D02*
X103750000Y-105659686D01*
X109300000Y-99000000D02*
X108500000Y-99000000D01*
X114025000Y-100135000D02*
X110435000Y-100135000D01*
X103000000Y-108250000D02*
X102000000Y-108250000D01*
X110435000Y-100135000D02*
X109300000Y-99000000D01*
D38*
%TO.N,Net-(D3-Pad1)*%
X139500000Y-101825000D02*
X141462500Y-101825000D01*
X141462500Y-101825000D02*
X141500000Y-101787500D01*
D36*
%TO.N,/LED_ERR*%
X144425500Y-96900000D02*
X143562500Y-96900000D01*
X129000861Y-97700500D02*
X129500000Y-98199639D01*
X129500000Y-99075000D02*
X129500000Y-98199639D01*
X143562500Y-96900000D02*
X143500000Y-96962500D01*
X128500000Y-97700500D02*
X129000861Y-97700500D01*
D38*
%TO.N,Net-(D4-Pad1)*%
X143500000Y-101825000D02*
X145462500Y-101825000D01*
X145462500Y-101825000D02*
X145500000Y-101787500D01*
D36*
%TO.N,/SCL*%
X138600000Y-98916155D02*
X139109325Y-99425480D01*
X126000000Y-99075000D02*
X126000000Y-98000000D01*
X151796051Y-104296051D02*
X151796051Y-105203949D01*
X138600000Y-98300000D02*
X138600000Y-98916155D01*
X138124520Y-97824520D02*
X138600000Y-98300000D01*
X128000000Y-96000000D02*
X134900000Y-96000000D01*
X126000000Y-98000000D02*
X128000000Y-96000000D01*
X134900000Y-96000000D02*
X135175000Y-96275000D01*
X146925480Y-99425480D02*
X151796051Y-104296051D01*
X135175000Y-97000000D02*
X135999520Y-97824520D01*
X135175000Y-96275000D02*
X135175000Y-97000000D01*
X139109325Y-99425480D02*
X146925480Y-99425480D01*
X135999520Y-97824520D02*
X138124520Y-97824520D01*
%TO.N,/SDA*%
X133750000Y-99250000D02*
X135175000Y-99250000D01*
X125500000Y-99075000D02*
X125500000Y-100750000D01*
X143050000Y-102750000D02*
X145503949Y-105203949D01*
X125500000Y-100750000D02*
X126000000Y-101250000D01*
X126000000Y-101250000D02*
X131750000Y-101250000D01*
X145503949Y-105203949D02*
X148203949Y-105203949D01*
X135175000Y-99250000D02*
X136275489Y-100350489D01*
X131750000Y-101250000D02*
X133750000Y-99250000D01*
X138709970Y-102750000D02*
X143050000Y-102750000D01*
X136310459Y-100350489D02*
X138709970Y-102750000D01*
X136275489Y-100350489D02*
X136310459Y-100350489D01*
D37*
%TO.N,/SWCLK*%
X124500000Y-113250000D02*
X124500000Y-110425000D01*
D36*
%TO.N,/SWDIO*%
X122575000Y-107500000D02*
X124250000Y-107500000D01*
%TO.N,/SWO*%
X127500000Y-109000000D02*
X127500000Y-110425000D01*
D39*
%TO.N,+24V*%
X105250000Y-112500000D02*
X107437500Y-112500000D01*
X107437500Y-112500000D02*
X109750000Y-110187500D01*
X102000000Y-110750000D02*
X103500000Y-110750000D01*
X103500000Y-110750000D02*
X105250000Y-112500000D01*
D36*
%TO.N,Net-(R1-Pad1)*%
X130000000Y-111575000D02*
X129075000Y-112500000D01*
X130000000Y-110425000D02*
X130000000Y-111575000D01*
%TO.N,Net-(R3-Pad1)*%
X116125000Y-114500000D02*
X118925000Y-114500000D01*
%TO.N,/OSC_OUT*%
X135425000Y-106000000D02*
X135925000Y-105500000D01*
X133925000Y-106000000D02*
X135425000Y-106000000D01*
%TO.N,/+3V3_uC*%
X132000000Y-110425000D02*
X132000000Y-111975000D01*
X135975000Y-108500000D02*
X136000000Y-108475000D01*
D37*
X130655000Y-97028000D02*
X130878000Y-97251000D01*
D38*
X136000000Y-107600000D02*
X136000000Y-108475000D01*
D36*
X123725000Y-97000000D02*
X123725000Y-98300000D01*
D38*
X119600000Y-109150000D02*
X120375000Y-109150000D01*
X124000000Y-96100000D02*
X124000000Y-96725000D01*
X124000000Y-96725000D02*
X123725000Y-97000000D01*
X133500000Y-112500000D02*
X134475000Y-112500000D01*
X129800000Y-97000000D02*
X130725000Y-97000000D01*
D36*
X133925000Y-102500000D02*
X135477000Y-102500000D01*
D38*
X121600000Y-110950000D02*
X122487500Y-110950000D01*
X120375000Y-109150000D02*
X120500000Y-109275000D01*
D36*
X131000000Y-99075000D02*
X131000000Y-97275000D01*
X122575000Y-108500000D02*
X121275000Y-108500000D01*
D38*
X136000000Y-101973000D02*
X136002000Y-101975000D01*
D36*
X132000000Y-111975000D02*
X132525000Y-112500000D01*
X121275000Y-108500000D02*
X120500000Y-109275000D01*
D38*
X133500000Y-112500000D02*
X132525000Y-112500000D01*
X136000000Y-101100000D02*
X136000000Y-101973000D01*
X122487500Y-110950000D02*
X122500000Y-110962500D01*
D36*
X133925000Y-108500000D02*
X135975000Y-108500000D01*
X123725000Y-98300000D02*
X124500000Y-99075000D01*
X131000000Y-97275000D02*
X130725000Y-97000000D01*
X135477000Y-102500000D02*
X136002000Y-101975000D01*
D38*
%TO.N,Net-(C14-Pad1)*%
X143500000Y-110525000D02*
X146475000Y-110525000D01*
X143462500Y-112500000D02*
X143462500Y-110562500D01*
X143462500Y-110562500D02*
X143500000Y-110525000D01*
X146475000Y-110525000D02*
X148203949Y-108796051D01*
D36*
%TO.N,/CAN_RX*%
X117155000Y-97595000D02*
X118975000Y-97595000D01*
X119500000Y-102500000D02*
X117000000Y-102500000D01*
X123774753Y-106500000D02*
X122575000Y-106500000D01*
X120000000Y-105500000D02*
X120000000Y-103000000D01*
X116250000Y-101750000D02*
X116250000Y-98500000D01*
X124750000Y-105524753D02*
X123774753Y-106500000D01*
X117000000Y-102500000D02*
X116250000Y-101750000D01*
X116250000Y-98500000D02*
X117155000Y-97595000D01*
X120000000Y-103000000D02*
X119500000Y-102500000D01*
%TO.N,/CAN_TX*%
X121000000Y-102250000D02*
X120155000Y-101405000D01*
X121699639Y-107000000D02*
X121000000Y-106300361D01*
X121000000Y-106300361D02*
X121000000Y-102250000D01*
X122575000Y-107000000D02*
X121699639Y-107000000D01*
X120155000Y-101405000D02*
X118975000Y-101405000D01*
%TO.N,/LED_WAR1*%
X128999139Y-100449500D02*
X129069974Y-100449500D01*
X128500000Y-99950361D02*
X128999139Y-100449500D01*
X142400000Y-100200000D02*
X141512500Y-100200000D01*
X128500000Y-99075000D02*
X128500000Y-99950361D01*
X141512500Y-100200000D02*
X141500000Y-100212500D01*
%TO.N,/LED_WAR2*%
X146570023Y-100200000D02*
X145512500Y-100200000D01*
X145512500Y-100200000D02*
X145500000Y-100212500D01*
X133925000Y-100575000D02*
X134250000Y-100250000D01*
X133925000Y-101000000D02*
X133925000Y-100575000D01*
D38*
%TO.N,Net-(D5-Pad1)*%
X139500000Y-98537500D02*
X141462500Y-98537500D01*
X141462500Y-98537500D02*
X141500000Y-98575000D01*
D36*
%TO.N,/LED_OK*%
X140400000Y-96900000D02*
X139562500Y-96900000D01*
X127500000Y-97700000D02*
X127500000Y-99075000D01*
X139562500Y-96900000D02*
X139500000Y-96962500D01*
D38*
%TO.N,Net-(D6-Pad1)*%
X114287500Y-110250000D02*
X116175000Y-110250000D01*
D39*
%TO.N,Net-(F1-Pad2)*%
X114495000Y-108155000D02*
X115125000Y-107525000D01*
X112775000Y-108155000D02*
X109907500Y-108155000D01*
X114615000Y-105615000D02*
X112775000Y-105615000D01*
X112775000Y-108155000D02*
X114495000Y-108155000D01*
X115125000Y-106125000D02*
X114615000Y-105615000D01*
X115125000Y-107525000D02*
X115125000Y-106125000D01*
X109907500Y-108155000D02*
X109750000Y-108312500D01*
D38*
%TO.N,Net-(FB4-Pad2)*%
X119052500Y-98787500D02*
X118975000Y-98865000D01*
X121500000Y-98787500D02*
X119052500Y-98787500D01*
%TD*%
%TA.AperFunction,Conductor*%
%TO.N,GND*%
G36*
X123142341Y-95528502D02*
G01*
X123188834Y-95582158D01*
X123198938Y-95652432D01*
X123183338Y-95697501D01*
X123165473Y-95728444D01*
X123106458Y-95910072D01*
X123105768Y-95916633D01*
X123105768Y-95916635D01*
X123101710Y-95955244D01*
X123087962Y-96086057D01*
X123087848Y-96087138D01*
X123060835Y-96152795D01*
X123043907Y-96169627D01*
X123041287Y-96171248D01*
X123036117Y-96176427D01*
X123020666Y-96191905D01*
X122920448Y-96292298D01*
X122916608Y-96298528D01*
X122916607Y-96298529D01*
X122842264Y-96419136D01*
X122830698Y-96437899D01*
X122776851Y-96600243D01*
X122776151Y-96607080D01*
X122776150Y-96607082D01*
X122773635Y-96631628D01*
X122766500Y-96701268D01*
X122766500Y-97298732D01*
X122777113Y-97401019D01*
X122779295Y-97407559D01*
X122828537Y-97555153D01*
X122831244Y-97563268D01*
X122835096Y-97569492D01*
X122835096Y-97569493D01*
X122872437Y-97629835D01*
X122921248Y-97708713D01*
X123024217Y-97811502D01*
X123029518Y-97816794D01*
X123063597Y-97879076D01*
X123066500Y-97905967D01*
X123066500Y-98217944D01*
X123065941Y-98229800D01*
X123064212Y-98237537D01*
X123065246Y-98270428D01*
X123066438Y-98308369D01*
X123066500Y-98312327D01*
X123066500Y-98341432D01*
X123067056Y-98345832D01*
X123067988Y-98357664D01*
X123069438Y-98403831D01*
X123071650Y-98411444D01*
X123071650Y-98411445D01*
X123075419Y-98424416D01*
X123079430Y-98443782D01*
X123082118Y-98465064D01*
X123085034Y-98472429D01*
X123085035Y-98472433D01*
X123099126Y-98508021D01*
X123102965Y-98519231D01*
X123115855Y-98563600D01*
X123126775Y-98582065D01*
X123135466Y-98599805D01*
X123143365Y-98619756D01*
X123166626Y-98651772D01*
X123170516Y-98657126D01*
X123177033Y-98667048D01*
X123196507Y-98699977D01*
X123196510Y-98699981D01*
X123200547Y-98706807D01*
X123215711Y-98721971D01*
X123228551Y-98737004D01*
X123241159Y-98754357D01*
X123273213Y-98780874D01*
X123276752Y-98783802D01*
X123285532Y-98791792D01*
X123804595Y-99310855D01*
X123838621Y-99373167D01*
X123841500Y-99399950D01*
X123841500Y-99813244D01*
X123842038Y-99817330D01*
X123842038Y-99817331D01*
X123844091Y-99832926D01*
X123856519Y-99927324D01*
X123859678Y-99934951D01*
X123859679Y-99934954D01*
X123879845Y-99983638D01*
X123915314Y-100069268D01*
X124008843Y-100191157D01*
X124015393Y-100196183D01*
X124015394Y-100196184D01*
X124033374Y-100209980D01*
X124130733Y-100284686D01*
X124272676Y-100343481D01*
X124333601Y-100351502D01*
X124382669Y-100357962D01*
X124382670Y-100357962D01*
X124386756Y-100358500D01*
X124613244Y-100358500D01*
X124617330Y-100357962D01*
X124617331Y-100357962D01*
X124699054Y-100347203D01*
X124769203Y-100358142D01*
X124822301Y-100405271D01*
X124841500Y-100472125D01*
X124841500Y-100667944D01*
X124840941Y-100679800D01*
X124839212Y-100687537D01*
X124839461Y-100695459D01*
X124841438Y-100758369D01*
X124841500Y-100762327D01*
X124841500Y-100791432D01*
X124842056Y-100795832D01*
X124842988Y-100807664D01*
X124844438Y-100853831D01*
X124846650Y-100861444D01*
X124846650Y-100861445D01*
X124850419Y-100874416D01*
X124854430Y-100893782D01*
X124857118Y-100915064D01*
X124860034Y-100922429D01*
X124860035Y-100922433D01*
X124874126Y-100958021D01*
X124877965Y-100969231D01*
X124890855Y-101013600D01*
X124901775Y-101032065D01*
X124910466Y-101049805D01*
X124918365Y-101069756D01*
X124945516Y-101107126D01*
X124952033Y-101117048D01*
X124971507Y-101149977D01*
X124971510Y-101149981D01*
X124975547Y-101156807D01*
X124990711Y-101171971D01*
X125003551Y-101187004D01*
X125016159Y-101204357D01*
X125044167Y-101227527D01*
X125051752Y-101233802D01*
X125060532Y-101241792D01*
X125476345Y-101657605D01*
X125484335Y-101666385D01*
X125488584Y-101673080D01*
X125494362Y-101678506D01*
X125494363Y-101678507D01*
X125540257Y-101721604D01*
X125543099Y-101724359D01*
X125563667Y-101744927D01*
X125567170Y-101747644D01*
X125576195Y-101755352D01*
X125609867Y-101786972D01*
X125616818Y-101790793D01*
X125616819Y-101790794D01*
X125628658Y-101797303D01*
X125645182Y-101808157D01*
X125655271Y-101815982D01*
X125662132Y-101821304D01*
X125669404Y-101824451D01*
X125669406Y-101824452D01*
X125704535Y-101839654D01*
X125715195Y-101844876D01*
X125745168Y-101861354D01*
X125755663Y-101867124D01*
X125776441Y-101872459D01*
X125795131Y-101878858D01*
X125814824Y-101887380D01*
X125849563Y-101892882D01*
X125860448Y-101894606D01*
X125872071Y-101897013D01*
X125896754Y-101903350D01*
X125916812Y-101908500D01*
X125938259Y-101908500D01*
X125957969Y-101910051D01*
X125979152Y-101913406D01*
X126025141Y-101909059D01*
X126036996Y-101908500D01*
X131667944Y-101908500D01*
X131679800Y-101909059D01*
X131679803Y-101909059D01*
X131687537Y-101910788D01*
X131758369Y-101908562D01*
X131762327Y-101908500D01*
X131791432Y-101908500D01*
X131795832Y-101907944D01*
X131807664Y-101907012D01*
X131853831Y-101905562D01*
X131874421Y-101899580D01*
X131893782Y-101895570D01*
X131901416Y-101894606D01*
X131907204Y-101893875D01*
X131907205Y-101893875D01*
X131915064Y-101892882D01*
X131922429Y-101889966D01*
X131922433Y-101889965D01*
X131958021Y-101875874D01*
X131969231Y-101872035D01*
X132013600Y-101859145D01*
X132032065Y-101848225D01*
X132049805Y-101839534D01*
X132069756Y-101831635D01*
X132107129Y-101804482D01*
X132117048Y-101797967D01*
X132149977Y-101778493D01*
X132149981Y-101778490D01*
X132156807Y-101774453D01*
X132171971Y-101759289D01*
X132187005Y-101746448D01*
X132204357Y-101733841D01*
X132233803Y-101698247D01*
X132241792Y-101689468D01*
X132426405Y-101504855D01*
X132488717Y-101470829D01*
X132559532Y-101475894D01*
X132616368Y-101518441D01*
X132641179Y-101584961D01*
X132641500Y-101593950D01*
X132641500Y-101613244D01*
X132642038Y-101617330D01*
X132642038Y-101617331D01*
X132656519Y-101727324D01*
X132654974Y-101727527D01*
X132654974Y-101772473D01*
X132656519Y-101772676D01*
X132649703Y-101824452D01*
X132641500Y-101886756D01*
X132641500Y-102113244D01*
X132642038Y-102117330D01*
X132642038Y-102117331D01*
X132656519Y-102227324D01*
X132654974Y-102227527D01*
X132654974Y-102272473D01*
X132656519Y-102272676D01*
X132641500Y-102386756D01*
X132641500Y-102613244D01*
X132656519Y-102727324D01*
X132659678Y-102734951D01*
X132659679Y-102734954D01*
X132681602Y-102787880D01*
X132715314Y-102869268D01*
X132756773Y-102923298D01*
X132782372Y-102989517D01*
X132768107Y-103059065D01*
X132756771Y-103076704D01*
X132720344Y-103124177D01*
X132720342Y-103124180D01*
X132715314Y-103130733D01*
X132656519Y-103272676D01*
X132641500Y-103386756D01*
X132641500Y-103613244D01*
X132642038Y-103617330D01*
X132642038Y-103617331D01*
X132656519Y-103727324D01*
X132654974Y-103727527D01*
X132654974Y-103772473D01*
X132656519Y-103772676D01*
X132641500Y-103886756D01*
X132641500Y-104113244D01*
X132642038Y-104117330D01*
X132642038Y-104117331D01*
X132656519Y-104227324D01*
X132654974Y-104227527D01*
X132654974Y-104272473D01*
X132656519Y-104272676D01*
X132641500Y-104386756D01*
X132641500Y-104613244D01*
X132642038Y-104617330D01*
X132642038Y-104617331D01*
X132652631Y-104697795D01*
X132641691Y-104767944D01*
X132594563Y-104821042D01*
X132531667Y-104840179D01*
X132491611Y-104841438D01*
X132487653Y-104841500D01*
X132458568Y-104841500D01*
X132454637Y-104841997D01*
X132454630Y-104841997D01*
X132454179Y-104842054D01*
X132442343Y-104842986D01*
X132396169Y-104844438D01*
X132375579Y-104850420D01*
X132356218Y-104854430D01*
X132349230Y-104855312D01*
X132342796Y-104856125D01*
X132342795Y-104856125D01*
X132334936Y-104857118D01*
X132327571Y-104860034D01*
X132327567Y-104860035D01*
X132291979Y-104874126D01*
X132280769Y-104877965D01*
X132236400Y-104890855D01*
X132217935Y-104901775D01*
X132200195Y-104910466D01*
X132180244Y-104918365D01*
X132142874Y-104945516D01*
X132132952Y-104952033D01*
X132100023Y-104971507D01*
X132100019Y-104971510D01*
X132093193Y-104975547D01*
X132078029Y-104990711D01*
X132062996Y-105003551D01*
X132045643Y-105016159D01*
X132026384Y-105039439D01*
X132016198Y-105051752D01*
X132008208Y-105060532D01*
X131592395Y-105476345D01*
X131583615Y-105484335D01*
X131583613Y-105484337D01*
X131576920Y-105488584D01*
X131571494Y-105494362D01*
X131571493Y-105494363D01*
X131528396Y-105540257D01*
X131525641Y-105543099D01*
X131505073Y-105563667D01*
X131502356Y-105567170D01*
X131494648Y-105576195D01*
X131463028Y-105609867D01*
X131459207Y-105616818D01*
X131459206Y-105616819D01*
X131452697Y-105628658D01*
X131441843Y-105645182D01*
X131438384Y-105649642D01*
X131428696Y-105662132D01*
X131425549Y-105669404D01*
X131425548Y-105669406D01*
X131410346Y-105704535D01*
X131405124Y-105715195D01*
X131388937Y-105744639D01*
X131382876Y-105755663D01*
X131377541Y-105776441D01*
X131371142Y-105795131D01*
X131362620Y-105814824D01*
X131358422Y-105841329D01*
X131355394Y-105860448D01*
X131352987Y-105872071D01*
X131349737Y-105884729D01*
X131341500Y-105916812D01*
X131341500Y-105938259D01*
X131339949Y-105957969D01*
X131336594Y-105979152D01*
X131340274Y-106018077D01*
X131340941Y-106025138D01*
X131341500Y-106036996D01*
X131341500Y-108417944D01*
X131340941Y-108429800D01*
X131339212Y-108437537D01*
X131339461Y-108445459D01*
X131341438Y-108508369D01*
X131341500Y-108512327D01*
X131341500Y-108541432D01*
X131342056Y-108545832D01*
X131342988Y-108557664D01*
X131344438Y-108603831D01*
X131348780Y-108618774D01*
X131350419Y-108624416D01*
X131354430Y-108643782D01*
X131357118Y-108665064D01*
X131360034Y-108672429D01*
X131360035Y-108672433D01*
X131374126Y-108708021D01*
X131377965Y-108719231D01*
X131390855Y-108763600D01*
X131401775Y-108782065D01*
X131410466Y-108799805D01*
X131418365Y-108819756D01*
X131442957Y-108853604D01*
X131445516Y-108857126D01*
X131452033Y-108867048D01*
X131471507Y-108899977D01*
X131471510Y-108899981D01*
X131475547Y-108906807D01*
X131490711Y-108921971D01*
X131503551Y-108937004D01*
X131516159Y-108954357D01*
X131546577Y-108979521D01*
X131551752Y-108983802D01*
X131560532Y-108991792D01*
X131615892Y-109047152D01*
X131649918Y-109109464D01*
X131644853Y-109180279D01*
X131603502Y-109236208D01*
X131576702Y-109256773D01*
X131510483Y-109282372D01*
X131440935Y-109268107D01*
X131423296Y-109256771D01*
X131375823Y-109220344D01*
X131375820Y-109220342D01*
X131369267Y-109215314D01*
X131227324Y-109156519D01*
X131136882Y-109144612D01*
X131117331Y-109142038D01*
X131117330Y-109142038D01*
X131113244Y-109141500D01*
X130886756Y-109141500D01*
X130882670Y-109142038D01*
X130882669Y-109142038D01*
X130772676Y-109156519D01*
X130772473Y-109154974D01*
X130727527Y-109154974D01*
X130727324Y-109156519D01*
X130617331Y-109142038D01*
X130617330Y-109142038D01*
X130613244Y-109141500D01*
X130386756Y-109141500D01*
X130382670Y-109142038D01*
X130382669Y-109142038D01*
X130272676Y-109156519D01*
X130272473Y-109154974D01*
X130227527Y-109154974D01*
X130227324Y-109156519D01*
X130117331Y-109142038D01*
X130117330Y-109142038D01*
X130113244Y-109141500D01*
X129886756Y-109141500D01*
X129882670Y-109142038D01*
X129882669Y-109142038D01*
X129772676Y-109156519D01*
X129772473Y-109154974D01*
X129727527Y-109154974D01*
X129727324Y-109156519D01*
X129617331Y-109142038D01*
X129617330Y-109142038D01*
X129613244Y-109141500D01*
X129386756Y-109141500D01*
X129382670Y-109142038D01*
X129382669Y-109142038D01*
X129272676Y-109156519D01*
X129272473Y-109154974D01*
X129227527Y-109154974D01*
X129227324Y-109156519D01*
X129117331Y-109142038D01*
X129117330Y-109142038D01*
X129113244Y-109141500D01*
X128886756Y-109141500D01*
X128882670Y-109142038D01*
X128882669Y-109142038D01*
X128772676Y-109156519D01*
X128772473Y-109154974D01*
X128727527Y-109154974D01*
X128727324Y-109156519D01*
X128617331Y-109142038D01*
X128617330Y-109142038D01*
X128613244Y-109141500D01*
X128538569Y-109141500D01*
X128470448Y-109121498D01*
X128423955Y-109067842D01*
X128415030Y-109013170D01*
X128412814Y-109013170D01*
X128412814Y-109006565D01*
X128413504Y-109000000D01*
X128411352Y-108979521D01*
X128394232Y-108816635D01*
X128394232Y-108816633D01*
X128393542Y-108810072D01*
X128334527Y-108628444D01*
X128323372Y-108609122D01*
X128286550Y-108545346D01*
X128239040Y-108463056D01*
X128208362Y-108428984D01*
X128115675Y-108326045D01*
X128115674Y-108326044D01*
X128111253Y-108321134D01*
X127974700Y-108221922D01*
X127962094Y-108212763D01*
X127962093Y-108212762D01*
X127956752Y-108208882D01*
X127950724Y-108206198D01*
X127950722Y-108206197D01*
X127788319Y-108133891D01*
X127788318Y-108133891D01*
X127782288Y-108131206D01*
X127688888Y-108111353D01*
X127601944Y-108092872D01*
X127601939Y-108092872D01*
X127595487Y-108091500D01*
X127404513Y-108091500D01*
X127398061Y-108092872D01*
X127398056Y-108092872D01*
X127311112Y-108111353D01*
X127217712Y-108131206D01*
X127211682Y-108133891D01*
X127211681Y-108133891D01*
X127049278Y-108206197D01*
X127049276Y-108206198D01*
X127043248Y-108208882D01*
X127037907Y-108212762D01*
X127037906Y-108212763D01*
X127025300Y-108221922D01*
X126888747Y-108321134D01*
X126884326Y-108326044D01*
X126884325Y-108326045D01*
X126791639Y-108428984D01*
X126760960Y-108463056D01*
X126713450Y-108545346D01*
X126676629Y-108609122D01*
X126665473Y-108628444D01*
X126606458Y-108810072D01*
X126605768Y-108816633D01*
X126605768Y-108816635D01*
X126588648Y-108979521D01*
X126586496Y-109000000D01*
X126587186Y-109006565D01*
X126587186Y-109013170D01*
X126584757Y-109013170D01*
X126573971Y-109072163D01*
X126525472Y-109124012D01*
X126461431Y-109141500D01*
X126386756Y-109141500D01*
X126382670Y-109142038D01*
X126382669Y-109142038D01*
X126272676Y-109156519D01*
X126272473Y-109154974D01*
X126227527Y-109154974D01*
X126227324Y-109156519D01*
X126117331Y-109142038D01*
X126117330Y-109142038D01*
X126113244Y-109141500D01*
X125886756Y-109141500D01*
X125882670Y-109142038D01*
X125882669Y-109142038D01*
X125772676Y-109156519D01*
X125772473Y-109154974D01*
X125727527Y-109154974D01*
X125727324Y-109156519D01*
X125617331Y-109142038D01*
X125617330Y-109142038D01*
X125613244Y-109141500D01*
X125386756Y-109141500D01*
X125382670Y-109142038D01*
X125382669Y-109142038D01*
X125272676Y-109156519D01*
X125272473Y-109154974D01*
X125227527Y-109154974D01*
X125227324Y-109156519D01*
X125117331Y-109142038D01*
X125117330Y-109142038D01*
X125113244Y-109141500D01*
X124886756Y-109141500D01*
X124882670Y-109142038D01*
X124882669Y-109142038D01*
X124772676Y-109156519D01*
X124772473Y-109154974D01*
X124727527Y-109154974D01*
X124727324Y-109156519D01*
X124617331Y-109142038D01*
X124617330Y-109142038D01*
X124613244Y-109141500D01*
X124386756Y-109141500D01*
X124382670Y-109142038D01*
X124382669Y-109142038D01*
X124363118Y-109144612D01*
X124272676Y-109156519D01*
X124265049Y-109159678D01*
X124265046Y-109159679D01*
X124239147Y-109170407D01*
X124130732Y-109215314D01*
X124008843Y-109308843D01*
X124003817Y-109315393D01*
X124003816Y-109315394D01*
X123977076Y-109350243D01*
X123915314Y-109430733D01*
X123856519Y-109572676D01*
X123848880Y-109630698D01*
X123843074Y-109674804D01*
X123841500Y-109686756D01*
X123841500Y-111163244D01*
X123842038Y-111167330D01*
X123842038Y-111167331D01*
X123851791Y-111241408D01*
X123856519Y-111277324D01*
X123859678Y-111284949D01*
X123861817Y-111292934D01*
X123859930Y-111293440D01*
X123866500Y-111326485D01*
X123866500Y-112547476D01*
X123846498Y-112615597D01*
X123834142Y-112631779D01*
X123760960Y-112713056D01*
X123731199Y-112764604D01*
X123718619Y-112786393D01*
X123667237Y-112835386D01*
X123597523Y-112848822D01*
X123531612Y-112822436D01*
X123490430Y-112764604D01*
X123483500Y-112723393D01*
X123483500Y-112270428D01*
X123482999Y-112265593D01*
X123475718Y-112195428D01*
X123472978Y-112169018D01*
X123419308Y-112008151D01*
X123330071Y-111863945D01*
X123324617Y-111858500D01*
X123323857Y-111857741D01*
X123305195Y-111839113D01*
X123271116Y-111776832D01*
X123276118Y-111706012D01*
X123305040Y-111660922D01*
X123325693Y-111640233D01*
X123330864Y-111635053D01*
X123342212Y-111616644D01*
X123390380Y-111538500D01*
X123419849Y-111490692D01*
X123443796Y-111418494D01*
X123471072Y-111336262D01*
X123471072Y-111336260D01*
X123473238Y-111329731D01*
X123483500Y-111229572D01*
X123483500Y-110695428D01*
X123472978Y-110594018D01*
X123419308Y-110433151D01*
X123330071Y-110288945D01*
X123210053Y-110169136D01*
X123180865Y-110151144D01*
X123115923Y-110111114D01*
X123065692Y-110080151D01*
X122994731Y-110056614D01*
X122911262Y-110028928D01*
X122911260Y-110028928D01*
X122904731Y-110026762D01*
X122804572Y-110016500D01*
X122195428Y-110016500D01*
X122192182Y-110016837D01*
X122192178Y-110016837D01*
X122165242Y-110019632D01*
X122094018Y-110027022D01*
X121944945Y-110076757D01*
X121878874Y-110080480D01*
X121701944Y-110042872D01*
X121701939Y-110042872D01*
X121695487Y-110041500D01*
X121504513Y-110041500D01*
X121504513Y-110038684D01*
X121446872Y-110028155D01*
X121395015Y-109979664D01*
X121377606Y-109910834D01*
X121396256Y-109849490D01*
X121415460Y-109818335D01*
X121415462Y-109818330D01*
X121419302Y-109812101D01*
X121473149Y-109649757D01*
X121474709Y-109634538D01*
X121480256Y-109580396D01*
X121483500Y-109548732D01*
X121483500Y-109284500D01*
X121503502Y-109216379D01*
X121557158Y-109169886D01*
X121609500Y-109158500D01*
X123313244Y-109158500D01*
X123317330Y-109157962D01*
X123317331Y-109157962D01*
X123368260Y-109151257D01*
X123427324Y-109143481D01*
X123434951Y-109140322D01*
X123434954Y-109140321D01*
X123510421Y-109109061D01*
X123569268Y-109084686D01*
X123691157Y-108991157D01*
X123708460Y-108968608D01*
X123761068Y-108900047D01*
X123784686Y-108869267D01*
X123843481Y-108727324D01*
X123858500Y-108613244D01*
X123858500Y-108501178D01*
X123878502Y-108433057D01*
X123932158Y-108386564D01*
X124002432Y-108376460D01*
X124010697Y-108377931D01*
X124148056Y-108407128D01*
X124148061Y-108407128D01*
X124154513Y-108408500D01*
X124345487Y-108408500D01*
X124351939Y-108407128D01*
X124351944Y-108407128D01*
X124448687Y-108386564D01*
X124532288Y-108368794D01*
X124554551Y-108358882D01*
X124700722Y-108293803D01*
X124700724Y-108293802D01*
X124706752Y-108291118D01*
X124716697Y-108283893D01*
X124817974Y-108210310D01*
X124861253Y-108178866D01*
X124916971Y-108116985D01*
X124984621Y-108041852D01*
X124984622Y-108041851D01*
X124989040Y-108036944D01*
X125068877Y-107898663D01*
X125081223Y-107877279D01*
X125081224Y-107877278D01*
X125084527Y-107871556D01*
X125143542Y-107689928D01*
X125144781Y-107678145D01*
X125162814Y-107506565D01*
X125163504Y-107500000D01*
X125160560Y-107471993D01*
X125144232Y-107316635D01*
X125144232Y-107316633D01*
X125143542Y-107310072D01*
X125084527Y-107128444D01*
X125077406Y-107116109D01*
X125033281Y-107039684D01*
X124989040Y-106963056D01*
X124961752Y-106932749D01*
X124865675Y-106826045D01*
X124865674Y-106826044D01*
X124861253Y-106821134D01*
X124706752Y-106708882D01*
X124708132Y-106706983D01*
X124666553Y-106663356D01*
X124653132Y-106593640D01*
X124679533Y-106527734D01*
X124689464Y-106516549D01*
X124735855Y-106470158D01*
X124798167Y-106436132D01*
X124824950Y-106433253D01*
X124845487Y-106433253D01*
X124851939Y-106431881D01*
X124851944Y-106431881D01*
X124938888Y-106413400D01*
X125032288Y-106393547D01*
X125038319Y-106390862D01*
X125200722Y-106318556D01*
X125200724Y-106318555D01*
X125206752Y-106315871D01*
X125240822Y-106291118D01*
X125307969Y-106242332D01*
X125361253Y-106203619D01*
X125365675Y-106198708D01*
X125484621Y-106066605D01*
X125484622Y-106066604D01*
X125489040Y-106061697D01*
X125568112Y-105924741D01*
X125581223Y-105902032D01*
X125581224Y-105902031D01*
X125584527Y-105896309D01*
X125643542Y-105714681D01*
X125644441Y-105706133D01*
X125662814Y-105531318D01*
X125663504Y-105524753D01*
X125657796Y-105470448D01*
X125644232Y-105341388D01*
X125644232Y-105341386D01*
X125643542Y-105334825D01*
X125584527Y-105153197D01*
X125580601Y-105146396D01*
X125528598Y-105056326D01*
X125489040Y-104987809D01*
X125483052Y-104981158D01*
X125365675Y-104850798D01*
X125365671Y-104850794D01*
X125361253Y-104845887D01*
X125241115Y-104758601D01*
X125212094Y-104737516D01*
X125212093Y-104737515D01*
X125206752Y-104733635D01*
X125200724Y-104730951D01*
X125200722Y-104730950D01*
X125038319Y-104658644D01*
X125038318Y-104658644D01*
X125032288Y-104655959D01*
X124938888Y-104636106D01*
X124851944Y-104617625D01*
X124851939Y-104617625D01*
X124845487Y-104616253D01*
X124654513Y-104616253D01*
X124648061Y-104617625D01*
X124648056Y-104617625D01*
X124561113Y-104636106D01*
X124467712Y-104655959D01*
X124461682Y-104658644D01*
X124461681Y-104658644D01*
X124299278Y-104730950D01*
X124299276Y-104730951D01*
X124293248Y-104733635D01*
X124287907Y-104737515D01*
X124287906Y-104737516D01*
X124258885Y-104758601D01*
X124138747Y-104845887D01*
X124073488Y-104918365D01*
X124072438Y-104919531D01*
X124011992Y-104956770D01*
X123941008Y-104955418D01*
X123882024Y-104915904D01*
X123853880Y-104851666D01*
X123852929Y-104844438D01*
X123843481Y-104772676D01*
X123845026Y-104772473D01*
X123845026Y-104727527D01*
X123843481Y-104727324D01*
X123857962Y-104617331D01*
X123857962Y-104617330D01*
X123858500Y-104613244D01*
X123858500Y-104386756D01*
X123843481Y-104272676D01*
X123845026Y-104272473D01*
X123845026Y-104227527D01*
X123843481Y-104227324D01*
X123857962Y-104117331D01*
X123857962Y-104117330D01*
X123858500Y-104113244D01*
X123858500Y-103886756D01*
X123843481Y-103772676D01*
X123845026Y-103772473D01*
X123845026Y-103727527D01*
X123843481Y-103727324D01*
X123857962Y-103617331D01*
X123857962Y-103617330D01*
X123858500Y-103613244D01*
X123858500Y-103386756D01*
X123850298Y-103324452D01*
X123843481Y-103272676D01*
X123845026Y-103272473D01*
X123845026Y-103227527D01*
X123843481Y-103227324D01*
X123857962Y-103117331D01*
X123857962Y-103117330D01*
X123858500Y-103113244D01*
X123858500Y-102886756D01*
X123843481Y-102772676D01*
X123845026Y-102772473D01*
X123845026Y-102727527D01*
X123843481Y-102727324D01*
X123857962Y-102617331D01*
X123857962Y-102617330D01*
X123858500Y-102613244D01*
X123858500Y-102386756D01*
X123843481Y-102272676D01*
X123845026Y-102272473D01*
X123845026Y-102227527D01*
X123843481Y-102227324D01*
X123857962Y-102117331D01*
X123857962Y-102117330D01*
X123858500Y-102113244D01*
X123858500Y-101886756D01*
X123850298Y-101824452D01*
X123843481Y-101772676D01*
X123845026Y-101772473D01*
X123845026Y-101727527D01*
X123843481Y-101727324D01*
X123857962Y-101617331D01*
X123857962Y-101617330D01*
X123858500Y-101613244D01*
X123858500Y-101386756D01*
X123843481Y-101272676D01*
X123845026Y-101272473D01*
X123845026Y-101227527D01*
X123843481Y-101227324D01*
X123857962Y-101117331D01*
X123857962Y-101117330D01*
X123858500Y-101113244D01*
X123858500Y-100886756D01*
X123843481Y-100772676D01*
X123839195Y-100762327D01*
X123807004Y-100684613D01*
X123784686Y-100630732D01*
X123691157Y-100508843D01*
X123684605Y-100503815D01*
X123630212Y-100462078D01*
X123569267Y-100415314D01*
X123427324Y-100356519D01*
X123356153Y-100347149D01*
X123317331Y-100342038D01*
X123317330Y-100342038D01*
X123313244Y-100341500D01*
X121836756Y-100341500D01*
X121832670Y-100342038D01*
X121832669Y-100342038D01*
X121793847Y-100347149D01*
X121722676Y-100356519D01*
X121715049Y-100359678D01*
X121715046Y-100359679D01*
X121660966Y-100382080D01*
X121580732Y-100415314D01*
X121458843Y-100508843D01*
X121453817Y-100515393D01*
X121453816Y-100515394D01*
X121451938Y-100517842D01*
X121365314Y-100630733D01*
X121306519Y-100772676D01*
X121291500Y-100886756D01*
X121291500Y-101113244D01*
X121292038Y-101117330D01*
X121292038Y-101117331D01*
X121306519Y-101227324D01*
X121304974Y-101227527D01*
X121304974Y-101272474D01*
X121306519Y-101272677D01*
X121298850Y-101330925D01*
X121270127Y-101395852D01*
X121210861Y-101434943D01*
X121139870Y-101435788D01*
X121084832Y-101403573D01*
X120956314Y-101275054D01*
X120678651Y-100997391D01*
X120670663Y-100988612D01*
X120666416Y-100981920D01*
X120614741Y-100933394D01*
X120611900Y-100930640D01*
X120591333Y-100910073D01*
X120587826Y-100907353D01*
X120578804Y-100899647D01*
X120575452Y-100896499D01*
X120545133Y-100868028D01*
X120538181Y-100864206D01*
X120526342Y-100857697D01*
X120509818Y-100846843D01*
X120499132Y-100838555D01*
X120492868Y-100833696D01*
X120485596Y-100830549D01*
X120485594Y-100830548D01*
X120450465Y-100815346D01*
X120439805Y-100810124D01*
X120406284Y-100791695D01*
X120406282Y-100791694D01*
X120399337Y-100787876D01*
X120378559Y-100782541D01*
X120359869Y-100776142D01*
X120340176Y-100767620D01*
X120294552Y-100760394D01*
X120282929Y-100757987D01*
X120244872Y-100748216D01*
X120207256Y-100729788D01*
X120206807Y-100730547D01*
X120079751Y-100655406D01*
X120063601Y-100645855D01*
X120055990Y-100643644D01*
X120055988Y-100643643D01*
X119965137Y-100617249D01*
X119903831Y-100599438D01*
X119897426Y-100598934D01*
X119897421Y-100598933D01*
X119868958Y-100596693D01*
X119868950Y-100596693D01*
X119866502Y-100596500D01*
X118083498Y-100596500D01*
X118081050Y-100596693D01*
X118081042Y-100596693D01*
X118052579Y-100598933D01*
X118052574Y-100598934D01*
X118046169Y-100599438D01*
X117984863Y-100617249D01*
X117894012Y-100643643D01*
X117894010Y-100643644D01*
X117886399Y-100645855D01*
X117870249Y-100655406D01*
X117750020Y-100726509D01*
X117750017Y-100726511D01*
X117743193Y-100730547D01*
X117625547Y-100848193D01*
X117621511Y-100855017D01*
X117621509Y-100855020D01*
X117569686Y-100942649D01*
X117540855Y-100991399D01*
X117494438Y-101151169D01*
X117493934Y-101157574D01*
X117493933Y-101157579D01*
X117492228Y-101179243D01*
X117491500Y-101188498D01*
X117491500Y-101621502D01*
X117491693Y-101623950D01*
X117491693Y-101623958D01*
X117491797Y-101625270D01*
X117494438Y-101658831D01*
X117496231Y-101665003D01*
X117496232Y-101665008D01*
X117500689Y-101680347D01*
X117500486Y-101751343D01*
X117461932Y-101810960D01*
X117397268Y-101840268D01*
X117379692Y-101841500D01*
X117324950Y-101841500D01*
X117256829Y-101821498D01*
X117235854Y-101804595D01*
X116945404Y-101514144D01*
X116911379Y-101451832D01*
X116908500Y-101425049D01*
X116908500Y-98824951D01*
X116928502Y-98756830D01*
X116945404Y-98735856D01*
X117125266Y-98555994D01*
X117321202Y-98360057D01*
X117383515Y-98326032D01*
X117454330Y-98331096D01*
X117511166Y-98373643D01*
X117535977Y-98440163D01*
X117531295Y-98484305D01*
X117494438Y-98611169D01*
X117493934Y-98617574D01*
X117493933Y-98617579D01*
X117491784Y-98644888D01*
X117491500Y-98648498D01*
X117491500Y-99081502D01*
X117494438Y-99118831D01*
X117540855Y-99278601D01*
X117544892Y-99285427D01*
X117621509Y-99414980D01*
X117621511Y-99414983D01*
X117625547Y-99421807D01*
X117743193Y-99539453D01*
X117750017Y-99543489D01*
X117750020Y-99543491D01*
X117811874Y-99580071D01*
X117886399Y-99624145D01*
X117894010Y-99626356D01*
X117894012Y-99626357D01*
X117946231Y-99641528D01*
X118046169Y-99670562D01*
X118052574Y-99671066D01*
X118052579Y-99671067D01*
X118081042Y-99673307D01*
X118081050Y-99673307D01*
X118083498Y-99673500D01*
X119866502Y-99673500D01*
X119868950Y-99673307D01*
X119868958Y-99673307D01*
X119897421Y-99671067D01*
X119897426Y-99671066D01*
X119903831Y-99670562D01*
X120003769Y-99641528D01*
X120055988Y-99626357D01*
X120055990Y-99626356D01*
X120063601Y-99624145D01*
X120166069Y-99563545D01*
X120230206Y-99546000D01*
X120703415Y-99546000D01*
X120771536Y-99566002D01*
X120781508Y-99573119D01*
X120784766Y-99575692D01*
X120789947Y-99580864D01*
X120934308Y-99669849D01*
X120941256Y-99672154D01*
X120941257Y-99672154D01*
X121088738Y-99721072D01*
X121088740Y-99721072D01*
X121095269Y-99723238D01*
X121195428Y-99733500D01*
X121804572Y-99733500D01*
X121807818Y-99733163D01*
X121807822Y-99733163D01*
X121841603Y-99729658D01*
X121905982Y-99722978D01*
X122066849Y-99669308D01*
X122211055Y-99580071D01*
X122330864Y-99460053D01*
X122419849Y-99315692D01*
X122459833Y-99195145D01*
X122471072Y-99161262D01*
X122471072Y-99161260D01*
X122473238Y-99154731D01*
X122483500Y-99054572D01*
X122483500Y-98520428D01*
X122472978Y-98419018D01*
X122419308Y-98258151D01*
X122330071Y-98113945D01*
X122305195Y-98089113D01*
X122271116Y-98026832D01*
X122276118Y-97956012D01*
X122305040Y-97910922D01*
X122325693Y-97890233D01*
X122330864Y-97885053D01*
X122343258Y-97864947D01*
X122365075Y-97829552D01*
X122419849Y-97740692D01*
X122423905Y-97728463D01*
X122471072Y-97586262D01*
X122471072Y-97586260D01*
X122473238Y-97579731D01*
X122483500Y-97479572D01*
X122483500Y-96945428D01*
X122482879Y-96939438D01*
X122479468Y-96906565D01*
X122472978Y-96844018D01*
X122419308Y-96683151D01*
X122330071Y-96538945D01*
X122210053Y-96419136D01*
X122065692Y-96330151D01*
X122038507Y-96321134D01*
X121911262Y-96278928D01*
X121911260Y-96278928D01*
X121904731Y-96276762D01*
X121804572Y-96266500D01*
X121498834Y-96266500D01*
X121473176Y-96263860D01*
X121457089Y-96260514D01*
X121452799Y-96259543D01*
X121450110Y-96258885D01*
X121381890Y-96242192D01*
X121376288Y-96241844D01*
X121376285Y-96241844D01*
X121370736Y-96241500D01*
X121370738Y-96241464D01*
X121366745Y-96241225D01*
X121362553Y-96240851D01*
X121355385Y-96239360D01*
X121290437Y-96241117D01*
X121277979Y-96241454D01*
X121274572Y-96241500D01*
X121142587Y-96241500D01*
X121068528Y-96217437D01*
X121062098Y-96212765D01*
X121062091Y-96212761D01*
X121056752Y-96208882D01*
X121050724Y-96206198D01*
X121050722Y-96206197D01*
X120888319Y-96133891D01*
X120888318Y-96133891D01*
X120882288Y-96131206D01*
X120782221Y-96109936D01*
X120701944Y-96092872D01*
X120701939Y-96092872D01*
X120695487Y-96091500D01*
X120504513Y-96091500D01*
X120498061Y-96092872D01*
X120498056Y-96092872D01*
X120417779Y-96109936D01*
X120317712Y-96131206D01*
X120311682Y-96133891D01*
X120311681Y-96133891D01*
X120149278Y-96206197D01*
X120149276Y-96206198D01*
X120143248Y-96208882D01*
X120137907Y-96212762D01*
X120137906Y-96212763D01*
X120098732Y-96241225D01*
X119988747Y-96321134D01*
X119860960Y-96463056D01*
X119765473Y-96628444D01*
X119743709Y-96695428D01*
X119742406Y-96699437D01*
X119702332Y-96758042D01*
X119636935Y-96785679D01*
X119622573Y-96786500D01*
X118083498Y-96786500D01*
X118081050Y-96786693D01*
X118081042Y-96786693D01*
X118052579Y-96788933D01*
X118052574Y-96788934D01*
X118046169Y-96789438D01*
X117975146Y-96810072D01*
X117894012Y-96833643D01*
X117894010Y-96833644D01*
X117886399Y-96835855D01*
X117879572Y-96839892D01*
X117879573Y-96839892D01*
X117745888Y-96918953D01*
X117681749Y-96936500D01*
X117237056Y-96936500D01*
X117225200Y-96935941D01*
X117225197Y-96935941D01*
X117217463Y-96934212D01*
X117162446Y-96935941D01*
X117146631Y-96936438D01*
X117142673Y-96936500D01*
X117113568Y-96936500D01*
X117109168Y-96937056D01*
X117097336Y-96937988D01*
X117051169Y-96939438D01*
X117030579Y-96945420D01*
X117011218Y-96949430D01*
X117005579Y-96950142D01*
X116997796Y-96951125D01*
X116997795Y-96951125D01*
X116989936Y-96952118D01*
X116982571Y-96955034D01*
X116982567Y-96955035D01*
X116946979Y-96969126D01*
X116935769Y-96972965D01*
X116891400Y-96985855D01*
X116872943Y-96996771D01*
X116855193Y-97005466D01*
X116835244Y-97013365D01*
X116828833Y-97018023D01*
X116828831Y-97018024D01*
X116797864Y-97040523D01*
X116787946Y-97047038D01*
X116748193Y-97070548D01*
X116733032Y-97085709D01*
X116718000Y-97098548D01*
X116700643Y-97111159D01*
X116672917Y-97144675D01*
X116671198Y-97146752D01*
X116663208Y-97155533D01*
X115842391Y-97976349D01*
X115833612Y-97984337D01*
X115826920Y-97988584D01*
X115821495Y-97994361D01*
X115778395Y-98040258D01*
X115775640Y-98043100D01*
X115755073Y-98063667D01*
X115752356Y-98067170D01*
X115744648Y-98076195D01*
X115713028Y-98109867D01*
X115709207Y-98116818D01*
X115709206Y-98116819D01*
X115702697Y-98128658D01*
X115691843Y-98145182D01*
X115686705Y-98151807D01*
X115678696Y-98162132D01*
X115675549Y-98169404D01*
X115675548Y-98169406D01*
X115660346Y-98204535D01*
X115655124Y-98215195D01*
X115648469Y-98227301D01*
X115632876Y-98255663D01*
X115627541Y-98276441D01*
X115621142Y-98295131D01*
X115612620Y-98314824D01*
X115612620Y-98314825D01*
X115609934Y-98313663D01*
X115579159Y-98361842D01*
X115514659Y-98391513D01*
X115444358Y-98381602D01*
X115387932Y-98330985D01*
X115374453Y-98308193D01*
X115371771Y-98305511D01*
X115346498Y-98241139D01*
X115360400Y-98171516D01*
X115370572Y-98155688D01*
X115374453Y-98151807D01*
X115459145Y-98008601D01*
X115461672Y-97999905D01*
X115478750Y-97941120D01*
X115505562Y-97848831D01*
X115506887Y-97832003D01*
X115508307Y-97813958D01*
X115508307Y-97813950D01*
X115508500Y-97811502D01*
X115508500Y-97378498D01*
X115508307Y-97376042D01*
X115506067Y-97347579D01*
X115506066Y-97347574D01*
X115505562Y-97341169D01*
X115459145Y-97181399D01*
X115417605Y-97111159D01*
X115378491Y-97045020D01*
X115378489Y-97045017D01*
X115374453Y-97038193D01*
X115256807Y-96920547D01*
X115249983Y-96916511D01*
X115249980Y-96916509D01*
X115120427Y-96839892D01*
X115120428Y-96839892D01*
X115113601Y-96835855D01*
X115105990Y-96833644D01*
X115105988Y-96833643D01*
X115024854Y-96810072D01*
X114953831Y-96789438D01*
X114947426Y-96788934D01*
X114947421Y-96788933D01*
X114918958Y-96786693D01*
X114918950Y-96786693D01*
X114916502Y-96786500D01*
X113133498Y-96786500D01*
X113131050Y-96786693D01*
X113131042Y-96786693D01*
X113102579Y-96788933D01*
X113102574Y-96788934D01*
X113096169Y-96789438D01*
X113025146Y-96810072D01*
X112944012Y-96833643D01*
X112944010Y-96833644D01*
X112936399Y-96835855D01*
X112929572Y-96839892D01*
X112929573Y-96839892D01*
X112800020Y-96916509D01*
X112800017Y-96916511D01*
X112793193Y-96920547D01*
X112675547Y-97038193D01*
X112671511Y-97045017D01*
X112671509Y-97045020D01*
X112632395Y-97111159D01*
X112590855Y-97181399D01*
X112544438Y-97341169D01*
X112543934Y-97347574D01*
X112543933Y-97347579D01*
X112541693Y-97376042D01*
X112541500Y-97378498D01*
X112541500Y-97811502D01*
X112541693Y-97813950D01*
X112541693Y-97813958D01*
X112543114Y-97832003D01*
X112544438Y-97848831D01*
X112571250Y-97941120D01*
X112588329Y-97999905D01*
X112590855Y-98008601D01*
X112675547Y-98151807D01*
X112678229Y-98154489D01*
X112703502Y-98218861D01*
X112689600Y-98288484D01*
X112679426Y-98304314D01*
X112675547Y-98308193D01*
X112671512Y-98315015D01*
X112669408Y-98317728D01*
X112611851Y-98359294D01*
X112569850Y-98366500D01*
X112158433Y-98366500D01*
X112090312Y-98346498D01*
X112051000Y-98304322D01*
X112050615Y-98303295D01*
X111963261Y-98186739D01*
X111958979Y-98183530D01*
X111925826Y-98122817D01*
X111928713Y-98058358D01*
X111976753Y-97905062D01*
X111983500Y-97831635D01*
X111983499Y-97168366D01*
X111976753Y-97094938D01*
X111957212Y-97032584D01*
X111927744Y-96938550D01*
X111927743Y-96938548D01*
X111925472Y-96931301D01*
X111836639Y-96784619D01*
X111715381Y-96663361D01*
X111568699Y-96574528D01*
X111561452Y-96572257D01*
X111561450Y-96572256D01*
X111455154Y-96538945D01*
X111405062Y-96523247D01*
X111331635Y-96516500D01*
X111214595Y-96516500D01*
X111146474Y-96496498D01*
X111125500Y-96479595D01*
X110954132Y-96308227D01*
X110946592Y-96299941D01*
X110942480Y-96293462D01*
X110892828Y-96246836D01*
X110889987Y-96244082D01*
X110870250Y-96224345D01*
X110867053Y-96221865D01*
X110858031Y-96214160D01*
X110825801Y-96183894D01*
X110818855Y-96180075D01*
X110818852Y-96180073D01*
X110808046Y-96174132D01*
X110791527Y-96163281D01*
X110786554Y-96159424D01*
X110775521Y-96150866D01*
X110768252Y-96147721D01*
X110768248Y-96147718D01*
X110734943Y-96133306D01*
X110724293Y-96128089D01*
X110685540Y-96106785D01*
X110665917Y-96101747D01*
X110647214Y-96095343D01*
X110635900Y-96090447D01*
X110635899Y-96090447D01*
X110628625Y-96087299D01*
X110620802Y-96086060D01*
X110620792Y-96086057D01*
X110584956Y-96080381D01*
X110573336Y-96077975D01*
X110538191Y-96068952D01*
X110538190Y-96068952D01*
X110530510Y-96066980D01*
X110510256Y-96066980D01*
X110490545Y-96065429D01*
X110478366Y-96063500D01*
X110470537Y-96062260D01*
X110462645Y-96063006D01*
X110451217Y-96064086D01*
X110441266Y-96065027D01*
X110426519Y-96066421D01*
X110414661Y-96066980D01*
X108628287Y-96066980D01*
X108617104Y-96066453D01*
X108609611Y-96064778D01*
X108601685Y-96065027D01*
X108601684Y-96065027D01*
X108541534Y-96066918D01*
X108537575Y-96066980D01*
X108509664Y-96066980D01*
X108505730Y-96067477D01*
X108505729Y-96067477D01*
X108505664Y-96067485D01*
X108493827Y-96068418D01*
X108462010Y-96069418D01*
X108457549Y-96069558D01*
X108449630Y-96069807D01*
X108433379Y-96074528D01*
X108430178Y-96075458D01*
X108410826Y-96079466D01*
X108403755Y-96080360D01*
X108390723Y-96082006D01*
X108383354Y-96084923D01*
X108383352Y-96084924D01*
X108349617Y-96098280D01*
X108338389Y-96102125D01*
X108295927Y-96114462D01*
X108289105Y-96118496D01*
X108289099Y-96118499D01*
X108278488Y-96124774D01*
X108260738Y-96133470D01*
X108249276Y-96138008D01*
X108249271Y-96138011D01*
X108241903Y-96140928D01*
X108225569Y-96152795D01*
X108206145Y-96166907D01*
X108196227Y-96173423D01*
X108193380Y-96175107D01*
X108158157Y-96195938D01*
X108143833Y-96210262D01*
X108128801Y-96223101D01*
X108112413Y-96235008D01*
X108092116Y-96259543D01*
X108084232Y-96269073D01*
X108076242Y-96277853D01*
X107857747Y-96496348D01*
X107849461Y-96503888D01*
X107842982Y-96508000D01*
X107837557Y-96513777D01*
X107796357Y-96557651D01*
X107793602Y-96560493D01*
X107773865Y-96580230D01*
X107771385Y-96583427D01*
X107763682Y-96592447D01*
X107733414Y-96624679D01*
X107729595Y-96631625D01*
X107729593Y-96631628D01*
X107723652Y-96642434D01*
X107712801Y-96658953D01*
X107700386Y-96674959D01*
X107697241Y-96682228D01*
X107697238Y-96682232D01*
X107682826Y-96715537D01*
X107677609Y-96726187D01*
X107656305Y-96764940D01*
X107654334Y-96772615D01*
X107654334Y-96772616D01*
X107651267Y-96784562D01*
X107644863Y-96803266D01*
X107642712Y-96808238D01*
X107636819Y-96821855D01*
X107635580Y-96829678D01*
X107635577Y-96829688D01*
X107629901Y-96865524D01*
X107627495Y-96877144D01*
X107616500Y-96919970D01*
X107616500Y-96940224D01*
X107614949Y-96959934D01*
X107611780Y-96979943D01*
X107612526Y-96987835D01*
X107615941Y-97023961D01*
X107616500Y-97035819D01*
X107616500Y-98185405D01*
X107596498Y-98253526D01*
X107579595Y-98274500D01*
X103107747Y-102746348D01*
X103099461Y-102753888D01*
X103092982Y-102758000D01*
X103087557Y-102763777D01*
X103046357Y-102807651D01*
X103043602Y-102810493D01*
X103023865Y-102830230D01*
X103021385Y-102833427D01*
X103013682Y-102842447D01*
X102983414Y-102874679D01*
X102979595Y-102881625D01*
X102979593Y-102881628D01*
X102973652Y-102892434D01*
X102962801Y-102908953D01*
X102950386Y-102924959D01*
X102947241Y-102932228D01*
X102947238Y-102932232D01*
X102932826Y-102965537D01*
X102927609Y-102976187D01*
X102906305Y-103014940D01*
X102904334Y-103022615D01*
X102904334Y-103022616D01*
X102901267Y-103034562D01*
X102894863Y-103053266D01*
X102892747Y-103058157D01*
X102886819Y-103071855D01*
X102885580Y-103079678D01*
X102885577Y-103079688D01*
X102879901Y-103115524D01*
X102877495Y-103127144D01*
X102871735Y-103149581D01*
X102866500Y-103169970D01*
X102866500Y-103190224D01*
X102864949Y-103209934D01*
X102861780Y-103229943D01*
X102865820Y-103272676D01*
X102865941Y-103273961D01*
X102866500Y-103285819D01*
X102866500Y-104615500D01*
X102846498Y-104683621D01*
X102792842Y-104730114D01*
X102740500Y-104741500D01*
X101199600Y-104741500D01*
X101196354Y-104741837D01*
X101196350Y-104741837D01*
X101100692Y-104751762D01*
X101100688Y-104751763D01*
X101093834Y-104752474D01*
X101087298Y-104754655D01*
X101087296Y-104754655D01*
X100980771Y-104790195D01*
X100926054Y-104808450D01*
X100775652Y-104901522D01*
X100650695Y-105026697D01*
X100646855Y-105032927D01*
X100646854Y-105032928D01*
X100576247Y-105147474D01*
X100557885Y-105177262D01*
X100502203Y-105345139D01*
X100501503Y-105351975D01*
X100501502Y-105351978D01*
X100499904Y-105367579D01*
X100491500Y-105449600D01*
X100491500Y-106050400D01*
X100491837Y-106053646D01*
X100491837Y-106053650D01*
X100501208Y-106143961D01*
X100502474Y-106156166D01*
X100504655Y-106162702D01*
X100504655Y-106162704D01*
X100535970Y-106256565D01*
X100558450Y-106323946D01*
X100651522Y-106474348D01*
X100776697Y-106599305D01*
X100782927Y-106603145D01*
X100782928Y-106603146D01*
X100887182Y-106667409D01*
X100927262Y-106692115D01*
X101007005Y-106718564D01*
X101088611Y-106745632D01*
X101088613Y-106745632D01*
X101095139Y-106747797D01*
X101101975Y-106748497D01*
X101101978Y-106748498D01*
X101143109Y-106752712D01*
X101199600Y-106758500D01*
X102800400Y-106758500D01*
X102803646Y-106758163D01*
X102803650Y-106758163D01*
X102899308Y-106748238D01*
X102899312Y-106748237D01*
X102906166Y-106747526D01*
X102912703Y-106745345D01*
X102912708Y-106745344D01*
X102950625Y-106732694D01*
X103021574Y-106730110D01*
X103082658Y-106766294D01*
X103114482Y-106829759D01*
X103116500Y-106852218D01*
X103116500Y-107147858D01*
X103096498Y-107215979D01*
X103042842Y-107262472D01*
X102972568Y-107272576D01*
X102950833Y-107267451D01*
X102911389Y-107254368D01*
X102911387Y-107254368D01*
X102904861Y-107252203D01*
X102898025Y-107251503D01*
X102898022Y-107251502D01*
X102854969Y-107247091D01*
X102800400Y-107241500D01*
X101199600Y-107241500D01*
X101196354Y-107241837D01*
X101196350Y-107241837D01*
X101100692Y-107251762D01*
X101100688Y-107251763D01*
X101093834Y-107252474D01*
X101087298Y-107254655D01*
X101087296Y-107254655D01*
X100958866Y-107297503D01*
X100926054Y-107308450D01*
X100775652Y-107401522D01*
X100770479Y-107406704D01*
X100729752Y-107447502D01*
X100650695Y-107526697D01*
X100646855Y-107532927D01*
X100646854Y-107532928D01*
X100566078Y-107663971D01*
X100557885Y-107677262D01*
X100538855Y-107734637D01*
X100517896Y-107797827D01*
X100502203Y-107845139D01*
X100501503Y-107851975D01*
X100501502Y-107851978D01*
X100498518Y-107881101D01*
X100491500Y-107949600D01*
X100491500Y-108550400D01*
X100491837Y-108553646D01*
X100491837Y-108553650D01*
X100501558Y-108647336D01*
X100502474Y-108656166D01*
X100504655Y-108662702D01*
X100504655Y-108662704D01*
X100533591Y-108749434D01*
X100558450Y-108823946D01*
X100651522Y-108974348D01*
X100776697Y-109099305D01*
X100782927Y-109103145D01*
X100782928Y-109103146D01*
X100920090Y-109187694D01*
X100927262Y-109192115D01*
X100980596Y-109209805D01*
X101088611Y-109245632D01*
X101088613Y-109245632D01*
X101095139Y-109247797D01*
X101101975Y-109248497D01*
X101101978Y-109248498D01*
X101136599Y-109252045D01*
X101199600Y-109258500D01*
X102800400Y-109258500D01*
X102803646Y-109258163D01*
X102803650Y-109258163D01*
X102899308Y-109248238D01*
X102899312Y-109248237D01*
X102906166Y-109247526D01*
X102912702Y-109245345D01*
X102912704Y-109245345D01*
X103064064Y-109194847D01*
X103073946Y-109191550D01*
X103224348Y-109098478D01*
X103234962Y-109087846D01*
X103344134Y-108978483D01*
X103349305Y-108973303D01*
X103374950Y-108931700D01*
X103438275Y-108828968D01*
X103438276Y-108828966D01*
X103442115Y-108822738D01*
X103491754Y-108673080D01*
X103522252Y-108623652D01*
X104142247Y-108003657D01*
X104150537Y-107996113D01*
X104157018Y-107992000D01*
X104203659Y-107942332D01*
X104206413Y-107939491D01*
X104226134Y-107919770D01*
X104228612Y-107916575D01*
X104236318Y-107907553D01*
X104250871Y-107892056D01*
X104266586Y-107875321D01*
X104276346Y-107857568D01*
X104287199Y-107841045D01*
X104294753Y-107831306D01*
X104299613Y-107825041D01*
X104317176Y-107784457D01*
X104322383Y-107773827D01*
X104343695Y-107735060D01*
X104345666Y-107727383D01*
X104345668Y-107727378D01*
X104348732Y-107715442D01*
X104355138Y-107696730D01*
X104359564Y-107686504D01*
X104363181Y-107678145D01*
X104364421Y-107670317D01*
X104364423Y-107670310D01*
X104370099Y-107634476D01*
X104372505Y-107622856D01*
X104381528Y-107587711D01*
X104381528Y-107587710D01*
X104383500Y-107580030D01*
X104383500Y-107559776D01*
X104385051Y-107540065D01*
X104386980Y-107527886D01*
X104388220Y-107520057D01*
X104384059Y-107476038D01*
X104383500Y-107464181D01*
X104383500Y-105974281D01*
X104403502Y-105906160D01*
X104420405Y-105885186D01*
X104425645Y-105879946D01*
X104428125Y-105876749D01*
X104435830Y-105867727D01*
X104466096Y-105835497D01*
X104469915Y-105828551D01*
X104469917Y-105828548D01*
X104475858Y-105817742D01*
X104486709Y-105801223D01*
X104491428Y-105795139D01*
X104499124Y-105785217D01*
X104502269Y-105777948D01*
X104502272Y-105777944D01*
X104516684Y-105744639D01*
X104521901Y-105733989D01*
X104543205Y-105695236D01*
X104548243Y-105675613D01*
X104554647Y-105656910D01*
X104559543Y-105645596D01*
X104559543Y-105645595D01*
X104562691Y-105638321D01*
X104563930Y-105630498D01*
X104563933Y-105630488D01*
X104569609Y-105594652D01*
X104572015Y-105583032D01*
X104581038Y-105547887D01*
X104581038Y-105547886D01*
X104583010Y-105540206D01*
X104583010Y-105519952D01*
X104584561Y-105500241D01*
X104586490Y-105488062D01*
X104587730Y-105480233D01*
X104583569Y-105436214D01*
X104583010Y-105424357D01*
X104583010Y-103865084D01*
X104603012Y-103796963D01*
X104619915Y-103775989D01*
X104835257Y-103560647D01*
X104897569Y-103526621D01*
X104968384Y-103531686D01*
X105025220Y-103574233D01*
X105044782Y-103612692D01*
X105080082Y-103727435D01*
X105082652Y-103732415D01*
X105082654Y-103732419D01*
X105163598Y-103889244D01*
X105183118Y-103927064D01*
X105319877Y-104105292D01*
X105486036Y-104256485D01*
X105490783Y-104259463D01*
X105490786Y-104259465D01*
X105627995Y-104345535D01*
X105676344Y-104375864D01*
X105698239Y-104384666D01*
X105753982Y-104428630D01*
X105777108Y-104495755D01*
X105760272Y-104564726D01*
X105705487Y-104615297D01*
X105614610Y-104658644D01*
X105606782Y-104662378D01*
X105424346Y-104793471D01*
X105373551Y-104845887D01*
X105277004Y-104945516D01*
X105268008Y-104954799D01*
X105142710Y-105141262D01*
X105052412Y-105346967D01*
X105051103Y-105352418D01*
X105051102Y-105352422D01*
X105007131Y-105535576D01*
X104999968Y-105565411D01*
X104999645Y-105571016D01*
X104988150Y-105770394D01*
X104987037Y-105789690D01*
X105014025Y-106012715D01*
X105080082Y-106227435D01*
X105082652Y-106232415D01*
X105082654Y-106232419D01*
X105166527Y-106394919D01*
X105183118Y-106427064D01*
X105319877Y-106605292D01*
X105486036Y-106756485D01*
X105490783Y-106759463D01*
X105490786Y-106759465D01*
X105638649Y-106852218D01*
X105676344Y-106875864D01*
X105698239Y-106884666D01*
X105753982Y-106928630D01*
X105777108Y-106995755D01*
X105760272Y-107064726D01*
X105705487Y-107115297D01*
X105614912Y-107158500D01*
X105606782Y-107162378D01*
X105424346Y-107293471D01*
X105395308Y-107323436D01*
X105276511Y-107446025D01*
X105268008Y-107454799D01*
X105142710Y-107641262D01*
X105052412Y-107846967D01*
X105051103Y-107852418D01*
X105051102Y-107852422D01*
X105001278Y-108059954D01*
X104999968Y-108065411D01*
X104987037Y-108289690D01*
X105014025Y-108512715D01*
X105080082Y-108727435D01*
X105082652Y-108732415D01*
X105082654Y-108732419D01*
X105175559Y-108912418D01*
X105183118Y-108927064D01*
X105319877Y-109105292D01*
X105486036Y-109256485D01*
X105490783Y-109259463D01*
X105490786Y-109259465D01*
X105646403Y-109357082D01*
X105676344Y-109375864D01*
X105698239Y-109384666D01*
X105753982Y-109428630D01*
X105777108Y-109495755D01*
X105760272Y-109564726D01*
X105705487Y-109615297D01*
X105633242Y-109649757D01*
X105606782Y-109662378D01*
X105424346Y-109793471D01*
X105407124Y-109811243D01*
X105273971Y-109948646D01*
X105268008Y-109954799D01*
X105142710Y-110141262D01*
X105052412Y-110346967D01*
X105051103Y-110352418D01*
X105051102Y-110352422D01*
X105025827Y-110457702D01*
X104999968Y-110565411D01*
X104994010Y-110668756D01*
X104992425Y-110696239D01*
X104968535Y-110763095D01*
X104912292Y-110806422D01*
X104841553Y-110812465D01*
X104777538Y-110778081D01*
X104593476Y-110594018D01*
X104180908Y-110181450D01*
X104168068Y-110166416D01*
X104164068Y-110160910D01*
X104164066Y-110160908D01*
X104160185Y-110155566D01*
X104153734Y-110149757D01*
X104110816Y-110111114D01*
X104106031Y-110106573D01*
X104091986Y-110092528D01*
X104088568Y-110089760D01*
X104076554Y-110080031D01*
X104071538Y-110075747D01*
X104027080Y-110035717D01*
X104027075Y-110035713D01*
X104022169Y-110031296D01*
X104010552Y-110024589D01*
X103994259Y-110013391D01*
X103988971Y-110009109D01*
X103983839Y-110004953D01*
X103924637Y-109974787D01*
X103918867Y-109971654D01*
X103867055Y-109941740D01*
X103867050Y-109941738D01*
X103861331Y-109938436D01*
X103855051Y-109936395D01*
X103855043Y-109936392D01*
X103848579Y-109934292D01*
X103830317Y-109926728D01*
X103824251Y-109923637D01*
X103824242Y-109923634D01*
X103818363Y-109920638D01*
X103766362Y-109906704D01*
X103754196Y-109903444D01*
X103747894Y-109901578D01*
X103684702Y-109881046D01*
X103671372Y-109879645D01*
X103651929Y-109876042D01*
X103638971Y-109872570D01*
X103632381Y-109872225D01*
X103632377Y-109872224D01*
X103588427Y-109869921D01*
X103572628Y-109869093D01*
X103566069Y-109868577D01*
X103546306Y-109866500D01*
X103526445Y-109866500D01*
X103519850Y-109866327D01*
X103460098Y-109863195D01*
X103460094Y-109863195D01*
X103453507Y-109862850D01*
X103440253Y-109864949D01*
X103420544Y-109866500D01*
X103203543Y-109866500D01*
X103137427Y-109847760D01*
X103078968Y-109811725D01*
X103078966Y-109811724D01*
X103072738Y-109807885D01*
X102950112Y-109767212D01*
X102911389Y-109754368D01*
X102911387Y-109754368D01*
X102904861Y-109752203D01*
X102898025Y-109751503D01*
X102898022Y-109751502D01*
X102849180Y-109746498D01*
X102800400Y-109741500D01*
X101199600Y-109741500D01*
X101196354Y-109741837D01*
X101196350Y-109741837D01*
X101100692Y-109751762D01*
X101100688Y-109751763D01*
X101093834Y-109752474D01*
X101087298Y-109754655D01*
X101087296Y-109754655D01*
X101033203Y-109772702D01*
X100926054Y-109808450D01*
X100775652Y-109901522D01*
X100770479Y-109906704D01*
X100750490Y-109926728D01*
X100650695Y-110026697D01*
X100646855Y-110032927D01*
X100646854Y-110032928D01*
X100562792Y-110169302D01*
X100557885Y-110177262D01*
X100555581Y-110184209D01*
X100515565Y-110304855D01*
X100502203Y-110345139D01*
X100491500Y-110449600D01*
X100491500Y-111050400D01*
X100491837Y-111053646D01*
X100491837Y-111053650D01*
X100501441Y-111146206D01*
X100502474Y-111156166D01*
X100504655Y-111162702D01*
X100504655Y-111162704D01*
X100528162Y-111233163D01*
X100558450Y-111323946D01*
X100651522Y-111474348D01*
X100656704Y-111479521D01*
X100669217Y-111492012D01*
X100776697Y-111599305D01*
X100782927Y-111603145D01*
X100782928Y-111603146D01*
X100914240Y-111684088D01*
X100927262Y-111692115D01*
X100973722Y-111707525D01*
X101088611Y-111745632D01*
X101088613Y-111745632D01*
X101095139Y-111747797D01*
X101101975Y-111748497D01*
X101101978Y-111748498D01*
X101145031Y-111752909D01*
X101199600Y-111758500D01*
X102800400Y-111758500D01*
X102803646Y-111758163D01*
X102803650Y-111758163D01*
X102899308Y-111748238D01*
X102899312Y-111748237D01*
X102906166Y-111747526D01*
X102912702Y-111745345D01*
X102912704Y-111745345D01*
X103067005Y-111693866D01*
X103067007Y-111693865D01*
X103073946Y-111691550D01*
X103075805Y-111690399D01*
X103143893Y-111679934D01*
X103208757Y-111708799D01*
X103216267Y-111715725D01*
X104569085Y-113068542D01*
X104581926Y-113083577D01*
X104585927Y-113089084D01*
X104585932Y-113089090D01*
X104589815Y-113094434D01*
X104594725Y-113098855D01*
X104594726Y-113098856D01*
X104639194Y-113138895D01*
X104643970Y-113143427D01*
X104658015Y-113157472D01*
X104660575Y-113159545D01*
X104660576Y-113159546D01*
X104673443Y-113169966D01*
X104678453Y-113174246D01*
X104722921Y-113214284D01*
X104722926Y-113214288D01*
X104727831Y-113218704D01*
X104733543Y-113222002D01*
X104733546Y-113222004D01*
X104739446Y-113225410D01*
X104755741Y-113236609D01*
X104766161Y-113245047D01*
X104825363Y-113275213D01*
X104831133Y-113278346D01*
X104882945Y-113308260D01*
X104882950Y-113308262D01*
X104888669Y-113311564D01*
X104894949Y-113313605D01*
X104894957Y-113313608D01*
X104901421Y-113315708D01*
X104919683Y-113323272D01*
X104925749Y-113326363D01*
X104925758Y-113326366D01*
X104931637Y-113329362D01*
X104942328Y-113332227D01*
X104995804Y-113346556D01*
X105002106Y-113348422D01*
X105065298Y-113368954D01*
X105078205Y-113370311D01*
X105078628Y-113370355D01*
X105098071Y-113373958D01*
X105111029Y-113377430D01*
X105117619Y-113377775D01*
X105117623Y-113377776D01*
X105161573Y-113380079D01*
X105177372Y-113380907D01*
X105183931Y-113381423D01*
X105203694Y-113383500D01*
X105223555Y-113383500D01*
X105230150Y-113383673D01*
X105289902Y-113386805D01*
X105289906Y-113386805D01*
X105296493Y-113387150D01*
X105309747Y-113385051D01*
X105329456Y-113383500D01*
X107358043Y-113383500D01*
X107377755Y-113385051D01*
X107391007Y-113387150D01*
X107397594Y-113386805D01*
X107397598Y-113386805D01*
X107457350Y-113383673D01*
X107463945Y-113383500D01*
X107483806Y-113383500D01*
X107503569Y-113381423D01*
X107510128Y-113380907D01*
X107525927Y-113380079D01*
X107569877Y-113377776D01*
X107569881Y-113377775D01*
X107576471Y-113377430D01*
X107589429Y-113373958D01*
X107608872Y-113370355D01*
X107609295Y-113370311D01*
X107622202Y-113368954D01*
X107685394Y-113348422D01*
X107691696Y-113346556D01*
X107745172Y-113332227D01*
X107755863Y-113329362D01*
X107761742Y-113326366D01*
X107761751Y-113326363D01*
X107767817Y-113323272D01*
X107786079Y-113315708D01*
X107792543Y-113313608D01*
X107792551Y-113313605D01*
X107798831Y-113311564D01*
X107804550Y-113308262D01*
X107804555Y-113308260D01*
X107856367Y-113278346D01*
X107862137Y-113275213D01*
X107921339Y-113245047D01*
X107931759Y-113236609D01*
X107948052Y-113225411D01*
X107951412Y-113223471D01*
X107959669Y-113218704D01*
X107964575Y-113214287D01*
X107964580Y-113214283D01*
X108009038Y-113174253D01*
X108014054Y-113169969D01*
X108026909Y-113159559D01*
X108026912Y-113159556D01*
X108029486Y-113157472D01*
X108043531Y-113143427D01*
X108048316Y-113138886D01*
X108092774Y-113098856D01*
X108092775Y-113098855D01*
X108097685Y-113094434D01*
X108105575Y-113083574D01*
X108118412Y-113068546D01*
X109039525Y-112147433D01*
X109966553Y-111220404D01*
X110028865Y-111186379D01*
X110055648Y-111183499D01*
X110256230Y-111183499D01*
X110361129Y-111172616D01*
X110367660Y-111170437D01*
X110367665Y-111170436D01*
X110520578Y-111119420D01*
X110527526Y-111117102D01*
X110676689Y-111024797D01*
X110800617Y-110900653D01*
X110804618Y-110894163D01*
X110840607Y-110835777D01*
X110892661Y-110751329D01*
X110898575Y-110733500D01*
X110945719Y-110591366D01*
X110945719Y-110591364D01*
X110947885Y-110584835D01*
X110958500Y-110481231D01*
X110958499Y-109893770D01*
X110947616Y-109788871D01*
X110945437Y-109782340D01*
X110945436Y-109782335D01*
X110894420Y-109629422D01*
X110892102Y-109622474D01*
X110799797Y-109473311D01*
X110675653Y-109349383D01*
X110672730Y-109347581D01*
X110632592Y-109290971D01*
X110629358Y-109220048D01*
X110664982Y-109158636D01*
X110671378Y-109153084D01*
X110676689Y-109149797D01*
X110683040Y-109143435D01*
X110750874Y-109075483D01*
X110813156Y-109041403D01*
X110840047Y-109038500D01*
X111679298Y-109038500D01*
X111747419Y-109058502D01*
X111793912Y-109112158D01*
X111804608Y-109177670D01*
X111789412Y-109322256D01*
X111786496Y-109350000D01*
X111787186Y-109356565D01*
X111805129Y-109527279D01*
X111806458Y-109539928D01*
X111808499Y-109546210D01*
X111808500Y-109546214D01*
X111829097Y-109609604D01*
X111831125Y-109680571D01*
X111828857Y-109688207D01*
X111778929Y-109838735D01*
X111776762Y-109845269D01*
X111766500Y-109945428D01*
X111766500Y-110554572D01*
X111766837Y-110557818D01*
X111766837Y-110557822D01*
X111769900Y-110587340D01*
X111777022Y-110655982D01*
X111830692Y-110816849D01*
X111919929Y-110961055D01*
X112039947Y-111080864D01*
X112184308Y-111169849D01*
X112191256Y-111172154D01*
X112191257Y-111172154D01*
X112338738Y-111221072D01*
X112338740Y-111221072D01*
X112345269Y-111223238D01*
X112445428Y-111233500D01*
X112979572Y-111233500D01*
X112982818Y-111233163D01*
X112982822Y-111233163D01*
X113017430Y-111229572D01*
X113080982Y-111222978D01*
X113241849Y-111169308D01*
X113386055Y-111080071D01*
X113410887Y-111055195D01*
X113473168Y-111021116D01*
X113543988Y-111026118D01*
X113589078Y-111055040D01*
X113614947Y-111080864D01*
X113759308Y-111169849D01*
X113766256Y-111172154D01*
X113766257Y-111172154D01*
X113913738Y-111221072D01*
X113913740Y-111221072D01*
X113920269Y-111223238D01*
X114020428Y-111233500D01*
X114554572Y-111233500D01*
X114557818Y-111233163D01*
X114557822Y-111233163D01*
X114592430Y-111229572D01*
X114655982Y-111222978D01*
X114816849Y-111169308D01*
X114961055Y-111080071D01*
X114985887Y-111055196D01*
X114995584Y-111045482D01*
X115057867Y-111011403D01*
X115084757Y-111008500D01*
X115404290Y-111008500D01*
X115472411Y-111028502D01*
X115493385Y-111045405D01*
X115534619Y-111086639D01*
X115681301Y-111175472D01*
X115688548Y-111177743D01*
X115688550Y-111177744D01*
X115754836Y-111198517D01*
X115844938Y-111226753D01*
X115918365Y-111233500D01*
X115921263Y-111233500D01*
X116175665Y-111233499D01*
X116431634Y-111233499D01*
X116434492Y-111233236D01*
X116434501Y-111233236D01*
X116474378Y-111229572D01*
X116505062Y-111226753D01*
X116511447Y-111224752D01*
X116661450Y-111177744D01*
X116661452Y-111177743D01*
X116668699Y-111175472D01*
X116815381Y-111086639D01*
X116936639Y-110965381D01*
X117025472Y-110818699D01*
X117029320Y-110806422D01*
X117052275Y-110733172D01*
X117076753Y-110655062D01*
X117083500Y-110581635D01*
X117083499Y-109918366D01*
X117082289Y-109905190D01*
X117079846Y-109878608D01*
X117076753Y-109844938D01*
X117066527Y-109812306D01*
X117027744Y-109688550D01*
X117027743Y-109688548D01*
X117025472Y-109681301D01*
X116936639Y-109534619D01*
X116815381Y-109413361D01*
X116668699Y-109324528D01*
X116661452Y-109322257D01*
X116661450Y-109322256D01*
X116595164Y-109301483D01*
X116505062Y-109273247D01*
X116431635Y-109266500D01*
X116428737Y-109266500D01*
X116174335Y-109266501D01*
X115918366Y-109266501D01*
X115915508Y-109266764D01*
X115915499Y-109266764D01*
X115879996Y-109270026D01*
X115844938Y-109273247D01*
X115838560Y-109275246D01*
X115838559Y-109275246D01*
X115688550Y-109322256D01*
X115688548Y-109322257D01*
X115681301Y-109324528D01*
X115534619Y-109413361D01*
X115493385Y-109454595D01*
X115431073Y-109488621D01*
X115404290Y-109491500D01*
X115084670Y-109491500D01*
X115016549Y-109471498D01*
X114995652Y-109454673D01*
X114965233Y-109424307D01*
X114960053Y-109419136D01*
X114815692Y-109330151D01*
X114798740Y-109324528D01*
X114676625Y-109284024D01*
X114654731Y-109276762D01*
X114647893Y-109276061D01*
X114646245Y-109275708D01*
X114583831Y-109241869D01*
X114549620Y-109179659D01*
X114554473Y-109108829D01*
X114596850Y-109051866D01*
X114640048Y-109030802D01*
X114646926Y-109028959D01*
X114666372Y-109025355D01*
X114666795Y-109025311D01*
X114679702Y-109023954D01*
X114742894Y-109003422D01*
X114749196Y-109001556D01*
X114806985Y-108986071D01*
X114813363Y-108984362D01*
X114819242Y-108981366D01*
X114819251Y-108981363D01*
X114825317Y-108978272D01*
X114843579Y-108970708D01*
X114850043Y-108968608D01*
X114850051Y-108968605D01*
X114856331Y-108966564D01*
X114862050Y-108963262D01*
X114862055Y-108963260D01*
X114913867Y-108933346D01*
X114919637Y-108930213D01*
X114978839Y-108900047D01*
X114989259Y-108891609D01*
X115005552Y-108880411D01*
X115005903Y-108880209D01*
X115017169Y-108873704D01*
X115022075Y-108869287D01*
X115022080Y-108869283D01*
X115066538Y-108829253D01*
X115071554Y-108824969D01*
X115084409Y-108814559D01*
X115084412Y-108814556D01*
X115086986Y-108812472D01*
X115101031Y-108798427D01*
X115105816Y-108793886D01*
X115129322Y-108772721D01*
X115155185Y-108749434D01*
X115163069Y-108738582D01*
X115175912Y-108723545D01*
X115693542Y-108205915D01*
X115708577Y-108193074D01*
X115714084Y-108189073D01*
X115714090Y-108189068D01*
X115719434Y-108185185D01*
X115763895Y-108135806D01*
X115768436Y-108131021D01*
X115782472Y-108116985D01*
X115794977Y-108101544D01*
X115799256Y-108096533D01*
X115843704Y-108047169D01*
X115850412Y-108035551D01*
X115861607Y-108019263D01*
X115865890Y-108013974D01*
X115865891Y-108013973D01*
X115870048Y-108008839D01*
X115900214Y-107949633D01*
X115903349Y-107943861D01*
X115933260Y-107892056D01*
X115933265Y-107892046D01*
X115936564Y-107886331D01*
X115938607Y-107880045D01*
X115940712Y-107873569D01*
X115948273Y-107855314D01*
X115951366Y-107849244D01*
X115951369Y-107849237D01*
X115954362Y-107843362D01*
X115971567Y-107779155D01*
X115973418Y-107772908D01*
X115993954Y-107709702D01*
X115994645Y-107703131D01*
X115995357Y-107696361D01*
X115998959Y-107676926D01*
X116000719Y-107670357D01*
X116000719Y-107670355D01*
X116002430Y-107663971D01*
X116005907Y-107597628D01*
X116006424Y-107591059D01*
X116008156Y-107574577D01*
X116008500Y-107571306D01*
X116008500Y-107551445D01*
X116008673Y-107544850D01*
X116011805Y-107485098D01*
X116011805Y-107485094D01*
X116012150Y-107478507D01*
X116010051Y-107465253D01*
X116008500Y-107445544D01*
X116008500Y-106204457D01*
X116010051Y-106184745D01*
X116011118Y-106178008D01*
X116012150Y-106171493D01*
X116011690Y-106162704D01*
X116008673Y-106105150D01*
X116008500Y-106098555D01*
X116008500Y-106078694D01*
X116006423Y-106058931D01*
X116005907Y-106052367D01*
X116002776Y-105992623D01*
X116002775Y-105992619D01*
X116002430Y-105986029D01*
X115998958Y-105973071D01*
X115995355Y-105953628D01*
X115994644Y-105946866D01*
X115993954Y-105940298D01*
X115973422Y-105877106D01*
X115971556Y-105870804D01*
X115956071Y-105813015D01*
X115954362Y-105806637D01*
X115951366Y-105800758D01*
X115951363Y-105800749D01*
X115948272Y-105794683D01*
X115940708Y-105776421D01*
X115938608Y-105769957D01*
X115938605Y-105769949D01*
X115936564Y-105763669D01*
X115933262Y-105757950D01*
X115933260Y-105757945D01*
X115903346Y-105706133D01*
X115900213Y-105700363D01*
X115870047Y-105641161D01*
X115861610Y-105630742D01*
X115850410Y-105614446D01*
X115847004Y-105608546D01*
X115847002Y-105608543D01*
X115843704Y-105602831D01*
X115839288Y-105597926D01*
X115839284Y-105597921D01*
X115799246Y-105553453D01*
X115794966Y-105548443D01*
X115784546Y-105535576D01*
X115784545Y-105535575D01*
X115782472Y-105533015D01*
X115768436Y-105518979D01*
X115763895Y-105514194D01*
X115723856Y-105469726D01*
X115723855Y-105469725D01*
X115719434Y-105464815D01*
X115708581Y-105456930D01*
X115693545Y-105444088D01*
X115295908Y-105046450D01*
X115283068Y-105031416D01*
X115279068Y-105025910D01*
X115279066Y-105025908D01*
X115275185Y-105020566D01*
X115249818Y-104997725D01*
X115225816Y-104976114D01*
X115221031Y-104971573D01*
X115206986Y-104957528D01*
X115204409Y-104955441D01*
X115191554Y-104945031D01*
X115186538Y-104940747D01*
X115142080Y-104900717D01*
X115142075Y-104900713D01*
X115137169Y-104896296D01*
X115125552Y-104889589D01*
X115109259Y-104878391D01*
X115106314Y-104876006D01*
X115098839Y-104869953D01*
X115039637Y-104839787D01*
X115033867Y-104836654D01*
X114982055Y-104806740D01*
X114982050Y-104806738D01*
X114976331Y-104803436D01*
X114970051Y-104801395D01*
X114970043Y-104801392D01*
X114963579Y-104799292D01*
X114945317Y-104791728D01*
X114939251Y-104788637D01*
X114939242Y-104788634D01*
X114933363Y-104785638D01*
X114922672Y-104782773D01*
X114869196Y-104768444D01*
X114862894Y-104766578D01*
X114799702Y-104746046D01*
X114786372Y-104744645D01*
X114766929Y-104741042D01*
X114753971Y-104737570D01*
X114747381Y-104737225D01*
X114747377Y-104737224D01*
X114703427Y-104734921D01*
X114687628Y-104734093D01*
X114681069Y-104733577D01*
X114661306Y-104731500D01*
X114641445Y-104731500D01*
X114634850Y-104731327D01*
X114575098Y-104728195D01*
X114575094Y-104728195D01*
X114568507Y-104727850D01*
X114555253Y-104729949D01*
X114535544Y-104731500D01*
X114381427Y-104731500D01*
X114313306Y-104711498D01*
X114266813Y-104657842D01*
X114255816Y-104595613D01*
X114258306Y-104563981D01*
X114258307Y-104563953D01*
X114258500Y-104561502D01*
X114258500Y-104128498D01*
X114257621Y-104117331D01*
X114256067Y-104097579D01*
X114256066Y-104097574D01*
X114255562Y-104091169D01*
X114209145Y-103931399D01*
X114175247Y-103874080D01*
X114128491Y-103795020D01*
X114128489Y-103795017D01*
X114124453Y-103788193D01*
X114006807Y-103670547D01*
X113999983Y-103666511D01*
X113999980Y-103666509D01*
X113870427Y-103589892D01*
X113870428Y-103589892D01*
X113863601Y-103585855D01*
X113855990Y-103583644D01*
X113855988Y-103583643D01*
X113803769Y-103568472D01*
X113703831Y-103539438D01*
X113697426Y-103538934D01*
X113697421Y-103538933D01*
X113668958Y-103536693D01*
X113668950Y-103536693D01*
X113666502Y-103536500D01*
X111883498Y-103536500D01*
X111881050Y-103536693D01*
X111881042Y-103536693D01*
X111852579Y-103538933D01*
X111852574Y-103538934D01*
X111846169Y-103539438D01*
X111746231Y-103568472D01*
X111694012Y-103583643D01*
X111694010Y-103583644D01*
X111686399Y-103585855D01*
X111679572Y-103589892D01*
X111679573Y-103589892D01*
X111550020Y-103666509D01*
X111550017Y-103666511D01*
X111543193Y-103670547D01*
X111425547Y-103788193D01*
X111421511Y-103795017D01*
X111421509Y-103795020D01*
X111374753Y-103874080D01*
X111340855Y-103931399D01*
X111294438Y-104091169D01*
X111293934Y-104097574D01*
X111293933Y-104097579D01*
X111292379Y-104117331D01*
X111291500Y-104128498D01*
X111291500Y-104561502D01*
X111291693Y-104563950D01*
X111291693Y-104563958D01*
X111293063Y-104581358D01*
X111294438Y-104598831D01*
X111319072Y-104683621D01*
X111335985Y-104741837D01*
X111340855Y-104758601D01*
X111425547Y-104901807D01*
X111428229Y-104904489D01*
X111453502Y-104968861D01*
X111439600Y-105038484D01*
X111429428Y-105054312D01*
X111425547Y-105058193D01*
X111340855Y-105201399D01*
X111338644Y-105209010D01*
X111338643Y-105209012D01*
X111333323Y-105227324D01*
X111294438Y-105361169D01*
X111293934Y-105367574D01*
X111293933Y-105367579D01*
X111291693Y-105396042D01*
X111291500Y-105398498D01*
X111291500Y-105499848D01*
X111271498Y-105567969D01*
X111217842Y-105614462D01*
X111147568Y-105624566D01*
X111082988Y-105595072D01*
X111076482Y-105589021D01*
X110962882Y-105475619D01*
X110957702Y-105470448D01*
X110938939Y-105458882D01*
X110818331Y-105384538D01*
X110818329Y-105384537D01*
X110812101Y-105380698D01*
X110649757Y-105326851D01*
X110642920Y-105326151D01*
X110642918Y-105326150D01*
X110601599Y-105321917D01*
X110548732Y-105316500D01*
X109951268Y-105316500D01*
X109948022Y-105316837D01*
X109948018Y-105316837D01*
X109913917Y-105320375D01*
X109848981Y-105327113D01*
X109686732Y-105381244D01*
X109686603Y-105380856D01*
X109638787Y-105391500D01*
X109581693Y-105391500D01*
X109542756Y-105385333D01*
X109538319Y-105383891D01*
X109532288Y-105381206D01*
X109525836Y-105379834D01*
X109525831Y-105379833D01*
X109351944Y-105342872D01*
X109351939Y-105342872D01*
X109345487Y-105341500D01*
X109154513Y-105341500D01*
X109148061Y-105342872D01*
X109148056Y-105342872D01*
X109061978Y-105361169D01*
X108967712Y-105381206D01*
X108961682Y-105383891D01*
X108961681Y-105383891D01*
X108799278Y-105456197D01*
X108799276Y-105456198D01*
X108793248Y-105458882D01*
X108787907Y-105462762D01*
X108787906Y-105462763D01*
X108754155Y-105487285D01*
X108638747Y-105571134D01*
X108634326Y-105576044D01*
X108634325Y-105576045D01*
X108519761Y-105703282D01*
X108510960Y-105713056D01*
X108469298Y-105785217D01*
X108432193Y-105849485D01*
X108415473Y-105878444D01*
X108356458Y-106060072D01*
X108355768Y-106066633D01*
X108355768Y-106066635D01*
X108343354Y-106184745D01*
X108336496Y-106250000D01*
X108337186Y-106256565D01*
X108355609Y-106431847D01*
X108356458Y-106439928D01*
X108415473Y-106621556D01*
X108510960Y-106786944D01*
X108515378Y-106791851D01*
X108515379Y-106791852D01*
X108609252Y-106896109D01*
X108638747Y-106928866D01*
X108793248Y-107041118D01*
X108799276Y-107043802D01*
X108799278Y-107043803D01*
X108959945Y-107115336D01*
X108967712Y-107118794D01*
X108986187Y-107122721D01*
X109001322Y-107125938D01*
X109063796Y-107159665D01*
X109098118Y-107221814D01*
X109093391Y-107292654D01*
X109051117Y-107349692D01*
X109015004Y-107368708D01*
X108979427Y-107380578D01*
X108979425Y-107380579D01*
X108972474Y-107382898D01*
X108823311Y-107475203D01*
X108699383Y-107599347D01*
X108695543Y-107605577D01*
X108695542Y-107605578D01*
X108677729Y-107634476D01*
X108607339Y-107748671D01*
X108605034Y-107755619D01*
X108605034Y-107755620D01*
X108557589Y-107898663D01*
X108552115Y-107915165D01*
X108541500Y-108018769D01*
X108541501Y-108606230D01*
X108552384Y-108711129D01*
X108554563Y-108717660D01*
X108554564Y-108717665D01*
X108589619Y-108822738D01*
X108607898Y-108877526D01*
X108700203Y-109026689D01*
X108824347Y-109150617D01*
X108827270Y-109152419D01*
X108867408Y-109209029D01*
X108870642Y-109279952D01*
X108835018Y-109341364D01*
X108828622Y-109346916D01*
X108823311Y-109350203D01*
X108699383Y-109474347D01*
X108607339Y-109623671D01*
X108605034Y-109630619D01*
X108605034Y-109630620D01*
X108564617Y-109752474D01*
X108552115Y-109790165D01*
X108541500Y-109893769D01*
X108541500Y-110094352D01*
X108521498Y-110162473D01*
X108504595Y-110183447D01*
X107718455Y-110969587D01*
X107656143Y-111003613D01*
X107585328Y-110998548D01*
X107528492Y-110956001D01*
X107503681Y-110889481D01*
X107503569Y-110873239D01*
X107505854Y-110833618D01*
X107509704Y-110766837D01*
X107512640Y-110715917D01*
X107512640Y-110715914D01*
X107512963Y-110710310D01*
X107485975Y-110487285D01*
X107419918Y-110272565D01*
X107410587Y-110254485D01*
X107319454Y-110077919D01*
X107319454Y-110077918D01*
X107316882Y-110072936D01*
X107180123Y-109894708D01*
X107013964Y-109743515D01*
X107009217Y-109740537D01*
X107009214Y-109740535D01*
X106828405Y-109627115D01*
X106823656Y-109624136D01*
X106801761Y-109615334D01*
X106746018Y-109571370D01*
X106722892Y-109504245D01*
X106739728Y-109435274D01*
X106794513Y-109384703D01*
X106888151Y-109340039D01*
X106888152Y-109340038D01*
X106893218Y-109337622D01*
X107075654Y-109206529D01*
X107178067Y-109100847D01*
X107228089Y-109049229D01*
X107228091Y-109049226D01*
X107231992Y-109045201D01*
X107357290Y-108858738D01*
X107447588Y-108653033D01*
X107449809Y-108643784D01*
X107498722Y-108440046D01*
X107498722Y-108440045D01*
X107500032Y-108434589D01*
X107508721Y-108283891D01*
X107512640Y-108215917D01*
X107512640Y-108215914D01*
X107512963Y-108210310D01*
X107485975Y-107987285D01*
X107419918Y-107772565D01*
X107408272Y-107750000D01*
X107319454Y-107577919D01*
X107319454Y-107577918D01*
X107316882Y-107572936D01*
X107180123Y-107394708D01*
X107013964Y-107243515D01*
X107009217Y-107240537D01*
X107009214Y-107240535D01*
X106828405Y-107127115D01*
X106823656Y-107124136D01*
X106801761Y-107115334D01*
X106746018Y-107071370D01*
X106722892Y-107004245D01*
X106739728Y-106935274D01*
X106794513Y-106884703D01*
X106888151Y-106840039D01*
X106888152Y-106840038D01*
X106893218Y-106837622D01*
X107075654Y-106706529D01*
X107178067Y-106600847D01*
X107228089Y-106549229D01*
X107228091Y-106549226D01*
X107231992Y-106545201D01*
X107357290Y-106358738D01*
X107447588Y-106153033D01*
X107450240Y-106141989D01*
X107498722Y-105940046D01*
X107498722Y-105940045D01*
X107500032Y-105934589D01*
X107504992Y-105848555D01*
X107512640Y-105715917D01*
X107512640Y-105715914D01*
X107512963Y-105710310D01*
X107485975Y-105487285D01*
X107419918Y-105272565D01*
X107416363Y-105265676D01*
X107319454Y-105077919D01*
X107319454Y-105077918D01*
X107316882Y-105072936D01*
X107180123Y-104894708D01*
X107013964Y-104743515D01*
X107009217Y-104740537D01*
X107009214Y-104740535D01*
X106828405Y-104627115D01*
X106823656Y-104624136D01*
X106801761Y-104615334D01*
X106746018Y-104571370D01*
X106722892Y-104504245D01*
X106739728Y-104435274D01*
X106794513Y-104384703D01*
X106888151Y-104340039D01*
X106888152Y-104340038D01*
X106893218Y-104337622D01*
X107075654Y-104206529D01*
X107151271Y-104128498D01*
X107228089Y-104049229D01*
X107228091Y-104049226D01*
X107231992Y-104045201D01*
X107357290Y-103858738D01*
X107447588Y-103653033D01*
X107456160Y-103617331D01*
X107498722Y-103440046D01*
X107498722Y-103440045D01*
X107500032Y-103434589D01*
X107508543Y-103286972D01*
X107512640Y-103215917D01*
X107512640Y-103215914D01*
X107512963Y-103210310D01*
X107485975Y-102987285D01*
X107419918Y-102772565D01*
X107415383Y-102763777D01*
X107319454Y-102577919D01*
X107319454Y-102577918D01*
X107316882Y-102572936D01*
X107180123Y-102394708D01*
X107013964Y-102243515D01*
X107009217Y-102240537D01*
X107009214Y-102240535D01*
X106828405Y-102127115D01*
X106823656Y-102124136D01*
X106615521Y-102040466D01*
X106615519Y-102040465D01*
X106615217Y-102040344D01*
X106615241Y-102040284D01*
X106557485Y-102002540D01*
X106528486Y-101937736D01*
X106539126Y-101867541D01*
X106564242Y-101831662D01*
X108485733Y-99910171D01*
X108548045Y-99876145D01*
X108618860Y-99881210D01*
X108637870Y-99891597D01*
X108638240Y-99890921D01*
X108646109Y-99895229D01*
X108653295Y-99900615D01*
X108789684Y-99951745D01*
X108851866Y-99958500D01*
X109310406Y-99958500D01*
X109378527Y-99978502D01*
X109399501Y-99995405D01*
X109931343Y-100527247D01*
X109938887Y-100535537D01*
X109943000Y-100542018D01*
X109948777Y-100547443D01*
X109992667Y-100588658D01*
X109995509Y-100591413D01*
X110015230Y-100611134D01*
X110018425Y-100613612D01*
X110027447Y-100621318D01*
X110059679Y-100651586D01*
X110066628Y-100655406D01*
X110077432Y-100661346D01*
X110093956Y-100672199D01*
X110109959Y-100684613D01*
X110150543Y-100702176D01*
X110161173Y-100707383D01*
X110199940Y-100728695D01*
X110207617Y-100730666D01*
X110207622Y-100730668D01*
X110219558Y-100733732D01*
X110238266Y-100740137D01*
X110256855Y-100748181D01*
X110264680Y-100749420D01*
X110264682Y-100749421D01*
X110300519Y-100755097D01*
X110312140Y-100757504D01*
X110346713Y-100766380D01*
X110354970Y-100768500D01*
X110375231Y-100768500D01*
X110394940Y-100770051D01*
X110414943Y-100773219D01*
X110422835Y-100772473D01*
X110428062Y-100771979D01*
X110458954Y-100769059D01*
X110470811Y-100768500D01*
X112501776Y-100768500D01*
X112569897Y-100788502D01*
X112616390Y-100842158D01*
X112626494Y-100912432D01*
X112610231Y-100958636D01*
X112590855Y-100991399D01*
X112544438Y-101151169D01*
X112543934Y-101157574D01*
X112543933Y-101157579D01*
X112542228Y-101179243D01*
X112541500Y-101188498D01*
X112541500Y-101621502D01*
X112541693Y-101623950D01*
X112541693Y-101623958D01*
X112541797Y-101625270D01*
X112544438Y-101658831D01*
X112566230Y-101733841D01*
X112586754Y-101804484D01*
X112590855Y-101818601D01*
X112594892Y-101825427D01*
X112671509Y-101954980D01*
X112671511Y-101954983D01*
X112675547Y-101961807D01*
X112793193Y-102079453D01*
X112800017Y-102083489D01*
X112800020Y-102083491D01*
X112873785Y-102127115D01*
X112936399Y-102164145D01*
X112944010Y-102166356D01*
X112944012Y-102166357D01*
X112987479Y-102178985D01*
X113096169Y-102210562D01*
X113102574Y-102211066D01*
X113102579Y-102211067D01*
X113131042Y-102213307D01*
X113131050Y-102213307D01*
X113133498Y-102213500D01*
X114916502Y-102213500D01*
X114918950Y-102213307D01*
X114918958Y-102213307D01*
X114947421Y-102211067D01*
X114947426Y-102211066D01*
X114953831Y-102210562D01*
X115062521Y-102178985D01*
X115105988Y-102166357D01*
X115105990Y-102166356D01*
X115113601Y-102164145D01*
X115176215Y-102127115D01*
X115249980Y-102083491D01*
X115249983Y-102083489D01*
X115256807Y-102079453D01*
X115374453Y-101961807D01*
X115393979Y-101928790D01*
X115445870Y-101880339D01*
X115515721Y-101867634D01*
X115581352Y-101894709D01*
X115619580Y-101946541D01*
X115624124Y-101958016D01*
X115627965Y-101969231D01*
X115640855Y-102013600D01*
X115651775Y-102032065D01*
X115660466Y-102049805D01*
X115668365Y-102069756D01*
X115676995Y-102081634D01*
X115695516Y-102107126D01*
X115702033Y-102117048D01*
X115721507Y-102149977D01*
X115721510Y-102149981D01*
X115725547Y-102156807D01*
X115740711Y-102171971D01*
X115753551Y-102187004D01*
X115766159Y-102204357D01*
X115794167Y-102227527D01*
X115801752Y-102233802D01*
X115810532Y-102241792D01*
X116476345Y-102907605D01*
X116484335Y-102916385D01*
X116488584Y-102923080D01*
X116494362Y-102928506D01*
X116494363Y-102928507D01*
X116540257Y-102971604D01*
X116543099Y-102974359D01*
X116563667Y-102994927D01*
X116567170Y-102997644D01*
X116576195Y-103005352D01*
X116609867Y-103036972D01*
X116616818Y-103040793D01*
X116616819Y-103040794D01*
X116628658Y-103047303D01*
X116645182Y-103058157D01*
X116655865Y-103066443D01*
X116662132Y-103071304D01*
X116681506Y-103079688D01*
X116704536Y-103089654D01*
X116715181Y-103094869D01*
X116755663Y-103117124D01*
X116763337Y-103119094D01*
X116763344Y-103119097D01*
X116776426Y-103122455D01*
X116795134Y-103128860D01*
X116814823Y-103137380D01*
X116822649Y-103138619D01*
X116822651Y-103138620D01*
X116847159Y-103142501D01*
X116860459Y-103144608D01*
X116872070Y-103147012D01*
X116903107Y-103154981D01*
X116909135Y-103156529D01*
X116909136Y-103156529D01*
X116916812Y-103158500D01*
X116938258Y-103158500D01*
X116957968Y-103160051D01*
X116971322Y-103162166D01*
X116971323Y-103162166D01*
X116979152Y-103163406D01*
X117025141Y-103159059D01*
X117036996Y-103158500D01*
X119175050Y-103158500D01*
X119243171Y-103178502D01*
X119264145Y-103195405D01*
X119304595Y-103235855D01*
X119338621Y-103298167D01*
X119341500Y-103324950D01*
X119341500Y-104825241D01*
X119321498Y-104893362D01*
X119309136Y-104909551D01*
X119267817Y-104955441D01*
X119260960Y-104963056D01*
X119165473Y-105128444D01*
X119106458Y-105310072D01*
X119105768Y-105316633D01*
X119105768Y-105316635D01*
X119088982Y-105476345D01*
X119086496Y-105500000D01*
X119087186Y-105506565D01*
X119104954Y-105675614D01*
X119106458Y-105689928D01*
X119165473Y-105871556D01*
X119168776Y-105877278D01*
X119168777Y-105877279D01*
X119195436Y-105923454D01*
X119260960Y-106036944D01*
X119265378Y-106041851D01*
X119265379Y-106041852D01*
X119355543Y-106141989D01*
X119388747Y-106178866D01*
X119444181Y-106219141D01*
X119512730Y-106268945D01*
X119543248Y-106291118D01*
X119549276Y-106293802D01*
X119549278Y-106293803D01*
X119705574Y-106363390D01*
X119717712Y-106368794D01*
X119799906Y-106386265D01*
X119898056Y-106407128D01*
X119898061Y-106407128D01*
X119904513Y-106408500D01*
X120095487Y-106408500D01*
X120101939Y-106407128D01*
X120101944Y-106407128D01*
X120212502Y-106383628D01*
X120283293Y-106389030D01*
X120339926Y-106431847D01*
X120356112Y-106465822D01*
X120357117Y-106465424D01*
X120374126Y-106508382D01*
X120377965Y-106519592D01*
X120390855Y-106563961D01*
X120401775Y-106582426D01*
X120410466Y-106600166D01*
X120418365Y-106620117D01*
X120440824Y-106651029D01*
X120445516Y-106657487D01*
X120452033Y-106667409D01*
X120471507Y-106700338D01*
X120471510Y-106700342D01*
X120475547Y-106707168D01*
X120490711Y-106722332D01*
X120503551Y-106737365D01*
X120516159Y-106754718D01*
X120548202Y-106781226D01*
X120551752Y-106784163D01*
X120560532Y-106792153D01*
X121175984Y-107407605D01*
X121183974Y-107416385D01*
X121188223Y-107423080D01*
X121194001Y-107428506D01*
X121194002Y-107428507D01*
X121239896Y-107471604D01*
X121242738Y-107474359D01*
X121254595Y-107486216D01*
X121288621Y-107548528D01*
X121291500Y-107575311D01*
X121291500Y-107613244D01*
X121292038Y-107617330D01*
X121292038Y-107617331D01*
X121303146Y-107701707D01*
X121292206Y-107771856D01*
X121245078Y-107824954D01*
X121186879Y-107842662D01*
X121186924Y-107842947D01*
X121184873Y-107843272D01*
X121182181Y-107844091D01*
X121180477Y-107844144D01*
X121179088Y-107844188D01*
X121179087Y-107844188D01*
X121171169Y-107844437D01*
X121151444Y-107850168D01*
X121150571Y-107850421D01*
X121131218Y-107854429D01*
X121127743Y-107854868D01*
X121109936Y-107857118D01*
X121102568Y-107860035D01*
X121102565Y-107860036D01*
X121066982Y-107874125D01*
X121055747Y-107877971D01*
X121019016Y-107888642D01*
X121019013Y-107888643D01*
X121011400Y-107890855D01*
X120992935Y-107901775D01*
X120975195Y-107910466D01*
X120955244Y-107918365D01*
X120920152Y-107943861D01*
X120917874Y-107945516D01*
X120907952Y-107952033D01*
X120875023Y-107971507D01*
X120875019Y-107971510D01*
X120868193Y-107975547D01*
X120853029Y-107990711D01*
X120837996Y-108003551D01*
X120820643Y-108016159D01*
X120791198Y-108051752D01*
X120783208Y-108060532D01*
X120564145Y-108279595D01*
X120501833Y-108313621D01*
X120475050Y-108316500D01*
X120201268Y-108316500D01*
X120198022Y-108316837D01*
X120198018Y-108316837D01*
X120105839Y-108326401D01*
X120105835Y-108326402D01*
X120098981Y-108327113D01*
X120092441Y-108329295D01*
X120092436Y-108329296D01*
X120080469Y-108333288D01*
X120009519Y-108335872D01*
X119989347Y-108328871D01*
X119888324Y-108283893D01*
X119888321Y-108283892D01*
X119882288Y-108281206D01*
X119840660Y-108272358D01*
X119701944Y-108242872D01*
X119701939Y-108242872D01*
X119695487Y-108241500D01*
X119504513Y-108241500D01*
X119498061Y-108242872D01*
X119498056Y-108242872D01*
X119411113Y-108261353D01*
X119317712Y-108281206D01*
X119311682Y-108283891D01*
X119311681Y-108283891D01*
X119149278Y-108356197D01*
X119149276Y-108356198D01*
X119143248Y-108358882D01*
X119137907Y-108362762D01*
X119137906Y-108362763D01*
X119132566Y-108366643D01*
X118988747Y-108471134D01*
X118984326Y-108476044D01*
X118984325Y-108476045D01*
X118917376Y-108550400D01*
X118860960Y-108613056D01*
X118832296Y-108662704D01*
X118772072Y-108767015D01*
X118765473Y-108778444D01*
X118706458Y-108960072D01*
X118705768Y-108966633D01*
X118705768Y-108966635D01*
X118699456Y-109026689D01*
X118686496Y-109150000D01*
X118687186Y-109156565D01*
X118704601Y-109322256D01*
X118706458Y-109339928D01*
X118765473Y-109521556D01*
X118860960Y-109686944D01*
X118865378Y-109691851D01*
X118865379Y-109691852D01*
X118969856Y-109807885D01*
X118988747Y-109828866D01*
X119053678Y-109876041D01*
X119129636Y-109931228D01*
X119143248Y-109941118D01*
X119149276Y-109943802D01*
X119149278Y-109943803D01*
X119311681Y-110016109D01*
X119317712Y-110018794D01*
X119397328Y-110035717D01*
X119498056Y-110057128D01*
X119498061Y-110057128D01*
X119504513Y-110058500D01*
X119695487Y-110058500D01*
X119701952Y-110057126D01*
X119706821Y-110056614D01*
X119776659Y-110069385D01*
X119791749Y-110079004D01*
X119792298Y-110079552D01*
X119836134Y-110106573D01*
X119924285Y-110160910D01*
X119937899Y-110169302D01*
X120100243Y-110223149D01*
X120107080Y-110223849D01*
X120107082Y-110223850D01*
X120148401Y-110228083D01*
X120201268Y-110233500D01*
X120746388Y-110233500D01*
X120814509Y-110253502D01*
X120861002Y-110307158D01*
X120871106Y-110377432D01*
X120855507Y-110422500D01*
X120769483Y-110571498D01*
X120765473Y-110578444D01*
X120706458Y-110760072D01*
X120705768Y-110766633D01*
X120705768Y-110766635D01*
X120691644Y-110901019D01*
X120686496Y-110950000D01*
X120687186Y-110956565D01*
X120705468Y-111130505D01*
X120706458Y-111139928D01*
X120765473Y-111321556D01*
X120781606Y-111349500D01*
X120798345Y-111418494D01*
X120775126Y-111485586D01*
X120719319Y-111529474D01*
X120672488Y-111538500D01*
X120251268Y-111538500D01*
X120248022Y-111538837D01*
X120248018Y-111538837D01*
X120213917Y-111542375D01*
X120148981Y-111549113D01*
X120142440Y-111551295D01*
X120142441Y-111551295D01*
X119993676Y-111600927D01*
X119993674Y-111600928D01*
X119986732Y-111603244D01*
X119980508Y-111607096D01*
X119980507Y-111607096D01*
X119910769Y-111650251D01*
X119841287Y-111693248D01*
X119720448Y-111814298D01*
X119716608Y-111820528D01*
X119716607Y-111820529D01*
X119639055Y-111946342D01*
X119630698Y-111959899D01*
X119576851Y-112122243D01*
X119576151Y-112129080D01*
X119576150Y-112129082D01*
X119572422Y-112165474D01*
X119566500Y-112223268D01*
X119566500Y-112820732D01*
X119566837Y-112823978D01*
X119566837Y-112823982D01*
X119570375Y-112858083D01*
X119577113Y-112923019D01*
X119579295Y-112929559D01*
X119627884Y-113075196D01*
X119631244Y-113085268D01*
X119635096Y-113091492D01*
X119635096Y-113091493D01*
X119703780Y-113202485D01*
X119721248Y-113230713D01*
X119726430Y-113235886D01*
X119731444Y-113240891D01*
X119824108Y-113333393D01*
X119829518Y-113338794D01*
X119863597Y-113401076D01*
X119866500Y-113427967D01*
X119866500Y-113660290D01*
X119846498Y-113728411D01*
X119792842Y-113774904D01*
X119722568Y-113785008D01*
X119657988Y-113755514D01*
X119651405Y-113749385D01*
X119565381Y-113663361D01*
X119418699Y-113574528D01*
X119411452Y-113572257D01*
X119411450Y-113572256D01*
X119321026Y-113543919D01*
X119255062Y-113523247D01*
X119181635Y-113516500D01*
X119178737Y-113516500D01*
X118924335Y-113516501D01*
X118668366Y-113516501D01*
X118665508Y-113516764D01*
X118665499Y-113516764D01*
X118629996Y-113520026D01*
X118594938Y-113523247D01*
X118588560Y-113525246D01*
X118588559Y-113525246D01*
X118438550Y-113572256D01*
X118438548Y-113572257D01*
X118431301Y-113574528D01*
X118284619Y-113663361D01*
X118163361Y-113784619D01*
X118159425Y-113791118D01*
X118157754Y-113793249D01*
X118099980Y-113834512D01*
X118058602Y-113841500D01*
X117608498Y-113841500D01*
X117540377Y-113821498D01*
X117493884Y-113767842D01*
X117490516Y-113759730D01*
X117453767Y-113661703D01*
X117450615Y-113653295D01*
X117363261Y-113536739D01*
X117246705Y-113449385D01*
X117110316Y-113398255D01*
X117048134Y-113391500D01*
X115201866Y-113391500D01*
X115139684Y-113398255D01*
X115003295Y-113449385D01*
X114886739Y-113536739D01*
X114799385Y-113653295D01*
X114748255Y-113789684D01*
X114741500Y-113851866D01*
X114741500Y-115148134D01*
X114748255Y-115210316D01*
X114799385Y-115346705D01*
X114886739Y-115463261D01*
X115003295Y-115550615D01*
X115139684Y-115601745D01*
X115201866Y-115608500D01*
X117048134Y-115608500D01*
X117110316Y-115601745D01*
X117246705Y-115550615D01*
X117363261Y-115463261D01*
X117450615Y-115346705D01*
X117475790Y-115279552D01*
X117490516Y-115240270D01*
X117533158Y-115183506D01*
X117599719Y-115158806D01*
X117608498Y-115158500D01*
X117914775Y-115158500D01*
X117982896Y-115178502D01*
X118029389Y-115232158D01*
X118039493Y-115302432D01*
X118034608Y-115323436D01*
X118006458Y-115410072D01*
X118005768Y-115416633D01*
X118005768Y-115416635D01*
X117991355Y-115553767D01*
X117986496Y-115600000D01*
X117987186Y-115606565D01*
X118005680Y-115782522D01*
X118006458Y-115789928D01*
X118008498Y-115796207D01*
X118008499Y-115796211D01*
X118051235Y-115927734D01*
X118051636Y-116004349D01*
X118023247Y-116094938D01*
X118016500Y-116168365D01*
X118016501Y-116831634D01*
X118016764Y-116834492D01*
X118016764Y-116834501D01*
X118018010Y-116848058D01*
X118023247Y-116905062D01*
X118025246Y-116911440D01*
X118025246Y-116911441D01*
X118067260Y-117045506D01*
X118074528Y-117068699D01*
X118163361Y-117215381D01*
X118284619Y-117336639D01*
X118431301Y-117425472D01*
X118438548Y-117427743D01*
X118438550Y-117427744D01*
X118495705Y-117445655D01*
X118594938Y-117476753D01*
X118668365Y-117483500D01*
X118671263Y-117483500D01*
X118925665Y-117483499D01*
X119181634Y-117483499D01*
X119184492Y-117483236D01*
X119184501Y-117483236D01*
X119220004Y-117479974D01*
X119255062Y-117476753D01*
X119280239Y-117468863D01*
X119411450Y-117427744D01*
X119411452Y-117427743D01*
X119418699Y-117425472D01*
X119565381Y-117336639D01*
X119660905Y-117241115D01*
X119723217Y-117207089D01*
X119794032Y-117212154D01*
X119839095Y-117241115D01*
X119934619Y-117336639D01*
X120081301Y-117425472D01*
X120088548Y-117427743D01*
X120088550Y-117427744D01*
X120145705Y-117445655D01*
X120244938Y-117476753D01*
X120318365Y-117483500D01*
X120321263Y-117483500D01*
X120575665Y-117483499D01*
X120831634Y-117483499D01*
X120834492Y-117483236D01*
X120834501Y-117483236D01*
X120870004Y-117479974D01*
X120905062Y-117476753D01*
X120930239Y-117468863D01*
X121061450Y-117427744D01*
X121061452Y-117427743D01*
X121068699Y-117425472D01*
X121215381Y-117336639D01*
X121336639Y-117215381D01*
X121425472Y-117068699D01*
X121432741Y-117045506D01*
X121455363Y-116973316D01*
X121476753Y-116905062D01*
X121483500Y-116831635D01*
X121483499Y-116168366D01*
X121483234Y-116165474D01*
X121477364Y-116101592D01*
X121476753Y-116094938D01*
X121466821Y-116063246D01*
X121427744Y-115938550D01*
X121427743Y-115938548D01*
X121425472Y-115931301D01*
X121397114Y-115884476D01*
X121378935Y-115815846D01*
X121400746Y-115748283D01*
X121415795Y-115730109D01*
X121682304Y-115463601D01*
X121975501Y-115170404D01*
X122037813Y-115136379D01*
X122064596Y-115133500D01*
X122415500Y-115133500D01*
X122483621Y-115153502D01*
X122530114Y-115207158D01*
X122541500Y-115259500D01*
X122541500Y-116898134D01*
X122548255Y-116960316D01*
X122599385Y-117096705D01*
X122686739Y-117213261D01*
X122803295Y-117300615D01*
X122939684Y-117351745D01*
X123001866Y-117358500D01*
X124798134Y-117358500D01*
X124860316Y-117351745D01*
X124996705Y-117300615D01*
X125113261Y-117213261D01*
X125200615Y-117096705D01*
X125238786Y-116994884D01*
X125244598Y-116979382D01*
X125287240Y-116922618D01*
X125353802Y-116897918D01*
X125423150Y-116913126D01*
X125457817Y-116941114D01*
X125486250Y-116973938D01*
X125658126Y-117116632D01*
X125851000Y-117229338D01*
X126059692Y-117309030D01*
X126064760Y-117310061D01*
X126064763Y-117310062D01*
X126168970Y-117331263D01*
X126278597Y-117353567D01*
X126283772Y-117353757D01*
X126283774Y-117353757D01*
X126496673Y-117361564D01*
X126496677Y-117361564D01*
X126501837Y-117361753D01*
X126506957Y-117361097D01*
X126506959Y-117361097D01*
X126718288Y-117334025D01*
X126718289Y-117334025D01*
X126723416Y-117333368D01*
X126728366Y-117331883D01*
X126932429Y-117270661D01*
X126932434Y-117270659D01*
X126937384Y-117269174D01*
X127137994Y-117170896D01*
X127319860Y-117041173D01*
X127478096Y-116883489D01*
X127515358Y-116831634D01*
X127605435Y-116706277D01*
X127608453Y-116702077D01*
X127614339Y-116690169D01*
X127705136Y-116506453D01*
X127705137Y-116506451D01*
X127707430Y-116501811D01*
X127772370Y-116288069D01*
X127801529Y-116066590D01*
X127802683Y-116019355D01*
X127803074Y-116003365D01*
X127803074Y-116003361D01*
X127803156Y-116000000D01*
X127784852Y-115777361D01*
X127730431Y-115560702D01*
X127641354Y-115355840D01*
X127623304Y-115327939D01*
X127603098Y-115259879D01*
X127622895Y-115191698D01*
X127676410Y-115145044D01*
X127729097Y-115133500D01*
X130228483Y-115133500D01*
X130296604Y-115153502D01*
X130343097Y-115207158D01*
X130353201Y-115277432D01*
X130338036Y-115321743D01*
X130337663Y-115322399D01*
X130334743Y-115326680D01*
X130332565Y-115331373D01*
X130332564Y-115331374D01*
X130268847Y-115468642D01*
X130240688Y-115529305D01*
X130180989Y-115744570D01*
X130157251Y-115966695D01*
X130157548Y-115971848D01*
X130157548Y-115971851D01*
X130162818Y-116063246D01*
X130170110Y-116189715D01*
X130171247Y-116194761D01*
X130171248Y-116194767D01*
X130188543Y-116271509D01*
X130219222Y-116407639D01*
X130303266Y-116614616D01*
X130340687Y-116675681D01*
X130417291Y-116800688D01*
X130419987Y-116805088D01*
X130566250Y-116973938D01*
X130738126Y-117116632D01*
X130931000Y-117229338D01*
X131139692Y-117309030D01*
X131144760Y-117310061D01*
X131144763Y-117310062D01*
X131248970Y-117331263D01*
X131358597Y-117353567D01*
X131363772Y-117353757D01*
X131363774Y-117353757D01*
X131576673Y-117361564D01*
X131576677Y-117361564D01*
X131581837Y-117361753D01*
X131586957Y-117361097D01*
X131586959Y-117361097D01*
X131798288Y-117334025D01*
X131798289Y-117334025D01*
X131803416Y-117333368D01*
X131808366Y-117331883D01*
X132012429Y-117270661D01*
X132012434Y-117270659D01*
X132017384Y-117269174D01*
X132217994Y-117170896D01*
X132399860Y-117041173D01*
X132558096Y-116883489D01*
X132595358Y-116831634D01*
X132688453Y-116702077D01*
X132689776Y-116703028D01*
X132736645Y-116659857D01*
X132806580Y-116647625D01*
X132872026Y-116675144D01*
X132899875Y-116706994D01*
X132959987Y-116805088D01*
X133106250Y-116973938D01*
X133278126Y-117116632D01*
X133471000Y-117229338D01*
X133679692Y-117309030D01*
X133684760Y-117310061D01*
X133684763Y-117310062D01*
X133788970Y-117331263D01*
X133898597Y-117353567D01*
X133903772Y-117353757D01*
X133903774Y-117353757D01*
X134116673Y-117361564D01*
X134116677Y-117361564D01*
X134121837Y-117361753D01*
X134126957Y-117361097D01*
X134126959Y-117361097D01*
X134338288Y-117334025D01*
X134338289Y-117334025D01*
X134343416Y-117333368D01*
X134348366Y-117331883D01*
X134552429Y-117270661D01*
X134552434Y-117270659D01*
X134557384Y-117269174D01*
X134757994Y-117170896D01*
X134939860Y-117041173D01*
X135098096Y-116883489D01*
X135135358Y-116831634D01*
X135228453Y-116702077D01*
X135229776Y-116703028D01*
X135276645Y-116659857D01*
X135346580Y-116647625D01*
X135412026Y-116675144D01*
X135439875Y-116706994D01*
X135499987Y-116805088D01*
X135646250Y-116973938D01*
X135818126Y-117116632D01*
X136011000Y-117229338D01*
X136219692Y-117309030D01*
X136224760Y-117310061D01*
X136224763Y-117310062D01*
X136328970Y-117331263D01*
X136438597Y-117353567D01*
X136443772Y-117353757D01*
X136443774Y-117353757D01*
X136656673Y-117361564D01*
X136656677Y-117361564D01*
X136661837Y-117361753D01*
X136666957Y-117361097D01*
X136666959Y-117361097D01*
X136878288Y-117334025D01*
X136878289Y-117334025D01*
X136883416Y-117333368D01*
X136888366Y-117331883D01*
X137092429Y-117270661D01*
X137092434Y-117270659D01*
X137097384Y-117269174D01*
X137297994Y-117170896D01*
X137479860Y-117041173D01*
X137638096Y-116883489D01*
X137675358Y-116831634D01*
X137765435Y-116706277D01*
X137768453Y-116702077D01*
X137780682Y-116677334D01*
X137828792Y-116625129D01*
X137897493Y-116607220D01*
X137964970Y-116629297D01*
X138012076Y-116690169D01*
X138031723Y-116744294D01*
X138033152Y-116748455D01*
X138050074Y-116800689D01*
X138055649Y-116817899D01*
X138059445Y-116824154D01*
X138061951Y-116829628D01*
X138064670Y-116835058D01*
X138067167Y-116841937D01*
X138071180Y-116848057D01*
X138071180Y-116848058D01*
X138107186Y-116902976D01*
X138109523Y-116906680D01*
X138147405Y-116969107D01*
X138151121Y-116973315D01*
X138151122Y-116973316D01*
X138154803Y-116977484D01*
X138154776Y-116977508D01*
X138157429Y-116980500D01*
X138160132Y-116983733D01*
X138164144Y-116989852D01*
X138169456Y-116994884D01*
X138220383Y-117043128D01*
X138222825Y-117045506D01*
X138616230Y-117438911D01*
X138628616Y-117453323D01*
X138637149Y-117464918D01*
X138637154Y-117464923D01*
X138641492Y-117470818D01*
X138647070Y-117475557D01*
X138647073Y-117475560D01*
X138681768Y-117505035D01*
X138689284Y-117511965D01*
X138694979Y-117517660D01*
X138697861Y-117519940D01*
X138717251Y-117535281D01*
X138720655Y-117538072D01*
X138770703Y-117580591D01*
X138776285Y-117585333D01*
X138782801Y-117588661D01*
X138787850Y-117592028D01*
X138792979Y-117595195D01*
X138798716Y-117599734D01*
X138864875Y-117630655D01*
X138868769Y-117632558D01*
X138933808Y-117665769D01*
X138940916Y-117667508D01*
X138946559Y-117669607D01*
X138952322Y-117671524D01*
X138958950Y-117674622D01*
X138966112Y-117676112D01*
X138966113Y-117676112D01*
X139030412Y-117689486D01*
X139034696Y-117690456D01*
X139105610Y-117707808D01*
X139111212Y-117708156D01*
X139111215Y-117708156D01*
X139116764Y-117708500D01*
X139116762Y-117708536D01*
X139120755Y-117708775D01*
X139124947Y-117709149D01*
X139132115Y-117710640D01*
X139209520Y-117708546D01*
X139212928Y-117708500D01*
X139566246Y-117708500D01*
X139601398Y-117713503D01*
X139739989Y-117753767D01*
X139739993Y-117753768D01*
X139746169Y-117755562D01*
X139752574Y-117756066D01*
X139752579Y-117756067D01*
X139781042Y-117758307D01*
X139781050Y-117758307D01*
X139783498Y-117758500D01*
X140941502Y-117758500D01*
X140943950Y-117758307D01*
X140943958Y-117758307D01*
X140972421Y-117756067D01*
X140972426Y-117756066D01*
X140978831Y-117755562D01*
X141123601Y-117713503D01*
X141130988Y-117711357D01*
X141130990Y-117711356D01*
X141138601Y-117709145D01*
X141171090Y-117689931D01*
X141274980Y-117628491D01*
X141274983Y-117628489D01*
X141281807Y-117624453D01*
X141399453Y-117506807D01*
X141401706Y-117502998D01*
X141457996Y-117462345D01*
X141528888Y-117458494D01*
X141590609Y-117493582D01*
X141597276Y-117501276D01*
X141600547Y-117506807D01*
X141718193Y-117624453D01*
X141725017Y-117628489D01*
X141725020Y-117628491D01*
X141828910Y-117689931D01*
X141861399Y-117709145D01*
X141869010Y-117711356D01*
X141869012Y-117711357D01*
X141876399Y-117713503D01*
X142021169Y-117755562D01*
X142027574Y-117756066D01*
X142027579Y-117756067D01*
X142056042Y-117758307D01*
X142056050Y-117758307D01*
X142058498Y-117758500D01*
X143216502Y-117758500D01*
X143218950Y-117758307D01*
X143218958Y-117758307D01*
X143247421Y-117756067D01*
X143247426Y-117756066D01*
X143253831Y-117755562D01*
X143398601Y-117713503D01*
X143405988Y-117711357D01*
X143405990Y-117711356D01*
X143413601Y-117709145D01*
X143446090Y-117689931D01*
X143549980Y-117628491D01*
X143549983Y-117628489D01*
X143556807Y-117624453D01*
X143674453Y-117506807D01*
X143678489Y-117499983D01*
X143678491Y-117499980D01*
X143755108Y-117370427D01*
X143759145Y-117363601D01*
X143762360Y-117352534D01*
X143803768Y-117210007D01*
X143803768Y-117210004D01*
X143805562Y-117203831D01*
X143808500Y-117166502D01*
X143808500Y-116733498D01*
X143805562Y-116696169D01*
X143770270Y-116574692D01*
X143761357Y-116544012D01*
X143761356Y-116544010D01*
X143759145Y-116536399D01*
X143721857Y-116473349D01*
X143678491Y-116400020D01*
X143678489Y-116400017D01*
X143674453Y-116393193D01*
X143556807Y-116275547D01*
X143549983Y-116271511D01*
X143549980Y-116271509D01*
X143420427Y-116194892D01*
X143420428Y-116194892D01*
X143413601Y-116190855D01*
X143405990Y-116188644D01*
X143405988Y-116188643D01*
X143346116Y-116171249D01*
X143253831Y-116144438D01*
X143247426Y-116143934D01*
X143247421Y-116143933D01*
X143218958Y-116141693D01*
X143218950Y-116141693D01*
X143216502Y-116141500D01*
X142058498Y-116141500D01*
X142056050Y-116141693D01*
X142056042Y-116141693D01*
X142027579Y-116143933D01*
X142027574Y-116143934D01*
X142021169Y-116144438D01*
X141928884Y-116171249D01*
X141869012Y-116188643D01*
X141869010Y-116188644D01*
X141861399Y-116190855D01*
X141854572Y-116194892D01*
X141854573Y-116194892D01*
X141725020Y-116271509D01*
X141725017Y-116271511D01*
X141718193Y-116275547D01*
X141600547Y-116393193D01*
X141598294Y-116397002D01*
X141542004Y-116437655D01*
X141471112Y-116441506D01*
X141409391Y-116406418D01*
X141402724Y-116398724D01*
X141399453Y-116393193D01*
X141281807Y-116275547D01*
X141274983Y-116271511D01*
X141274980Y-116271509D01*
X141145427Y-116194892D01*
X141145428Y-116194892D01*
X141138601Y-116190855D01*
X141130990Y-116188644D01*
X141130988Y-116188643D01*
X141071116Y-116171249D01*
X140978831Y-116144438D01*
X140972426Y-116143934D01*
X140972421Y-116143933D01*
X140943958Y-116141693D01*
X140943950Y-116141693D01*
X140941502Y-116141500D01*
X139783498Y-116141500D01*
X139781050Y-116141693D01*
X139781042Y-116141693D01*
X139752579Y-116143933D01*
X139752574Y-116143934D01*
X139746169Y-116144438D01*
X139739997Y-116146231D01*
X139739992Y-116146232D01*
X139692650Y-116159986D01*
X139669652Y-116166668D01*
X139598657Y-116166465D01*
X139539040Y-116127911D01*
X139509732Y-116063246D01*
X139508500Y-116045671D01*
X139508500Y-115954329D01*
X139528502Y-115886208D01*
X139582158Y-115839715D01*
X139652432Y-115829611D01*
X139669649Y-115833331D01*
X139691623Y-115839715D01*
X139739992Y-115853768D01*
X139739997Y-115853769D01*
X139746169Y-115855562D01*
X139752574Y-115856066D01*
X139752579Y-115856067D01*
X139781042Y-115858307D01*
X139781050Y-115858307D01*
X139783498Y-115858500D01*
X140941502Y-115858500D01*
X140943950Y-115858307D01*
X140943958Y-115858307D01*
X140972421Y-115856067D01*
X140972426Y-115856066D01*
X140978831Y-115855562D01*
X141121267Y-115814181D01*
X141130988Y-115811357D01*
X141130990Y-115811356D01*
X141138601Y-115809145D01*
X141192345Y-115777361D01*
X141274980Y-115728491D01*
X141274983Y-115728489D01*
X141281807Y-115724453D01*
X141399453Y-115606807D01*
X141401706Y-115602998D01*
X141457996Y-115562345D01*
X141528888Y-115558494D01*
X141590609Y-115593582D01*
X141597276Y-115601276D01*
X141600547Y-115606807D01*
X141718193Y-115724453D01*
X141725017Y-115728489D01*
X141725020Y-115728491D01*
X141807655Y-115777361D01*
X141861399Y-115809145D01*
X141869010Y-115811356D01*
X141869012Y-115811357D01*
X141878733Y-115814181D01*
X142021169Y-115855562D01*
X142027574Y-115856066D01*
X142027579Y-115856067D01*
X142056042Y-115858307D01*
X142056050Y-115858307D01*
X142058498Y-115858500D01*
X143216502Y-115858500D01*
X143218950Y-115858307D01*
X143218958Y-115858307D01*
X143247421Y-115856067D01*
X143247426Y-115856066D01*
X143253831Y-115855562D01*
X143396267Y-115814181D01*
X143405988Y-115811357D01*
X143405990Y-115811356D01*
X143413601Y-115809145D01*
X143467345Y-115777361D01*
X143549980Y-115728491D01*
X143549983Y-115728489D01*
X143556807Y-115724453D01*
X143674453Y-115606807D01*
X143678489Y-115599983D01*
X143678491Y-115599980D01*
X143755108Y-115470427D01*
X143759145Y-115463601D01*
X143767890Y-115433500D01*
X143799602Y-115324347D01*
X143837815Y-115264512D01*
X143902311Y-115234834D01*
X143920599Y-115233500D01*
X144194039Y-115233500D01*
X144262160Y-115253502D01*
X144283057Y-115270327D01*
X144292298Y-115279552D01*
X144298528Y-115283392D01*
X144298529Y-115283393D01*
X144423766Y-115360590D01*
X144437899Y-115369302D01*
X144600243Y-115423149D01*
X144607080Y-115423849D01*
X144607082Y-115423850D01*
X144648401Y-115428083D01*
X144701268Y-115433500D01*
X145298732Y-115433500D01*
X145301978Y-115433163D01*
X145301982Y-115433163D01*
X145336083Y-115429625D01*
X145401019Y-115422887D01*
X145458247Y-115403794D01*
X145556324Y-115371073D01*
X145556326Y-115371072D01*
X145563268Y-115368756D01*
X145591162Y-115351495D01*
X145702485Y-115282606D01*
X145708713Y-115278752D01*
X145728481Y-115258950D01*
X145824381Y-115162882D01*
X145829552Y-115157702D01*
X145842696Y-115136379D01*
X145915462Y-115018331D01*
X145915463Y-115018329D01*
X145919302Y-115012101D01*
X145973149Y-114849757D01*
X145983500Y-114748732D01*
X145983500Y-114201268D01*
X145972887Y-114098981D01*
X145941049Y-114003551D01*
X145921073Y-113943676D01*
X145921072Y-113943674D01*
X145918756Y-113936732D01*
X145913108Y-113927604D01*
X145832606Y-113797515D01*
X145828752Y-113791287D01*
X145823570Y-113786114D01*
X145823253Y-113785714D01*
X145796617Y-113719903D01*
X145796000Y-113707451D01*
X145796000Y-113296585D01*
X145816002Y-113228464D01*
X145823119Y-113218492D01*
X145825692Y-113215234D01*
X145830864Y-113210053D01*
X145919849Y-113065692D01*
X145923345Y-113055153D01*
X145971072Y-112911262D01*
X145971072Y-112911260D01*
X145973238Y-112904731D01*
X145983500Y-112804572D01*
X145983500Y-112195428D01*
X145972978Y-112094018D01*
X145919308Y-111933151D01*
X145830071Y-111788945D01*
X145710053Y-111669136D01*
X145696728Y-111660922D01*
X145654760Y-111635053D01*
X145565692Y-111580151D01*
X145478695Y-111551295D01*
X145411759Y-111529093D01*
X145353400Y-111488662D01*
X145326163Y-111423098D01*
X145338697Y-111353216D01*
X145387022Y-111301204D01*
X145451427Y-111283500D01*
X146407930Y-111283500D01*
X146426880Y-111284933D01*
X146441115Y-111287099D01*
X146441119Y-111287099D01*
X146448349Y-111288199D01*
X146455641Y-111287606D01*
X146455644Y-111287606D01*
X146501018Y-111283915D01*
X146511233Y-111283500D01*
X146519293Y-111283500D01*
X146532583Y-111281951D01*
X146547507Y-111280211D01*
X146551882Y-111279778D01*
X146617339Y-111274454D01*
X146617342Y-111274453D01*
X146624637Y-111273860D01*
X146631601Y-111271604D01*
X146637560Y-111270413D01*
X146643415Y-111269029D01*
X146650681Y-111268182D01*
X146719327Y-111243265D01*
X146723455Y-111241848D01*
X146785936Y-111221607D01*
X146785938Y-111221606D01*
X146792899Y-111219351D01*
X146799154Y-111215555D01*
X146804628Y-111213049D01*
X146810058Y-111210330D01*
X146816937Y-111207833D01*
X146825094Y-111202485D01*
X146877976Y-111167814D01*
X146881680Y-111165477D01*
X146944107Y-111127595D01*
X146952484Y-111120197D01*
X146952508Y-111120224D01*
X146955500Y-111117571D01*
X146958733Y-111114868D01*
X146964852Y-111110856D01*
X147018128Y-111054617D01*
X147020506Y-111052175D01*
X148133465Y-109939216D01*
X148195777Y-109905190D01*
X148227506Y-109902408D01*
X148240902Y-109902934D01*
X148262002Y-109903763D01*
X148362448Y-109889199D01*
X148457180Y-109875464D01*
X148457185Y-109875463D01*
X148462894Y-109874635D01*
X148468358Y-109872780D01*
X148468363Y-109872779D01*
X148649642Y-109811243D01*
X148649647Y-109811241D01*
X148655114Y-109809385D01*
X148660968Y-109806107D01*
X148765996Y-109747288D01*
X148832225Y-109710198D01*
X148858667Y-109688207D01*
X148983862Y-109584082D01*
X148988294Y-109580396D01*
X149054217Y-109501133D01*
X149114402Y-109428769D01*
X149114404Y-109428766D01*
X149118096Y-109424327D01*
X149200591Y-109277022D01*
X149214459Y-109252259D01*
X149214460Y-109252257D01*
X149217283Y-109247216D01*
X149219139Y-109241749D01*
X149219141Y-109241744D01*
X149280677Y-109060465D01*
X149280678Y-109060460D01*
X149281169Y-109059013D01*
X150723706Y-109059013D01*
X150749494Y-109160553D01*
X150753335Y-109171399D01*
X150833445Y-109345171D01*
X150839196Y-109355132D01*
X150949630Y-109511394D01*
X150957108Y-109520149D01*
X151094165Y-109653663D01*
X151103109Y-109660906D01*
X151262207Y-109767212D01*
X151272317Y-109772702D01*
X151448128Y-109848236D01*
X151459071Y-109851791D01*
X151528383Y-109867475D01*
X151542456Y-109866586D01*
X151546003Y-109857312D01*
X152046051Y-109857312D01*
X152050017Y-109870818D01*
X152060330Y-109872294D01*
X152060353Y-109872289D01*
X152241548Y-109810781D01*
X152252045Y-109806107D01*
X152419009Y-109712603D01*
X152428481Y-109706093D01*
X152575604Y-109583733D01*
X152583733Y-109575604D01*
X152706093Y-109428481D01*
X152712603Y-109419009D01*
X152806107Y-109252045D01*
X152810781Y-109241548D01*
X152872289Y-109060353D01*
X152872302Y-109060297D01*
X152870841Y-109050044D01*
X152857273Y-109046051D01*
X152064166Y-109046051D01*
X152048927Y-109050526D01*
X152047722Y-109051916D01*
X152046051Y-109059599D01*
X152046051Y-109857312D01*
X151546003Y-109857312D01*
X151546051Y-109857187D01*
X151546051Y-109064166D01*
X151541576Y-109048927D01*
X151540186Y-109047722D01*
X151532503Y-109046051D01*
X150738529Y-109046051D01*
X150724998Y-109050024D01*
X150723706Y-109059013D01*
X149281169Y-109059013D01*
X149282533Y-109054996D01*
X149283361Y-109049287D01*
X149283362Y-109049282D01*
X149304565Y-108903043D01*
X149311661Y-108854104D01*
X149313181Y-108796051D01*
X149300423Y-108657204D01*
X149295136Y-108599664D01*
X149295135Y-108599661D01*
X149294607Y-108593910D01*
X149293039Y-108588350D01*
X149280207Y-108542850D01*
X150722752Y-108542850D01*
X150729484Y-108546051D01*
X151527936Y-108546051D01*
X151543175Y-108541576D01*
X151544380Y-108540186D01*
X151546051Y-108532503D01*
X151546051Y-108527936D01*
X152046051Y-108527936D01*
X152050526Y-108543175D01*
X152051916Y-108544380D01*
X152059599Y-108546051D01*
X152854577Y-108546051D01*
X152868108Y-108542078D01*
X152869277Y-108533943D01*
X152832709Y-108404282D01*
X152828584Y-108393535D01*
X152743954Y-108221922D01*
X152737944Y-108212114D01*
X152623451Y-108058790D01*
X152615761Y-108050250D01*
X152475243Y-107920355D01*
X152466118Y-107913354D01*
X152304287Y-107811246D01*
X152294040Y-107806025D01*
X152116316Y-107735121D01*
X152105279Y-107731852D01*
X152063820Y-107723605D01*
X152050945Y-107724757D01*
X152046051Y-107739911D01*
X152046051Y-108527936D01*
X151546051Y-108527936D01*
X151546051Y-107736864D01*
X151542245Y-107723902D01*
X151527330Y-107721966D01*
X151514788Y-107724121D01*
X151503668Y-107727101D01*
X151324146Y-107793330D01*
X151313768Y-107798280D01*
X151149324Y-107896114D01*
X151140012Y-107902880D01*
X150996148Y-108029045D01*
X150988231Y-108037388D01*
X150869769Y-108187656D01*
X150863501Y-108197307D01*
X150774409Y-108366643D01*
X150770004Y-108377278D01*
X150722971Y-108528746D01*
X150722752Y-108542850D01*
X149280207Y-108542850D01*
X149241074Y-108404097D01*
X149241073Y-108404095D01*
X149239506Y-108398538D01*
X149233602Y-108386564D01*
X149152280Y-108221660D01*
X149149725Y-108216479D01*
X149145119Y-108210310D01*
X149087654Y-108133356D01*
X149028269Y-108053830D01*
X148912389Y-107946711D01*
X148883452Y-107919962D01*
X148879207Y-107916038D01*
X148874324Y-107912957D01*
X148874320Y-107912954D01*
X148723454Y-107817765D01*
X148707530Y-107807718D01*
X148518988Y-107732497D01*
X148513328Y-107731371D01*
X148513324Y-107731370D01*
X148325562Y-107694022D01*
X148325559Y-107694022D01*
X148319895Y-107692895D01*
X148314120Y-107692819D01*
X148314116Y-107692819D01*
X148212742Y-107691492D01*
X148116920Y-107690238D01*
X148111223Y-107691217D01*
X148111222Y-107691217D01*
X147922556Y-107723636D01*
X147916859Y-107724615D01*
X147726412Y-107794875D01*
X147551959Y-107898663D01*
X147547619Y-107902469D01*
X147547615Y-107902472D01*
X147418653Y-108015570D01*
X147399341Y-108032506D01*
X147395766Y-108037041D01*
X147395765Y-108037042D01*
X147391973Y-108041852D01*
X147273669Y-108191920D01*
X147270980Y-108197031D01*
X147270978Y-108197034D01*
X147227541Y-108279595D01*
X147179152Y-108371566D01*
X147118956Y-108565429D01*
X147095097Y-108767015D01*
X147095475Y-108772782D01*
X147095324Y-108778551D01*
X147093750Y-108778510D01*
X147079868Y-108840532D01*
X147058739Y-108868580D01*
X146197724Y-109729595D01*
X146135412Y-109763621D01*
X146108629Y-109766500D01*
X144305961Y-109766500D01*
X144237840Y-109746498D01*
X144216943Y-109729673D01*
X144212882Y-109725619D01*
X144207702Y-109720448D01*
X144201471Y-109716607D01*
X144068331Y-109634538D01*
X144068329Y-109634537D01*
X144062101Y-109630698D01*
X143899757Y-109576851D01*
X143892920Y-109576151D01*
X143892918Y-109576150D01*
X143851599Y-109571917D01*
X143798732Y-109566500D01*
X143201268Y-109566500D01*
X143198022Y-109566837D01*
X143198018Y-109566837D01*
X143163917Y-109570375D01*
X143098981Y-109577113D01*
X143092440Y-109579295D01*
X143092441Y-109579295D01*
X142943676Y-109628927D01*
X142943674Y-109628928D01*
X142936732Y-109631244D01*
X142930508Y-109635096D01*
X142930507Y-109635096D01*
X142846722Y-109686944D01*
X142791287Y-109721248D01*
X142670448Y-109842298D01*
X142666608Y-109848528D01*
X142666607Y-109848529D01*
X142590712Y-109971654D01*
X142580698Y-109987899D01*
X142526851Y-110150243D01*
X142526151Y-110157080D01*
X142526150Y-110157082D01*
X142523449Y-110183447D01*
X142516500Y-110251268D01*
X142516500Y-110798732D01*
X142516837Y-110801978D01*
X142516837Y-110801982D01*
X142517925Y-110812465D01*
X142527113Y-110901019D01*
X142529295Y-110907559D01*
X142578358Y-111054617D01*
X142581244Y-111063268D01*
X142585096Y-111069492D01*
X142585096Y-111069493D01*
X142650678Y-111175472D01*
X142671248Y-111208713D01*
X142676430Y-111213886D01*
X142676747Y-111214286D01*
X142703383Y-111280097D01*
X142704000Y-111292549D01*
X142704000Y-111703415D01*
X142683998Y-111771536D01*
X142676881Y-111781508D01*
X142674308Y-111784766D01*
X142669136Y-111789947D01*
X142580151Y-111934308D01*
X142577846Y-111941256D01*
X142577846Y-111941257D01*
X142529750Y-112086262D01*
X142526762Y-112095269D01*
X142516500Y-112195428D01*
X142516500Y-112474892D01*
X142496498Y-112543013D01*
X142442842Y-112589506D01*
X142372568Y-112599610D01*
X142307988Y-112570116D01*
X142301482Y-112564065D01*
X142284865Y-112547476D01*
X142207702Y-112470448D01*
X142183196Y-112455342D01*
X142068331Y-112384538D01*
X142068329Y-112384537D01*
X142062101Y-112380698D01*
X141899757Y-112326851D01*
X141892920Y-112326151D01*
X141892918Y-112326150D01*
X141851599Y-112321917D01*
X141798732Y-112316500D01*
X141201268Y-112316500D01*
X141198022Y-112316837D01*
X141198018Y-112316837D01*
X141163917Y-112320375D01*
X141098981Y-112327113D01*
X141092440Y-112329295D01*
X141092441Y-112329295D01*
X140943676Y-112378927D01*
X140943674Y-112378928D01*
X140936732Y-112381244D01*
X140930508Y-112385096D01*
X140930507Y-112385096D01*
X140798787Y-112466607D01*
X140791287Y-112471248D01*
X140770553Y-112492019D01*
X140708271Y-112526097D01*
X140681381Y-112529000D01*
X140467816Y-112529000D01*
X140399695Y-112508998D01*
X140353202Y-112455342D01*
X140343098Y-112385068D01*
X140360556Y-112336885D01*
X140416005Y-112246929D01*
X140416007Y-112246926D01*
X140419849Y-112240692D01*
X140433795Y-112198646D01*
X140471072Y-112086262D01*
X140471072Y-112086260D01*
X140473238Y-112079731D01*
X140483500Y-111979572D01*
X140483500Y-111445428D01*
X140472978Y-111344018D01*
X140419308Y-111183151D01*
X140330071Y-111038945D01*
X140210053Y-110919136D01*
X140188472Y-110905833D01*
X140135594Y-110873239D01*
X140065692Y-110830151D01*
X140055460Y-110826757D01*
X139911262Y-110778928D01*
X139911260Y-110778928D01*
X139904731Y-110776762D01*
X139804572Y-110766500D01*
X139195428Y-110766500D01*
X139192182Y-110766837D01*
X139192178Y-110766837D01*
X139158397Y-110770342D01*
X139094018Y-110777022D01*
X138944945Y-110826757D01*
X138878874Y-110830480D01*
X138701944Y-110792872D01*
X138701939Y-110792872D01*
X138695487Y-110791500D01*
X138504513Y-110791500D01*
X138498061Y-110792872D01*
X138498056Y-110792872D01*
X138417920Y-110809906D01*
X138317712Y-110831206D01*
X138311682Y-110833891D01*
X138311681Y-110833891D01*
X138149278Y-110906197D01*
X138149276Y-110906198D01*
X138143248Y-110908882D01*
X138137907Y-110912762D01*
X138137906Y-110912763D01*
X138122017Y-110924307D01*
X138059696Y-110969587D01*
X138054753Y-110973178D01*
X137987886Y-110997036D01*
X137918734Y-110980956D01*
X137891597Y-110960337D01*
X137773657Y-110842397D01*
X137765668Y-110833618D01*
X137765663Y-110833612D01*
X137761416Y-110826920D01*
X137709741Y-110778394D01*
X137706900Y-110775640D01*
X137686333Y-110755073D01*
X137682826Y-110752353D01*
X137673804Y-110744647D01*
X137673520Y-110744380D01*
X137640133Y-110713028D01*
X137633181Y-110709206D01*
X137621342Y-110702697D01*
X137604818Y-110691843D01*
X137594132Y-110683555D01*
X137587868Y-110678696D01*
X137580596Y-110675549D01*
X137580594Y-110675548D01*
X137545465Y-110660346D01*
X137534805Y-110655124D01*
X137501284Y-110636695D01*
X137501282Y-110636694D01*
X137494337Y-110632876D01*
X137473559Y-110627541D01*
X137454869Y-110621142D01*
X137435176Y-110612620D01*
X137389552Y-110605394D01*
X137377929Y-110602987D01*
X137342995Y-110594018D01*
X137333188Y-110591500D01*
X137311741Y-110591500D01*
X137292031Y-110589949D01*
X137278677Y-110587834D01*
X137270848Y-110586594D01*
X137224859Y-110590941D01*
X137213004Y-110591500D01*
X135074949Y-110591500D01*
X135006828Y-110571498D01*
X134985854Y-110554595D01*
X133804855Y-109373595D01*
X133770829Y-109311283D01*
X133775894Y-109240467D01*
X133818441Y-109183632D01*
X133884961Y-109158821D01*
X133893950Y-109158500D01*
X135118908Y-109158500D01*
X135187029Y-109178502D01*
X135207926Y-109195327D01*
X135292298Y-109279552D01*
X135298528Y-109283392D01*
X135298529Y-109283393D01*
X135418075Y-109357082D01*
X135437899Y-109369302D01*
X135600243Y-109423149D01*
X135607080Y-109423849D01*
X135607082Y-109423850D01*
X135648401Y-109428083D01*
X135701268Y-109433500D01*
X136298732Y-109433500D01*
X136301978Y-109433163D01*
X136301982Y-109433163D01*
X136336083Y-109429625D01*
X136401019Y-109422887D01*
X136441372Y-109409424D01*
X136556324Y-109371073D01*
X136556326Y-109371072D01*
X136563268Y-109368756D01*
X136582969Y-109356565D01*
X136702485Y-109282606D01*
X136708713Y-109278752D01*
X136745657Y-109241744D01*
X136824381Y-109162882D01*
X136829552Y-109157702D01*
X136837621Y-109144612D01*
X136915462Y-109018331D01*
X136915463Y-109018329D01*
X136919302Y-109012101D01*
X136973149Y-108849757D01*
X136975918Y-108822738D01*
X136978585Y-108796705D01*
X136983500Y-108748732D01*
X136983500Y-108201268D01*
X136972887Y-108098981D01*
X136944526Y-108013974D01*
X136921073Y-107943676D01*
X136921072Y-107943674D01*
X136918756Y-107936732D01*
X136910276Y-107923027D01*
X136901687Y-107909148D01*
X136882850Y-107840695D01*
X136888999Y-107803910D01*
X136891502Y-107796206D01*
X136893542Y-107789928D01*
X136894670Y-107779201D01*
X136912814Y-107606565D01*
X136913504Y-107600000D01*
X136910832Y-107574577D01*
X136894232Y-107416635D01*
X136894232Y-107416633D01*
X136893542Y-107410072D01*
X136865392Y-107323436D01*
X136863364Y-107252469D01*
X136900027Y-107191671D01*
X136963739Y-107160345D01*
X136985225Y-107158500D01*
X138001028Y-107158500D01*
X138069149Y-107178502D01*
X138090123Y-107195405D01*
X138102812Y-107208094D01*
X138110802Y-107216874D01*
X138115051Y-107223569D01*
X138120829Y-107228995D01*
X138120830Y-107228996D01*
X138136291Y-107243515D01*
X138166093Y-107271500D01*
X138166724Y-107272093D01*
X138169566Y-107274848D01*
X138190134Y-107295416D01*
X138193637Y-107298133D01*
X138202662Y-107305841D01*
X138236334Y-107337461D01*
X138243285Y-107341282D01*
X138243286Y-107341283D01*
X138255125Y-107347792D01*
X138271649Y-107358646D01*
X138281738Y-107366471D01*
X138288599Y-107371793D01*
X138295871Y-107374940D01*
X138295873Y-107374941D01*
X138331002Y-107390143D01*
X138341663Y-107395365D01*
X138382130Y-107417613D01*
X138402908Y-107422948D01*
X138421598Y-107429347D01*
X138441291Y-107437869D01*
X138485063Y-107444802D01*
X138486915Y-107445095D01*
X138498538Y-107447502D01*
X138526539Y-107454691D01*
X138543279Y-107458989D01*
X138564726Y-107458989D01*
X138584436Y-107460540D01*
X138605619Y-107463895D01*
X138651608Y-107459548D01*
X138663463Y-107458989D01*
X139840500Y-107458989D01*
X139908621Y-107478991D01*
X139955114Y-107532647D01*
X139966500Y-107584989D01*
X139966500Y-108598134D01*
X139973255Y-108660316D01*
X140024385Y-108796705D01*
X140111739Y-108913261D01*
X140143421Y-108937005D01*
X140148435Y-108940763D01*
X140190950Y-108997622D01*
X140195976Y-109068440D01*
X140180130Y-109107705D01*
X140144251Y-109165912D01*
X140130698Y-109187899D01*
X140076851Y-109350243D01*
X140076151Y-109357080D01*
X140076150Y-109357082D01*
X140074954Y-109368756D01*
X140066500Y-109451268D01*
X140066500Y-110048732D01*
X140077113Y-110151019D01*
X140079295Y-110157559D01*
X140128537Y-110305153D01*
X140131244Y-110313268D01*
X140135096Y-110319492D01*
X140135096Y-110319493D01*
X140155198Y-110351978D01*
X140221248Y-110458713D01*
X140342298Y-110579552D01*
X140348528Y-110583392D01*
X140348529Y-110583393D01*
X140476900Y-110662522D01*
X140487899Y-110669302D01*
X140650243Y-110723149D01*
X140657080Y-110723849D01*
X140657082Y-110723850D01*
X140698401Y-110728083D01*
X140751268Y-110733500D01*
X141298732Y-110733500D01*
X141301978Y-110733163D01*
X141301982Y-110733163D01*
X141336083Y-110729625D01*
X141401019Y-110722887D01*
X141483323Y-110695428D01*
X141556324Y-110671073D01*
X141556326Y-110671072D01*
X141563268Y-110668756D01*
X141576859Y-110660346D01*
X141702485Y-110582606D01*
X141708713Y-110578752D01*
X141714734Y-110572721D01*
X141824381Y-110462882D01*
X141829552Y-110457702D01*
X141834546Y-110449600D01*
X141915462Y-110318331D01*
X141915463Y-110318329D01*
X141919302Y-110312101D01*
X141973149Y-110149757D01*
X141974020Y-110141262D01*
X141979013Y-110092528D01*
X141983500Y-110048732D01*
X141983500Y-109451268D01*
X141981657Y-109433500D01*
X141975367Y-109372885D01*
X141972887Y-109348981D01*
X141951374Y-109284500D01*
X141921073Y-109193676D01*
X141921072Y-109193674D01*
X141918756Y-109186732D01*
X141885815Y-109133500D01*
X141866978Y-109065048D01*
X141888140Y-108997279D01*
X141917395Y-108966372D01*
X141921548Y-108963260D01*
X141988261Y-108913261D01*
X142075615Y-108796705D01*
X142126745Y-108660316D01*
X142133500Y-108598134D01*
X142133500Y-107101866D01*
X142126745Y-107039684D01*
X142075615Y-106903295D01*
X141988261Y-106786739D01*
X141871705Y-106699385D01*
X141735316Y-106648255D01*
X141673134Y-106641500D01*
X141630066Y-106641500D01*
X141561945Y-106621498D01*
X141538379Y-106601889D01*
X141533841Y-106595643D01*
X141498247Y-106566197D01*
X141489468Y-106558208D01*
X141324144Y-106392884D01*
X141316154Y-106384104D01*
X141316152Y-106384102D01*
X141311905Y-106377409D01*
X141260231Y-106328884D01*
X141257390Y-106326130D01*
X141236822Y-106305562D01*
X141233315Y-106302842D01*
X141224293Y-106295136D01*
X141190622Y-106263517D01*
X141183670Y-106259695D01*
X141171831Y-106253186D01*
X141155307Y-106242332D01*
X141144621Y-106234044D01*
X141138357Y-106229185D01*
X141131085Y-106226038D01*
X141131083Y-106226037D01*
X141095954Y-106210835D01*
X141085294Y-106205613D01*
X141051773Y-106187184D01*
X141051771Y-106187183D01*
X141044826Y-106183365D01*
X141024048Y-106178030D01*
X141005358Y-106171631D01*
X140985665Y-106163109D01*
X140940041Y-106155883D01*
X140928418Y-106153476D01*
X140900417Y-106146287D01*
X140883677Y-106141989D01*
X140862230Y-106141989D01*
X140842520Y-106140438D01*
X140829166Y-106138323D01*
X140821337Y-106137083D01*
X140775348Y-106141430D01*
X140763493Y-106141989D01*
X140659500Y-106141989D01*
X140591379Y-106121987D01*
X140544886Y-106068331D01*
X140533500Y-106015989D01*
X140533500Y-104901866D01*
X140526745Y-104839684D01*
X140475615Y-104703295D01*
X140388261Y-104586739D01*
X140351565Y-104559237D01*
X140309050Y-104502378D01*
X140304024Y-104431560D01*
X140319870Y-104392295D01*
X140365462Y-104318331D01*
X140365463Y-104318329D01*
X140369302Y-104312101D01*
X140423149Y-104149757D01*
X140424267Y-104138851D01*
X140433172Y-104051930D01*
X140433500Y-104048732D01*
X140433500Y-103534500D01*
X140453502Y-103466379D01*
X140507158Y-103419886D01*
X140559500Y-103408500D01*
X142725050Y-103408500D01*
X142793171Y-103428502D01*
X142814145Y-103445405D01*
X144980294Y-105611554D01*
X144988284Y-105620334D01*
X144992533Y-105627029D01*
X144998311Y-105632455D01*
X144998312Y-105632456D01*
X145044206Y-105675553D01*
X145047048Y-105678308D01*
X145067616Y-105698876D01*
X145071119Y-105701593D01*
X145080144Y-105709301D01*
X145113816Y-105740921D01*
X145120767Y-105744742D01*
X145120768Y-105744743D01*
X145132607Y-105751252D01*
X145149131Y-105762106D01*
X145159220Y-105769931D01*
X145166081Y-105775253D01*
X145173353Y-105778400D01*
X145173355Y-105778401D01*
X145208484Y-105793603D01*
X145219144Y-105798825D01*
X145235011Y-105807548D01*
X145259612Y-105821073D01*
X145280390Y-105826408D01*
X145299080Y-105832807D01*
X145318773Y-105841329D01*
X145362545Y-105848262D01*
X145364397Y-105848555D01*
X145376020Y-105850962D01*
X145404021Y-105858151D01*
X145420761Y-105862449D01*
X145442208Y-105862449D01*
X145461918Y-105864000D01*
X145483101Y-105867355D01*
X145529090Y-105863008D01*
X145540945Y-105862449D01*
X147251501Y-105862449D01*
X147319622Y-105882451D01*
X147354399Y-105915731D01*
X147357144Y-105919616D01*
X147357149Y-105919621D01*
X147360482Y-105924338D01*
X147364624Y-105928373D01*
X147383608Y-105946866D01*
X147505887Y-106065984D01*
X147674669Y-106178761D01*
X147679972Y-106181039D01*
X147679975Y-106181041D01*
X147847898Y-106253186D01*
X147861177Y-106258891D01*
X147934193Y-106275413D01*
X148053528Y-106302416D01*
X148053533Y-106302417D01*
X148059165Y-106303691D01*
X148064936Y-106303918D01*
X148064938Y-106303918D01*
X148124705Y-106306266D01*
X148262002Y-106311661D01*
X148375973Y-106295136D01*
X148457180Y-106283362D01*
X148457185Y-106283361D01*
X148462894Y-106282533D01*
X148468358Y-106280678D01*
X148468363Y-106280677D01*
X148649642Y-106219141D01*
X148649647Y-106219139D01*
X148655114Y-106217283D01*
X148672580Y-106207502D01*
X148748647Y-106164902D01*
X148832225Y-106118096D01*
X148855721Y-106098555D01*
X148983862Y-105991980D01*
X148988294Y-105988294D01*
X149047745Y-105916812D01*
X149114402Y-105836667D01*
X149114404Y-105836664D01*
X149118096Y-105832225D01*
X149190308Y-105703282D01*
X149214459Y-105660157D01*
X149214460Y-105660155D01*
X149217283Y-105655114D01*
X149219139Y-105649647D01*
X149219141Y-105649642D01*
X149280677Y-105468363D01*
X149280678Y-105468358D01*
X149282533Y-105462894D01*
X149283361Y-105457185D01*
X149283362Y-105457180D01*
X149303712Y-105316828D01*
X149311661Y-105262002D01*
X149313181Y-105203949D01*
X149299699Y-105057225D01*
X149295136Y-105007562D01*
X149295135Y-105007559D01*
X149294607Y-105001808D01*
X149293039Y-104996248D01*
X149241074Y-104811995D01*
X149241073Y-104811993D01*
X149239506Y-104806436D01*
X149233113Y-104793471D01*
X149152280Y-104629558D01*
X149149725Y-104624377D01*
X149144464Y-104617331D01*
X149102774Y-104561502D01*
X149028269Y-104461728D01*
X148879207Y-104323936D01*
X148874324Y-104320855D01*
X148874320Y-104320852D01*
X148712413Y-104218697D01*
X148707530Y-104215616D01*
X148518988Y-104140395D01*
X148513328Y-104139269D01*
X148513324Y-104139268D01*
X148325562Y-104101920D01*
X148325559Y-104101920D01*
X148319895Y-104100793D01*
X148314120Y-104100717D01*
X148314116Y-104100717D01*
X148212742Y-104099390D01*
X148116920Y-104098136D01*
X148111223Y-104099115D01*
X148111222Y-104099115D01*
X147922556Y-104131534D01*
X147916859Y-104132513D01*
X147726412Y-104202773D01*
X147551959Y-104306561D01*
X147547619Y-104310367D01*
X147547615Y-104310370D01*
X147436465Y-104407847D01*
X147399341Y-104440404D01*
X147395767Y-104444938D01*
X147395761Y-104444944D01*
X147354366Y-104497454D01*
X147296485Y-104538568D01*
X147255416Y-104545449D01*
X145828899Y-104545449D01*
X145760778Y-104525447D01*
X145739804Y-104508544D01*
X144081452Y-102850192D01*
X144047426Y-102787880D01*
X144052491Y-102717065D01*
X144095038Y-102660229D01*
X144105275Y-102653321D01*
X144108330Y-102651471D01*
X144190474Y-102601723D01*
X144255743Y-102583500D01*
X144758509Y-102583500D01*
X144824625Y-102602240D01*
X144934308Y-102669849D01*
X144941256Y-102672154D01*
X144941257Y-102672154D01*
X145088738Y-102721072D01*
X145088740Y-102721072D01*
X145095269Y-102723238D01*
X145195428Y-102733500D01*
X145804572Y-102733500D01*
X145807818Y-102733163D01*
X145807822Y-102733163D01*
X145841603Y-102729658D01*
X145905982Y-102722978D01*
X146066849Y-102669308D01*
X146211055Y-102580071D01*
X146330864Y-102460053D01*
X146419849Y-102315692D01*
X146447011Y-102233802D01*
X146471072Y-102161262D01*
X146471072Y-102161260D01*
X146473238Y-102154731D01*
X146483500Y-102054572D01*
X146483500Y-101520428D01*
X146472978Y-101419018D01*
X146424721Y-101274375D01*
X146422135Y-101203427D01*
X146458319Y-101142343D01*
X146521783Y-101110518D01*
X146544244Y-101108500D01*
X146665510Y-101108500D01*
X146671962Y-101107128D01*
X146671967Y-101107128D01*
X146758910Y-101088647D01*
X146852311Y-101068794D01*
X146864514Y-101063361D01*
X147020745Y-100993803D01*
X147020747Y-100993802D01*
X147026775Y-100991118D01*
X147035784Y-100984573D01*
X147093487Y-100942649D01*
X147181276Y-100878866D01*
X147218619Y-100837392D01*
X147279065Y-100800154D01*
X147350048Y-100801506D01*
X147401349Y-100832609D01*
X150914275Y-104345535D01*
X150948301Y-104407847D01*
X150943236Y-104478662D01*
X150914275Y-104523725D01*
X150561994Y-104876006D01*
X150561985Y-104876016D01*
X150559580Y-104878421D01*
X150557447Y-104881074D01*
X150557446Y-104881075D01*
X150525336Y-104921011D01*
X150525334Y-104921014D01*
X150520387Y-104927167D01*
X150501470Y-104968774D01*
X150477922Y-105020566D01*
X150460100Y-105059763D01*
X150458828Y-105068646D01*
X150458827Y-105068649D01*
X150448428Y-105141262D01*
X150439451Y-105203949D01*
X150440724Y-105212838D01*
X150458194Y-105334825D01*
X150460100Y-105348135D01*
X150463814Y-105356303D01*
X150463814Y-105356304D01*
X150476357Y-105383891D01*
X150520387Y-105480731D01*
X150525334Y-105486884D01*
X150525336Y-105486887D01*
X150541158Y-105506565D01*
X150559580Y-105529477D01*
X151470523Y-106440420D01*
X151487259Y-106453876D01*
X151513113Y-106474664D01*
X151513116Y-106474666D01*
X151519269Y-106479613D01*
X151526457Y-106482881D01*
X151600507Y-106516549D01*
X151651865Y-106539900D01*
X151660748Y-106541172D01*
X151660751Y-106541173D01*
X151787162Y-106559276D01*
X151796051Y-106560549D01*
X151804940Y-106559276D01*
X151931351Y-106541173D01*
X151931354Y-106541172D01*
X151940237Y-106539900D01*
X151991596Y-106516549D01*
X152065645Y-106482881D01*
X152072833Y-106479613D01*
X152078986Y-106474666D01*
X152078989Y-106474664D01*
X152104843Y-106453876D01*
X152121579Y-106440420D01*
X153032522Y-105529477D01*
X153050944Y-105506565D01*
X153066766Y-105486887D01*
X153066768Y-105486884D01*
X153071715Y-105480731D01*
X153115745Y-105383891D01*
X153128288Y-105356304D01*
X153128288Y-105356303D01*
X153132002Y-105348135D01*
X153133909Y-105334825D01*
X153151378Y-105212838D01*
X153152651Y-105203949D01*
X153143674Y-105141262D01*
X153133275Y-105068649D01*
X153133274Y-105068646D01*
X153132002Y-105059763D01*
X153114181Y-105020566D01*
X153090632Y-104968774D01*
X153071715Y-104927167D01*
X153066768Y-104921014D01*
X153066766Y-104921011D01*
X153041501Y-104889589D01*
X153032522Y-104878421D01*
X152491029Y-104336928D01*
X152457003Y-104274616D01*
X152454551Y-104257024D01*
X152454551Y-104254619D01*
X152453998Y-104250240D01*
X152453065Y-104238397D01*
X152452724Y-104227527D01*
X152451614Y-104192220D01*
X152445630Y-104171622D01*
X152441622Y-104152269D01*
X152441183Y-104148794D01*
X152438933Y-104130987D01*
X152428760Y-104105292D01*
X152421926Y-104088033D01*
X152418080Y-104076798D01*
X152407409Y-104040067D01*
X152407408Y-104040064D01*
X152405196Y-104032451D01*
X152394276Y-104013986D01*
X152385585Y-103996246D01*
X152377686Y-103976295D01*
X152350533Y-103938922D01*
X152344018Y-103929003D01*
X152324544Y-103896074D01*
X152324541Y-103896070D01*
X152320504Y-103889244D01*
X152305340Y-103874080D01*
X152292499Y-103859046D01*
X152284552Y-103848108D01*
X152279892Y-103841694D01*
X152244298Y-103812248D01*
X152235519Y-103804259D01*
X147449135Y-99017875D01*
X147441145Y-99009095D01*
X147441143Y-99009093D01*
X147436896Y-99002400D01*
X147424350Y-98990618D01*
X147385223Y-98953876D01*
X147382381Y-98951121D01*
X147361813Y-98930553D01*
X147358306Y-98927833D01*
X147349284Y-98920127D01*
X147321393Y-98893936D01*
X147315613Y-98888508D01*
X147308661Y-98884686D01*
X147296822Y-98878177D01*
X147280298Y-98867323D01*
X147269612Y-98859035D01*
X147263348Y-98854176D01*
X147256076Y-98851029D01*
X147256074Y-98851028D01*
X147220945Y-98835826D01*
X147210285Y-98830604D01*
X147176764Y-98812175D01*
X147176762Y-98812174D01*
X147169817Y-98808356D01*
X147149039Y-98803021D01*
X147130349Y-98796622D01*
X147110656Y-98788100D01*
X147065032Y-98780874D01*
X147053409Y-98778467D01*
X147025408Y-98771278D01*
X147008668Y-98766980D01*
X146987221Y-98766980D01*
X146967511Y-98765429D01*
X146954157Y-98763314D01*
X146946328Y-98762074D01*
X146900339Y-98766421D01*
X146888484Y-98766980D01*
X146609500Y-98766980D01*
X146541379Y-98746978D01*
X146494886Y-98693322D01*
X146483500Y-98640980D01*
X146483499Y-98321249D01*
X146483499Y-98318366D01*
X146483192Y-98315016D01*
X146478605Y-98265094D01*
X146476753Y-98244938D01*
X146471226Y-98227301D01*
X146427744Y-98088550D01*
X146427743Y-98088548D01*
X146425472Y-98081301D01*
X146336639Y-97934619D01*
X146215381Y-97813361D01*
X146068699Y-97724528D01*
X146061452Y-97722257D01*
X146061450Y-97722256D01*
X145962088Y-97691118D01*
X145905062Y-97673247D01*
X145831635Y-97666500D01*
X145806135Y-97666500D01*
X145240846Y-97666501D01*
X145172725Y-97646499D01*
X145126232Y-97592843D01*
X145116128Y-97522570D01*
X145147210Y-97456191D01*
X145160121Y-97441852D01*
X145160122Y-97441851D01*
X145164540Y-97436944D01*
X145260027Y-97271556D01*
X145319042Y-97089928D01*
X145320490Y-97076157D01*
X145338314Y-96906565D01*
X145339004Y-96900000D01*
X145335997Y-96871389D01*
X145319732Y-96716635D01*
X145319732Y-96716633D01*
X145319042Y-96710072D01*
X145260027Y-96528444D01*
X145164540Y-96363056D01*
X145101878Y-96293462D01*
X145041175Y-96226045D01*
X145041174Y-96226044D01*
X145036753Y-96221134D01*
X144908681Y-96128084D01*
X144887594Y-96112763D01*
X144887593Y-96112762D01*
X144882252Y-96108882D01*
X144876224Y-96106198D01*
X144876222Y-96106197D01*
X144713819Y-96033891D01*
X144713818Y-96033891D01*
X144707788Y-96031206D01*
X144582533Y-96004582D01*
X144527444Y-95992872D01*
X144527439Y-95992872D01*
X144520987Y-95991500D01*
X144330013Y-95991500D01*
X144323561Y-95992872D01*
X144323556Y-95992872D01*
X144268467Y-96004582D01*
X144143212Y-96031206D01*
X144137182Y-96033891D01*
X144137181Y-96033891D01*
X144116236Y-96043216D01*
X144092517Y-96053777D01*
X144091706Y-96054138D01*
X144021339Y-96063572D01*
X144000795Y-96058625D01*
X143926224Y-96033891D01*
X143911262Y-96028928D01*
X143911260Y-96028928D01*
X143904731Y-96026762D01*
X143804572Y-96016500D01*
X143195428Y-96016500D01*
X143192182Y-96016837D01*
X143192178Y-96016837D01*
X143171275Y-96019006D01*
X143094018Y-96027022D01*
X142933151Y-96080692D01*
X142788945Y-96169929D01*
X142669136Y-96289947D01*
X142665296Y-96296177D01*
X142665295Y-96296178D01*
X142657868Y-96308227D01*
X142580151Y-96434308D01*
X142577846Y-96441256D01*
X142577846Y-96441257D01*
X142530693Y-96583419D01*
X142526762Y-96595269D01*
X142516500Y-96695428D01*
X142516500Y-97229572D01*
X142527022Y-97330982D01*
X142580692Y-97491849D01*
X142669929Y-97636055D01*
X142694805Y-97660887D01*
X142728884Y-97723168D01*
X142723882Y-97793988D01*
X142694960Y-97839078D01*
X142669136Y-97864947D01*
X142665296Y-97871177D01*
X142665295Y-97871178D01*
X142588345Y-97996014D01*
X142535573Y-98043507D01*
X142465501Y-98054931D01*
X142400377Y-98026657D01*
X142373309Y-97995169D01*
X142366242Y-97983500D01*
X142336639Y-97934619D01*
X142215381Y-97813361D01*
X142068699Y-97724528D01*
X142061452Y-97722257D01*
X142061450Y-97722256D01*
X141962088Y-97691118D01*
X141905062Y-97673247D01*
X141831635Y-97666500D01*
X141793098Y-97666500D01*
X141215346Y-97666501D01*
X141147225Y-97646499D01*
X141100732Y-97592843D01*
X141090628Y-97522570D01*
X141121710Y-97456191D01*
X141134621Y-97441852D01*
X141134622Y-97441851D01*
X141139040Y-97436944D01*
X141234527Y-97271556D01*
X141293542Y-97089928D01*
X141294990Y-97076157D01*
X141312814Y-96906565D01*
X141313504Y-96900000D01*
X141310497Y-96871389D01*
X141294232Y-96716635D01*
X141294232Y-96716633D01*
X141293542Y-96710072D01*
X141234527Y-96528444D01*
X141139040Y-96363056D01*
X141076378Y-96293462D01*
X141015675Y-96226045D01*
X141015674Y-96226044D01*
X141011253Y-96221134D01*
X140883181Y-96128084D01*
X140862094Y-96112763D01*
X140862093Y-96112762D01*
X140856752Y-96108882D01*
X140850724Y-96106198D01*
X140850722Y-96106197D01*
X140688319Y-96033891D01*
X140688318Y-96033891D01*
X140682288Y-96031206D01*
X140557033Y-96004582D01*
X140501944Y-95992872D01*
X140501939Y-95992872D01*
X140495487Y-95991500D01*
X140304513Y-95991500D01*
X140298061Y-95992872D01*
X140298056Y-95992872D01*
X140242967Y-96004582D01*
X140117712Y-96031206D01*
X140111679Y-96033892D01*
X140111673Y-96033894D01*
X140077093Y-96049290D01*
X140006727Y-96058725D01*
X139986182Y-96053778D01*
X139926224Y-96033891D01*
X139911262Y-96028928D01*
X139911260Y-96028928D01*
X139904731Y-96026762D01*
X139804572Y-96016500D01*
X139195428Y-96016500D01*
X139192182Y-96016837D01*
X139192178Y-96016837D01*
X139171275Y-96019006D01*
X139094018Y-96027022D01*
X138933151Y-96080692D01*
X138788945Y-96169929D01*
X138669136Y-96289947D01*
X138665296Y-96296177D01*
X138665295Y-96296178D01*
X138600585Y-96401158D01*
X138547813Y-96448651D01*
X138477742Y-96460075D01*
X138412618Y-96431801D01*
X138399694Y-96419358D01*
X138311253Y-96321134D01*
X138201268Y-96241225D01*
X138162094Y-96212763D01*
X138162093Y-96212762D01*
X138156752Y-96208882D01*
X138150724Y-96206198D01*
X138150722Y-96206197D01*
X137988319Y-96133891D01*
X137988318Y-96133891D01*
X137982288Y-96131206D01*
X137882221Y-96109936D01*
X137801944Y-96092872D01*
X137801939Y-96092872D01*
X137795487Y-96091500D01*
X137604513Y-96091500D01*
X137598061Y-96092872D01*
X137598056Y-96092872D01*
X137517945Y-96109901D01*
X137462491Y-96121688D01*
X137391701Y-96116286D01*
X137371024Y-96106217D01*
X137370991Y-96106197D01*
X137318699Y-96074528D01*
X137311452Y-96072257D01*
X137311450Y-96072256D01*
X137189036Y-96033894D01*
X137155062Y-96023247D01*
X137081635Y-96016500D01*
X137078737Y-96016500D01*
X136824335Y-96016501D01*
X136568366Y-96016501D01*
X136565508Y-96016764D01*
X136565499Y-96016764D01*
X136529996Y-96020026D01*
X136494938Y-96023247D01*
X136488560Y-96025246D01*
X136488559Y-96025246D01*
X136338550Y-96072256D01*
X136338548Y-96072257D01*
X136331301Y-96074528D01*
X136184619Y-96163361D01*
X136089095Y-96258885D01*
X136026783Y-96292911D01*
X135955968Y-96287846D01*
X135910905Y-96258885D01*
X135856474Y-96204454D01*
X135822448Y-96142142D01*
X135820563Y-96131151D01*
X135818877Y-96117802D01*
X135818874Y-96117792D01*
X135817882Y-96109936D01*
X135814966Y-96102571D01*
X135814965Y-96102567D01*
X135800874Y-96066979D01*
X135797035Y-96055769D01*
X135784145Y-96011400D01*
X135773225Y-95992935D01*
X135764534Y-95975195D01*
X135756635Y-95955244D01*
X135729482Y-95917871D01*
X135722967Y-95907952D01*
X135703493Y-95875023D01*
X135703490Y-95875019D01*
X135699453Y-95868193D01*
X135684289Y-95853029D01*
X135671448Y-95837995D01*
X135663501Y-95827057D01*
X135658841Y-95820643D01*
X135623247Y-95791197D01*
X135614468Y-95783208D01*
X135554855Y-95723595D01*
X135520829Y-95661283D01*
X135525894Y-95590468D01*
X135568441Y-95533632D01*
X135634961Y-95508821D01*
X135643950Y-95508500D01*
X152950633Y-95508500D01*
X152970018Y-95510000D01*
X152984852Y-95512310D01*
X152984855Y-95512310D01*
X152993724Y-95513691D01*
X153002627Y-95512527D01*
X153002628Y-95512527D01*
X153013076Y-95511161D01*
X153035594Y-95510249D01*
X153336051Y-95525010D01*
X153348345Y-95526221D01*
X153675034Y-95574680D01*
X153687156Y-95577090D01*
X153707387Y-95582158D01*
X154007523Y-95657339D01*
X154019355Y-95660928D01*
X154330311Y-95772190D01*
X154341735Y-95776922D01*
X154470864Y-95837995D01*
X154640292Y-95918128D01*
X154651188Y-95923953D01*
X154736661Y-95975183D01*
X154934467Y-96093744D01*
X154944748Y-96100614D01*
X155015106Y-96152795D01*
X155210017Y-96297350D01*
X155219556Y-96305177D01*
X155464282Y-96526985D01*
X155473015Y-96535718D01*
X155694823Y-96780444D01*
X155702650Y-96789983D01*
X155827915Y-96958884D01*
X155899386Y-97055252D01*
X155906256Y-97065533D01*
X155975704Y-97181399D01*
X156067765Y-97334992D01*
X156076045Y-97348807D01*
X156081872Y-97359708D01*
X156103323Y-97405062D01*
X156223078Y-97658265D01*
X156227810Y-97669689D01*
X156339072Y-97980645D01*
X156342661Y-97992477D01*
X156422909Y-98312841D01*
X156425320Y-98324966D01*
X156472178Y-98640855D01*
X156473779Y-98651650D01*
X156474990Y-98663949D01*
X156489235Y-98953876D01*
X156489390Y-98957034D01*
X156488042Y-98982598D01*
X156486309Y-98993724D01*
X156487474Y-99002630D01*
X156490436Y-99025283D01*
X156491500Y-99041621D01*
X156491500Y-114950633D01*
X156490000Y-114970018D01*
X156487848Y-114983841D01*
X156486309Y-114993724D01*
X156487473Y-115002627D01*
X156487473Y-115002628D01*
X156488839Y-115013076D01*
X156489751Y-115035594D01*
X156475163Y-115332551D01*
X156474991Y-115336045D01*
X156473779Y-115348345D01*
X156435190Y-115608500D01*
X156425321Y-115675031D01*
X156422910Y-115687156D01*
X156400314Y-115777361D01*
X156342661Y-116007523D01*
X156339072Y-116019355D01*
X156227810Y-116330311D01*
X156223078Y-116341735D01*
X156177712Y-116437655D01*
X156089044Y-116625129D01*
X156081874Y-116640288D01*
X156076047Y-116651188D01*
X156017748Y-116748455D01*
X155906256Y-116934467D01*
X155899386Y-116944748D01*
X155875108Y-116977484D01*
X155702650Y-117210017D01*
X155694823Y-117219556D01*
X155496010Y-117438911D01*
X155473020Y-117464277D01*
X155464282Y-117473015D01*
X155219556Y-117694823D01*
X155210017Y-117702650D01*
X155134972Y-117758307D01*
X154944748Y-117899386D01*
X154934467Y-117906256D01*
X154792101Y-117991588D01*
X154651188Y-118076047D01*
X154640292Y-118081872D01*
X154505870Y-118145448D01*
X154341735Y-118223078D01*
X154330311Y-118227810D01*
X154019355Y-118339072D01*
X154007523Y-118342661D01*
X153781196Y-118399354D01*
X153687156Y-118422910D01*
X153675034Y-118425320D01*
X153348345Y-118473779D01*
X153336051Y-118474990D01*
X153042961Y-118489390D01*
X153017402Y-118488042D01*
X153006276Y-118486309D01*
X152974714Y-118490436D01*
X152958379Y-118491500D01*
X103049367Y-118491500D01*
X103029982Y-118490000D01*
X103015148Y-118487690D01*
X103015145Y-118487690D01*
X103006276Y-118486309D01*
X102997373Y-118487473D01*
X102997372Y-118487473D01*
X102986924Y-118488839D01*
X102964406Y-118489751D01*
X102663949Y-118474990D01*
X102651655Y-118473779D01*
X102324966Y-118425320D01*
X102312844Y-118422910D01*
X102218804Y-118399354D01*
X101992477Y-118342661D01*
X101980645Y-118339072D01*
X101669689Y-118227810D01*
X101658265Y-118223078D01*
X101494130Y-118145448D01*
X101359708Y-118081872D01*
X101348812Y-118076047D01*
X101207899Y-117991588D01*
X101065533Y-117906256D01*
X101055252Y-117899386D01*
X100865028Y-117758307D01*
X100789983Y-117702650D01*
X100780444Y-117694823D01*
X100535718Y-117473015D01*
X100526980Y-117464277D01*
X100503990Y-117438911D01*
X100305177Y-117219556D01*
X100297350Y-117210017D01*
X100124892Y-116977484D01*
X100100614Y-116944748D01*
X100093744Y-116934467D01*
X99982252Y-116748455D01*
X99923953Y-116651188D01*
X99918126Y-116640288D01*
X99910957Y-116625129D01*
X99822288Y-116437655D01*
X99776922Y-116341735D01*
X99772190Y-116330311D01*
X99660928Y-116019355D01*
X99657339Y-116007523D01*
X99599686Y-115777361D01*
X99577090Y-115687156D01*
X99574679Y-115675031D01*
X99564810Y-115608500D01*
X99526220Y-115348343D01*
X99525009Y-115336045D01*
X99524838Y-115332551D01*
X99519196Y-115217715D01*
X99510795Y-115046695D01*
X99512387Y-115019619D01*
X99512494Y-115018982D01*
X99513576Y-115012552D01*
X99513729Y-115000000D01*
X99509773Y-114972376D01*
X99508500Y-114954514D01*
X99508500Y-99053250D01*
X99510246Y-99032345D01*
X99512770Y-99017344D01*
X99512770Y-99017341D01*
X99513576Y-99012552D01*
X99513729Y-99000000D01*
X99513040Y-98995185D01*
X99513039Y-98995177D01*
X99511550Y-98984781D01*
X99510429Y-98960735D01*
X99510902Y-98951121D01*
X99525010Y-98663949D01*
X99526221Y-98651650D01*
X99527823Y-98640855D01*
X99574680Y-98324966D01*
X99577091Y-98312841D01*
X99657339Y-97992477D01*
X99660928Y-97980645D01*
X99772190Y-97669689D01*
X99776922Y-97658265D01*
X99896677Y-97405062D01*
X99918128Y-97359708D01*
X99923955Y-97348807D01*
X99932236Y-97334992D01*
X100024296Y-97181399D01*
X100093744Y-97065533D01*
X100100614Y-97055252D01*
X100172085Y-96958884D01*
X100297350Y-96789983D01*
X100305177Y-96780444D01*
X100526985Y-96535718D01*
X100535718Y-96526985D01*
X100780444Y-96305177D01*
X100789983Y-96297350D01*
X100984894Y-96152795D01*
X101055252Y-96100614D01*
X101065533Y-96093744D01*
X101263339Y-95975183D01*
X101348812Y-95923953D01*
X101359708Y-95918128D01*
X101529136Y-95837995D01*
X101658265Y-95776922D01*
X101669689Y-95772190D01*
X101980645Y-95660928D01*
X101992477Y-95657339D01*
X102292613Y-95582158D01*
X102312844Y-95577090D01*
X102324966Y-95574680D01*
X102651655Y-95526221D01*
X102663949Y-95525010D01*
X102957039Y-95510610D01*
X102982598Y-95511958D01*
X102993724Y-95513691D01*
X103025286Y-95509564D01*
X103041621Y-95508500D01*
X123074220Y-95508500D01*
X123142341Y-95528502D01*
G37*
%TD.AperFunction*%
%TA.AperFunction,Conductor*%
G36*
X130772629Y-111693840D02*
G01*
X130772676Y-111693481D01*
X130882669Y-111707962D01*
X130882670Y-111707962D01*
X130886756Y-111708500D01*
X131113244Y-111708500D01*
X131117330Y-111707962D01*
X131117331Y-111707962D01*
X131199054Y-111697203D01*
X131269203Y-111708142D01*
X131322301Y-111755271D01*
X131341500Y-111822125D01*
X131341500Y-111892944D01*
X131340941Y-111904800D01*
X131339212Y-111912537D01*
X131340078Y-111940094D01*
X131341438Y-111983369D01*
X131341500Y-111987327D01*
X131341500Y-112016432D01*
X131342056Y-112020832D01*
X131342988Y-112032664D01*
X131344438Y-112078831D01*
X131350293Y-112098981D01*
X131350419Y-112099416D01*
X131354430Y-112118782D01*
X131357118Y-112140064D01*
X131360034Y-112147429D01*
X131360035Y-112147433D01*
X131374126Y-112183021D01*
X131377965Y-112194231D01*
X131390855Y-112238600D01*
X131401775Y-112257065D01*
X131410466Y-112274805D01*
X131418365Y-112294756D01*
X131441874Y-112327113D01*
X131445516Y-112332126D01*
X131452033Y-112342048D01*
X131471507Y-112374977D01*
X131471510Y-112374981D01*
X131475547Y-112381807D01*
X131490711Y-112396971D01*
X131503551Y-112412004D01*
X131516159Y-112429357D01*
X131522268Y-112434411D01*
X131527694Y-112440189D01*
X131526370Y-112441432D01*
X131560555Y-112492046D01*
X131566500Y-112530294D01*
X131566500Y-112798732D01*
X131577113Y-112901019D01*
X131583535Y-112920269D01*
X131628537Y-113055153D01*
X131631244Y-113063268D01*
X131635096Y-113069492D01*
X131635096Y-113069493D01*
X131710705Y-113191675D01*
X131721248Y-113208713D01*
X131842298Y-113329552D01*
X131848528Y-113333392D01*
X131848529Y-113333393D01*
X131981660Y-113415456D01*
X131987899Y-113419302D01*
X132150243Y-113473149D01*
X132157080Y-113473849D01*
X132157082Y-113473850D01*
X132198401Y-113478083D01*
X132251268Y-113483500D01*
X132798732Y-113483500D01*
X132801978Y-113483163D01*
X132801982Y-113483163D01*
X132836083Y-113479625D01*
X132901019Y-113472887D01*
X132955319Y-113454771D01*
X133056324Y-113421073D01*
X133056326Y-113421072D01*
X133063268Y-113418756D01*
X133120474Y-113383356D01*
X133188926Y-113364519D01*
X133217602Y-113369312D01*
X133217712Y-113368794D01*
X133398056Y-113407128D01*
X133398061Y-113407128D01*
X133404513Y-113408500D01*
X133595487Y-113408500D01*
X133601939Y-113407128D01*
X133601944Y-113407128D01*
X133782288Y-113368794D01*
X133782633Y-113370418D01*
X133845297Y-113368629D01*
X133879378Y-113383229D01*
X133931660Y-113415456D01*
X133937899Y-113419302D01*
X134100243Y-113473149D01*
X134107080Y-113473849D01*
X134107082Y-113473850D01*
X134148401Y-113478083D01*
X134201268Y-113483500D01*
X134748732Y-113483500D01*
X134751978Y-113483163D01*
X134751982Y-113483163D01*
X134786083Y-113479625D01*
X134851019Y-113472887D01*
X134905319Y-113454771D01*
X135006324Y-113421073D01*
X135006326Y-113421072D01*
X135013268Y-113418756D01*
X135032969Y-113406565D01*
X135152485Y-113332606D01*
X135158713Y-113328752D01*
X135279552Y-113207702D01*
X135310514Y-113157472D01*
X135365462Y-113068331D01*
X135365463Y-113068329D01*
X135369302Y-113062101D01*
X135423149Y-112899757D01*
X135433500Y-112798732D01*
X135433500Y-112201268D01*
X135432773Y-112194255D01*
X135426010Y-112129082D01*
X135422887Y-112098981D01*
X135414678Y-112074376D01*
X135412092Y-112003429D01*
X135448275Y-111942344D01*
X135511739Y-111910518D01*
X135534201Y-111908500D01*
X136715500Y-111908500D01*
X136783621Y-111928502D01*
X136830114Y-111982158D01*
X136841500Y-112034500D01*
X136841500Y-113715500D01*
X136821498Y-113783621D01*
X136767842Y-113830114D01*
X136715500Y-113841500D01*
X135742026Y-113841500D01*
X135730170Y-113840941D01*
X135730167Y-113840941D01*
X135722433Y-113839212D01*
X135667416Y-113840941D01*
X135651601Y-113841438D01*
X135647643Y-113841500D01*
X135618538Y-113841500D01*
X135614138Y-113842056D01*
X135602306Y-113842988D01*
X135556139Y-113844438D01*
X135535549Y-113850420D01*
X135516188Y-113854430D01*
X135509432Y-113855283D01*
X135502766Y-113856125D01*
X135502765Y-113856125D01*
X135494906Y-113857118D01*
X135487541Y-113860034D01*
X135487537Y-113860035D01*
X135451949Y-113874126D01*
X135440739Y-113877965D01*
X135396370Y-113890855D01*
X135377913Y-113901771D01*
X135360163Y-113910466D01*
X135340214Y-113918365D01*
X135333803Y-113923023D01*
X135333801Y-113923024D01*
X135302834Y-113945523D01*
X135292916Y-113952038D01*
X135253163Y-113975548D01*
X135238002Y-113990709D01*
X135222970Y-114003548D01*
X135205613Y-114016159D01*
X135200563Y-114022263D01*
X135200561Y-114022265D01*
X135176163Y-114051757D01*
X135168175Y-114060535D01*
X134845025Y-114383686D01*
X134566656Y-114662055D01*
X134504343Y-114696080D01*
X134435500Y-114691732D01*
X134408212Y-114682069D01*
X134403123Y-114681162D01*
X134403121Y-114681162D01*
X134193373Y-114643800D01*
X134193367Y-114643799D01*
X134188284Y-114642894D01*
X134114452Y-114641992D01*
X133970081Y-114640228D01*
X133970079Y-114640228D01*
X133964911Y-114640165D01*
X133744091Y-114673955D01*
X133731532Y-114678060D01*
X133660568Y-114680210D01*
X133603294Y-114647389D01*
X133063652Y-114107747D01*
X133056112Y-114099461D01*
X133052000Y-114092982D01*
X133002348Y-114046356D01*
X132999507Y-114043602D01*
X132979770Y-114023865D01*
X132976573Y-114021385D01*
X132967551Y-114013680D01*
X132956765Y-114003551D01*
X132935321Y-113983414D01*
X132928375Y-113979595D01*
X132928372Y-113979593D01*
X132917566Y-113973652D01*
X132901047Y-113962801D01*
X132894473Y-113957702D01*
X132885041Y-113950386D01*
X132877772Y-113947241D01*
X132877768Y-113947238D01*
X132844463Y-113932826D01*
X132833813Y-113927609D01*
X132795060Y-113906305D01*
X132775437Y-113901267D01*
X132756734Y-113894863D01*
X132745420Y-113889967D01*
X132745419Y-113889967D01*
X132738145Y-113886819D01*
X132730322Y-113885580D01*
X132730312Y-113885577D01*
X132694476Y-113879901D01*
X132682856Y-113877495D01*
X132647711Y-113868472D01*
X132647710Y-113868472D01*
X132640030Y-113866500D01*
X132619776Y-113866500D01*
X132600065Y-113864949D01*
X132587886Y-113863020D01*
X132580057Y-113861780D01*
X132572165Y-113862526D01*
X132536039Y-113865941D01*
X132524181Y-113866500D01*
X125411347Y-113866500D01*
X125343226Y-113846498D01*
X125296733Y-113792842D01*
X125286629Y-113722568D01*
X125302228Y-113677500D01*
X125331223Y-113627279D01*
X125331224Y-113627278D01*
X125334527Y-113621556D01*
X125393542Y-113439928D01*
X125394782Y-113428136D01*
X125412814Y-113256565D01*
X125413504Y-113250000D01*
X125410562Y-113222004D01*
X125394232Y-113066635D01*
X125394232Y-113066633D01*
X125393542Y-113060072D01*
X125334527Y-112878444D01*
X125309157Y-112834501D01*
X125290382Y-112801982D01*
X125239040Y-112713056D01*
X125165863Y-112631785D01*
X125135147Y-112567779D01*
X125133500Y-112547476D01*
X125133500Y-111818834D01*
X125153502Y-111750713D01*
X125207158Y-111704220D01*
X125275946Y-111693912D01*
X125382669Y-111707962D01*
X125382670Y-111707962D01*
X125386756Y-111708500D01*
X125613244Y-111708500D01*
X125617330Y-111707962D01*
X125617331Y-111707962D01*
X125727324Y-111693481D01*
X125727527Y-111695026D01*
X125772473Y-111695026D01*
X125772676Y-111693481D01*
X125882669Y-111707962D01*
X125882670Y-111707962D01*
X125886756Y-111708500D01*
X126113244Y-111708500D01*
X126117330Y-111707962D01*
X126117331Y-111707962D01*
X126227324Y-111693481D01*
X126227527Y-111695026D01*
X126272473Y-111695026D01*
X126272676Y-111693481D01*
X126382669Y-111707962D01*
X126382670Y-111707962D01*
X126386756Y-111708500D01*
X126613244Y-111708500D01*
X126617330Y-111707962D01*
X126617331Y-111707962D01*
X126727324Y-111693481D01*
X126727527Y-111695026D01*
X126772473Y-111695026D01*
X126772676Y-111693481D01*
X126882669Y-111707962D01*
X126882670Y-111707962D01*
X126886756Y-111708500D01*
X127113244Y-111708500D01*
X127117330Y-111707962D01*
X127117331Y-111707962D01*
X127227324Y-111693481D01*
X127227527Y-111695026D01*
X127272473Y-111695026D01*
X127272676Y-111693481D01*
X127382669Y-111707962D01*
X127382670Y-111707962D01*
X127386756Y-111708500D01*
X127613244Y-111708500D01*
X127617330Y-111707962D01*
X127617331Y-111707962D01*
X127727324Y-111693481D01*
X127727527Y-111695026D01*
X127772473Y-111695026D01*
X127772676Y-111693481D01*
X127882669Y-111707962D01*
X127882670Y-111707962D01*
X127886756Y-111708500D01*
X128113244Y-111708500D01*
X128120648Y-111707525D01*
X128190796Y-111718467D01*
X128243893Y-111765597D01*
X128263081Y-111833951D01*
X128244866Y-111897718D01*
X128224528Y-111931301D01*
X128222257Y-111938548D01*
X128222256Y-111938550D01*
X128213388Y-111966847D01*
X128173247Y-112094938D01*
X128166500Y-112168365D01*
X128166501Y-112831634D01*
X128166764Y-112834492D01*
X128166764Y-112834501D01*
X128168080Y-112848822D01*
X128173247Y-112905062D01*
X128175246Y-112911440D01*
X128175246Y-112911441D01*
X128209401Y-113020428D01*
X128224528Y-113068699D01*
X128313361Y-113215381D01*
X128434619Y-113336639D01*
X128581301Y-113425472D01*
X128588548Y-113427743D01*
X128588550Y-113427744D01*
X128606487Y-113433365D01*
X128744938Y-113476753D01*
X128818365Y-113483500D01*
X128821263Y-113483500D01*
X129075665Y-113483499D01*
X129331634Y-113483499D01*
X129334492Y-113483236D01*
X129334501Y-113483236D01*
X129370004Y-113479974D01*
X129405062Y-113476753D01*
X129411447Y-113474752D01*
X129561450Y-113427744D01*
X129561452Y-113427743D01*
X129568699Y-113425472D01*
X129715381Y-113336639D01*
X129836639Y-113215381D01*
X129925472Y-113068699D01*
X129976753Y-112905062D01*
X129983500Y-112831635D01*
X129983500Y-112574950D01*
X130003502Y-112506829D01*
X130020405Y-112485855D01*
X130407605Y-112098655D01*
X130416385Y-112090665D01*
X130416387Y-112090663D01*
X130423080Y-112086416D01*
X130434385Y-112074378D01*
X130471604Y-112034743D01*
X130474359Y-112031901D01*
X130494927Y-112011333D01*
X130497647Y-112007826D01*
X130505353Y-111998804D01*
X130536972Y-111965133D01*
X130540794Y-111958181D01*
X130547303Y-111946342D01*
X130558157Y-111929818D01*
X130566445Y-111919132D01*
X130571304Y-111912868D01*
X130574452Y-111905594D01*
X130589654Y-111870465D01*
X130594876Y-111859805D01*
X130613305Y-111826284D01*
X130613306Y-111826282D01*
X130617124Y-111819337D01*
X130622459Y-111798559D01*
X130628858Y-111779869D01*
X130634540Y-111766739D01*
X130679950Y-111712166D01*
X130747657Y-111690806D01*
X130772629Y-111693840D01*
G37*
%TD.AperFunction*%
%TA.AperFunction,Conductor*%
G36*
X137200000Y-102171290D02*
G01*
X138186315Y-103157605D01*
X138194305Y-103166385D01*
X138198554Y-103173080D01*
X138204332Y-103178506D01*
X138204333Y-103178507D01*
X138250227Y-103221604D01*
X138253069Y-103224359D01*
X138273637Y-103244927D01*
X138277140Y-103247644D01*
X138286165Y-103255352D01*
X138319837Y-103286972D01*
X138326788Y-103290793D01*
X138326789Y-103290794D01*
X138338628Y-103297303D01*
X138355152Y-103308157D01*
X138365241Y-103315982D01*
X138372102Y-103321304D01*
X138379374Y-103324451D01*
X138379376Y-103324452D01*
X138414505Y-103339654D01*
X138425164Y-103344876D01*
X138451200Y-103359189D01*
X138501259Y-103409533D01*
X138516500Y-103469604D01*
X138516500Y-104048732D01*
X138527113Y-104151019D01*
X138529295Y-104157559D01*
X138578537Y-104305153D01*
X138581244Y-104313268D01*
X138585095Y-104319491D01*
X138614185Y-104366500D01*
X138633022Y-104434952D01*
X138611860Y-104502721D01*
X138582606Y-104533627D01*
X138511739Y-104586739D01*
X138439113Y-104683644D01*
X138382255Y-104726158D01*
X138311437Y-104731184D01*
X138249193Y-104697173D01*
X138215381Y-104663361D01*
X138068699Y-104574528D01*
X138061452Y-104572257D01*
X138061450Y-104572256D01*
X137953951Y-104538568D01*
X137905062Y-104523247D01*
X137831635Y-104516500D01*
X137828737Y-104516500D01*
X137574335Y-104516501D01*
X137318366Y-104516501D01*
X137315508Y-104516764D01*
X137315499Y-104516764D01*
X137279996Y-104520026D01*
X137244938Y-104523247D01*
X137238560Y-104525246D01*
X137238559Y-104525246D01*
X137088550Y-104572256D01*
X137088548Y-104572257D01*
X137081301Y-104574528D01*
X136934619Y-104663361D01*
X136839095Y-104758885D01*
X136776783Y-104792911D01*
X136705968Y-104787846D01*
X136660905Y-104758885D01*
X136565381Y-104663361D01*
X136418699Y-104574528D01*
X136411452Y-104572257D01*
X136411450Y-104572256D01*
X136303951Y-104538568D01*
X136255062Y-104523247D01*
X136181635Y-104516500D01*
X136178737Y-104516500D01*
X135924335Y-104516501D01*
X135668366Y-104516501D01*
X135665508Y-104516764D01*
X135665499Y-104516764D01*
X135629996Y-104520026D01*
X135594938Y-104523247D01*
X135588560Y-104525246D01*
X135588559Y-104525246D01*
X135438550Y-104572256D01*
X135438548Y-104572257D01*
X135431301Y-104574528D01*
X135424805Y-104578462D01*
X135424803Y-104578463D01*
X135399771Y-104593623D01*
X135331141Y-104611802D01*
X135263578Y-104589991D01*
X135218532Y-104535115D01*
X135208500Y-104485847D01*
X135208500Y-104386756D01*
X135193481Y-104272676D01*
X135195026Y-104272473D01*
X135195026Y-104227527D01*
X135193481Y-104227324D01*
X135207962Y-104117331D01*
X135207962Y-104117330D01*
X135208500Y-104113244D01*
X135208500Y-103886756D01*
X135193481Y-103772676D01*
X135195026Y-103772473D01*
X135195026Y-103727527D01*
X135193481Y-103727324D01*
X135207962Y-103617331D01*
X135207962Y-103617330D01*
X135208500Y-103613244D01*
X135208500Y-103386756D01*
X135200363Y-103324950D01*
X135197203Y-103300946D01*
X135208142Y-103230797D01*
X135255271Y-103177699D01*
X135322125Y-103158500D01*
X135394944Y-103158500D01*
X135406800Y-103159059D01*
X135406803Y-103159059D01*
X135414537Y-103160788D01*
X135485369Y-103158562D01*
X135489327Y-103158500D01*
X135518432Y-103158500D01*
X135522832Y-103157944D01*
X135534664Y-103157012D01*
X135580831Y-103155562D01*
X135601421Y-103149580D01*
X135620782Y-103145570D01*
X135628408Y-103144607D01*
X135634204Y-103143875D01*
X135634205Y-103143875D01*
X135642064Y-103142882D01*
X135649429Y-103139966D01*
X135649433Y-103139965D01*
X135685021Y-103125874D01*
X135696231Y-103122035D01*
X135740600Y-103109145D01*
X135759065Y-103098225D01*
X135776805Y-103089534D01*
X135796756Y-103081635D01*
X135834129Y-103054482D01*
X135844048Y-103047967D01*
X135876977Y-103028493D01*
X135876981Y-103028490D01*
X135883807Y-103024453D01*
X135898971Y-103009289D01*
X135914005Y-102996448D01*
X135931357Y-102983841D01*
X135936411Y-102977732D01*
X135942189Y-102972306D01*
X135943432Y-102973630D01*
X135994046Y-102939445D01*
X136032294Y-102933500D01*
X136300732Y-102933500D01*
X136303978Y-102933163D01*
X136303982Y-102933163D01*
X136338083Y-102929625D01*
X136403019Y-102922887D01*
X136511316Y-102886756D01*
X136558324Y-102871073D01*
X136558326Y-102871072D01*
X136565268Y-102868756D01*
X136627526Y-102830230D01*
X136704485Y-102782606D01*
X136710713Y-102778752D01*
X136831552Y-102657702D01*
X136856437Y-102617331D01*
X136917462Y-102518331D01*
X136917463Y-102518329D01*
X136921302Y-102512101D01*
X136975149Y-102349757D01*
X136985500Y-102248732D01*
X136986844Y-102248870D01*
X137008533Y-102186927D01*
X137064499Y-102143242D01*
X137135198Y-102136749D01*
X137200000Y-102171290D01*
G37*
%TD.AperFunction*%
%TA.AperFunction,Conductor*%
G36*
X138213990Y-99467924D02*
G01*
X138241127Y-99488542D01*
X138585670Y-99833084D01*
X138593660Y-99841865D01*
X138597909Y-99848560D01*
X138603687Y-99853986D01*
X138603688Y-99853987D01*
X138649598Y-99897099D01*
X138652440Y-99899854D01*
X138672992Y-99920406D01*
X138676126Y-99922837D01*
X138676488Y-99923118D01*
X138685516Y-99930828D01*
X138719192Y-99962452D01*
X138726143Y-99966273D01*
X138726144Y-99966274D01*
X138737980Y-99972781D01*
X138754509Y-99983638D01*
X138765194Y-99991927D01*
X138765196Y-99991928D01*
X138771456Y-99996784D01*
X138813869Y-100015137D01*
X138824506Y-100020348D01*
X138864988Y-100042604D01*
X138872667Y-100044576D01*
X138872668Y-100044576D01*
X138885759Y-100047937D01*
X138904461Y-100054339D01*
X138924148Y-100062859D01*
X138931977Y-100064099D01*
X138969773Y-100070085D01*
X138981399Y-100072493D01*
X139018460Y-100082009D01*
X139018461Y-100082009D01*
X139026137Y-100083980D01*
X139047583Y-100083980D01*
X139067293Y-100085531D01*
X139088476Y-100088886D01*
X139134460Y-100084539D01*
X139146319Y-100083980D01*
X140390500Y-100083980D01*
X140458621Y-100103982D01*
X140505114Y-100157638D01*
X140516500Y-100209980D01*
X140516500Y-100479572D01*
X140527022Y-100580982D01*
X140580692Y-100741849D01*
X140621423Y-100807670D01*
X140662591Y-100874197D01*
X140681428Y-100942649D01*
X140660267Y-101010419D01*
X140605826Y-101055990D01*
X140555446Y-101066500D01*
X140255743Y-101066500D01*
X140190472Y-101048276D01*
X140133215Y-101013600D01*
X140068699Y-100974528D01*
X140061452Y-100972257D01*
X140061450Y-100972256D01*
X139995164Y-100951483D01*
X139905062Y-100923247D01*
X139831635Y-100916500D01*
X139828737Y-100916500D01*
X139499140Y-100916501D01*
X139168366Y-100916501D01*
X139165508Y-100916764D01*
X139165499Y-100916764D01*
X139129996Y-100920026D01*
X139094938Y-100923247D01*
X139088560Y-100925246D01*
X139088559Y-100925246D01*
X138938550Y-100972256D01*
X138938548Y-100972257D01*
X138931301Y-100974528D01*
X138784619Y-101063361D01*
X138663361Y-101184619D01*
X138574528Y-101331301D01*
X138552754Y-101400781D01*
X138513298Y-101459802D01*
X138448195Y-101488122D01*
X138378115Y-101476749D01*
X138343426Y-101452196D01*
X137273310Y-100382080D01*
X137239284Y-100319768D01*
X137244349Y-100248953D01*
X137286896Y-100192117D01*
X137310554Y-100178148D01*
X137311448Y-100177744D01*
X137318699Y-100175472D01*
X137325196Y-100171537D01*
X137325199Y-100171536D01*
X137458880Y-100090576D01*
X137458879Y-100090576D01*
X137465381Y-100086639D01*
X137586639Y-99965381D01*
X137675472Y-99818699D01*
X137678474Y-99809122D01*
X137721737Y-99671067D01*
X137722599Y-99668317D01*
X137762056Y-99609295D01*
X137816636Y-99582749D01*
X137838069Y-99578193D01*
X137882288Y-99568794D01*
X137888559Y-99566002D01*
X138050724Y-99493802D01*
X138050725Y-99493801D01*
X138056752Y-99491118D01*
X138077970Y-99475702D01*
X138144838Y-99451844D01*
X138213990Y-99467924D01*
G37*
%TD.AperFunction*%
%TA.AperFunction,Conductor*%
G36*
X144458621Y-100103982D02*
G01*
X144505114Y-100157638D01*
X144516500Y-100209980D01*
X144516500Y-100479572D01*
X144527022Y-100580982D01*
X144580692Y-100741849D01*
X144621423Y-100807670D01*
X144662591Y-100874197D01*
X144681428Y-100942649D01*
X144660267Y-101010419D01*
X144605826Y-101055990D01*
X144555446Y-101066500D01*
X144255743Y-101066500D01*
X144190472Y-101048276D01*
X144133215Y-101013600D01*
X144068699Y-100974528D01*
X144061452Y-100972257D01*
X144061450Y-100972256D01*
X143995164Y-100951483D01*
X143905062Y-100923247D01*
X143831635Y-100916500D01*
X143809828Y-100916500D01*
X143253611Y-100916501D01*
X143185490Y-100896499D01*
X143138997Y-100842843D01*
X143128893Y-100772570D01*
X143144492Y-100727501D01*
X143231223Y-100577279D01*
X143231224Y-100577278D01*
X143234527Y-100571556D01*
X143293542Y-100389928D01*
X143294272Y-100382988D01*
X143313504Y-100200000D01*
X143315677Y-100200228D01*
X143332816Y-100141859D01*
X143386472Y-100095366D01*
X143438814Y-100083980D01*
X144390500Y-100083980D01*
X144458621Y-100103982D01*
G37*
%TD.AperFunction*%
%TA.AperFunction,Conductor*%
G36*
X134208621Y-96678502D02*
G01*
X134255114Y-96732158D01*
X134266500Y-96784500D01*
X134266501Y-97060227D01*
X134266501Y-97331634D01*
X134266764Y-97334492D01*
X134266764Y-97334501D01*
X134270026Y-97370004D01*
X134273247Y-97405062D01*
X134275246Y-97411440D01*
X134275246Y-97411441D01*
X134300445Y-97491849D01*
X134324528Y-97568699D01*
X134413361Y-97715381D01*
X134534619Y-97836639D01*
X134681301Y-97925472D01*
X134688548Y-97927743D01*
X134688550Y-97927744D01*
X134754836Y-97948517D01*
X134844938Y-97976753D01*
X134918365Y-97983500D01*
X134934614Y-97983500D01*
X135175051Y-97983499D01*
X135243170Y-98003501D01*
X135264145Y-98020404D01*
X135295146Y-98051405D01*
X135329172Y-98113717D01*
X135324107Y-98184532D01*
X135281560Y-98241368D01*
X135215040Y-98266179D01*
X135206051Y-98266500D01*
X134924843Y-98266501D01*
X134918366Y-98266501D01*
X134915508Y-98266764D01*
X134915499Y-98266764D01*
X134879996Y-98270026D01*
X134844938Y-98273247D01*
X134838560Y-98275246D01*
X134838559Y-98275246D01*
X134688550Y-98322256D01*
X134688548Y-98322257D01*
X134681301Y-98324528D01*
X134534619Y-98413361D01*
X134413361Y-98534619D01*
X134409425Y-98541118D01*
X134407754Y-98543249D01*
X134349980Y-98584512D01*
X134308602Y-98591500D01*
X133832056Y-98591500D01*
X133820200Y-98590941D01*
X133820197Y-98590941D01*
X133812463Y-98589212D01*
X133757446Y-98590941D01*
X133741631Y-98591438D01*
X133737673Y-98591500D01*
X133708568Y-98591500D01*
X133704168Y-98592056D01*
X133692336Y-98592988D01*
X133646169Y-98594438D01*
X133625579Y-98600420D01*
X133606218Y-98604430D01*
X133601766Y-98604992D01*
X133592796Y-98606125D01*
X133592795Y-98606125D01*
X133584936Y-98607118D01*
X133577571Y-98610034D01*
X133577567Y-98610035D01*
X133541979Y-98624126D01*
X133530769Y-98627965D01*
X133486400Y-98640855D01*
X133467935Y-98651775D01*
X133450195Y-98660466D01*
X133430244Y-98668365D01*
X133395894Y-98693322D01*
X133392874Y-98695516D01*
X133382952Y-98702033D01*
X133350023Y-98721507D01*
X133350019Y-98721510D01*
X133343193Y-98725547D01*
X133328029Y-98740711D01*
X133312996Y-98753551D01*
X133295643Y-98766159D01*
X133267187Y-98800557D01*
X133266198Y-98801752D01*
X133258208Y-98810532D01*
X132873595Y-99195145D01*
X132811283Y-99229171D01*
X132740468Y-99224106D01*
X132683632Y-99181559D01*
X132658821Y-99115039D01*
X132658500Y-99106050D01*
X132658500Y-98336756D01*
X132656459Y-98321249D01*
X132649065Y-98265094D01*
X132643481Y-98222676D01*
X132631570Y-98193919D01*
X132611382Y-98145182D01*
X132584686Y-98080732D01*
X132491157Y-97958843D01*
X132369267Y-97865314D01*
X132227324Y-97806519D01*
X132128132Y-97793460D01*
X132117331Y-97792038D01*
X132117330Y-97792038D01*
X132113244Y-97791500D01*
X131886756Y-97791500D01*
X131882670Y-97792038D01*
X131882669Y-97792038D01*
X131800946Y-97802797D01*
X131730797Y-97791858D01*
X131677699Y-97744729D01*
X131658500Y-97677875D01*
X131658500Y-97464274D01*
X131664907Y-97424607D01*
X131670984Y-97406284D01*
X131673149Y-97399757D01*
X131675328Y-97378498D01*
X131683172Y-97301930D01*
X131683500Y-97298732D01*
X131683500Y-96784500D01*
X131703502Y-96716379D01*
X131757158Y-96669886D01*
X131809500Y-96658500D01*
X134140500Y-96658500D01*
X134208621Y-96678502D01*
G37*
%TD.AperFunction*%
%TA.AperFunction,Conductor*%
G36*
X127324171Y-95528502D02*
G01*
X127370664Y-95582158D01*
X127380768Y-95652432D01*
X127351274Y-95717012D01*
X127345145Y-95723595D01*
X125592395Y-97476345D01*
X125583615Y-97484335D01*
X125583613Y-97484337D01*
X125576920Y-97488584D01*
X125571494Y-97494362D01*
X125571493Y-97494363D01*
X125528396Y-97540257D01*
X125525641Y-97543099D01*
X125505073Y-97563667D01*
X125502356Y-97567170D01*
X125494648Y-97576195D01*
X125463028Y-97609867D01*
X125459207Y-97616818D01*
X125459206Y-97616819D01*
X125452697Y-97628658D01*
X125441843Y-97645182D01*
X125440822Y-97646499D01*
X125428696Y-97662132D01*
X125425549Y-97669404D01*
X125425548Y-97669406D01*
X125410346Y-97704535D01*
X125405124Y-97715195D01*
X125392064Y-97738951D01*
X125341718Y-97789010D01*
X125298097Y-97803172D01*
X125290009Y-97804237D01*
X125272676Y-97806519D01*
X125130732Y-97865314D01*
X125076702Y-97906773D01*
X125010483Y-97932372D01*
X124940935Y-97918107D01*
X124923296Y-97906771D01*
X124875823Y-97870344D01*
X124875818Y-97870341D01*
X124869267Y-97865314D01*
X124727324Y-97806519D01*
X124680972Y-97800417D01*
X124616046Y-97771695D01*
X124576954Y-97712430D01*
X124576109Y-97641438D01*
X124590160Y-97609378D01*
X124615461Y-97568333D01*
X124615462Y-97568330D01*
X124619302Y-97562101D01*
X124673149Y-97399757D01*
X124683500Y-97298732D01*
X124683500Y-97084694D01*
X124697284Y-97027392D01*
X124712438Y-96997715D01*
X124715769Y-96991192D01*
X124717509Y-96984080D01*
X124719605Y-96978445D01*
X124721523Y-96972681D01*
X124724622Y-96966050D01*
X124726914Y-96955035D01*
X124739490Y-96894571D01*
X124740461Y-96890282D01*
X124750104Y-96850874D01*
X124757808Y-96819390D01*
X124758500Y-96808236D01*
X124758535Y-96808238D01*
X124758775Y-96804266D01*
X124759152Y-96800045D01*
X124760641Y-96792885D01*
X124758546Y-96715458D01*
X124758500Y-96712050D01*
X124758500Y-96636999D01*
X124775381Y-96573999D01*
X124776388Y-96572256D01*
X124834527Y-96471556D01*
X124893542Y-96289928D01*
X124895000Y-96276061D01*
X124912814Y-96106565D01*
X124913504Y-96100000D01*
X124910086Y-96067477D01*
X124894232Y-95916635D01*
X124894232Y-95916633D01*
X124893542Y-95910072D01*
X124834527Y-95728444D01*
X124816662Y-95697501D01*
X124799923Y-95628506D01*
X124823143Y-95561414D01*
X124878949Y-95517526D01*
X124925780Y-95508500D01*
X127256050Y-95508500D01*
X127324171Y-95528502D01*
G37*
%TD.AperFunction*%
%TD*%
M02*
