%TF.GenerationSoftware,KiCad,Pcbnew,6.0.6-3a73a75311~116~ubuntu20.04.1*%
%TF.CreationDate,2022-07-05T10:29:56+02:00*%
%TF.ProjectId,Temperature_Tire_Sensor,54656d70-6572-4617-9475-72655f546972,rev?*%
%TF.SameCoordinates,Original*%
%TF.FileFunction,Copper,L4,Bot*%
%TF.FilePolarity,Positive*%
%FSLAX46Y46*%
G04 Gerber Fmt 4.6, Leading zero omitted, Abs format (unit mm)*
G04 Created by KiCad (PCBNEW 6.0.6-3a73a75311~116~ubuntu20.04.1) date 2022-07-05 10:29:56*
%MOMM*%
%LPD*%
G01*
G04 APERTURE LIST*
G04 Aperture macros list*
%AMRotRect*
0 Rectangle, with rotation*
0 The origin of the aperture is its center*
0 $1 length*
0 $2 width*
0 $3 Rotation angle, in degrees counterclockwise*
0 Add horizontal line*
21,1,$1,$2,0,0,$3*%
G04 Aperture macros list end*
%TA.AperFunction,ComponentPad*%
%ADD10C,4.500000*%
%TD*%
%TA.AperFunction,ComponentPad*%
%ADD11RotRect,1.192000X1.192000X45.000000*%
%TD*%
%TA.AperFunction,ComponentPad*%
%ADD12C,1.192000*%
%TD*%
%TA.AperFunction,ComponentPad*%
%ADD13R,1.700000X1.700000*%
%TD*%
%TA.AperFunction,ComponentPad*%
%ADD14O,1.700000X1.700000*%
%TD*%
%TA.AperFunction,ViaPad*%
%ADD15C,0.800000*%
%TD*%
%TA.AperFunction,Conductor*%
%ADD16C,0.300000*%
%TD*%
%TA.AperFunction,Conductor*%
%ADD17C,0.250000*%
%TD*%
G04 APERTURE END LIST*
D10*
%TO.P,H2,1,1*%
%TO.N,GND*%
X153000000Y-115000000D03*
%TD*%
%TO.P,H3,1,1*%
%TO.N,GND*%
X103000000Y-99000000D03*
%TD*%
%TO.P,H1,1,1*%
%TO.N,GND*%
X153000000Y-99000000D03*
%TD*%
D11*
%TO.P,IC1,1,SCL*%
%TO.N,/SCL*%
X151796051Y-105203949D03*
D12*
%TO.P,IC1,2,SDA*%
%TO.N,/SDA*%
X148203949Y-105203949D03*
%TO.P,IC1,3,VDD*%
%TO.N,Net-(C14-Pad1)*%
X148203949Y-108796051D03*
%TO.P,IC1,4,GND*%
%TO.N,GND*%
X151796051Y-108796051D03*
%TD*%
D13*
%TO.P,J1,1,Pin_1*%
%TO.N,+3V3*%
X123900000Y-116000000D03*
D14*
%TO.P,J1,2,Pin_2*%
%TO.N,/SWCLK*%
X126440000Y-116000000D03*
%TO.P,J1,3,Pin_3*%
%TO.N,GND*%
X128980000Y-116000000D03*
%TO.P,J1,4,Pin_4*%
%TO.N,/SWDIO*%
X131520000Y-116000000D03*
%TO.P,J1,5,Pin_5*%
%TO.N,/NRST*%
X134060000Y-116000000D03*
%TO.P,J1,6,Pin_6*%
%TO.N,/SWO*%
X136600000Y-116000000D03*
%TD*%
D10*
%TO.P,H4,1,1*%
%TO.N,GND*%
X103000000Y-115000000D03*
%TD*%
D15*
%TO.N,GND*%
X109250000Y-104750000D03*
X108550000Y-114500000D03*
X135700000Y-113400000D03*
X142400000Y-96900000D03*
X131300000Y-113400000D03*
X116300000Y-105650000D03*
X132000000Y-103000000D03*
X143000000Y-107000000D03*
X119600000Y-107750000D03*
X119150000Y-104350000D03*
X145000000Y-116900000D03*
X140400000Y-100200000D03*
X136900000Y-103200000D03*
X117800000Y-111150000D03*
X110250000Y-102350000D03*
X143000000Y-106000000D03*
X144400000Y-100200000D03*
X143500000Y-108100000D03*
X120350000Y-100150000D03*
X102000000Y-102300000D03*
X125250000Y-96100000D03*
X118100000Y-112550000D03*
X126600000Y-112500000D03*
X142400000Y-111700000D03*
X124500000Y-102250000D03*
X116300000Y-104350000D03*
X138000000Y-108000000D03*
X119150000Y-106900000D03*
X146400000Y-96900000D03*
X116300000Y-106900000D03*
X131250000Y-105500000D03*
X117500000Y-96250000D03*
X133150000Y-97000000D03*
X142400000Y-103800000D03*
X141500000Y-116000000D03*
X116250000Y-108150000D03*
X113750000Y-96250000D03*
X138100000Y-109700000D03*
X136900000Y-109700000D03*
X143000000Y-105000000D03*
X102000000Y-104200000D03*
%TO.N,+3V3*%
X120600000Y-97000000D03*
X109250000Y-106250000D03*
X137700000Y-97000000D03*
X138600000Y-111700000D03*
X112700000Y-109350000D03*
X118900000Y-115600000D03*
X137600000Y-98700000D03*
X122500000Y-113400000D03*
%TO.N,/LED_ERR*%
X128500000Y-97700500D03*
X144425500Y-96900000D03*
%TO.N,/SWCLK*%
X124500000Y-113250000D03*
%TO.N,/SWDIO*%
X124250000Y-107500000D03*
%TO.N,/SWO*%
X127500000Y-109000000D03*
%TO.N,/+3V3_uC*%
X129800000Y-97000000D03*
X119600000Y-109150000D03*
X136000000Y-101100000D03*
X124000000Y-96100000D03*
X121600000Y-110950000D03*
X133500000Y-112500000D03*
X136000000Y-107600000D03*
%TO.N,/CAN_RX*%
X120000000Y-105500000D03*
X124750000Y-105524753D03*
%TO.N,/LED_WAR1*%
X142400000Y-100200000D03*
X129069974Y-100449500D03*
%TO.N,/LED_WAR2*%
X134250000Y-100250000D03*
X146570023Y-100200000D03*
%TO.N,/LED_OK*%
X140400000Y-96900000D03*
X127500000Y-97700000D03*
%TD*%
D16*
%TO.N,/LED_ERR*%
X128549011Y-97749511D02*
X128500000Y-97700500D01*
X144425500Y-96900000D02*
X143575989Y-97749511D01*
X143575989Y-97749511D02*
X128549011Y-97749511D01*
X128500000Y-97700500D02*
X128549500Y-97750000D01*
D17*
%TO.N,/SWCLK*%
X124500000Y-114060000D02*
X124500000Y-113250000D01*
X126440000Y-116000000D02*
X124500000Y-114060000D01*
D16*
%TO.N,/SWDIO*%
X124250000Y-107500000D02*
X125750000Y-109000000D01*
X130020000Y-114500000D02*
X131520000Y-116000000D01*
X125750000Y-109000000D02*
X125750000Y-112709970D01*
X127540030Y-114500000D02*
X130020000Y-114500000D01*
X125750000Y-112709970D02*
X127540030Y-114500000D01*
%TO.N,/SWO*%
X136600000Y-116000000D02*
X135100000Y-114500000D01*
X130500000Y-109750000D02*
X129750000Y-109000000D01*
X131250000Y-114500000D02*
X130500000Y-113750000D01*
X135100000Y-114500000D02*
X131250000Y-114500000D01*
X130500000Y-113750000D02*
X130500000Y-109750000D01*
X129750000Y-109000000D02*
X127500000Y-109000000D01*
%TO.N,/CAN_RX*%
X120024753Y-105524753D02*
X120000000Y-105500000D01*
X124750000Y-105524753D02*
X120274753Y-105524753D01*
%TO.N,/LED_WAR1*%
X129069974Y-100449500D02*
X130068985Y-99450489D01*
X130068985Y-99450489D02*
X141650489Y-99450489D01*
X141650489Y-99450489D02*
X142400000Y-100200000D01*
%TO.N,/LED_WAR2*%
X138250000Y-101000000D02*
X137500000Y-100250000D01*
X137500000Y-100250000D02*
X134250000Y-100250000D01*
X146570023Y-100200000D02*
X145770023Y-101000000D01*
X145770023Y-101000000D02*
X138250000Y-101000000D01*
%TO.N,/LED_OK*%
X140400000Y-96900000D02*
X139500000Y-96000000D01*
X129140530Y-96000000D02*
X127500000Y-97640530D01*
X127500000Y-97640530D02*
X127500000Y-97700000D01*
X139500000Y-96000000D02*
X129140530Y-96000000D01*
%TD*%
%TA.AperFunction,Conductor*%
%TO.N,GND*%
G36*
X123142341Y-95528502D02*
G01*
X123188834Y-95582158D01*
X123198938Y-95652432D01*
X123183338Y-95697501D01*
X123165473Y-95728444D01*
X123106458Y-95910072D01*
X123105768Y-95916633D01*
X123105768Y-95916635D01*
X123105333Y-95920772D01*
X123086496Y-96100000D01*
X123087186Y-96106565D01*
X123099228Y-96221134D01*
X123106458Y-96289928D01*
X123165473Y-96471556D01*
X123260960Y-96636944D01*
X123388747Y-96778866D01*
X123543248Y-96891118D01*
X123549276Y-96893802D01*
X123549278Y-96893803D01*
X123711681Y-96966109D01*
X123717712Y-96968794D01*
X123811112Y-96988647D01*
X123898056Y-97007128D01*
X123898061Y-97007128D01*
X123904513Y-97008500D01*
X124095487Y-97008500D01*
X124101939Y-97007128D01*
X124101944Y-97007128D01*
X124188888Y-96988647D01*
X124282288Y-96968794D01*
X124288319Y-96966109D01*
X124450722Y-96893803D01*
X124450724Y-96893802D01*
X124456752Y-96891118D01*
X124611253Y-96778866D01*
X124739040Y-96636944D01*
X124834527Y-96471556D01*
X124893542Y-96289928D01*
X124900773Y-96221134D01*
X124912814Y-96106565D01*
X124913504Y-96100000D01*
X124894667Y-95920772D01*
X124894232Y-95916635D01*
X124894232Y-95916633D01*
X124893542Y-95910072D01*
X124834527Y-95728444D01*
X124816662Y-95697501D01*
X124799923Y-95628506D01*
X124823143Y-95561414D01*
X124878949Y-95517526D01*
X124925780Y-95508500D01*
X128396580Y-95508500D01*
X128464701Y-95528502D01*
X128511194Y-95582158D01*
X128521298Y-95652432D01*
X128491804Y-95717012D01*
X128485675Y-95723595D01*
X127447741Y-96761529D01*
X127384843Y-96795681D01*
X127217712Y-96831206D01*
X127211682Y-96833891D01*
X127211681Y-96833891D01*
X127049278Y-96906197D01*
X127049276Y-96906198D01*
X127043248Y-96908882D01*
X126888747Y-97021134D01*
X126884326Y-97026044D01*
X126884325Y-97026045D01*
X126825830Y-97091011D01*
X126760960Y-97163056D01*
X126665473Y-97328444D01*
X126606458Y-97510072D01*
X126605768Y-97516633D01*
X126605768Y-97516635D01*
X126598819Y-97582749D01*
X126586496Y-97700000D01*
X126587186Y-97706565D01*
X126603955Y-97866109D01*
X126606458Y-97889928D01*
X126665473Y-98071556D01*
X126760960Y-98236944D01*
X126765378Y-98241851D01*
X126765379Y-98241852D01*
X126870550Y-98358656D01*
X126888747Y-98378866D01*
X126928947Y-98408073D01*
X127030243Y-98481669D01*
X127043248Y-98491118D01*
X127049276Y-98493802D01*
X127049278Y-98493803D01*
X127169170Y-98547182D01*
X127217712Y-98568794D01*
X127311112Y-98588647D01*
X127398056Y-98607128D01*
X127398061Y-98607128D01*
X127404513Y-98608500D01*
X127595487Y-98608500D01*
X127601939Y-98607128D01*
X127601944Y-98607128D01*
X127688888Y-98588647D01*
X127782288Y-98568794D01*
X127948191Y-98494930D01*
X128018556Y-98485496D01*
X128050687Y-98494930D01*
X128217712Y-98569294D01*
X128311112Y-98589147D01*
X128398056Y-98607628D01*
X128398061Y-98607628D01*
X128404513Y-98609000D01*
X128595487Y-98609000D01*
X128601939Y-98607628D01*
X128601944Y-98607628D01*
X128688888Y-98589147D01*
X128782288Y-98569294D01*
X128831953Y-98547182D01*
X128950722Y-98494303D01*
X128950724Y-98494302D01*
X128956752Y-98491618D01*
X128976399Y-98477344D01*
X129038706Y-98432075D01*
X129112767Y-98408011D01*
X136577248Y-98408011D01*
X136645369Y-98428013D01*
X136691862Y-98481669D01*
X136702558Y-98547181D01*
X136696304Y-98606684D01*
X136688686Y-98679160D01*
X136661672Y-98744817D01*
X136603451Y-98785446D01*
X136563376Y-98791989D01*
X130151044Y-98791989D01*
X130139188Y-98791430D01*
X130131448Y-98789700D01*
X130123522Y-98789949D01*
X130123521Y-98789949D01*
X130060596Y-98791927D01*
X130056638Y-98791989D01*
X130027553Y-98791989D01*
X130023622Y-98792486D01*
X130023615Y-98792486D01*
X130023164Y-98792543D01*
X130011328Y-98793475D01*
X129965154Y-98794927D01*
X129944564Y-98800909D01*
X129925203Y-98804919D01*
X129918215Y-98805801D01*
X129911781Y-98806614D01*
X129911780Y-98806614D01*
X129903921Y-98807607D01*
X129896556Y-98810523D01*
X129896552Y-98810524D01*
X129860964Y-98824615D01*
X129849754Y-98828454D01*
X129805385Y-98841344D01*
X129786920Y-98852264D01*
X129769180Y-98860955D01*
X129749229Y-98868854D01*
X129711859Y-98896005D01*
X129701937Y-98902522D01*
X129669008Y-98921996D01*
X129669004Y-98921999D01*
X129662178Y-98926036D01*
X129647014Y-98941200D01*
X129631981Y-98954040D01*
X129614628Y-98966648D01*
X129592229Y-98993724D01*
X129585183Y-99002241D01*
X129577193Y-99011021D01*
X129084119Y-99504095D01*
X129021807Y-99538121D01*
X128995024Y-99541000D01*
X128974487Y-99541000D01*
X128968035Y-99542372D01*
X128968030Y-99542372D01*
X128881087Y-99560853D01*
X128787686Y-99580706D01*
X128781656Y-99583391D01*
X128781655Y-99583391D01*
X128619252Y-99655697D01*
X128619250Y-99655698D01*
X128613222Y-99658382D01*
X128607881Y-99662262D01*
X128607880Y-99662263D01*
X128557817Y-99698636D01*
X128458721Y-99770634D01*
X128330934Y-99912556D01*
X128235447Y-100077944D01*
X128176432Y-100259572D01*
X128156470Y-100449500D01*
X128157160Y-100456065D01*
X128174554Y-100621556D01*
X128176432Y-100639428D01*
X128235447Y-100821056D01*
X128330934Y-100986444D01*
X128335352Y-100991351D01*
X128335353Y-100991352D01*
X128443426Y-101111379D01*
X128458721Y-101128366D01*
X128613222Y-101240618D01*
X128619250Y-101243302D01*
X128619252Y-101243303D01*
X128738075Y-101296206D01*
X128787686Y-101318294D01*
X128881086Y-101338147D01*
X128968030Y-101356628D01*
X128968035Y-101356628D01*
X128974487Y-101358000D01*
X129165461Y-101358000D01*
X129171913Y-101356628D01*
X129171918Y-101356628D01*
X129258862Y-101338147D01*
X129352262Y-101318294D01*
X129401873Y-101296206D01*
X129520696Y-101243303D01*
X129520698Y-101243302D01*
X129526726Y-101240618D01*
X129681227Y-101128366D01*
X129696522Y-101111379D01*
X129804595Y-100991352D01*
X129804596Y-100991351D01*
X129809014Y-100986444D01*
X129904501Y-100821056D01*
X129963516Y-100639428D01*
X129965395Y-100621556D01*
X129976729Y-100513714D01*
X130003742Y-100448058D01*
X130012944Y-100437790D01*
X130304840Y-100145894D01*
X130367152Y-100111868D01*
X130393935Y-100108989D01*
X133211379Y-100108989D01*
X133279500Y-100128991D01*
X133325993Y-100182647D01*
X133334845Y-100236829D01*
X133337186Y-100236829D01*
X133337186Y-100243435D01*
X133336496Y-100250000D01*
X133356458Y-100439928D01*
X133415473Y-100621556D01*
X133418776Y-100627278D01*
X133418777Y-100627279D01*
X133452686Y-100686010D01*
X133510960Y-100786944D01*
X133515378Y-100791851D01*
X133515379Y-100791852D01*
X133589305Y-100873955D01*
X133638747Y-100928866D01*
X133793248Y-101041118D01*
X133799276Y-101043802D01*
X133799278Y-101043803D01*
X133961681Y-101116109D01*
X133967712Y-101118794D01*
X134061112Y-101138647D01*
X134148056Y-101157128D01*
X134148061Y-101157128D01*
X134154513Y-101158500D01*
X134345487Y-101158500D01*
X134351939Y-101157128D01*
X134351944Y-101157128D01*
X134438888Y-101138647D01*
X134532288Y-101118794D01*
X134538319Y-101116109D01*
X134700722Y-101043803D01*
X134700724Y-101043802D01*
X134706752Y-101041118D01*
X134856163Y-100932564D01*
X134923031Y-100908706D01*
X134930224Y-100908500D01*
X134966686Y-100908500D01*
X135034807Y-100928502D01*
X135081300Y-100982158D01*
X135091996Y-101047670D01*
X135086496Y-101100000D01*
X135087186Y-101106565D01*
X135101558Y-101243303D01*
X135106458Y-101289928D01*
X135165473Y-101471556D01*
X135260960Y-101636944D01*
X135265378Y-101641851D01*
X135265379Y-101641852D01*
X135282205Y-101660539D01*
X135388747Y-101778866D01*
X135543248Y-101891118D01*
X135549276Y-101893802D01*
X135549278Y-101893803D01*
X135711681Y-101966109D01*
X135717712Y-101968794D01*
X135811113Y-101988647D01*
X135898056Y-102007128D01*
X135898061Y-102007128D01*
X135904513Y-102008500D01*
X136095487Y-102008500D01*
X136101939Y-102007128D01*
X136101944Y-102007128D01*
X136188887Y-101988647D01*
X136282288Y-101968794D01*
X136288319Y-101966109D01*
X136450722Y-101893803D01*
X136450724Y-101893802D01*
X136456752Y-101891118D01*
X136611253Y-101778866D01*
X136717795Y-101660539D01*
X136734621Y-101641852D01*
X136734622Y-101641851D01*
X136739040Y-101636944D01*
X136834527Y-101471556D01*
X136893542Y-101289928D01*
X136898443Y-101243303D01*
X136912814Y-101106565D01*
X136913504Y-101100000D01*
X136908004Y-101047670D01*
X136920776Y-100977832D01*
X136969278Y-100925985D01*
X137033314Y-100908500D01*
X137175050Y-100908500D01*
X137243171Y-100928502D01*
X137264145Y-100945405D01*
X137726345Y-101407605D01*
X137734335Y-101416385D01*
X137738584Y-101423080D01*
X137744362Y-101428506D01*
X137744363Y-101428507D01*
X137790257Y-101471604D01*
X137793099Y-101474359D01*
X137813667Y-101494927D01*
X137817170Y-101497644D01*
X137826195Y-101505352D01*
X137859867Y-101536972D01*
X137866818Y-101540793D01*
X137866819Y-101540794D01*
X137878658Y-101547303D01*
X137895182Y-101558157D01*
X137905865Y-101566443D01*
X137912132Y-101571304D01*
X137936006Y-101581635D01*
X137954536Y-101589654D01*
X137965181Y-101594869D01*
X138005663Y-101617124D01*
X138013337Y-101619094D01*
X138013344Y-101619097D01*
X138026426Y-101622455D01*
X138045134Y-101628860D01*
X138064823Y-101637380D01*
X138072649Y-101638619D01*
X138072651Y-101638620D01*
X138093060Y-101641852D01*
X138110459Y-101644608D01*
X138122070Y-101647012D01*
X138153107Y-101654981D01*
X138159135Y-101656529D01*
X138159136Y-101656529D01*
X138166812Y-101658500D01*
X138188258Y-101658500D01*
X138207968Y-101660051D01*
X138221322Y-101662166D01*
X138221323Y-101662166D01*
X138229152Y-101663406D01*
X138275141Y-101659059D01*
X138286996Y-101658500D01*
X145687967Y-101658500D01*
X145699823Y-101659059D01*
X145699826Y-101659059D01*
X145707560Y-101660788D01*
X145778392Y-101658562D01*
X145782350Y-101658500D01*
X145811455Y-101658500D01*
X145815855Y-101657944D01*
X145827687Y-101657012D01*
X145873854Y-101655562D01*
X145894444Y-101649580D01*
X145913805Y-101645570D01*
X145921431Y-101644607D01*
X145927227Y-101643875D01*
X145927228Y-101643875D01*
X145935087Y-101642882D01*
X145942452Y-101639966D01*
X145942456Y-101639965D01*
X145978044Y-101625874D01*
X145989254Y-101622035D01*
X146033623Y-101609145D01*
X146052088Y-101598225D01*
X146069828Y-101589534D01*
X146089779Y-101581635D01*
X146127152Y-101554482D01*
X146137071Y-101547967D01*
X146170000Y-101528493D01*
X146170004Y-101528490D01*
X146176830Y-101524453D01*
X146191994Y-101509289D01*
X146207028Y-101496448D01*
X146224380Y-101483841D01*
X146253826Y-101448247D01*
X146261815Y-101439468D01*
X146555878Y-101145405D01*
X146618190Y-101111379D01*
X146644973Y-101108500D01*
X146665510Y-101108500D01*
X146671962Y-101107128D01*
X146671967Y-101107128D01*
X146758910Y-101088647D01*
X146852311Y-101068794D01*
X146923190Y-101037237D01*
X147020745Y-100993803D01*
X147020747Y-100993802D01*
X147026775Y-100991118D01*
X147039108Y-100982158D01*
X147112958Y-100928502D01*
X147181276Y-100878866D01*
X147264043Y-100786944D01*
X147304644Y-100741852D01*
X147304645Y-100741851D01*
X147309063Y-100736944D01*
X147404550Y-100571556D01*
X147463565Y-100389928D01*
X147483527Y-100200000D01*
X147474264Y-100111868D01*
X147464255Y-100016635D01*
X147464255Y-100016633D01*
X147463565Y-100010072D01*
X147404550Y-99828444D01*
X147309063Y-99663056D01*
X147237333Y-99583391D01*
X147185698Y-99526045D01*
X147185697Y-99526044D01*
X147181276Y-99521134D01*
X147026775Y-99408882D01*
X147020747Y-99406198D01*
X147020745Y-99406197D01*
X146858342Y-99333891D01*
X146858341Y-99333891D01*
X146852311Y-99331206D01*
X146758910Y-99311353D01*
X146671967Y-99292872D01*
X146671962Y-99292872D01*
X146665510Y-99291500D01*
X146474536Y-99291500D01*
X146468084Y-99292872D01*
X146468079Y-99292872D01*
X146381136Y-99311353D01*
X146287735Y-99331206D01*
X146281705Y-99333891D01*
X146281704Y-99333891D01*
X146119301Y-99406197D01*
X146119299Y-99406198D01*
X146113271Y-99408882D01*
X145958770Y-99521134D01*
X145954349Y-99526044D01*
X145954348Y-99526045D01*
X145902714Y-99583391D01*
X145830983Y-99663056D01*
X145735496Y-99828444D01*
X145676481Y-100010072D01*
X145675791Y-100016635D01*
X145675791Y-100016636D01*
X145663268Y-100135786D01*
X145636255Y-100201442D01*
X145627053Y-100211710D01*
X145534168Y-100304595D01*
X145471856Y-100338621D01*
X145445073Y-100341500D01*
X143438569Y-100341500D01*
X143370448Y-100321498D01*
X143323955Y-100267842D01*
X143315030Y-100213170D01*
X143312814Y-100213170D01*
X143312814Y-100206565D01*
X143313504Y-100200000D01*
X143304241Y-100111868D01*
X143294232Y-100016635D01*
X143294232Y-100016633D01*
X143293542Y-100010072D01*
X143234527Y-99828444D01*
X143139040Y-99663056D01*
X143067310Y-99583391D01*
X143015675Y-99526045D01*
X143015674Y-99526044D01*
X143011253Y-99521134D01*
X142856752Y-99408882D01*
X142850724Y-99406198D01*
X142850722Y-99406197D01*
X142688319Y-99333891D01*
X142688318Y-99333891D01*
X142682288Y-99331206D01*
X142588887Y-99311353D01*
X142501944Y-99292872D01*
X142501939Y-99292872D01*
X142495487Y-99291500D01*
X142474950Y-99291500D01*
X142406829Y-99271498D01*
X142385855Y-99254595D01*
X142174144Y-99042884D01*
X142166154Y-99034104D01*
X142166152Y-99034102D01*
X142161905Y-99027409D01*
X142144454Y-99011021D01*
X142110232Y-98978885D01*
X142107390Y-98976130D01*
X142086822Y-98955562D01*
X142083315Y-98952842D01*
X142074293Y-98945136D01*
X142070102Y-98941200D01*
X142040622Y-98913517D01*
X142033670Y-98909695D01*
X142021831Y-98903186D01*
X142005307Y-98892332D01*
X141994621Y-98884044D01*
X141988357Y-98879185D01*
X141981085Y-98876038D01*
X141981083Y-98876037D01*
X141945954Y-98860835D01*
X141935294Y-98855613D01*
X141901773Y-98837184D01*
X141901771Y-98837183D01*
X141894826Y-98833365D01*
X141874048Y-98828030D01*
X141855358Y-98821631D01*
X141835665Y-98813109D01*
X141790041Y-98805883D01*
X141778418Y-98803476D01*
X141744150Y-98794678D01*
X141733677Y-98791989D01*
X141712230Y-98791989D01*
X141692520Y-98790438D01*
X141671337Y-98787083D01*
X141625348Y-98791430D01*
X141613493Y-98791989D01*
X138636624Y-98791989D01*
X138568503Y-98771987D01*
X138522010Y-98718331D01*
X138511314Y-98679160D01*
X138503696Y-98606684D01*
X138497442Y-98547181D01*
X138510214Y-98477344D01*
X138558716Y-98425497D01*
X138622752Y-98408011D01*
X143493933Y-98408011D01*
X143505789Y-98408570D01*
X143505792Y-98408570D01*
X143513526Y-98410299D01*
X143584358Y-98408073D01*
X143588316Y-98408011D01*
X143617421Y-98408011D01*
X143621821Y-98407455D01*
X143633653Y-98406523D01*
X143679820Y-98405073D01*
X143700410Y-98399091D01*
X143719771Y-98395081D01*
X143726759Y-98394199D01*
X143733193Y-98393386D01*
X143733194Y-98393386D01*
X143741053Y-98392393D01*
X143748418Y-98389477D01*
X143748422Y-98389476D01*
X143784010Y-98375385D01*
X143795220Y-98371546D01*
X143839589Y-98358656D01*
X143858054Y-98347736D01*
X143875794Y-98339045D01*
X143895745Y-98331146D01*
X143933118Y-98303993D01*
X143943037Y-98297478D01*
X143975966Y-98278004D01*
X143975970Y-98278001D01*
X143982796Y-98273964D01*
X143997960Y-98258800D01*
X144012994Y-98245959D01*
X144023932Y-98238012D01*
X144030346Y-98233352D01*
X144059792Y-98197758D01*
X144067781Y-98188979D01*
X144411355Y-97845405D01*
X144473667Y-97811379D01*
X144500450Y-97808500D01*
X144520987Y-97808500D01*
X144527439Y-97807128D01*
X144527444Y-97807128D01*
X144621021Y-97787237D01*
X144707788Y-97768794D01*
X144713819Y-97766109D01*
X144876222Y-97693803D01*
X144876224Y-97693802D01*
X144882252Y-97691118D01*
X144899116Y-97678866D01*
X144937657Y-97650864D01*
X145036753Y-97578866D01*
X145164540Y-97436944D01*
X145260027Y-97271556D01*
X145319042Y-97089928D01*
X145321031Y-97071009D01*
X145338314Y-96906565D01*
X145338314Y-96906564D01*
X145339004Y-96900000D01*
X145329552Y-96810072D01*
X145319732Y-96716635D01*
X145319732Y-96716633D01*
X145319042Y-96710072D01*
X145260027Y-96528444D01*
X145164540Y-96363056D01*
X145036753Y-96221134D01*
X144882252Y-96108882D01*
X144876224Y-96106198D01*
X144876222Y-96106197D01*
X144713819Y-96033891D01*
X144713818Y-96033891D01*
X144707788Y-96031206D01*
X144614388Y-96011353D01*
X144527444Y-95992872D01*
X144527439Y-95992872D01*
X144520987Y-95991500D01*
X144330013Y-95991500D01*
X144323561Y-95992872D01*
X144323556Y-95992872D01*
X144236612Y-96011353D01*
X144143212Y-96031206D01*
X144137182Y-96033891D01*
X144137181Y-96033891D01*
X143974778Y-96106197D01*
X143974776Y-96106198D01*
X143968748Y-96108882D01*
X143814247Y-96221134D01*
X143686460Y-96363056D01*
X143590973Y-96528444D01*
X143588931Y-96534729D01*
X143536724Y-96695405D01*
X143531958Y-96710072D01*
X143519371Y-96829834D01*
X143518745Y-96835786D01*
X143491732Y-96901442D01*
X143482530Y-96911710D01*
X143340134Y-97054106D01*
X143277822Y-97088132D01*
X143251039Y-97091011D01*
X141433365Y-97091011D01*
X141365244Y-97071009D01*
X141318751Y-97017353D01*
X141308055Y-96951840D01*
X141311419Y-96919841D01*
X141313504Y-96900000D01*
X141304052Y-96810072D01*
X141294232Y-96716635D01*
X141294232Y-96716633D01*
X141293542Y-96710072D01*
X141234527Y-96528444D01*
X141139040Y-96363056D01*
X141011253Y-96221134D01*
X140856752Y-96108882D01*
X140850724Y-96106198D01*
X140850722Y-96106197D01*
X140688319Y-96033891D01*
X140688318Y-96033891D01*
X140682288Y-96031206D01*
X140588888Y-96011353D01*
X140501944Y-95992872D01*
X140501939Y-95992872D01*
X140495487Y-95991500D01*
X140474950Y-95991500D01*
X140406829Y-95971498D01*
X140385855Y-95954595D01*
X140154855Y-95723595D01*
X140120829Y-95661283D01*
X140125894Y-95590468D01*
X140168441Y-95533632D01*
X140234961Y-95508821D01*
X140243950Y-95508500D01*
X152950633Y-95508500D01*
X152970018Y-95510000D01*
X152984852Y-95512310D01*
X152984855Y-95512310D01*
X152993724Y-95513691D01*
X153002627Y-95512527D01*
X153002628Y-95512527D01*
X153013076Y-95511161D01*
X153035594Y-95510249D01*
X153336051Y-95525010D01*
X153348345Y-95526221D01*
X153675034Y-95574680D01*
X153687156Y-95577090D01*
X153707387Y-95582158D01*
X154007523Y-95657339D01*
X154019355Y-95660928D01*
X154330311Y-95772190D01*
X154341735Y-95776922D01*
X154409500Y-95808972D01*
X154640292Y-95918128D01*
X154651188Y-95923953D01*
X154702312Y-95954595D01*
X154934467Y-96093744D01*
X154944748Y-96100614D01*
X154961129Y-96112763D01*
X155210017Y-96297350D01*
X155219556Y-96305177D01*
X155464282Y-96526985D01*
X155473015Y-96535718D01*
X155694823Y-96780444D01*
X155702650Y-96789983D01*
X155835265Y-96968794D01*
X155899386Y-97055252D01*
X155906256Y-97065533D01*
X155968137Y-97168774D01*
X156060410Y-97322721D01*
X156076045Y-97348807D01*
X156081872Y-97359708D01*
X156115697Y-97431226D01*
X156223078Y-97658265D01*
X156227810Y-97669689D01*
X156339072Y-97980645D01*
X156342661Y-97992477D01*
X156422909Y-98312841D01*
X156425320Y-98324966D01*
X156467453Y-98609000D01*
X156473779Y-98651650D01*
X156474990Y-98663949D01*
X156489318Y-98955562D01*
X156489390Y-98957034D01*
X156488042Y-98982598D01*
X156486309Y-98993724D01*
X156487474Y-99002630D01*
X156490436Y-99025283D01*
X156491500Y-99041621D01*
X156491500Y-114950633D01*
X156490000Y-114970018D01*
X156486309Y-114993724D01*
X156487473Y-115002627D01*
X156487473Y-115002628D01*
X156488839Y-115013076D01*
X156489751Y-115035594D01*
X156477505Y-115284877D01*
X156474991Y-115336045D01*
X156473779Y-115348345D01*
X156435477Y-115606565D01*
X156425321Y-115675031D01*
X156422910Y-115687156D01*
X156400314Y-115777361D01*
X156342661Y-116007523D01*
X156339072Y-116019355D01*
X156227810Y-116330311D01*
X156223078Y-116341735D01*
X156081874Y-116640288D01*
X156076047Y-116651188D01*
X156045546Y-116702077D01*
X155906256Y-116934467D01*
X155899386Y-116944748D01*
X155873700Y-116979382D01*
X155702650Y-117210017D01*
X155694823Y-117219556D01*
X155473020Y-117464277D01*
X155464282Y-117473015D01*
X155219556Y-117694823D01*
X155210017Y-117702650D01*
X155015517Y-117846901D01*
X154944748Y-117899386D01*
X154934467Y-117906256D01*
X154792101Y-117991588D01*
X154651188Y-118076047D01*
X154640292Y-118081872D01*
X154505870Y-118145448D01*
X154341735Y-118223078D01*
X154330311Y-118227810D01*
X154019355Y-118339072D01*
X154007523Y-118342661D01*
X153781196Y-118399354D01*
X153687156Y-118422910D01*
X153675034Y-118425320D01*
X153348345Y-118473779D01*
X153336051Y-118474990D01*
X153042961Y-118489390D01*
X153017402Y-118488042D01*
X153006276Y-118486309D01*
X152974714Y-118490436D01*
X152958379Y-118491500D01*
X103049367Y-118491500D01*
X103029982Y-118490000D01*
X103015148Y-118487690D01*
X103015145Y-118487690D01*
X103006276Y-118486309D01*
X102997373Y-118487473D01*
X102997372Y-118487473D01*
X102986924Y-118488839D01*
X102964406Y-118489751D01*
X102663949Y-118474990D01*
X102651655Y-118473779D01*
X102324966Y-118425320D01*
X102312844Y-118422910D01*
X102218804Y-118399354D01*
X101992477Y-118342661D01*
X101980645Y-118339072D01*
X101669689Y-118227810D01*
X101658265Y-118223078D01*
X101494130Y-118145448D01*
X101359708Y-118081872D01*
X101348812Y-118076047D01*
X101207899Y-117991588D01*
X101065533Y-117906256D01*
X101055252Y-117899386D01*
X100984483Y-117846901D01*
X100789983Y-117702650D01*
X100780444Y-117694823D01*
X100535718Y-117473015D01*
X100526980Y-117464277D01*
X100305177Y-117219556D01*
X100297350Y-117210017D01*
X100126300Y-116979382D01*
X100100614Y-116944748D01*
X100093744Y-116934467D01*
X99954454Y-116702077D01*
X99923953Y-116651188D01*
X99918126Y-116640288D01*
X99776922Y-116341735D01*
X99772190Y-116330311D01*
X99660928Y-116019355D01*
X99657339Y-116007523D01*
X99599686Y-115777361D01*
X99577090Y-115687156D01*
X99574679Y-115675031D01*
X99564523Y-115606565D01*
X99563549Y-115600000D01*
X117986496Y-115600000D01*
X117987186Y-115606565D01*
X118005680Y-115782522D01*
X118006458Y-115789928D01*
X118065473Y-115971556D01*
X118160960Y-116136944D01*
X118288747Y-116278866D01*
X118443248Y-116391118D01*
X118449276Y-116393802D01*
X118449278Y-116393803D01*
X118611681Y-116466109D01*
X118617712Y-116468794D01*
X118706563Y-116487680D01*
X118798056Y-116507128D01*
X118798061Y-116507128D01*
X118804513Y-116508500D01*
X118995487Y-116508500D01*
X119001939Y-116507128D01*
X119001944Y-116507128D01*
X119093437Y-116487680D01*
X119182288Y-116468794D01*
X119188319Y-116466109D01*
X119350722Y-116393803D01*
X119350724Y-116393802D01*
X119356752Y-116391118D01*
X119511253Y-116278866D01*
X119639040Y-116136944D01*
X119734527Y-115971556D01*
X119793542Y-115789928D01*
X119794321Y-115782522D01*
X119812814Y-115606565D01*
X119813504Y-115600000D01*
X119793542Y-115410072D01*
X119734527Y-115228444D01*
X119699790Y-115168277D01*
X119642341Y-115068774D01*
X119639040Y-115063056D01*
X119625070Y-115047540D01*
X119515675Y-114926045D01*
X119515674Y-114926044D01*
X119511253Y-114921134D01*
X119356752Y-114808882D01*
X119350724Y-114806198D01*
X119350722Y-114806197D01*
X119188319Y-114733891D01*
X119188318Y-114733891D01*
X119182288Y-114731206D01*
X119088887Y-114711353D01*
X119001944Y-114692872D01*
X119001939Y-114692872D01*
X118995487Y-114691500D01*
X118804513Y-114691500D01*
X118798061Y-114692872D01*
X118798056Y-114692872D01*
X118711113Y-114711353D01*
X118617712Y-114731206D01*
X118611682Y-114733891D01*
X118611681Y-114733891D01*
X118449278Y-114806197D01*
X118449276Y-114806198D01*
X118443248Y-114808882D01*
X118288747Y-114921134D01*
X118284326Y-114926044D01*
X118284325Y-114926045D01*
X118174931Y-115047540D01*
X118160960Y-115063056D01*
X118157659Y-115068774D01*
X118100211Y-115168277D01*
X118065473Y-115228444D01*
X118006458Y-115410072D01*
X117986496Y-115600000D01*
X99563549Y-115600000D01*
X99526220Y-115348343D01*
X99525009Y-115336045D01*
X99522496Y-115284877D01*
X99516854Y-115170043D01*
X99510795Y-115046695D01*
X99512387Y-115019619D01*
X99513576Y-115012552D01*
X99513729Y-115000000D01*
X99509773Y-114972376D01*
X99508500Y-114954514D01*
X99508500Y-110789690D01*
X104987037Y-110789690D01*
X105014025Y-111012715D01*
X105080082Y-111227435D01*
X105082652Y-111232415D01*
X105082654Y-111232419D01*
X105147852Y-111358738D01*
X105183118Y-111427064D01*
X105319877Y-111605292D01*
X105486036Y-111756485D01*
X105490783Y-111759463D01*
X105490786Y-111759465D01*
X105619229Y-111840036D01*
X105676344Y-111875864D01*
X105884783Y-111959656D01*
X106104767Y-112005213D01*
X106109378Y-112005479D01*
X106109379Y-112005479D01*
X106159952Y-112008395D01*
X106159956Y-112008395D01*
X106161775Y-112008500D01*
X106306999Y-112008500D01*
X106309786Y-112008251D01*
X106309792Y-112008251D01*
X106379929Y-112001991D01*
X106473762Y-111993617D01*
X106479176Y-111992136D01*
X106479181Y-111992135D01*
X106606912Y-111957191D01*
X106690451Y-111934337D01*
X106695509Y-111931925D01*
X106695513Y-111931923D01*
X106813042Y-111875864D01*
X106893218Y-111837622D01*
X107075654Y-111706529D01*
X107231992Y-111545201D01*
X107357290Y-111358738D01*
X107447588Y-111153033D01*
X107450735Y-111139928D01*
X107496332Y-110950000D01*
X120686496Y-110950000D01*
X120687186Y-110956565D01*
X120694489Y-111026045D01*
X120706458Y-111139928D01*
X120765473Y-111321556D01*
X120860960Y-111486944D01*
X120865378Y-111491851D01*
X120865379Y-111491852D01*
X120984325Y-111623955D01*
X120988747Y-111628866D01*
X121077618Y-111693435D01*
X121100150Y-111709805D01*
X121143248Y-111741118D01*
X121149276Y-111743802D01*
X121149278Y-111743803D01*
X121184456Y-111759465D01*
X121317712Y-111818794D01*
X121390897Y-111834350D01*
X121498056Y-111857128D01*
X121498061Y-111857128D01*
X121504513Y-111858500D01*
X121695487Y-111858500D01*
X121701939Y-111857128D01*
X121701944Y-111857128D01*
X121809103Y-111834350D01*
X121882288Y-111818794D01*
X122015544Y-111759465D01*
X122050722Y-111743803D01*
X122050724Y-111743802D01*
X122056752Y-111741118D01*
X122099851Y-111709805D01*
X122122382Y-111693435D01*
X122211253Y-111628866D01*
X122215675Y-111623955D01*
X122334621Y-111491852D01*
X122334622Y-111491851D01*
X122339040Y-111486944D01*
X122434527Y-111321556D01*
X122493542Y-111139928D01*
X122505512Y-111026045D01*
X122512814Y-110956565D01*
X122513504Y-110950000D01*
X122501301Y-110833891D01*
X122494232Y-110766635D01*
X122494232Y-110766633D01*
X122493542Y-110760072D01*
X122434527Y-110578444D01*
X122430239Y-110571016D01*
X122342341Y-110418774D01*
X122339040Y-110413056D01*
X122217370Y-110277927D01*
X122215675Y-110276045D01*
X122215674Y-110276044D01*
X122211253Y-110271134D01*
X122056752Y-110158882D01*
X122050724Y-110156198D01*
X122050722Y-110156197D01*
X121888319Y-110083891D01*
X121888318Y-110083891D01*
X121882288Y-110081206D01*
X121788888Y-110061353D01*
X121701944Y-110042872D01*
X121701939Y-110042872D01*
X121695487Y-110041500D01*
X121504513Y-110041500D01*
X121498061Y-110042872D01*
X121498056Y-110042872D01*
X121411112Y-110061353D01*
X121317712Y-110081206D01*
X121311682Y-110083891D01*
X121311681Y-110083891D01*
X121149278Y-110156197D01*
X121149276Y-110156198D01*
X121143248Y-110158882D01*
X120988747Y-110271134D01*
X120984326Y-110276044D01*
X120984325Y-110276045D01*
X120982631Y-110277927D01*
X120860960Y-110413056D01*
X120857659Y-110418774D01*
X120769762Y-110571016D01*
X120765473Y-110578444D01*
X120706458Y-110760072D01*
X120705768Y-110766633D01*
X120705768Y-110766635D01*
X120698699Y-110833891D01*
X120686496Y-110950000D01*
X107496332Y-110950000D01*
X107498722Y-110940046D01*
X107498722Y-110940045D01*
X107500032Y-110934589D01*
X107512963Y-110710310D01*
X107485975Y-110487285D01*
X107419918Y-110272565D01*
X107417176Y-110267251D01*
X107319454Y-110077919D01*
X107319454Y-110077918D01*
X107316882Y-110072936D01*
X107180123Y-109894708D01*
X107013964Y-109743515D01*
X107009217Y-109740537D01*
X107009214Y-109740535D01*
X106828405Y-109627115D01*
X106823656Y-109624136D01*
X106801761Y-109615334D01*
X106746018Y-109571370D01*
X106722892Y-109504245D01*
X106739728Y-109435274D01*
X106794513Y-109384703D01*
X106867268Y-109350000D01*
X111786496Y-109350000D01*
X111787186Y-109356565D01*
X111805129Y-109527279D01*
X111806458Y-109539928D01*
X111865473Y-109721556D01*
X111868776Y-109727278D01*
X111868777Y-109727279D01*
X111892087Y-109767653D01*
X111960960Y-109886944D01*
X111965378Y-109891851D01*
X111965379Y-109891852D01*
X112079678Y-110018794D01*
X112088747Y-110028866D01*
X112243248Y-110141118D01*
X112249276Y-110143802D01*
X112249278Y-110143803D01*
X112411681Y-110216109D01*
X112417712Y-110218794D01*
X112511113Y-110238647D01*
X112598056Y-110257128D01*
X112598061Y-110257128D01*
X112604513Y-110258500D01*
X112795487Y-110258500D01*
X112801939Y-110257128D01*
X112801944Y-110257128D01*
X112888887Y-110238647D01*
X112982288Y-110218794D01*
X112988319Y-110216109D01*
X113150722Y-110143803D01*
X113150724Y-110143802D01*
X113156752Y-110141118D01*
X113311253Y-110028866D01*
X113320322Y-110018794D01*
X113434621Y-109891852D01*
X113434622Y-109891851D01*
X113439040Y-109886944D01*
X113507913Y-109767653D01*
X113531223Y-109727279D01*
X113531224Y-109727278D01*
X113534527Y-109721556D01*
X113593542Y-109539928D01*
X113594872Y-109527279D01*
X113612814Y-109356565D01*
X113613504Y-109350000D01*
X113593542Y-109160072D01*
X113590269Y-109150000D01*
X118686496Y-109150000D01*
X118687186Y-109156565D01*
X118705208Y-109328032D01*
X118706458Y-109339928D01*
X118765473Y-109521556D01*
X118860960Y-109686944D01*
X118865378Y-109691851D01*
X118865379Y-109691852D01*
X118971206Y-109809385D01*
X118988747Y-109828866D01*
X119143248Y-109941118D01*
X119149276Y-109943802D01*
X119149278Y-109943803D01*
X119173976Y-109954799D01*
X119317712Y-110018794D01*
X119383365Y-110032749D01*
X119498056Y-110057128D01*
X119498061Y-110057128D01*
X119504513Y-110058500D01*
X119695487Y-110058500D01*
X119701939Y-110057128D01*
X119701944Y-110057128D01*
X119816635Y-110032749D01*
X119882288Y-110018794D01*
X120026024Y-109954799D01*
X120050722Y-109943803D01*
X120050724Y-109943802D01*
X120056752Y-109941118D01*
X120211253Y-109828866D01*
X120228794Y-109809385D01*
X120334621Y-109691852D01*
X120334622Y-109691851D01*
X120339040Y-109686944D01*
X120434527Y-109521556D01*
X120493542Y-109339928D01*
X120494793Y-109328032D01*
X120512814Y-109156565D01*
X120513504Y-109150000D01*
X120508338Y-109100847D01*
X120494232Y-108966635D01*
X120494232Y-108966633D01*
X120493542Y-108960072D01*
X120434527Y-108778444D01*
X120427929Y-108767015D01*
X120375407Y-108676045D01*
X120339040Y-108613056D01*
X120301619Y-108571495D01*
X120215675Y-108476045D01*
X120215674Y-108476044D01*
X120211253Y-108471134D01*
X120081805Y-108377084D01*
X120062094Y-108362763D01*
X120062093Y-108362762D01*
X120056752Y-108358882D01*
X120050724Y-108356198D01*
X120050722Y-108356197D01*
X119888319Y-108283891D01*
X119888318Y-108283891D01*
X119882288Y-108281206D01*
X119788887Y-108261353D01*
X119701944Y-108242872D01*
X119701939Y-108242872D01*
X119695487Y-108241500D01*
X119504513Y-108241500D01*
X119498061Y-108242872D01*
X119498056Y-108242872D01*
X119411113Y-108261353D01*
X119317712Y-108281206D01*
X119311682Y-108283891D01*
X119311681Y-108283891D01*
X119149278Y-108356197D01*
X119149276Y-108356198D01*
X119143248Y-108358882D01*
X119137907Y-108362762D01*
X119137906Y-108362763D01*
X119118195Y-108377084D01*
X118988747Y-108471134D01*
X118984326Y-108476044D01*
X118984325Y-108476045D01*
X118898382Y-108571495D01*
X118860960Y-108613056D01*
X118824593Y-108676045D01*
X118772072Y-108767015D01*
X118765473Y-108778444D01*
X118706458Y-108960072D01*
X118705768Y-108966633D01*
X118705768Y-108966635D01*
X118691662Y-109100847D01*
X118686496Y-109150000D01*
X113590269Y-109150000D01*
X113534527Y-108978444D01*
X113439040Y-108813056D01*
X113422438Y-108794617D01*
X113315675Y-108676045D01*
X113315674Y-108676044D01*
X113311253Y-108671134D01*
X113174112Y-108571495D01*
X113162094Y-108562763D01*
X113162093Y-108562762D01*
X113156752Y-108558882D01*
X113150724Y-108556198D01*
X113150722Y-108556197D01*
X112988319Y-108483891D01*
X112988318Y-108483891D01*
X112982288Y-108481206D01*
X112878787Y-108459206D01*
X112801944Y-108442872D01*
X112801939Y-108442872D01*
X112795487Y-108441500D01*
X112604513Y-108441500D01*
X112598061Y-108442872D01*
X112598056Y-108442872D01*
X112521213Y-108459206D01*
X112417712Y-108481206D01*
X112411682Y-108483891D01*
X112411681Y-108483891D01*
X112249278Y-108556197D01*
X112249276Y-108556198D01*
X112243248Y-108558882D01*
X112237907Y-108562762D01*
X112237906Y-108562763D01*
X112225888Y-108571495D01*
X112088747Y-108671134D01*
X112084326Y-108676044D01*
X112084325Y-108676045D01*
X111977563Y-108794617D01*
X111960960Y-108813056D01*
X111865473Y-108978444D01*
X111806458Y-109160072D01*
X111786496Y-109350000D01*
X106867268Y-109350000D01*
X106888151Y-109340039D01*
X106888152Y-109340038D01*
X106893218Y-109337622D01*
X107075654Y-109206529D01*
X107217363Y-109060297D01*
X107228089Y-109049229D01*
X107228091Y-109049226D01*
X107231992Y-109045201D01*
X107357290Y-108858738D01*
X107447588Y-108653033D01*
X107450030Y-108642864D01*
X107498722Y-108440046D01*
X107498722Y-108440045D01*
X107500032Y-108434589D01*
X107505489Y-108339949D01*
X107512640Y-108215917D01*
X107512640Y-108215914D01*
X107512963Y-108210310D01*
X107485975Y-107987285D01*
X107419918Y-107772565D01*
X107401492Y-107736864D01*
X107319454Y-107577919D01*
X107319454Y-107577918D01*
X107316882Y-107572936D01*
X107180123Y-107394708D01*
X107013964Y-107243515D01*
X107009217Y-107240537D01*
X107009214Y-107240535D01*
X106828405Y-107127115D01*
X106823656Y-107124136D01*
X106801761Y-107115334D01*
X106746018Y-107071370D01*
X106722892Y-107004245D01*
X106739728Y-106935274D01*
X106794513Y-106884703D01*
X106888151Y-106840039D01*
X106888152Y-106840038D01*
X106893218Y-106837622D01*
X107075654Y-106706529D01*
X107187125Y-106591500D01*
X107228089Y-106549229D01*
X107228091Y-106549226D01*
X107231992Y-106545201D01*
X107357290Y-106358738D01*
X107405023Y-106250000D01*
X108336496Y-106250000D01*
X108337186Y-106256565D01*
X108353011Y-106407128D01*
X108356458Y-106439928D01*
X108415473Y-106621556D01*
X108418776Y-106627278D01*
X108418777Y-106627279D01*
X108445959Y-106674360D01*
X108510960Y-106786944D01*
X108515378Y-106791851D01*
X108515379Y-106791852D01*
X108628289Y-106917251D01*
X108638747Y-106928866D01*
X108793248Y-107041118D01*
X108799276Y-107043802D01*
X108799278Y-107043803D01*
X108959945Y-107115336D01*
X108967712Y-107118794D01*
X109042680Y-107134729D01*
X109148056Y-107157128D01*
X109148061Y-107157128D01*
X109154513Y-107158500D01*
X109345487Y-107158500D01*
X109351939Y-107157128D01*
X109351944Y-107157128D01*
X109457320Y-107134729D01*
X109532288Y-107118794D01*
X109540055Y-107115336D01*
X109700722Y-107043803D01*
X109700724Y-107043802D01*
X109706752Y-107041118D01*
X109861253Y-106928866D01*
X109871711Y-106917251D01*
X109984621Y-106791852D01*
X109984622Y-106791851D01*
X109989040Y-106786944D01*
X110054041Y-106674360D01*
X110081223Y-106627279D01*
X110081224Y-106627278D01*
X110084527Y-106621556D01*
X110143542Y-106439928D01*
X110146990Y-106407128D01*
X110162814Y-106256565D01*
X110163504Y-106250000D01*
X110155679Y-106175551D01*
X110144232Y-106066635D01*
X110144232Y-106066633D01*
X110143542Y-106060072D01*
X110084527Y-105878444D01*
X109989040Y-105713056D01*
X109968216Y-105689928D01*
X109865675Y-105576045D01*
X109865674Y-105576044D01*
X109861253Y-105571134D01*
X109763346Y-105500000D01*
X119086496Y-105500000D01*
X119087186Y-105506565D01*
X119094489Y-105576045D01*
X119106458Y-105689928D01*
X119165473Y-105871556D01*
X119168776Y-105877278D01*
X119168777Y-105877279D01*
X119179764Y-105896309D01*
X119260960Y-106036944D01*
X119265378Y-106041851D01*
X119265379Y-106041852D01*
X119336573Y-106120921D01*
X119388747Y-106178866D01*
X119444181Y-106219141D01*
X119498892Y-106258891D01*
X119543248Y-106291118D01*
X119549276Y-106293802D01*
X119549278Y-106293803D01*
X119705574Y-106363390D01*
X119717712Y-106368794D01*
X119811113Y-106388647D01*
X119898056Y-106407128D01*
X119898061Y-106407128D01*
X119904513Y-106408500D01*
X120095487Y-106408500D01*
X120101939Y-106407128D01*
X120101944Y-106407128D01*
X120188887Y-106388647D01*
X120282288Y-106368794D01*
X120294426Y-106363390D01*
X120450722Y-106293803D01*
X120450724Y-106293802D01*
X120456752Y-106291118D01*
X120572094Y-106207317D01*
X120638962Y-106183458D01*
X120646155Y-106183253D01*
X124069776Y-106183253D01*
X124137897Y-106203255D01*
X124143834Y-106207315D01*
X124153667Y-106214459D01*
X124276484Y-106303691D01*
X124293248Y-106315871D01*
X124299276Y-106318555D01*
X124299278Y-106318556D01*
X124370786Y-106350393D01*
X124424882Y-106396373D01*
X124445531Y-106464300D01*
X124426179Y-106532608D01*
X124372968Y-106579610D01*
X124319537Y-106591500D01*
X124154513Y-106591500D01*
X124148061Y-106592872D01*
X124148056Y-106592872D01*
X124071895Y-106609061D01*
X123967712Y-106631206D01*
X123961682Y-106633891D01*
X123961681Y-106633891D01*
X123799278Y-106706197D01*
X123799276Y-106706198D01*
X123793248Y-106708882D01*
X123638747Y-106821134D01*
X123634326Y-106826044D01*
X123634325Y-106826045D01*
X123538249Y-106932749D01*
X123510960Y-106963056D01*
X123453225Y-107063056D01*
X123422595Y-107116109D01*
X123415473Y-107128444D01*
X123356458Y-107310072D01*
X123355768Y-107316633D01*
X123355768Y-107316635D01*
X123345948Y-107410072D01*
X123336496Y-107500000D01*
X123337186Y-107506565D01*
X123351883Y-107646396D01*
X123356458Y-107689928D01*
X123415473Y-107871556D01*
X123418776Y-107877278D01*
X123418777Y-107877279D01*
X123431123Y-107898663D01*
X123510960Y-108036944D01*
X123515378Y-108041851D01*
X123515379Y-108041852D01*
X123560082Y-108091500D01*
X123638747Y-108178866D01*
X123682026Y-108210310D01*
X123776385Y-108278866D01*
X123793248Y-108291118D01*
X123799276Y-108293802D01*
X123799278Y-108293803D01*
X123961681Y-108366109D01*
X123967712Y-108368794D01*
X124051929Y-108386695D01*
X124148056Y-108407128D01*
X124148061Y-108407128D01*
X124154513Y-108408500D01*
X124175049Y-108408500D01*
X124243170Y-108428502D01*
X124264144Y-108445404D01*
X125054595Y-109235854D01*
X125088620Y-109298167D01*
X125091500Y-109324950D01*
X125091500Y-112324852D01*
X125071498Y-112392973D01*
X125017842Y-112439466D01*
X124947568Y-112449570D01*
X124914252Y-112439959D01*
X124788323Y-112383892D01*
X124788315Y-112383889D01*
X124782288Y-112381206D01*
X124688887Y-112361353D01*
X124601944Y-112342872D01*
X124601939Y-112342872D01*
X124595487Y-112341500D01*
X124404513Y-112341500D01*
X124398061Y-112342872D01*
X124398056Y-112342872D01*
X124311113Y-112361353D01*
X124217712Y-112381206D01*
X124211682Y-112383891D01*
X124211681Y-112383891D01*
X124049278Y-112456197D01*
X124049276Y-112456198D01*
X124043248Y-112458882D01*
X124037907Y-112462762D01*
X124037906Y-112462763D01*
X124004221Y-112487237D01*
X123888747Y-112571134D01*
X123884326Y-112576044D01*
X123884325Y-112576045D01*
X123781785Y-112689928D01*
X123760960Y-112713056D01*
X123665473Y-112878444D01*
X123606458Y-113060072D01*
X123605768Y-113066635D01*
X123605768Y-113066636D01*
X123604469Y-113078998D01*
X123577457Y-113144655D01*
X123519237Y-113185286D01*
X123448292Y-113187991D01*
X123387147Y-113151910D01*
X123359326Y-113104767D01*
X123342764Y-113053794D01*
X123334527Y-113028444D01*
X123239040Y-112863056D01*
X123111253Y-112721134D01*
X122956752Y-112608882D01*
X122950724Y-112606198D01*
X122950722Y-112606197D01*
X122788319Y-112533891D01*
X122788318Y-112533891D01*
X122782288Y-112531206D01*
X122666362Y-112506565D01*
X122601944Y-112492872D01*
X122601939Y-112492872D01*
X122595487Y-112491500D01*
X122404513Y-112491500D01*
X122398061Y-112492872D01*
X122398056Y-112492872D01*
X122333638Y-112506565D01*
X122217712Y-112531206D01*
X122211682Y-112533891D01*
X122211681Y-112533891D01*
X122049278Y-112606197D01*
X122049276Y-112606198D01*
X122043248Y-112608882D01*
X121888747Y-112721134D01*
X121760960Y-112863056D01*
X121665473Y-113028444D01*
X121606458Y-113210072D01*
X121586496Y-113400000D01*
X121587186Y-113406565D01*
X121596806Y-113498090D01*
X121606458Y-113589928D01*
X121665473Y-113771556D01*
X121760960Y-113936944D01*
X121765378Y-113941851D01*
X121765379Y-113941852D01*
X121880726Y-114069958D01*
X121888747Y-114078866D01*
X121923143Y-114103856D01*
X122027036Y-114179339D01*
X122043248Y-114191118D01*
X122049276Y-114193802D01*
X122049278Y-114193803D01*
X122211681Y-114266109D01*
X122217712Y-114268794D01*
X122311113Y-114288647D01*
X122398056Y-114307128D01*
X122398061Y-114307128D01*
X122404513Y-114308500D01*
X122595487Y-114308500D01*
X122601939Y-114307128D01*
X122601944Y-114307128D01*
X122688887Y-114288647D01*
X122782288Y-114268794D01*
X122788319Y-114266109D01*
X122950722Y-114193803D01*
X122950724Y-114193802D01*
X122956752Y-114191118D01*
X122972965Y-114179339D01*
X123076857Y-114103856D01*
X123111253Y-114078866D01*
X123119274Y-114069958D01*
X123234621Y-113941852D01*
X123234622Y-113941851D01*
X123239040Y-113936944D01*
X123334527Y-113771556D01*
X123393542Y-113589928D01*
X123395531Y-113571001D01*
X123422543Y-113505345D01*
X123480763Y-113464714D01*
X123551708Y-113462009D01*
X123612853Y-113498090D01*
X123640674Y-113545233D01*
X123665473Y-113621556D01*
X123760960Y-113786944D01*
X123834137Y-113868215D01*
X123864853Y-113932221D01*
X123866500Y-113952524D01*
X123866500Y-113981233D01*
X123865973Y-113992416D01*
X123864298Y-113999909D01*
X123864547Y-114007835D01*
X123864547Y-114007836D01*
X123866438Y-114067986D01*
X123866500Y-114071945D01*
X123866500Y-114099856D01*
X123866997Y-114103790D01*
X123866997Y-114103791D01*
X123867005Y-114103856D01*
X123867938Y-114115693D01*
X123869327Y-114159889D01*
X123874978Y-114179339D01*
X123878987Y-114198700D01*
X123881526Y-114218797D01*
X123884445Y-114226168D01*
X123884445Y-114226170D01*
X123897804Y-114259912D01*
X123901649Y-114271142D01*
X123913982Y-114313593D01*
X123918015Y-114320412D01*
X123918017Y-114320417D01*
X123924293Y-114331028D01*
X123932988Y-114348776D01*
X123940448Y-114367617D01*
X123945110Y-114374033D01*
X123945110Y-114374034D01*
X123966436Y-114403387D01*
X123972952Y-114413307D01*
X123995457Y-114451360D01*
X124012917Y-114520176D01*
X123990401Y-114587507D01*
X123935057Y-114631977D01*
X123887004Y-114641500D01*
X123001866Y-114641500D01*
X122939684Y-114648255D01*
X122803295Y-114699385D01*
X122686739Y-114786739D01*
X122599385Y-114903295D01*
X122548255Y-115039684D01*
X122541500Y-115101866D01*
X122541500Y-116898134D01*
X122548255Y-116960316D01*
X122599385Y-117096705D01*
X122686739Y-117213261D01*
X122803295Y-117300615D01*
X122939684Y-117351745D01*
X123001866Y-117358500D01*
X124798134Y-117358500D01*
X124860316Y-117351745D01*
X124996705Y-117300615D01*
X125113261Y-117213261D01*
X125200615Y-117096705D01*
X125222799Y-117037529D01*
X125244598Y-116979382D01*
X125287240Y-116922618D01*
X125353802Y-116897918D01*
X125423150Y-116913126D01*
X125457817Y-116941114D01*
X125486250Y-116973938D01*
X125658126Y-117116632D01*
X125851000Y-117229338D01*
X126059692Y-117309030D01*
X126064760Y-117310061D01*
X126064763Y-117310062D01*
X126172017Y-117331883D01*
X126278597Y-117353567D01*
X126283772Y-117353757D01*
X126283774Y-117353757D01*
X126496673Y-117361564D01*
X126496677Y-117361564D01*
X126501837Y-117361753D01*
X126506957Y-117361097D01*
X126506959Y-117361097D01*
X126718288Y-117334025D01*
X126718289Y-117334025D01*
X126723416Y-117333368D01*
X126728366Y-117331883D01*
X126932429Y-117270661D01*
X126932434Y-117270659D01*
X126937384Y-117269174D01*
X127137994Y-117170896D01*
X127319860Y-117041173D01*
X127478096Y-116883489D01*
X127537594Y-116800689D01*
X127605435Y-116706277D01*
X127608453Y-116702077D01*
X127629320Y-116659857D01*
X127705136Y-116506453D01*
X127705137Y-116506451D01*
X127707430Y-116501811D01*
X127772370Y-116288069D01*
X127801529Y-116066590D01*
X127802683Y-116019355D01*
X127803074Y-116003365D01*
X127803074Y-116003361D01*
X127803156Y-116000000D01*
X127784852Y-115777361D01*
X127730431Y-115560702D01*
X127641354Y-115355840D01*
X127638541Y-115351491D01*
X127636101Y-115346941D01*
X127637477Y-115346203D01*
X127619271Y-115284877D01*
X127639069Y-115216697D01*
X127692585Y-115170043D01*
X127745270Y-115158500D01*
X129695050Y-115158500D01*
X129763171Y-115178502D01*
X129784145Y-115195405D01*
X130162101Y-115573361D01*
X130196127Y-115635673D01*
X130194424Y-115696125D01*
X130180989Y-115744570D01*
X130157251Y-115966695D01*
X130157548Y-115971848D01*
X130157548Y-115971851D01*
X130163011Y-116066590D01*
X130170110Y-116189715D01*
X130171247Y-116194761D01*
X130171248Y-116194767D01*
X130190201Y-116278866D01*
X130219222Y-116407639D01*
X130303266Y-116614616D01*
X130354019Y-116697438D01*
X130417291Y-116800688D01*
X130419987Y-116805088D01*
X130566250Y-116973938D01*
X130738126Y-117116632D01*
X130931000Y-117229338D01*
X131139692Y-117309030D01*
X131144760Y-117310061D01*
X131144763Y-117310062D01*
X131252017Y-117331883D01*
X131358597Y-117353567D01*
X131363772Y-117353757D01*
X131363774Y-117353757D01*
X131576673Y-117361564D01*
X131576677Y-117361564D01*
X131581837Y-117361753D01*
X131586957Y-117361097D01*
X131586959Y-117361097D01*
X131798288Y-117334025D01*
X131798289Y-117334025D01*
X131803416Y-117333368D01*
X131808366Y-117331883D01*
X132012429Y-117270661D01*
X132012434Y-117270659D01*
X132017384Y-117269174D01*
X132217994Y-117170896D01*
X132399860Y-117041173D01*
X132558096Y-116883489D01*
X132617594Y-116800689D01*
X132688453Y-116702077D01*
X132689776Y-116703028D01*
X132736645Y-116659857D01*
X132806580Y-116647625D01*
X132872026Y-116675144D01*
X132899875Y-116706994D01*
X132959987Y-116805088D01*
X133106250Y-116973938D01*
X133278126Y-117116632D01*
X133471000Y-117229338D01*
X133679692Y-117309030D01*
X133684760Y-117310061D01*
X133684763Y-117310062D01*
X133792017Y-117331883D01*
X133898597Y-117353567D01*
X133903772Y-117353757D01*
X133903774Y-117353757D01*
X134116673Y-117361564D01*
X134116677Y-117361564D01*
X134121837Y-117361753D01*
X134126957Y-117361097D01*
X134126959Y-117361097D01*
X134338288Y-117334025D01*
X134338289Y-117334025D01*
X134343416Y-117333368D01*
X134348366Y-117331883D01*
X134552429Y-117270661D01*
X134552434Y-117270659D01*
X134557384Y-117269174D01*
X134757994Y-117170896D01*
X134939860Y-117041173D01*
X135098096Y-116883489D01*
X135157594Y-116800689D01*
X135228453Y-116702077D01*
X135229776Y-116703028D01*
X135276645Y-116659857D01*
X135346580Y-116647625D01*
X135412026Y-116675144D01*
X135439875Y-116706994D01*
X135499987Y-116805088D01*
X135646250Y-116973938D01*
X135818126Y-117116632D01*
X136011000Y-117229338D01*
X136219692Y-117309030D01*
X136224760Y-117310061D01*
X136224763Y-117310062D01*
X136332017Y-117331883D01*
X136438597Y-117353567D01*
X136443772Y-117353757D01*
X136443774Y-117353757D01*
X136656673Y-117361564D01*
X136656677Y-117361564D01*
X136661837Y-117361753D01*
X136666957Y-117361097D01*
X136666959Y-117361097D01*
X136878288Y-117334025D01*
X136878289Y-117334025D01*
X136883416Y-117333368D01*
X136888366Y-117331883D01*
X137092429Y-117270661D01*
X137092434Y-117270659D01*
X137097384Y-117269174D01*
X137297994Y-117170896D01*
X137479860Y-117041173D01*
X137638096Y-116883489D01*
X137697594Y-116800689D01*
X137765435Y-116706277D01*
X137768453Y-116702077D01*
X137789320Y-116659857D01*
X137865136Y-116506453D01*
X137865137Y-116506451D01*
X137867430Y-116501811D01*
X137932370Y-116288069D01*
X137961529Y-116066590D01*
X137962683Y-116019355D01*
X137963074Y-116003365D01*
X137963074Y-116003361D01*
X137963156Y-116000000D01*
X137944852Y-115777361D01*
X137890431Y-115560702D01*
X137801354Y-115355840D01*
X137718938Y-115228444D01*
X137682822Y-115172617D01*
X137682820Y-115172614D01*
X137680014Y-115168277D01*
X137529670Y-115003051D01*
X137525619Y-114999852D01*
X137525615Y-114999848D01*
X137358414Y-114867800D01*
X137358410Y-114867798D01*
X137354359Y-114864598D01*
X137158789Y-114756638D01*
X137153920Y-114754914D01*
X137153916Y-114754912D01*
X136953087Y-114683795D01*
X136953083Y-114683794D01*
X136948212Y-114682069D01*
X136943119Y-114681162D01*
X136943116Y-114681161D01*
X136733373Y-114643800D01*
X136733367Y-114643799D01*
X136728284Y-114642894D01*
X136654452Y-114641992D01*
X136510081Y-114640228D01*
X136510079Y-114640228D01*
X136504911Y-114640165D01*
X136284091Y-114673955D01*
X136283928Y-114672889D01*
X136218336Y-114669490D01*
X136170949Y-114639689D01*
X135623650Y-114092391D01*
X135615662Y-114083611D01*
X135611416Y-114076920D01*
X135559741Y-114028394D01*
X135556900Y-114025640D01*
X135536333Y-114005073D01*
X135532826Y-114002353D01*
X135523804Y-113994647D01*
X135518917Y-113990058D01*
X135490133Y-113963028D01*
X135483181Y-113959206D01*
X135471342Y-113952697D01*
X135454818Y-113941843D01*
X135444132Y-113933555D01*
X135437868Y-113928696D01*
X135430596Y-113925549D01*
X135430594Y-113925548D01*
X135395465Y-113910346D01*
X135384805Y-113905124D01*
X135351284Y-113886695D01*
X135351282Y-113886694D01*
X135344337Y-113882876D01*
X135323559Y-113877541D01*
X135304869Y-113871142D01*
X135285176Y-113862620D01*
X135239552Y-113855394D01*
X135227929Y-113852987D01*
X135199928Y-113845798D01*
X135183188Y-113841500D01*
X135161741Y-113841500D01*
X135142031Y-113839949D01*
X135128677Y-113837834D01*
X135120848Y-113836594D01*
X135074859Y-113840941D01*
X135063004Y-113841500D01*
X131574950Y-113841500D01*
X131506829Y-113821498D01*
X131485854Y-113804595D01*
X131195404Y-113514144D01*
X131161379Y-113451832D01*
X131158500Y-113425049D01*
X131158500Y-112500000D01*
X132586496Y-112500000D01*
X132587186Y-112506565D01*
X132594489Y-112576045D01*
X132606458Y-112689928D01*
X132665473Y-112871556D01*
X132760960Y-113036944D01*
X132765378Y-113041851D01*
X132765379Y-113041852D01*
X132822028Y-113104767D01*
X132888747Y-113178866D01*
X133043248Y-113291118D01*
X133049276Y-113293802D01*
X133049278Y-113293803D01*
X133062137Y-113299528D01*
X133217712Y-113368794D01*
X133311113Y-113388647D01*
X133398056Y-113407128D01*
X133398061Y-113407128D01*
X133404513Y-113408500D01*
X133595487Y-113408500D01*
X133601939Y-113407128D01*
X133601944Y-113407128D01*
X133688887Y-113388647D01*
X133782288Y-113368794D01*
X133937863Y-113299528D01*
X133950722Y-113293803D01*
X133950724Y-113293802D01*
X133956752Y-113291118D01*
X134111253Y-113178866D01*
X134177972Y-113104767D01*
X134234621Y-113041852D01*
X134234622Y-113041851D01*
X134239040Y-113036944D01*
X134334527Y-112871556D01*
X134393542Y-112689928D01*
X134405512Y-112576045D01*
X134412814Y-112506565D01*
X134413504Y-112500000D01*
X134401181Y-112382749D01*
X134394232Y-112316635D01*
X134394232Y-112316633D01*
X134393542Y-112310072D01*
X134334527Y-112128444D01*
X134239040Y-111963056D01*
X134234092Y-111957560D01*
X134115675Y-111826045D01*
X134115674Y-111826044D01*
X134111253Y-111821134D01*
X133956752Y-111708882D01*
X133950724Y-111706198D01*
X133950722Y-111706197D01*
X133936803Y-111700000D01*
X137686496Y-111700000D01*
X137687186Y-111706565D01*
X137703011Y-111857128D01*
X137706458Y-111889928D01*
X137765473Y-112071556D01*
X137860960Y-112236944D01*
X137865378Y-112241851D01*
X137865379Y-112241852D01*
X137956338Y-112342872D01*
X137988747Y-112378866D01*
X138143248Y-112491118D01*
X138149276Y-112493802D01*
X138149278Y-112493803D01*
X138311681Y-112566109D01*
X138317712Y-112568794D01*
X138411113Y-112588647D01*
X138498056Y-112607128D01*
X138498061Y-112607128D01*
X138504513Y-112608500D01*
X138695487Y-112608500D01*
X138701939Y-112607128D01*
X138701944Y-112607128D01*
X138788887Y-112588647D01*
X138882288Y-112568794D01*
X138888319Y-112566109D01*
X139050722Y-112493803D01*
X139050724Y-112493802D01*
X139056752Y-112491118D01*
X139211253Y-112378866D01*
X139243662Y-112342872D01*
X139334621Y-112241852D01*
X139334622Y-112241851D01*
X139339040Y-112236944D01*
X139434527Y-112071556D01*
X139493542Y-111889928D01*
X139496990Y-111857128D01*
X139512814Y-111706565D01*
X139513504Y-111700000D01*
X139506028Y-111628866D01*
X139494232Y-111516635D01*
X139494232Y-111516633D01*
X139493542Y-111510072D01*
X139434527Y-111328444D01*
X139339040Y-111163056D01*
X139318216Y-111139928D01*
X139215675Y-111026045D01*
X139215674Y-111026044D01*
X139211253Y-111021134D01*
X139056752Y-110908882D01*
X139050724Y-110906198D01*
X139050722Y-110906197D01*
X138888319Y-110833891D01*
X138888318Y-110833891D01*
X138882288Y-110831206D01*
X138788888Y-110811353D01*
X138701944Y-110792872D01*
X138701939Y-110792872D01*
X138695487Y-110791500D01*
X138504513Y-110791500D01*
X138498061Y-110792872D01*
X138498056Y-110792872D01*
X138411113Y-110811353D01*
X138317712Y-110831206D01*
X138311682Y-110833891D01*
X138311681Y-110833891D01*
X138149278Y-110906197D01*
X138149276Y-110906198D01*
X138143248Y-110908882D01*
X137988747Y-111021134D01*
X137984326Y-111026044D01*
X137984325Y-111026045D01*
X137881785Y-111139928D01*
X137860960Y-111163056D01*
X137765473Y-111328444D01*
X137706458Y-111510072D01*
X137705768Y-111516633D01*
X137705768Y-111516635D01*
X137693972Y-111628866D01*
X137686496Y-111700000D01*
X133936803Y-111700000D01*
X133788319Y-111633891D01*
X133788318Y-111633891D01*
X133782288Y-111631206D01*
X133678105Y-111609061D01*
X133601944Y-111592872D01*
X133601939Y-111592872D01*
X133595487Y-111591500D01*
X133404513Y-111591500D01*
X133398061Y-111592872D01*
X133398056Y-111592872D01*
X133321895Y-111609061D01*
X133217712Y-111631206D01*
X133211682Y-111633891D01*
X133211681Y-111633891D01*
X133049278Y-111706197D01*
X133049276Y-111706198D01*
X133043248Y-111708882D01*
X132888747Y-111821134D01*
X132884326Y-111826044D01*
X132884325Y-111826045D01*
X132765909Y-111957560D01*
X132760960Y-111963056D01*
X132665473Y-112128444D01*
X132606458Y-112310072D01*
X132605768Y-112316633D01*
X132605768Y-112316635D01*
X132598819Y-112382749D01*
X132586496Y-112500000D01*
X131158500Y-112500000D01*
X131158500Y-109832056D01*
X131159059Y-109820200D01*
X131159059Y-109820197D01*
X131160788Y-109812463D01*
X131158562Y-109741631D01*
X131158500Y-109737673D01*
X131158500Y-109708568D01*
X131157944Y-109704168D01*
X131157012Y-109692330D01*
X131155811Y-109654094D01*
X131155562Y-109646169D01*
X131149580Y-109625579D01*
X131145570Y-109606216D01*
X131143875Y-109592796D01*
X131143875Y-109592795D01*
X131142882Y-109584936D01*
X131139966Y-109577571D01*
X131139965Y-109577567D01*
X131125874Y-109541979D01*
X131122035Y-109530769D01*
X131109145Y-109486400D01*
X131098229Y-109467943D01*
X131089534Y-109450193D01*
X131081635Y-109430244D01*
X131073671Y-109419282D01*
X131054477Y-109392864D01*
X131047960Y-109382943D01*
X131024452Y-109343193D01*
X131009291Y-109328032D01*
X130996449Y-109312997D01*
X130992881Y-109308086D01*
X130983841Y-109295643D01*
X130948248Y-109266198D01*
X130939467Y-109258208D01*
X130448275Y-108767015D01*
X147095097Y-108767015D01*
X147108373Y-108969573D01*
X147109794Y-108975169D01*
X147109795Y-108975174D01*
X147156754Y-109160072D01*
X147158341Y-109166320D01*
X147160758Y-109171563D01*
X147197604Y-109251489D01*
X147243326Y-109350667D01*
X147246659Y-109355383D01*
X147348063Y-109498867D01*
X147360482Y-109516440D01*
X147364624Y-109520475D01*
X147462741Y-109616055D01*
X147505887Y-109658086D01*
X147510691Y-109661296D01*
X147536442Y-109678502D01*
X147674669Y-109770863D01*
X147679972Y-109773141D01*
X147679975Y-109773143D01*
X147798244Y-109823955D01*
X147861177Y-109850993D01*
X147927980Y-109866109D01*
X148053528Y-109894518D01*
X148053533Y-109894519D01*
X148059165Y-109895793D01*
X148064936Y-109896020D01*
X148064938Y-109896020D01*
X148124705Y-109898368D01*
X148262002Y-109903763D01*
X148362448Y-109889199D01*
X148457180Y-109875464D01*
X148457185Y-109875463D01*
X148462894Y-109874635D01*
X148468358Y-109872780D01*
X148468363Y-109872779D01*
X148649642Y-109811243D01*
X148649647Y-109811241D01*
X148655114Y-109809385D01*
X148660968Y-109806107D01*
X148783165Y-109737673D01*
X148832225Y-109710198D01*
X148846564Y-109698273D01*
X148983862Y-109584082D01*
X148988294Y-109580396D01*
X149054217Y-109501133D01*
X149114402Y-109428769D01*
X149114404Y-109428766D01*
X149118096Y-109424327D01*
X149208774Y-109262410D01*
X149214459Y-109252259D01*
X149214460Y-109252257D01*
X149217283Y-109247216D01*
X149219139Y-109241749D01*
X149219141Y-109241744D01*
X149280677Y-109060465D01*
X149280678Y-109060460D01*
X149281169Y-109059013D01*
X150723706Y-109059013D01*
X150749494Y-109160553D01*
X150753335Y-109171399D01*
X150833445Y-109345171D01*
X150839196Y-109355132D01*
X150949630Y-109511394D01*
X150957108Y-109520149D01*
X151094165Y-109653663D01*
X151103109Y-109660906D01*
X151262207Y-109767212D01*
X151272317Y-109772702D01*
X151448128Y-109848236D01*
X151459071Y-109851791D01*
X151528383Y-109867475D01*
X151542456Y-109866586D01*
X151546003Y-109857312D01*
X152046051Y-109857312D01*
X152050017Y-109870818D01*
X152060330Y-109872294D01*
X152060353Y-109872289D01*
X152241548Y-109810781D01*
X152252045Y-109806107D01*
X152419009Y-109712603D01*
X152428481Y-109706093D01*
X152575604Y-109583733D01*
X152583733Y-109575604D01*
X152706093Y-109428481D01*
X152712603Y-109419009D01*
X152806107Y-109252045D01*
X152810781Y-109241548D01*
X152872289Y-109060353D01*
X152872302Y-109060297D01*
X152870841Y-109050044D01*
X152857273Y-109046051D01*
X152064166Y-109046051D01*
X152048927Y-109050526D01*
X152047722Y-109051916D01*
X152046051Y-109059599D01*
X152046051Y-109857312D01*
X151546003Y-109857312D01*
X151546051Y-109857187D01*
X151546051Y-109064166D01*
X151541576Y-109048927D01*
X151540186Y-109047722D01*
X151532503Y-109046051D01*
X150738529Y-109046051D01*
X150724998Y-109050024D01*
X150723706Y-109059013D01*
X149281169Y-109059013D01*
X149282533Y-109054996D01*
X149283361Y-109049287D01*
X149283362Y-109049282D01*
X149309928Y-108866055D01*
X149311661Y-108854104D01*
X149313181Y-108796051D01*
X149298664Y-108638061D01*
X149295136Y-108599664D01*
X149295135Y-108599661D01*
X149294607Y-108593910D01*
X149288285Y-108571495D01*
X149280206Y-108542850D01*
X150722752Y-108542850D01*
X150729484Y-108546051D01*
X151527936Y-108546051D01*
X151543175Y-108541576D01*
X151544380Y-108540186D01*
X151546051Y-108532503D01*
X151546051Y-108527936D01*
X152046051Y-108527936D01*
X152050526Y-108543175D01*
X152051916Y-108544380D01*
X152059599Y-108546051D01*
X152854577Y-108546051D01*
X152868108Y-108542078D01*
X152869277Y-108533943D01*
X152832709Y-108404282D01*
X152828584Y-108393535D01*
X152743954Y-108221922D01*
X152737944Y-108212114D01*
X152623451Y-108058790D01*
X152615761Y-108050250D01*
X152475243Y-107920355D01*
X152466118Y-107913354D01*
X152304287Y-107811246D01*
X152294040Y-107806025D01*
X152116316Y-107735121D01*
X152105279Y-107731852D01*
X152063820Y-107723605D01*
X152050945Y-107724757D01*
X152046051Y-107739911D01*
X152046051Y-108527936D01*
X151546051Y-108527936D01*
X151546051Y-107736864D01*
X151542245Y-107723902D01*
X151527330Y-107721966D01*
X151514788Y-107724121D01*
X151503668Y-107727101D01*
X151324146Y-107793330D01*
X151313768Y-107798280D01*
X151149324Y-107896114D01*
X151140012Y-107902880D01*
X150996148Y-108029045D01*
X150988231Y-108037388D01*
X150869769Y-108187656D01*
X150863501Y-108197307D01*
X150774409Y-108366643D01*
X150770004Y-108377278D01*
X150722971Y-108528746D01*
X150722752Y-108542850D01*
X149280206Y-108542850D01*
X149241074Y-108404097D01*
X149241073Y-108404095D01*
X149239506Y-108398538D01*
X149231783Y-108382876D01*
X149152280Y-108221660D01*
X149149725Y-108216479D01*
X149145119Y-108210310D01*
X149086063Y-108131226D01*
X149028269Y-108053830D01*
X148879207Y-107916038D01*
X148874324Y-107912957D01*
X148874320Y-107912954D01*
X148728677Y-107821061D01*
X148707530Y-107807718D01*
X148518988Y-107732497D01*
X148513328Y-107731371D01*
X148513324Y-107731370D01*
X148325562Y-107694022D01*
X148325559Y-107694022D01*
X148319895Y-107692895D01*
X148314120Y-107692819D01*
X148314116Y-107692819D01*
X148212742Y-107691492D01*
X148116920Y-107690238D01*
X148111223Y-107691217D01*
X148111222Y-107691217D01*
X147922556Y-107723636D01*
X147916859Y-107724615D01*
X147726412Y-107794875D01*
X147551959Y-107898663D01*
X147547619Y-107902469D01*
X147547615Y-107902472D01*
X147450905Y-107987285D01*
X147399341Y-108032506D01*
X147273669Y-108191920D01*
X147270980Y-108197031D01*
X147270978Y-108197034D01*
X147230508Y-108273955D01*
X147179152Y-108371566D01*
X147118956Y-108565429D01*
X147095097Y-108767015D01*
X130448275Y-108767015D01*
X130273651Y-108592391D01*
X130265663Y-108583612D01*
X130261416Y-108576920D01*
X130246590Y-108562997D01*
X130209742Y-108528395D01*
X130206900Y-108525640D01*
X130186333Y-108505073D01*
X130182826Y-108502353D01*
X130173804Y-108494647D01*
X130145913Y-108468456D01*
X130140133Y-108463028D01*
X130133181Y-108459206D01*
X130121342Y-108452697D01*
X130104818Y-108441843D01*
X130094132Y-108433555D01*
X130087868Y-108428696D01*
X130080596Y-108425549D01*
X130080594Y-108425548D01*
X130045465Y-108410346D01*
X130034805Y-108405124D01*
X130001284Y-108386695D01*
X130001282Y-108386694D01*
X129994337Y-108382876D01*
X129973559Y-108377541D01*
X129954869Y-108371142D01*
X129935176Y-108362620D01*
X129889552Y-108355394D01*
X129877929Y-108352987D01*
X129849928Y-108345798D01*
X129833188Y-108341500D01*
X129811741Y-108341500D01*
X129792031Y-108339949D01*
X129778677Y-108337834D01*
X129770848Y-108336594D01*
X129724859Y-108340941D01*
X129713004Y-108341500D01*
X128180224Y-108341500D01*
X128112103Y-108321498D01*
X128106163Y-108317436D01*
X128105909Y-108317251D01*
X127974700Y-108221922D01*
X127962094Y-108212763D01*
X127962093Y-108212762D01*
X127956752Y-108208882D01*
X127950724Y-108206198D01*
X127950722Y-108206197D01*
X127788319Y-108133891D01*
X127788318Y-108133891D01*
X127782288Y-108131206D01*
X127688888Y-108111353D01*
X127601944Y-108092872D01*
X127601939Y-108092872D01*
X127595487Y-108091500D01*
X127404513Y-108091500D01*
X127398061Y-108092872D01*
X127398056Y-108092872D01*
X127311112Y-108111353D01*
X127217712Y-108131206D01*
X127211682Y-108133891D01*
X127211681Y-108133891D01*
X127049278Y-108206197D01*
X127049276Y-108206198D01*
X127043248Y-108208882D01*
X127037907Y-108212762D01*
X127037906Y-108212763D01*
X127025300Y-108221922D01*
X126888747Y-108321134D01*
X126884326Y-108326044D01*
X126884325Y-108326045D01*
X126774589Y-108447920D01*
X126760960Y-108463056D01*
X126665473Y-108628444D01*
X126639166Y-108709408D01*
X126613901Y-108787165D01*
X126573827Y-108845770D01*
X126508430Y-108873407D01*
X126438474Y-108861300D01*
X126386168Y-108813294D01*
X126376918Y-108794617D01*
X126376023Y-108792356D01*
X126375872Y-108791973D01*
X126372035Y-108780769D01*
X126359145Y-108736400D01*
X126348229Y-108717943D01*
X126339534Y-108700193D01*
X126331635Y-108680244D01*
X126326976Y-108673831D01*
X126304477Y-108642864D01*
X126297960Y-108632943D01*
X126291915Y-108622721D01*
X126274452Y-108593193D01*
X126259291Y-108578032D01*
X126246449Y-108562997D01*
X126244208Y-108559912D01*
X126233841Y-108545643D01*
X126227737Y-108540593D01*
X126227735Y-108540591D01*
X126198237Y-108516188D01*
X126189459Y-108508199D01*
X125281260Y-107600000D01*
X135086496Y-107600000D01*
X135087186Y-107606565D01*
X135105197Y-107777927D01*
X135106458Y-107789928D01*
X135165473Y-107971556D01*
X135260960Y-108136944D01*
X135265378Y-108141851D01*
X135265379Y-108141852D01*
X135356338Y-108242872D01*
X135388747Y-108278866D01*
X135469229Y-108337340D01*
X135521170Y-108375077D01*
X135543248Y-108391118D01*
X135549276Y-108393802D01*
X135549278Y-108393803D01*
X135696177Y-108459206D01*
X135717712Y-108468794D01*
X135811113Y-108488647D01*
X135898056Y-108507128D01*
X135898061Y-108507128D01*
X135904513Y-108508500D01*
X136095487Y-108508500D01*
X136101939Y-108507128D01*
X136101944Y-108507128D01*
X136188888Y-108488647D01*
X136282288Y-108468794D01*
X136303823Y-108459206D01*
X136450722Y-108393803D01*
X136450724Y-108393802D01*
X136456752Y-108391118D01*
X136478831Y-108375077D01*
X136530771Y-108337340D01*
X136611253Y-108278866D01*
X136643662Y-108242872D01*
X136734621Y-108141852D01*
X136734622Y-108141851D01*
X136739040Y-108136944D01*
X136834527Y-107971556D01*
X136893542Y-107789928D01*
X136894804Y-107777927D01*
X136912814Y-107606565D01*
X136913504Y-107600000D01*
X136911183Y-107577919D01*
X136894232Y-107416635D01*
X136894232Y-107416633D01*
X136893542Y-107410072D01*
X136834527Y-107228444D01*
X136739040Y-107063056D01*
X136715793Y-107037237D01*
X136615675Y-106926045D01*
X136615674Y-106926044D01*
X136611253Y-106921134D01*
X136480375Y-106826045D01*
X136462094Y-106812763D01*
X136462093Y-106812762D01*
X136456752Y-106808882D01*
X136450724Y-106806198D01*
X136450722Y-106806197D01*
X136288319Y-106733891D01*
X136288318Y-106733891D01*
X136282288Y-106731206D01*
X136181605Y-106709805D01*
X136101944Y-106692872D01*
X136101939Y-106692872D01*
X136095487Y-106691500D01*
X135904513Y-106691500D01*
X135898061Y-106692872D01*
X135898056Y-106692872D01*
X135818395Y-106709805D01*
X135717712Y-106731206D01*
X135711682Y-106733891D01*
X135711681Y-106733891D01*
X135549278Y-106806197D01*
X135549276Y-106806198D01*
X135543248Y-106808882D01*
X135537907Y-106812762D01*
X135537906Y-106812763D01*
X135519625Y-106826045D01*
X135388747Y-106921134D01*
X135384326Y-106926044D01*
X135384325Y-106926045D01*
X135284208Y-107037237D01*
X135260960Y-107063056D01*
X135165473Y-107228444D01*
X135106458Y-107410072D01*
X135105768Y-107416633D01*
X135105768Y-107416635D01*
X135088817Y-107577919D01*
X135086496Y-107600000D01*
X125281260Y-107600000D01*
X125192970Y-107511710D01*
X125158944Y-107449398D01*
X125156755Y-107435786D01*
X125154053Y-107410072D01*
X125143542Y-107310072D01*
X125084527Y-107128444D01*
X125077406Y-107116109D01*
X125046775Y-107063056D01*
X124989040Y-106963056D01*
X124961752Y-106932749D01*
X124865675Y-106826045D01*
X124865674Y-106826044D01*
X124861253Y-106821134D01*
X124706752Y-106708882D01*
X124700724Y-106706198D01*
X124700722Y-106706197D01*
X124629214Y-106674360D01*
X124575118Y-106628380D01*
X124554469Y-106560453D01*
X124573821Y-106492145D01*
X124627032Y-106445143D01*
X124680463Y-106433253D01*
X124845487Y-106433253D01*
X124851939Y-106431881D01*
X124851944Y-106431881D01*
X124938888Y-106413400D01*
X125032288Y-106393547D01*
X125084803Y-106370166D01*
X125200722Y-106318556D01*
X125200724Y-106318555D01*
X125206752Y-106315871D01*
X125240822Y-106291118D01*
X125335853Y-106222073D01*
X125361253Y-106203619D01*
X125379591Y-106183253D01*
X125484621Y-106066605D01*
X125484622Y-106066604D01*
X125489040Y-106061697D01*
X125566015Y-105928373D01*
X125581223Y-105902032D01*
X125581224Y-105902031D01*
X125584527Y-105896309D01*
X125643542Y-105714681D01*
X125646834Y-105683365D01*
X125662814Y-105531318D01*
X125663504Y-105524753D01*
X125657577Y-105468363D01*
X125644232Y-105341388D01*
X125644232Y-105341386D01*
X125643542Y-105334825D01*
X125591583Y-105174913D01*
X147095097Y-105174913D01*
X147108373Y-105377471D01*
X147109794Y-105383067D01*
X147109795Y-105383072D01*
X147137824Y-105493435D01*
X147158341Y-105574218D01*
X147160758Y-105579461D01*
X147197959Y-105660157D01*
X147243326Y-105758565D01*
X147246659Y-105763281D01*
X147328048Y-105878444D01*
X147360482Y-105924338D01*
X147505887Y-106065984D01*
X147674669Y-106178761D01*
X147679972Y-106181039D01*
X147679975Y-106181041D01*
X147855763Y-106256565D01*
X147861177Y-106258891D01*
X147934193Y-106275413D01*
X148053528Y-106302416D01*
X148053533Y-106302417D01*
X148059165Y-106303691D01*
X148064936Y-106303918D01*
X148064938Y-106303918D01*
X148124705Y-106306266D01*
X148262002Y-106311661D01*
X148362448Y-106297097D01*
X148457180Y-106283362D01*
X148457185Y-106283361D01*
X148462894Y-106282533D01*
X148468358Y-106280678D01*
X148468363Y-106280677D01*
X148649642Y-106219141D01*
X148649647Y-106219139D01*
X148655114Y-106217283D01*
X148672580Y-106207502D01*
X148760668Y-106158170D01*
X148832225Y-106118096D01*
X148894883Y-106065984D01*
X148983862Y-105991980D01*
X148988294Y-105988294D01*
X149118096Y-105832225D01*
X149217283Y-105655114D01*
X149219139Y-105649647D01*
X149219141Y-105649642D01*
X149280677Y-105468363D01*
X149280678Y-105468358D01*
X149282533Y-105462894D01*
X149283361Y-105457185D01*
X149283362Y-105457180D01*
X149302012Y-105328547D01*
X149311661Y-105262002D01*
X149313181Y-105203949D01*
X150439451Y-105203949D01*
X150440724Y-105212838D01*
X150458194Y-105334825D01*
X150460100Y-105348135D01*
X150520387Y-105480731D01*
X150525334Y-105486884D01*
X150525336Y-105486887D01*
X150541158Y-105506565D01*
X150559580Y-105529477D01*
X151470523Y-106440420D01*
X151487259Y-106453876D01*
X151513113Y-106474664D01*
X151513116Y-106474666D01*
X151519269Y-106479613D01*
X151651865Y-106539900D01*
X151660748Y-106541172D01*
X151660751Y-106541173D01*
X151787162Y-106559276D01*
X151796051Y-106560549D01*
X151804940Y-106559276D01*
X151931351Y-106541173D01*
X151931354Y-106541172D01*
X151940237Y-106539900D01*
X152072833Y-106479613D01*
X152078986Y-106474666D01*
X152078989Y-106474664D01*
X152104843Y-106453876D01*
X152121579Y-106440420D01*
X153032522Y-105529477D01*
X153050944Y-105506565D01*
X153066766Y-105486887D01*
X153066768Y-105486884D01*
X153071715Y-105480731D01*
X153132002Y-105348135D01*
X153133909Y-105334825D01*
X153151378Y-105212838D01*
X153152651Y-105203949D01*
X153151378Y-105195060D01*
X153133275Y-105068649D01*
X153133274Y-105068646D01*
X153132002Y-105059763D01*
X153071715Y-104927167D01*
X153066768Y-104921014D01*
X153066766Y-104921011D01*
X153034662Y-104881083D01*
X153032522Y-104878421D01*
X152121579Y-103967478D01*
X152104843Y-103954022D01*
X152078989Y-103933234D01*
X152078986Y-103933232D01*
X152072833Y-103928285D01*
X151940237Y-103867998D01*
X151931354Y-103866726D01*
X151931351Y-103866725D01*
X151804940Y-103848622D01*
X151796051Y-103847349D01*
X151787162Y-103848622D01*
X151660751Y-103866725D01*
X151660748Y-103866726D01*
X151651865Y-103867998D01*
X151519269Y-103928285D01*
X151513116Y-103933232D01*
X151513113Y-103933234D01*
X151487259Y-103954022D01*
X151470523Y-103967478D01*
X150559580Y-104878421D01*
X150557440Y-104881083D01*
X150525336Y-104921011D01*
X150525334Y-104921014D01*
X150520387Y-104927167D01*
X150460100Y-105059763D01*
X150458828Y-105068646D01*
X150458827Y-105068649D01*
X150440724Y-105195060D01*
X150439451Y-105203949D01*
X149313181Y-105203949D01*
X149294607Y-105001808D01*
X149293039Y-104996248D01*
X149241074Y-104811995D01*
X149241073Y-104811993D01*
X149239506Y-104806436D01*
X149233113Y-104793471D01*
X149152280Y-104629558D01*
X149149725Y-104624377D01*
X149028269Y-104461728D01*
X148879207Y-104323936D01*
X148874324Y-104320855D01*
X148874320Y-104320852D01*
X148712413Y-104218697D01*
X148707530Y-104215616D01*
X148518988Y-104140395D01*
X148513328Y-104139269D01*
X148513324Y-104139268D01*
X148325562Y-104101920D01*
X148325559Y-104101920D01*
X148319895Y-104100793D01*
X148314120Y-104100717D01*
X148314116Y-104100717D01*
X148212742Y-104099390D01*
X148116920Y-104098136D01*
X148111223Y-104099115D01*
X148111222Y-104099115D01*
X147922556Y-104131534D01*
X147916859Y-104132513D01*
X147726412Y-104202773D01*
X147551959Y-104306561D01*
X147547619Y-104310367D01*
X147547615Y-104310370D01*
X147412767Y-104428630D01*
X147399341Y-104440404D01*
X147273669Y-104599818D01*
X147270980Y-104604929D01*
X147270978Y-104604932D01*
X147242719Y-104658644D01*
X147179152Y-104779464D01*
X147118956Y-104973327D01*
X147095097Y-105174913D01*
X125591583Y-105174913D01*
X125584527Y-105153197D01*
X125580601Y-105146396D01*
X125492341Y-104993527D01*
X125489040Y-104987809D01*
X125476001Y-104973327D01*
X125365675Y-104850798D01*
X125365674Y-104850797D01*
X125361253Y-104845887D01*
X125206752Y-104733635D01*
X125200724Y-104730951D01*
X125200722Y-104730950D01*
X125038319Y-104658644D01*
X125038318Y-104658644D01*
X125032288Y-104655959D01*
X124928467Y-104633891D01*
X124851944Y-104617625D01*
X124851939Y-104617625D01*
X124845487Y-104616253D01*
X124654513Y-104616253D01*
X124648061Y-104617625D01*
X124648056Y-104617625D01*
X124571533Y-104633891D01*
X124467712Y-104655959D01*
X124461682Y-104658644D01*
X124461681Y-104658644D01*
X124299278Y-104730950D01*
X124299276Y-104730951D01*
X124293248Y-104733635D01*
X124287907Y-104737515D01*
X124287906Y-104737516D01*
X124230170Y-104779464D01*
X124144092Y-104842004D01*
X124143837Y-104842189D01*
X124076969Y-104866047D01*
X124069776Y-104866253D01*
X120707977Y-104866253D01*
X120639856Y-104846251D01*
X120620884Y-104830124D01*
X120620580Y-104830461D01*
X120615672Y-104826041D01*
X120611253Y-104821134D01*
X120598675Y-104811995D01*
X120462094Y-104712763D01*
X120462093Y-104712762D01*
X120456752Y-104708882D01*
X120450724Y-104706198D01*
X120450722Y-104706197D01*
X120288319Y-104633891D01*
X120288318Y-104633891D01*
X120282288Y-104631206D01*
X120188888Y-104611353D01*
X120101944Y-104592872D01*
X120101939Y-104592872D01*
X120095487Y-104591500D01*
X119904513Y-104591500D01*
X119898061Y-104592872D01*
X119898056Y-104592872D01*
X119811112Y-104611353D01*
X119717712Y-104631206D01*
X119711682Y-104633891D01*
X119711681Y-104633891D01*
X119549278Y-104706197D01*
X119549276Y-104706198D01*
X119543248Y-104708882D01*
X119537907Y-104712762D01*
X119537906Y-104712763D01*
X119495580Y-104743515D01*
X119388747Y-104821134D01*
X119384326Y-104826044D01*
X119384325Y-104826045D01*
X119268395Y-104954799D01*
X119260960Y-104963056D01*
X119165473Y-105128444D01*
X119106458Y-105310072D01*
X119105768Y-105316633D01*
X119105768Y-105316635D01*
X119090818Y-105458882D01*
X119086496Y-105500000D01*
X109763346Y-105500000D01*
X109745845Y-105487285D01*
X109712094Y-105462763D01*
X109712093Y-105462762D01*
X109706752Y-105458882D01*
X109700724Y-105456198D01*
X109700722Y-105456197D01*
X109538319Y-105383891D01*
X109538318Y-105383891D01*
X109532288Y-105381206D01*
X109438888Y-105361353D01*
X109351944Y-105342872D01*
X109351939Y-105342872D01*
X109345487Y-105341500D01*
X109154513Y-105341500D01*
X109148061Y-105342872D01*
X109148056Y-105342872D01*
X109061112Y-105361353D01*
X108967712Y-105381206D01*
X108961682Y-105383891D01*
X108961681Y-105383891D01*
X108799278Y-105456197D01*
X108799276Y-105456198D01*
X108793248Y-105458882D01*
X108787907Y-105462762D01*
X108787906Y-105462763D01*
X108754155Y-105487285D01*
X108638747Y-105571134D01*
X108634326Y-105576044D01*
X108634325Y-105576045D01*
X108531785Y-105689928D01*
X108510960Y-105713056D01*
X108415473Y-105878444D01*
X108356458Y-106060072D01*
X108355768Y-106066633D01*
X108355768Y-106066635D01*
X108344321Y-106175551D01*
X108336496Y-106250000D01*
X107405023Y-106250000D01*
X107447588Y-106153033D01*
X107455298Y-106120921D01*
X107498722Y-105940046D01*
X107498722Y-105940045D01*
X107500032Y-105934589D01*
X107512963Y-105710310D01*
X107485975Y-105487285D01*
X107419918Y-105272565D01*
X107416363Y-105265676D01*
X107319454Y-105077919D01*
X107319454Y-105077918D01*
X107316882Y-105072936D01*
X107180123Y-104894708D01*
X107013964Y-104743515D01*
X107009217Y-104740537D01*
X107009214Y-104740535D01*
X106828405Y-104627115D01*
X106823656Y-104624136D01*
X106801761Y-104615334D01*
X106746018Y-104571370D01*
X106722892Y-104504245D01*
X106739728Y-104435274D01*
X106794513Y-104384703D01*
X106888151Y-104340039D01*
X106888152Y-104340038D01*
X106893218Y-104337622D01*
X107075654Y-104206529D01*
X107173760Y-104105292D01*
X107228089Y-104049229D01*
X107228091Y-104049226D01*
X107231992Y-104045201D01*
X107357290Y-103858738D01*
X107447588Y-103653033D01*
X107500032Y-103434589D01*
X107512963Y-103210310D01*
X107485975Y-102987285D01*
X107419918Y-102772565D01*
X107354798Y-102646396D01*
X107319454Y-102577919D01*
X107319454Y-102577918D01*
X107316882Y-102572936D01*
X107180123Y-102394708D01*
X107013964Y-102243515D01*
X107009217Y-102240537D01*
X107009214Y-102240535D01*
X106828405Y-102127115D01*
X106823656Y-102124136D01*
X106615217Y-102040344D01*
X106395233Y-101994787D01*
X106390622Y-101994521D01*
X106390621Y-101994521D01*
X106340048Y-101991605D01*
X106340044Y-101991605D01*
X106338225Y-101991500D01*
X106193001Y-101991500D01*
X106190214Y-101991749D01*
X106190208Y-101991749D01*
X106120071Y-101998009D01*
X106026238Y-102006383D01*
X106020824Y-102007864D01*
X106020819Y-102007865D01*
X105906262Y-102039205D01*
X105809549Y-102065663D01*
X105804491Y-102068075D01*
X105804487Y-102068077D01*
X105708166Y-102114020D01*
X105606782Y-102162378D01*
X105424346Y-102293471D01*
X105268008Y-102454799D01*
X105142710Y-102641262D01*
X105052412Y-102846967D01*
X104999968Y-103065411D01*
X104987037Y-103289690D01*
X105014025Y-103512715D01*
X105080082Y-103727435D01*
X105082652Y-103732415D01*
X105082654Y-103732419D01*
X105147852Y-103858738D01*
X105183118Y-103927064D01*
X105319877Y-104105292D01*
X105486036Y-104256485D01*
X105490783Y-104259463D01*
X105490786Y-104259465D01*
X105671595Y-104372885D01*
X105676344Y-104375864D01*
X105698239Y-104384666D01*
X105753982Y-104428630D01*
X105777108Y-104495755D01*
X105760272Y-104564726D01*
X105705487Y-104615297D01*
X105614610Y-104658644D01*
X105606782Y-104662378D01*
X105424346Y-104793471D01*
X105420439Y-104797503D01*
X105287820Y-104934355D01*
X105268008Y-104954799D01*
X105142710Y-105141262D01*
X105052412Y-105346967D01*
X105051103Y-105352418D01*
X105051102Y-105352422D01*
X105020298Y-105480731D01*
X104999968Y-105565411D01*
X104999645Y-105571016D01*
X104988560Y-105763281D01*
X104987037Y-105789690D01*
X105014025Y-106012715D01*
X105080082Y-106227435D01*
X105082652Y-106232415D01*
X105082654Y-106232419D01*
X105166527Y-106394919D01*
X105183118Y-106427064D01*
X105319877Y-106605292D01*
X105486036Y-106756485D01*
X105490783Y-106759463D01*
X105490786Y-106759465D01*
X105671595Y-106872885D01*
X105676344Y-106875864D01*
X105698239Y-106884666D01*
X105753982Y-106928630D01*
X105777108Y-106995755D01*
X105760272Y-107064726D01*
X105705487Y-107115297D01*
X105614912Y-107158500D01*
X105606782Y-107162378D01*
X105424346Y-107293471D01*
X105401898Y-107316636D01*
X105304992Y-107416635D01*
X105268008Y-107454799D01*
X105142710Y-107641262D01*
X105052412Y-107846967D01*
X105051103Y-107852418D01*
X105051102Y-107852422D01*
X105001278Y-108059954D01*
X104999968Y-108065411D01*
X104987037Y-108289690D01*
X105014025Y-108512715D01*
X105080082Y-108727435D01*
X105082652Y-108732415D01*
X105082654Y-108732419D01*
X105167172Y-108896169D01*
X105183118Y-108927064D01*
X105319877Y-109105292D01*
X105486036Y-109256485D01*
X105490783Y-109259463D01*
X105490786Y-109259465D01*
X105659462Y-109365274D01*
X105676344Y-109375864D01*
X105698239Y-109384666D01*
X105753982Y-109428630D01*
X105777108Y-109495755D01*
X105760272Y-109564726D01*
X105705487Y-109615297D01*
X105615780Y-109658086D01*
X105606782Y-109662378D01*
X105424346Y-109793471D01*
X105386283Y-109832749D01*
X105281266Y-109941118D01*
X105268008Y-109954799D01*
X105142710Y-110141262D01*
X105052412Y-110346967D01*
X105051103Y-110352418D01*
X105051102Y-110352422D01*
X105020012Y-110481923D01*
X104999968Y-110565411D01*
X104999645Y-110571016D01*
X104988745Y-110760072D01*
X104987037Y-110789690D01*
X99508500Y-110789690D01*
X99508500Y-99053250D01*
X99510246Y-99032345D01*
X99512770Y-99017344D01*
X99512770Y-99017341D01*
X99513576Y-99012552D01*
X99513729Y-99000000D01*
X99513040Y-98995185D01*
X99513039Y-98995177D01*
X99511550Y-98984781D01*
X99510429Y-98960735D01*
X99510546Y-98958370D01*
X99525010Y-98663949D01*
X99526221Y-98651650D01*
X99532548Y-98609000D01*
X99574680Y-98324966D01*
X99577091Y-98312841D01*
X99657339Y-97992477D01*
X99660928Y-97980645D01*
X99772190Y-97669689D01*
X99776922Y-97658265D01*
X99884303Y-97431226D01*
X99918128Y-97359708D01*
X99923955Y-97348807D01*
X99939591Y-97322721D01*
X100031863Y-97168774D01*
X100093744Y-97065533D01*
X100100614Y-97055252D01*
X100141591Y-97000000D01*
X119686496Y-97000000D01*
X119687186Y-97006565D01*
X119704235Y-97168774D01*
X119706458Y-97189928D01*
X119765473Y-97371556D01*
X119860960Y-97536944D01*
X119988747Y-97678866D01*
X120143248Y-97791118D01*
X120149276Y-97793802D01*
X120149278Y-97793803D01*
X120265179Y-97845405D01*
X120317712Y-97868794D01*
X120386263Y-97883365D01*
X120498056Y-97907128D01*
X120498061Y-97907128D01*
X120504513Y-97908500D01*
X120695487Y-97908500D01*
X120701939Y-97907128D01*
X120701944Y-97907128D01*
X120813737Y-97883365D01*
X120882288Y-97868794D01*
X120934821Y-97845405D01*
X121050722Y-97793803D01*
X121050724Y-97793802D01*
X121056752Y-97791118D01*
X121211253Y-97678866D01*
X121339040Y-97536944D01*
X121434527Y-97371556D01*
X121493542Y-97189928D01*
X121495766Y-97168774D01*
X121512814Y-97006565D01*
X121513504Y-97000000D01*
X121504335Y-96912763D01*
X121494232Y-96816635D01*
X121494232Y-96816633D01*
X121493542Y-96810072D01*
X121434527Y-96628444D01*
X121339040Y-96463056D01*
X121211253Y-96321134D01*
X121080375Y-96226045D01*
X121062094Y-96212763D01*
X121062093Y-96212762D01*
X121056752Y-96208882D01*
X121050724Y-96206198D01*
X121050722Y-96206197D01*
X120888319Y-96133891D01*
X120888318Y-96133891D01*
X120882288Y-96131206D01*
X120788887Y-96111353D01*
X120701944Y-96092872D01*
X120701939Y-96092872D01*
X120695487Y-96091500D01*
X120504513Y-96091500D01*
X120498061Y-96092872D01*
X120498056Y-96092872D01*
X120411113Y-96111353D01*
X120317712Y-96131206D01*
X120311682Y-96133891D01*
X120311681Y-96133891D01*
X120149278Y-96206197D01*
X120149276Y-96206198D01*
X120143248Y-96208882D01*
X120137907Y-96212762D01*
X120137906Y-96212763D01*
X120119625Y-96226045D01*
X119988747Y-96321134D01*
X119860960Y-96463056D01*
X119765473Y-96628444D01*
X119706458Y-96810072D01*
X119705768Y-96816633D01*
X119705768Y-96816635D01*
X119695665Y-96912763D01*
X119686496Y-97000000D01*
X100141591Y-97000000D01*
X100164735Y-96968794D01*
X100297350Y-96789983D01*
X100305177Y-96780444D01*
X100526985Y-96535718D01*
X100535718Y-96526985D01*
X100780444Y-96305177D01*
X100789983Y-96297350D01*
X101038871Y-96112763D01*
X101055252Y-96100614D01*
X101065533Y-96093744D01*
X101297688Y-95954595D01*
X101348812Y-95923953D01*
X101359708Y-95918128D01*
X101590500Y-95808972D01*
X101658265Y-95776922D01*
X101669689Y-95772190D01*
X101980645Y-95660928D01*
X101992477Y-95657339D01*
X102292613Y-95582158D01*
X102312844Y-95577090D01*
X102324966Y-95574680D01*
X102651655Y-95526221D01*
X102663949Y-95525010D01*
X102957039Y-95510610D01*
X102982598Y-95511958D01*
X102993724Y-95513691D01*
X103025286Y-95509564D01*
X103041621Y-95508500D01*
X123074220Y-95508500D01*
X123142341Y-95528502D01*
G37*
%TD.AperFunction*%
%TA.AperFunction,Conductor*%
G36*
X126617012Y-109280983D02*
G01*
X126654332Y-109337269D01*
X126665473Y-109371556D01*
X126760960Y-109536944D01*
X126765378Y-109541851D01*
X126765379Y-109541852D01*
X126870409Y-109658500D01*
X126888747Y-109678866D01*
X126929628Y-109708568D01*
X127018508Y-109773143D01*
X127043248Y-109791118D01*
X127049276Y-109793802D01*
X127049278Y-109793803D01*
X127211681Y-109866109D01*
X127217712Y-109868794D01*
X127303101Y-109886944D01*
X127398056Y-109907128D01*
X127398061Y-109907128D01*
X127404513Y-109908500D01*
X127595487Y-109908500D01*
X127601939Y-109907128D01*
X127601944Y-109907128D01*
X127696899Y-109886944D01*
X127782288Y-109868794D01*
X127788319Y-109866109D01*
X127950722Y-109793803D01*
X127950724Y-109793802D01*
X127956752Y-109791118D01*
X127981493Y-109773143D01*
X128093379Y-109691852D01*
X128106163Y-109682564D01*
X128173031Y-109658706D01*
X128180224Y-109658500D01*
X129425050Y-109658500D01*
X129493171Y-109678502D01*
X129514145Y-109695405D01*
X129804595Y-109985855D01*
X129838621Y-110048167D01*
X129841500Y-110074950D01*
X129841500Y-113667944D01*
X129840941Y-113679800D01*
X129839212Y-113687537D01*
X129839461Y-113695460D01*
X129839966Y-113711544D01*
X129822112Y-113780259D01*
X129769943Y-113828414D01*
X129714028Y-113841500D01*
X127864980Y-113841500D01*
X127796859Y-113821498D01*
X127775885Y-113804595D01*
X126445405Y-112474115D01*
X126411379Y-112411803D01*
X126408500Y-112385020D01*
X126408500Y-109376207D01*
X126428502Y-109308086D01*
X126482158Y-109261593D01*
X126552432Y-109251489D01*
X126617012Y-109280983D01*
G37*
%TD.AperFunction*%
%TA.AperFunction,Conductor*%
G36*
X136751905Y-96678502D02*
G01*
X136798398Y-96732158D01*
X136808502Y-96802432D01*
X136807971Y-96805416D01*
X136806458Y-96810072D01*
X136799538Y-96875916D01*
X136788789Y-96978182D01*
X136761776Y-97043838D01*
X136703554Y-97084468D01*
X136663479Y-97091011D01*
X130836521Y-97091011D01*
X130768400Y-97071009D01*
X130721907Y-97017353D01*
X130711211Y-96978182D01*
X130700462Y-96875916D01*
X130693542Y-96810072D01*
X130693117Y-96808763D01*
X130698372Y-96739905D01*
X130741189Y-96683273D01*
X130807827Y-96658780D01*
X130816216Y-96658500D01*
X136683784Y-96658500D01*
X136751905Y-96678502D01*
G37*
%TD.AperFunction*%
%TD*%
M02*
