M48
; DRILL file {KiCad 6.0.6-3a73a75311~116~ubuntu20.04.1} date Tue 05 Jul 2022 10:29:39 CEST
; FORMAT={-:-/ absolute / inch / decimal}
; #@! TF.CreationDate,2022-07-05T10:29:39+02:00
; #@! TF.GenerationSoftware,Kicad,Pcbnew,6.0.6-3a73a75311~116~ubuntu20.04.1
; #@! TF.FileFunction,Plated,1,4,PTH
FMAT,2
INCH
; #@! TA.AperFunction,Plated,PTH,ViaDrill
T1C0.0157
; #@! TA.AperFunction,Plated,PTH,ComponentDrill
T2C0.0256
; #@! TA.AperFunction,Plated,PTH,ComponentDrill
T3C0.0394
; #@! TA.AperFunction,Plated,PTH,ComponentDrill
T4C0.1063
%
G90
G05
T1
X4.0157Y-4.0276
X4.0157Y-4.1024
X4.2736Y-4.5079
X4.3012Y-4.124
X4.3012Y-4.1831
X4.3406Y-4.0295
X4.437Y-4.3051
X4.4783Y-3.7894
X4.5768Y-4.2579
X4.5787Y-4.1083
X4.5787Y-4.1594
X4.5787Y-4.2087
X4.626Y-3.7894
X4.6378Y-4.376
X4.6496Y-4.4311
X4.6811Y-4.5512
X4.6909Y-4.1083
X4.6909Y-4.2087
X4.7087Y-4.2421
X4.7087Y-4.2972
X4.7244Y-4.1535
X4.7382Y-3.9429
X4.748Y-3.8189
X4.7874Y-4.3681
X4.8228Y-4.4646
X4.8819Y-3.7835
X4.8917Y-4.2323
X4.9016Y-4.0256
X4.9016Y-4.4587
X4.9114Y-4.1545
X4.9311Y-3.7835
X4.9843Y-4.4291
X5.0197Y-3.8465
X5.0197Y-4.2913
X5.0591Y-3.8465
X5.0815Y-3.9547
X5.1102Y-3.8189
X5.1673Y-4.1535
X5.1693Y-4.4646
X5.1969Y-4.0551
X5.2421Y-3.8189
X5.2559Y-4.4291
X5.2854Y-3.9469
X5.3425Y-4.4646
X5.3543Y-3.9803
X5.3543Y-4.2362
X5.3898Y-4.063
X5.3898Y-4.3189
X5.4173Y-3.8858
X5.4213Y-3.8189
X5.4331Y-4.252
X5.437Y-4.3189
X5.4567Y-4.3976
X5.5276Y-3.815
X5.5276Y-3.9449
X5.5709Y-4.5669
X5.6063Y-3.815
X5.6063Y-3.9449
X5.6063Y-4.0866
X5.6063Y-4.3976
X5.6299Y-4.1339
X5.6299Y-4.1732
X5.6299Y-4.2126
X5.6496Y-4.2559
X5.685Y-3.9449
X5.686Y-3.815
X5.7087Y-4.6024
X5.7638Y-3.815
X5.7705Y-3.9449
T2
X5.8348Y-4.1419
X5.8348Y-4.2833
X5.9762Y-4.1419
X5.9762Y-4.2833
T3
X4.878Y-4.5669
X4.978Y-4.5669
X5.078Y-4.5669
X5.178Y-4.5669
X5.278Y-4.5669
X5.378Y-4.5669
T4
X4.0551Y-3.8976
X4.0551Y-4.5276
X6.0236Y-3.8976
X6.0236Y-4.5276
T0
M30
