%TF.GenerationSoftware,KiCad,Pcbnew,6.0.6-3a73a75311~116~ubuntu20.04.1*%
%TF.CreationDate,2022-07-05T10:29:56+02:00*%
%TF.ProjectId,Temperature_Tire_Sensor,54656d70-6572-4617-9475-72655f546972,rev?*%
%TF.SameCoordinates,Original*%
%TF.FileFunction,Paste,Top*%
%TF.FilePolarity,Positive*%
%FSLAX46Y46*%
G04 Gerber Fmt 4.6, Leading zero omitted, Abs format (unit mm)*
G04 Created by KiCad (PCBNEW 6.0.6-3a73a75311~116~ubuntu20.04.1) date 2022-07-05 10:29:56*
%MOMM*%
%LPD*%
G01*
G04 APERTURE LIST*
G04 Aperture macros list*
%AMRoundRect*
0 Rectangle with rounded corners*
0 $1 Rounding radius*
0 $2 $3 $4 $5 $6 $7 $8 $9 X,Y pos of 4 corners*
0 Add a 4 corners polygon primitive as box body*
4,1,4,$2,$3,$4,$5,$6,$7,$8,$9,$2,$3,0*
0 Add four circle primitives for the rounded corners*
1,1,$1+$1,$2,$3*
1,1,$1+$1,$4,$5*
1,1,$1+$1,$6,$7*
1,1,$1+$1,$8,$9*
0 Add four rect primitives between the rounded corners*
20,1,$1+$1,$2,$3,$4,$5,0*
20,1,$1+$1,$4,$5,$6,$7,0*
20,1,$1+$1,$6,$7,$8,$9,0*
20,1,$1+$1,$8,$9,$2,$3,0*%
G04 Aperture macros list end*
%ADD10RoundRect,0.225000X0.250000X-0.225000X0.250000X0.225000X-0.250000X0.225000X-0.250000X-0.225000X0*%
%ADD11RoundRect,0.150000X-0.825000X-0.150000X0.825000X-0.150000X0.825000X0.150000X-0.825000X0.150000X0*%
%ADD12RoundRect,0.225000X0.225000X0.250000X-0.225000X0.250000X-0.225000X-0.250000X0.225000X-0.250000X0*%
%ADD13RoundRect,0.225000X-0.225000X-0.250000X0.225000X-0.250000X0.225000X0.250000X-0.225000X0.250000X0*%
%ADD14RoundRect,0.075000X0.700000X0.075000X-0.700000X0.075000X-0.700000X-0.075000X0.700000X-0.075000X0*%
%ADD15RoundRect,0.075000X0.075000X0.700000X-0.075000X0.700000X-0.075000X-0.700000X0.075000X-0.700000X0*%
%ADD16RoundRect,0.200000X0.200000X0.275000X-0.200000X0.275000X-0.200000X-0.275000X0.200000X-0.275000X0*%
%ADD17RoundRect,0.150000X-0.512500X-0.150000X0.512500X-0.150000X0.512500X0.150000X-0.512500X0.150000X0*%
%ADD18RoundRect,0.225000X-0.250000X0.225000X-0.250000X-0.225000X0.250000X-0.225000X0.250000X0.225000X0*%
%ADD19RoundRect,0.200000X0.275000X-0.200000X0.275000X0.200000X-0.275000X0.200000X-0.275000X-0.200000X0*%
%ADD20RoundRect,0.218750X0.256250X-0.218750X0.256250X0.218750X-0.256250X0.218750X-0.256250X-0.218750X0*%
%ADD21R,1.750000X1.200000*%
%ADD22RoundRect,0.218750X-0.256250X0.218750X-0.256250X-0.218750X0.256250X-0.218750X0.256250X0.218750X0*%
%ADD23RoundRect,0.250000X0.750000X-0.250000X0.750000X0.250000X-0.750000X0.250000X-0.750000X-0.250000X0*%
%ADD24RoundRect,0.200000X-0.200000X-0.275000X0.200000X-0.275000X0.200000X0.275000X-0.200000X0.275000X0*%
%ADD25RoundRect,0.150000X0.825000X0.150000X-0.825000X0.150000X-0.825000X-0.150000X0.825000X-0.150000X0*%
%ADD26RoundRect,0.218750X0.218750X0.256250X-0.218750X0.256250X-0.218750X-0.256250X0.218750X-0.256250X0*%
%ADD27RoundRect,0.243750X0.456250X-0.243750X0.456250X0.243750X-0.456250X0.243750X-0.456250X-0.243750X0*%
%ADD28R,0.800000X0.900000*%
%ADD29R,1.150000X1.400000*%
G04 APERTURE END LIST*
D10*
%TO.C,C13*%
X110250000Y-106275000D03*
X110250000Y-104725000D03*
%TD*%
D11*
%TO.C,U2*%
X112775000Y-104345000D03*
X112775000Y-105615000D03*
X112775000Y-106885000D03*
X112775000Y-108155000D03*
X117725000Y-108155000D03*
X117725000Y-106885000D03*
X117725000Y-105615000D03*
X117725000Y-104345000D03*
%TD*%
D12*
%TO.C,C1*%
X120525000Y-112522000D03*
X118975000Y-112522000D03*
%TD*%
D13*
%TO.C,C6*%
X130725000Y-97000000D03*
X132275000Y-97000000D03*
%TD*%
D14*
%TO.C,U1*%
X133925000Y-108500000D03*
X133925000Y-108000000D03*
X133925000Y-107500000D03*
X133925000Y-107000000D03*
X133925000Y-106500000D03*
X133925000Y-106000000D03*
X133925000Y-105500000D03*
X133925000Y-105000000D03*
X133925000Y-104500000D03*
X133925000Y-104000000D03*
X133925000Y-103500000D03*
X133925000Y-103000000D03*
X133925000Y-102500000D03*
X133925000Y-102000000D03*
X133925000Y-101500000D03*
X133925000Y-101000000D03*
D15*
X132000000Y-99075000D03*
X131500000Y-99075000D03*
X131000000Y-99075000D03*
X130500000Y-99075000D03*
X130000000Y-99075000D03*
X129500000Y-99075000D03*
X129000000Y-99075000D03*
X128500000Y-99075000D03*
X128000000Y-99075000D03*
X127500000Y-99075000D03*
X127000000Y-99075000D03*
X126500000Y-99075000D03*
X126000000Y-99075000D03*
X125500000Y-99075000D03*
X125000000Y-99075000D03*
X124500000Y-99075000D03*
D14*
X122575000Y-101000000D03*
X122575000Y-101500000D03*
X122575000Y-102000000D03*
X122575000Y-102500000D03*
X122575000Y-103000000D03*
X122575000Y-103500000D03*
X122575000Y-104000000D03*
X122575000Y-104500000D03*
X122575000Y-105000000D03*
X122575000Y-105500000D03*
X122575000Y-106000000D03*
X122575000Y-106500000D03*
X122575000Y-107000000D03*
X122575000Y-107500000D03*
X122575000Y-108000000D03*
X122575000Y-108500000D03*
D15*
X124500000Y-110425000D03*
X125000000Y-110425000D03*
X125500000Y-110425000D03*
X126000000Y-110425000D03*
X126500000Y-110425000D03*
X127000000Y-110425000D03*
X127500000Y-110425000D03*
X128000000Y-110425000D03*
X128500000Y-110425000D03*
X129000000Y-110425000D03*
X129500000Y-110425000D03*
X130000000Y-110425000D03*
X130500000Y-110425000D03*
X131000000Y-110425000D03*
X131500000Y-110425000D03*
X132000000Y-110425000D03*
%TD*%
D16*
%TO.C,R5*%
X136825000Y-99250000D03*
X135175000Y-99250000D03*
%TD*%
D17*
%TO.C,U3*%
X140362500Y-115050000D03*
X140362500Y-116000000D03*
X140362500Y-116950000D03*
X142637500Y-116950000D03*
X142637500Y-115050000D03*
%TD*%
D18*
%TO.C,C3*%
X136000000Y-108475000D03*
X136000000Y-110025000D03*
%TD*%
D19*
%TO.C,R8*%
X139500000Y-101825000D03*
X139500000Y-100175000D03*
%TD*%
D10*
%TO.C,C14*%
X143500000Y-110525000D03*
X143500000Y-108975000D03*
%TD*%
D20*
%TO.C,D3*%
X141500000Y-101787500D03*
X141500000Y-100212500D03*
%TD*%
D21*
%TO.C,SW1*%
X109875000Y-114500000D03*
X116125000Y-114500000D03*
%TD*%
D12*
%TO.C,C5*%
X141025000Y-109750000D03*
X139475000Y-109750000D03*
%TD*%
D20*
%TO.C,D1*%
X143500000Y-98537500D03*
X143500000Y-96962500D03*
%TD*%
D22*
%TO.C,FB4*%
X121500000Y-97212500D03*
X121500000Y-98787500D03*
%TD*%
D13*
%TO.C,C7*%
X139475000Y-103750000D03*
X141025000Y-103750000D03*
%TD*%
D23*
%TO.C,J2*%
X102000000Y-110750000D03*
X102000000Y-108250000D03*
X102000000Y-105750000D03*
X102000000Y-103250000D03*
%TD*%
D24*
%TO.C,R12*%
X116175000Y-110250000D03*
X117825000Y-110250000D03*
%TD*%
%TO.C,R7*%
X109425000Y-97500000D03*
X111075000Y-97500000D03*
%TD*%
D12*
%TO.C,C10*%
X132525000Y-112500000D03*
X130975000Y-112500000D03*
%TD*%
D13*
%TO.C,C2*%
X134475000Y-112500000D03*
X136025000Y-112500000D03*
%TD*%
D25*
%TO.C,U4*%
X118975000Y-101405000D03*
X118975000Y-100135000D03*
X118975000Y-98865000D03*
X118975000Y-97595000D03*
X114025000Y-97595000D03*
X114025000Y-98865000D03*
X114025000Y-100135000D03*
X114025000Y-101405000D03*
%TD*%
D16*
%TO.C,R10*%
X120575000Y-116500000D03*
X118925000Y-116500000D03*
%TD*%
D10*
%TO.C,C9*%
X120500000Y-109275000D03*
X120500000Y-107725000D03*
%TD*%
D20*
%TO.C,D4*%
X145500000Y-101787500D03*
X145500000Y-100212500D03*
%TD*%
D16*
%TO.C,R6*%
X136825000Y-97000000D03*
X135175000Y-97000000D03*
%TD*%
D26*
%TO.C,D6*%
X114287500Y-110250000D03*
X112712500Y-110250000D03*
%TD*%
D24*
%TO.C,R3*%
X118925000Y-114500000D03*
X120575000Y-114500000D03*
%TD*%
D16*
%TO.C,R1*%
X129075000Y-112500000D03*
X127425000Y-112500000D03*
%TD*%
D20*
%TO.C,D5*%
X139500000Y-98537500D03*
X139500000Y-96962500D03*
%TD*%
D27*
%TO.C,F1*%
X109750000Y-110187500D03*
X109750000Y-108312500D03*
%TD*%
D24*
%TO.C,R4*%
X135925000Y-105500000D03*
X137575000Y-105500000D03*
%TD*%
D28*
%TO.C,D2*%
X111200000Y-99000000D03*
X109300000Y-99000000D03*
X110250000Y-101000000D03*
%TD*%
D18*
%TO.C,C12*%
X145000000Y-114475000D03*
X145000000Y-116025000D03*
%TD*%
D19*
%TO.C,R2*%
X145500000Y-98575000D03*
X145500000Y-96925000D03*
%TD*%
D22*
%TO.C,FB2*%
X139500000Y-111712500D03*
X139500000Y-113287500D03*
%TD*%
D13*
%TO.C,C8*%
X123725000Y-97000000D03*
X125275000Y-97000000D03*
%TD*%
D18*
%TO.C,C4*%
X136002000Y-101975000D03*
X136002000Y-103525000D03*
%TD*%
D29*
%TO.C,Y1*%
X141050000Y-107850000D03*
X141050000Y-105650000D03*
X139450000Y-105650000D03*
X139450000Y-107850000D03*
%TD*%
D19*
%TO.C,R9*%
X143500000Y-101825000D03*
X143500000Y-100175000D03*
%TD*%
D10*
%TO.C,C11*%
X141500000Y-113275000D03*
X141500000Y-111725000D03*
%TD*%
D20*
%TO.C,FB1*%
X122500000Y-112537500D03*
X122500000Y-110962500D03*
%TD*%
D19*
%TO.C,R11*%
X141500000Y-98575000D03*
X141500000Y-96925000D03*
%TD*%
D26*
%TO.C,FB3*%
X145037500Y-112500000D03*
X143462500Y-112500000D03*
%TD*%
M02*
