  0
SECTION
  2
HEADER
  9
$ANGBASE
  50
0.0
  9
$ANGDIR
  70
1
  9
$MEASUREMENT
  70
1
  0
ENDSEC
  0
SECTION
  2
TABLES
  0
TABLE
  2
LTYPE
  70
4
  0
LTYPE
  5
40F
  2
CONTINUOUS
  70
0
  3
Solid line
  72
65
  73
0
  40
0.0
  0
LTYPE
  5
410
  2
DASHDOT
 70
0
  3
Dash Dot ____ _ ____ _
 72
65
 73
4
 40
2.0
 49
1.25
 49
-0.25
 49
0.25
 49
-0.25
  0
LTYPE
  5
411
  2
DASHED
 70
0
  3
Dashed __ __ __ __ __
 72
65
 73
2
 40
0.75
 49
0.5
 49
-0.25
  0
LTYPE
  5
43B
  2
DOTTED
 70
0
  3
Dotted .  .  .  .
 72
65
 73
2
 40
0.2
 49
0.0
 49
-0.2
  0
ENDTAB
  0
TABLE
  2
STYLE
  70
4
  0
STYLE
  2
KICAD
  70
0
  40
0
  41
1
  42
1
  50
0
  71
0
  3
isocp.shx
  0
STYLE
  2
KICADB
  70
0
  40
0
  41
1
  42
1
  50
0
  71
0
  3
isocp.shx
  0
STYLE
  2
KICADI
  70
0
  40
0
  41
1
  42
1
  50
15
  71
0
  3
isocp.shx
  0
STYLE
  2
KICADBI
  70
0
  40
0
  41
1
  42
1
  50
15
  71
0
  3
isocp.shx
  0
ENDTAB
  0
TABLE
  2
LAYER
  70
1
  0
LAYER
  2
BLACK
  70
0
  62
7
  6
CONTINUOUS
  0
ENDTAB
  0
ENDSEC
  0
SECTION
  2
ENTITIES
0
LINE
8
BLACK
6
CONTINUOUS
10
102.626
20
-119.033
11
102.256
21
-118.981
0
LINE
8
BLACK
6
CONTINUOUS
10
102.256
20
-118.981
11
101.892
21
-118.895
0
LINE
8
BLACK
6
CONTINUOUS
10
101.892
20
-118.895
11
101.537
21
-118.777
0
LINE
8
BLACK
6
CONTINUOUS
10
101.537
20
-118.777
11
101.195
21
-118.625
0
LINE
8
BLACK
6
CONTINUOUS
10
101.195
20
-118.625
11
100.868
21
-118.443
0
LINE
8
BLACK
6
CONTINUOUS
10
100.868
20
-118.443
11
100.559
21
-118.232
0
LINE
8
BLACK
6
CONTINUOUS
10
100.559
20
-118.232
11
100.272
21
-117.993
0
LINE
8
BLACK
6
CONTINUOUS
10
100.272
20
-117.993
11
100.007
21
-117.728
0
LINE
8
BLACK
6
CONTINUOUS
10
100.007
20
-117.728
11
99.768
21
-117.441
0
LINE
8
BLACK
6
CONTINUOUS
10
99.768
20
-117.441
11
99.5566
21
-117.132
0
LINE
8
BLACK
6
CONTINUOUS
10
99.5566
20
-117.132
11
99.3746
21
-116.805
0
LINE
8
BLACK
6
CONTINUOUS
10
99.3746
20
-116.805
11
99.2235
21
-116.463
0
LINE
8
BLACK
6
CONTINUOUS
10
99.2235
20
-116.463
11
99.1046
21
-116.108
0
LINE
8
BLACK
6
CONTINUOUS
10
99.1046
20
-116.108
11
99.019
21
-115.744
0
LINE
8
BLACK
6
CONTINUOUS
10
99.019
20
-115.744
11
98.9673
21
-115.374
0
LINE
8
BLACK
6
CONTINUOUS
10
98.9673
20
-115.374
11
98.95
21
-115
0
LINE
8
BLACK
6
CONTINUOUS
10
98.95
20
-115
11
98.95
21
-99
0
LINE
8
BLACK
6
CONTINUOUS
10
98.95
20
-99
11
98.9673
21
-98.6263
0
LINE
8
BLACK
6
CONTINUOUS
10
98.9673
20
-98.6263
11
99.019
21
-98.2558
0
LINE
8
BLACK
6
CONTINUOUS
10
99.019
20
-98.2558
11
99.1046
21
-97.8917
0
LINE
8
BLACK
6
CONTINUOUS
10
99.1046
20
-97.8917
11
99.2235
21
-97.537
0
LINE
8
BLACK
6
CONTINUOUS
10
99.2235
20
-97.537
11
99.3746
21
-97.1948
0
LINE
8
BLACK
6
CONTINUOUS
10
99.3746
20
-97.1948
11
99.5566
21
-96.8679
0
LINE
8
BLACK
6
CONTINUOUS
10
99.5566
20
-96.8679
11
99.768
21
-96.5593
0
LINE
8
BLACK
6
CONTINUOUS
10
99.768
20
-96.5593
11
100.007
21
-96.2715
0
LINE
8
BLACK
6
CONTINUOUS
10
100.007
20
-96.2715
11
100.272
21
-96.007
0
LINE
8
BLACK
6
CONTINUOUS
10
100.272
20
-96.007
11
100.559
21
-95.768
0
LINE
8
BLACK
6
CONTINUOUS
10
100.559
20
-95.768
11
100.868
21
-95.5566
0
LINE
8
BLACK
6
CONTINUOUS
10
100.868
20
-95.5566
11
101.195
21
-95.3746
0
LINE
8
BLACK
6
CONTINUOUS
10
101.195
20
-95.3746
11
101.537
21
-95.2235
0
LINE
8
BLACK
6
CONTINUOUS
10
101.537
20
-95.2235
11
101.892
21
-95.1046
0
LINE
8
BLACK
6
CONTINUOUS
10
101.892
20
-95.1046
11
102.256
21
-95.019
0
LINE
8
BLACK
6
CONTINUOUS
10
102.256
20
-95.019
11
102.626
21
-94.9673
0
LINE
8
BLACK
6
CONTINUOUS
10
102.626
20
-94.9673
11
103
21
-94.95
0
LINE
8
BLACK
6
CONTINUOUS
10
103
20
-94.95
11
153
21
-94.95
0
LINE
8
BLACK
6
CONTINUOUS
10
153
20
-94.95
11
153.374
21
-94.9673
0
LINE
8
BLACK
6
CONTINUOUS
10
153.374
20
-94.9673
11
153.744
21
-95.019
0
LINE
8
BLACK
6
CONTINUOUS
10
153.744
20
-95.019
11
154.108
21
-95.1046
0
LINE
8
BLACK
6
CONTINUOUS
10
154.108
20
-95.1046
11
154.463
21
-95.2235
0
LINE
8
BLACK
6
CONTINUOUS
10
154.463
20
-95.2235
11
154.805
21
-95.3746
0
LINE
8
BLACK
6
CONTINUOUS
10
154.805
20
-95.3746
11
155.132
21
-95.5566
0
LINE
8
BLACK
6
CONTINUOUS
10
155.132
20
-95.5566
11
155.441
21
-95.768
0
LINE
8
BLACK
6
CONTINUOUS
10
155.441
20
-95.768
11
155.728
21
-96.007
0
LINE
8
BLACK
6
CONTINUOUS
10
155.728
20
-96.007
11
155.993
21
-96.2715
0
LINE
8
BLACK
6
CONTINUOUS
10
155.993
20
-96.2715
11
156.232
21
-96.5593
0
LINE
8
BLACK
6
CONTINUOUS
10
156.232
20
-96.5593
11
156.443
21
-96.8679
0
LINE
8
BLACK
6
CONTINUOUS
10
156.443
20
-96.8679
11
156.625
21
-97.1948
0
LINE
8
BLACK
6
CONTINUOUS
10
156.625
20
-97.1948
11
156.777
21
-97.537
0
LINE
8
BLACK
6
CONTINUOUS
10
156.777
20
-97.537
11
156.895
21
-97.8917
0
LINE
8
BLACK
6
CONTINUOUS
10
156.895
20
-97.8917
11
156.981
21
-98.2558
0
LINE
8
BLACK
6
CONTINUOUS
10
156.981
20
-98.2558
11
157.033
21
-98.6263
0
LINE
8
BLACK
6
CONTINUOUS
10
157.033
20
-98.6263
11
157.05
21
-99
0
LINE
8
BLACK
6
CONTINUOUS
10
157.05
20
-99
11
157.05
21
-115
0
LINE
8
BLACK
6
CONTINUOUS
10
157.05
20
-115
11
157.033
21
-115.374
0
LINE
8
BLACK
6
CONTINUOUS
10
157.033
20
-115.374
11
156.981
21
-115.744
0
LINE
8
BLACK
6
CONTINUOUS
10
156.981
20
-115.744
11
156.895
21
-116.108
0
LINE
8
BLACK
6
CONTINUOUS
10
156.895
20
-116.108
11
156.777
21
-116.463
0
LINE
8
BLACK
6
CONTINUOUS
10
156.777
20
-116.463
11
156.625
21
-116.805
0
LINE
8
BLACK
6
CONTINUOUS
10
156.625
20
-116.805
11
156.443
21
-117.132
0
LINE
8
BLACK
6
CONTINUOUS
10
156.443
20
-117.132
11
156.232
21
-117.441
0
LINE
8
BLACK
6
CONTINUOUS
10
156.232
20
-117.441
11
155.993
21
-117.728
0
LINE
8
BLACK
6
CONTINUOUS
10
155.993
20
-117.728
11
155.728
21
-117.993
0
LINE
8
BLACK
6
CONTINUOUS
10
155.728
20
-117.993
11
155.441
21
-118.232
0
LINE
8
BLACK
6
CONTINUOUS
10
155.441
20
-118.232
11
155.132
21
-118.443
0
LINE
8
BLACK
6
CONTINUOUS
10
155.132
20
-118.443
11
154.805
21
-118.625
0
LINE
8
BLACK
6
CONTINUOUS
10
154.805
20
-118.625
11
154.463
21
-118.777
0
LINE
8
BLACK
6
CONTINUOUS
10
154.463
20
-118.777
11
154.108
21
-118.895
0
LINE
8
BLACK
6
CONTINUOUS
10
154.108
20
-118.895
11
153.744
21
-118.981
0
LINE
8
BLACK
6
CONTINUOUS
10
153.744
20
-118.981
11
153.374
21
-119.033
0
LINE
8
BLACK
6
CONTINUOUS
10
153.374
20
-119.033
11
153
21
-119.05
0
LINE
8
BLACK
6
CONTINUOUS
10
153
20
-119.05
11
103
21
-119.05
0
LINE
8
BLACK
6
CONTINUOUS
10
103
20
-119.05
11
102.626
21
-119.033
0
LINE
8
BLACK
6
CONTINUOUS
10
102.991
20
-95.0462
11
102.635
21
-95.0626
0
LINE
8
BLACK
6
CONTINUOUS
10
102.635
20
-95.0626
11
102.273
21
-95.1131
0
LINE
8
BLACK
6
CONTINUOUS
10
102.273
20
-95.1131
11
101.918
21
-95.1967
0
LINE
8
BLACK
6
CONTINUOUS
10
101.918
20
-95.1967
11
101.572
21
-95.3128
0
LINE
8
BLACK
6
CONTINUOUS
10
101.572
20
-95.3128
11
101.237
21
-95.4603
0
LINE
8
BLACK
6
CONTINUOUS
10
101.237
20
-95.4603
11
100.918
21
-95.6381
0
LINE
8
BLACK
6
CONTINUOUS
10
100.918
20
-95.6381
11
100.617
21
-95.8445
0
LINE
8
BLACK
6
CONTINUOUS
10
100.617
20
-95.8445
11
100.336
21
-96.0778
0
LINE
8
BLACK
6
CONTINUOUS
10
100.336
20
-96.0778
11
100.078
21
-96.3361
0
LINE
8
BLACK
6
CONTINUOUS
10
100.078
20
-96.3361
11
99.8445
21
-96.6171
0
LINE
8
BLACK
6
CONTINUOUS
10
99.8445
20
-96.6171
11
99.6381
21
-96.9184
0
LINE
8
BLACK
6
CONTINUOUS
10
99.6381
20
-96.9184
11
99.4603
21
-97.2375
0
LINE
8
BLACK
6
CONTINUOUS
10
99.4603
20
-97.2375
11
99.3128
21
-97.5716
0
LINE
8
BLACK
6
CONTINUOUS
10
99.3128
20
-97.5716
11
99.1967
21
-97.9179
0
LINE
8
BLACK
6
CONTINUOUS
10
99.1967
20
-97.9179
11
99.1131
21
-98.2734
0
LINE
8
BLACK
6
CONTINUOUS
10
99.1131
20
-98.2734
11
99.0626
21
-98.6352
0
LINE
8
BLACK
6
CONTINUOUS
10
99.0626
20
-98.6352
11
99.0462
21
-98.9908
0
LINE
8
BLACK
6
CONTINUOUS
10
99.0462
20
-98.9908
11
99.05
21
-99
0
LINE
8
BLACK
6
CONTINUOUS
10
99.05
20
-99
11
99.05
21
-115
0
LINE
8
BLACK
6
CONTINUOUS
10
99.05
20
-115
11
99.0462
21
-115.009
0
LINE
8
BLACK
6
CONTINUOUS
10
99.0462
20
-115.009
11
99.0626
21
-115.365
0
LINE
8
BLACK
6
CONTINUOUS
10
99.0626
20
-115.365
11
99.1131
21
-115.727
0
LINE
8
BLACK
6
CONTINUOUS
10
99.1131
20
-115.727
11
99.1967
21
-116.082
0
LINE
8
BLACK
6
CONTINUOUS
10
99.1967
20
-116.082
11
99.3128
21
-116.428
0
LINE
8
BLACK
6
CONTINUOUS
10
99.3128
20
-116.428
11
99.4603
21
-116.763
0
LINE
8
BLACK
6
CONTINUOUS
10
99.4603
20
-116.763
11
99.6381
21
-117.082
0
LINE
8
BLACK
6
CONTINUOUS
10
99.6381
20
-117.082
11
99.8445
21
-117.383
0
LINE
8
BLACK
6
CONTINUOUS
10
99.8445
20
-117.383
11
100.078
21
-117.664
0
LINE
8
BLACK
6
CONTINUOUS
10
100.078
20
-117.664
11
100.336
21
-117.922
0
LINE
8
BLACK
6
CONTINUOUS
10
100.336
20
-117.922
11
100.617
21
-118.156
0
LINE
8
BLACK
6
CONTINUOUS
10
100.617
20
-118.156
11
100.918
21
-118.362
0
LINE
8
BLACK
6
CONTINUOUS
10
100.918
20
-118.362
11
101.237
21
-118.54
0
LINE
8
BLACK
6
CONTINUOUS
10
101.237
20
-118.54
11
101.572
21
-118.687
0
LINE
8
BLACK
6
CONTINUOUS
10
101.572
20
-118.687
11
101.918
21
-118.803
0
LINE
8
BLACK
6
CONTINUOUS
10
101.918
20
-118.803
11
102.273
21
-118.887
0
LINE
8
BLACK
6
CONTINUOUS
10
102.273
20
-118.887
11
102.635
21
-118.937
0
LINE
8
BLACK
6
CONTINUOUS
10
102.635
20
-118.937
11
102.991
21
-118.954
0
LINE
8
BLACK
6
CONTINUOUS
10
102.991
20
-118.954
11
103
21
-118.95
0
LINE
8
BLACK
6
CONTINUOUS
10
103
20
-118.95
11
153
21
-118.95
0
LINE
8
BLACK
6
CONTINUOUS
10
153
20
-118.95
11
153.009
21
-118.954
0
LINE
8
BLACK
6
CONTINUOUS
10
153.009
20
-118.954
11
153.365
21
-118.937
0
LINE
8
BLACK
6
CONTINUOUS
10
153.365
20
-118.937
11
153.727
21
-118.887
0
LINE
8
BLACK
6
CONTINUOUS
10
153.727
20
-118.887
11
154.082
21
-118.803
0
LINE
8
BLACK
6
CONTINUOUS
10
154.082
20
-118.803
11
154.428
21
-118.687
0
LINE
8
BLACK
6
CONTINUOUS
10
154.428
20
-118.687
11
154.763
21
-118.54
0
LINE
8
BLACK
6
CONTINUOUS
10
154.763
20
-118.54
11
155.082
21
-118.362
0
LINE
8
BLACK
6
CONTINUOUS
10
155.082
20
-118.362
11
155.383
21
-118.156
0
LINE
8
BLACK
6
CONTINUOUS
10
155.383
20
-118.156
11
155.664
21
-117.922
0
LINE
8
BLACK
6
CONTINUOUS
10
155.664
20
-117.922
11
155.922
21
-117.664
0
LINE
8
BLACK
6
CONTINUOUS
10
155.922
20
-117.664
11
156.156
21
-117.383
0
LINE
8
BLACK
6
CONTINUOUS
10
156.156
20
-117.383
11
156.362
21
-117.082
0
LINE
8
BLACK
6
CONTINUOUS
10
156.362
20
-117.082
11
156.54
21
-116.763
0
LINE
8
BLACK
6
CONTINUOUS
10
156.54
20
-116.763
11
156.687
21
-116.428
0
LINE
8
BLACK
6
CONTINUOUS
10
156.687
20
-116.428
11
156.803
21
-116.082
0
LINE
8
BLACK
6
CONTINUOUS
10
156.803
20
-116.082
11
156.887
21
-115.727
0
LINE
8
BLACK
6
CONTINUOUS
10
156.887
20
-115.727
11
156.937
21
-115.365
0
LINE
8
BLACK
6
CONTINUOUS
10
156.937
20
-115.365
11
156.954
21
-115.009
0
LINE
8
BLACK
6
CONTINUOUS
10
156.954
20
-115.009
11
156.95
21
-115
0
LINE
8
BLACK
6
CONTINUOUS
10
156.95
20
-115
11
156.95
21
-99
0
LINE
8
BLACK
6
CONTINUOUS
10
156.95
20
-99
11
156.954
21
-98.9908
0
LINE
8
BLACK
6
CONTINUOUS
10
156.954
20
-98.9908
11
156.937
21
-98.6352
0
LINE
8
BLACK
6
CONTINUOUS
10
156.937
20
-98.6352
11
156.887
21
-98.2734
0
LINE
8
BLACK
6
CONTINUOUS
10
156.887
20
-98.2734
11
156.803
21
-97.9179
0
LINE
8
BLACK
6
CONTINUOUS
10
156.803
20
-97.9179
11
156.687
21
-97.5716
0
LINE
8
BLACK
6
CONTINUOUS
10
156.687
20
-97.5716
11
156.54
21
-97.2375
0
LINE
8
BLACK
6
CONTINUOUS
10
156.54
20
-97.2375
11
156.362
21
-96.9184
0
LINE
8
BLACK
6
CONTINUOUS
10
156.362
20
-96.9184
11
156.156
21
-96.6171
0
LINE
8
BLACK
6
CONTINUOUS
10
156.156
20
-96.6171
11
155.922
21
-96.3361
0
LINE
8
BLACK
6
CONTINUOUS
10
155.922
20
-96.3361
11
155.664
21
-96.0778
0
LINE
8
BLACK
6
CONTINUOUS
10
155.664
20
-96.0778
11
155.383
21
-95.8445
0
LINE
8
BLACK
6
CONTINUOUS
10
155.383
20
-95.8445
11
155.082
21
-95.6381
0
LINE
8
BLACK
6
CONTINUOUS
10
155.082
20
-95.6381
11
154.763
21
-95.4603
0
LINE
8
BLACK
6
CONTINUOUS
10
154.763
20
-95.4603
11
154.428
21
-95.3128
0
LINE
8
BLACK
6
CONTINUOUS
10
154.428
20
-95.3128
11
154.082
21
-95.1967
0
LINE
8
BLACK
6
CONTINUOUS
10
154.082
20
-95.1967
11
153.727
21
-95.1131
0
LINE
8
BLACK
6
CONTINUOUS
10
153.727
20
-95.1131
11
153.365
21
-95.0626
0
LINE
8
BLACK
6
CONTINUOUS
10
153.365
20
-95.0626
11
153.009
21
-95.0462
0
LINE
8
BLACK
6
CONTINUOUS
10
153.009
20
-95.0462
11
153
21
-95.05
0
LINE
8
BLACK
6
CONTINUOUS
10
153
20
-95.05
11
103
21
-95.05
0
LINE
8
BLACK
6
CONTINUOUS
10
103
20
-95.05
11
102.991
21
-95.0462
  0
ENDSEC
  0
EOF
